<svg width="578" height="72" viewBox="0 0 578 72" fill="none" xmlns="http://www.w3.org/2000/svg">
<path d="M38.5551 72C31.4217 72 24.9884 70.4667 19.2551 67.4C13.5217 64.2667 9.02175 59.9667 5.75508 54.5C2.48841 48.9667 0.855078 42.8 0.855078 36C0.855078 29.2 2.48841 23.0667 5.75508 17.6C9.02175 12.0667 13.5217 7.76666 19.2551 4.7C24.9884 1.56666 31.4217 -3.8147e-06 38.5551 -3.8147e-06C45.6884 -3.8147e-06 52.1217 1.56666 57.8551 4.7C63.5884 7.76666 68.0884 12.0333 71.3551 17.5C74.6217 22.9667 76.2551 29.1333 76.2551 36C76.2551 42.8667 74.6217 49.0333 71.3551 54.5C68.0884 59.9667 63.5884 64.2667 57.8551 67.4C52.1217 70.4667 45.6884 72 38.5551 72ZM38.5551 60.6C43.2217 60.6 47.4217 59.5667 51.1551 57.5C54.8884 55.3667 57.8217 52.4333 59.9551 48.7C62.0884 44.9 63.1551 40.6667 63.1551 36C63.1551 31.3333 62.0884 27.1333 59.9551 23.4C57.8217 19.6 54.8884 16.6667 51.1551 14.6C47.4217 12.4667 43.2217 11.4 38.5551 11.4C33.8884 11.4 29.6884 12.4667 25.9551 14.6C22.2217 16.6667 19.2884 19.6 17.1551 23.4C15.0217 27.1333 13.9551 31.3333 13.9551 36C13.9551 40.6667 15.0217 44.9 17.1551 48.7C19.2884 52.4333 22.2217 55.3667 25.9551 57.5C29.6884 59.5667 33.8884 60.6 38.5551 60.6ZM126.135 72C116.468 72 108.935 69.3 103.535 63.9C98.1348 58.4333 95.4348 50.6333 95.4348 40.5V0.999995H108.435V40C108.435 53.7333 114.368 60.6 126.235 60.6C138.035 60.6 143.935 53.7333 143.935 40V0.999995H156.735V40.5C156.735 50.6333 154.035 58.4333 148.635 63.9C143.301 69.3 135.801 72 126.135 72ZM193.871 12H170.671V0.999995H230.071V12H206.871V71H193.871V12ZM266.844 72C261.444 72 256.211 71.2333 251.144 69.7C246.144 68.1667 242.177 66.1333 239.244 63.6L243.744 53.5C246.611 55.7667 250.111 57.6333 254.244 59.1C258.444 60.5 262.644 61.2 266.844 61.2C272.044 61.2 275.911 60.3667 278.444 58.7C281.044 57.0333 282.344 54.8333 282.344 52.1C282.344 50.1 281.611 48.4667 280.144 47.2C278.744 45.8667 276.944 44.8333 274.744 44.1C272.544 43.3667 269.544 42.5333 265.744 41.6C260.411 40.3333 256.077 39.0667 252.744 37.8C249.477 36.5333 246.644 34.5667 244.244 31.9C241.911 29.1667 240.744 25.5 240.744 20.9C240.744 17.0333 241.777 13.5333 243.844 10.4C245.977 7.2 249.144 4.66666 253.344 2.8C257.611 0.933329 262.811 -3.8147e-06 268.944 -3.8147e-06C273.211 -3.8147e-06 277.411 0.533331 281.544 1.6C285.677 2.66666 289.244 4.2 292.244 6.2L288.144 16.3C285.077 14.5 281.877 13.1333 278.544 12.2C275.211 11.2667 271.977 10.8 268.844 10.8C263.711 10.8 259.877 11.6667 257.344 13.4C254.877 15.1333 253.644 17.4333 253.644 20.3C253.644 22.3 254.344 23.9333 255.744 25.2C257.211 26.4667 259.044 27.4667 261.244 28.2C263.444 28.9333 266.444 29.7667 270.244 30.7C275.444 31.9 279.711 33.1667 283.044 34.5C286.377 35.7667 289.211 37.7333 291.544 40.4C293.944 43.0667 295.144 46.6667 295.144 51.2C295.144 55.0667 294.077 58.5667 291.944 61.7C289.877 64.8333 286.711 67.3333 282.444 69.2C278.177 71.0667 272.977 72 266.844 72ZM327.258 12H304.058V0.999995H363.458V12H340.258V71H327.258V12ZM421.099 54.8H386.099L379.199 71H365.799L397.299 0.999995H410.099L441.699 71H428.099L421.099 54.8ZM416.799 44.6L403.599 14L390.499 44.6H416.799ZM469.601 11.9V33.2H503.401V44.2H469.601V71H456.601V0.999995H507.701V11.9H469.601ZM539.273 11.9V33.2H573.073V44.2H539.273V71H526.273V0.999995H577.373V11.9H539.273Z" fill="#A7D5DE"/>
</svg>
