<svg width="386" height="84" viewBox="0 0 386 84" fill="none" xmlns="http://www.w3.org/2000/svg">
<path d="M20.0793 83.1C12.6793 83.1 7.4793 81 4.4793 76.8C1.54596 72.5333 0.0792971 66.6 0.0792971 59V23.6C0.0792971 16.1333 1.5793 10.3667 4.5793 6.3C7.64596 2.16666 12.8126 0.0999935 20.0793 0.0999935C27.2793 0.0999935 32.4126 2.16666 35.4793 6.3C38.546 10.4333 40.0793 16.2 40.0793 23.6V59.1C40.0793 66.7 38.5793 72.6 35.5793 76.8C32.646 81 27.4793 83.1 20.0793 83.1ZM20.0793 78.6C25.546 78.6 29.3126 77.0333 31.3793 73.9C33.5126 70.7667 34.5793 66.2 34.5793 60.2V22.8C34.5793 16.8 33.5126 12.2667 31.3793 9.2C29.3126 6.13333 25.546 4.6 20.0793 4.6C14.6126 4.6 10.8126 6.13333 8.6793 9.2C6.61263 12.2667 5.5793 16.8 5.5793 22.8V60.2C5.5793 66.2667 6.61263 70.8667 8.6793 74C10.8126 77.0667 14.6126 78.6 20.0793 78.6ZM78.5418 83.1C71.1418 83.1 65.9085 81.3333 62.8418 77.8C59.8418 74.2667 58.3418 69.3333 58.3418 63V0.999994H63.7418V63.1C63.7418 68.0333 64.8418 71.8667 67.0418 74.6C69.2418 77.2667 73.0751 78.6 78.5418 78.6C83.7418 78.6 87.5085 77.2 89.8418 74.4C92.1751 71.6 93.3418 67.8333 93.3418 63.1V0.999994H98.6418V63C98.6418 69.2 97.0751 74.1 93.9418 77.7C90.8085 81.3 85.6751 83.1 78.5418 83.1ZM129.362 5.4H113.162V0.999994H150.562V5.4H134.762V82H129.362V5.4ZM182.268 83C170.335 83 163.835 76 162.768 62L167.468 60.5C168.268 66.5 169.702 71 171.768 74C173.902 77 177.435 78.5 182.368 78.5C190.968 78.5 195.268 74.1667 195.268 65.5C195.268 62.1667 194.435 59.1333 192.768 56.4C191.102 53.6667 188.435 50.4667 184.768 46.8L169.968 32.1C165.235 27.3667 162.868 22.2333 162.868 16.7C162.868 11.4333 164.468 7.36666 167.668 4.5C170.935 1.56666 175.268 0.0999935 180.668 0.0999935C186.468 0.0999935 190.935 1.66666 194.068 4.8C197.202 7.86667 199.002 13.0667 199.468 20.4L194.868 21.5C194.402 15.5667 193.102 11.2667 190.968 8.6C188.902 5.86666 185.502 4.5 180.768 4.5C176.902 4.5 173.768 5.5 171.368 7.49999C169.035 9.43333 167.868 12.3667 167.868 16.3C167.868 18.4333 168.302 20.5 169.168 22.5C170.102 24.4333 171.635 26.4667 173.768 28.6L188.368 43C192.102 46.6667 195.035 50.3 197.168 53.9C199.302 57.5 200.368 61.2667 200.368 65.2C200.368 71.0667 198.735 75.5 195.468 78.5C192.202 81.5 187.802 83 182.268 83ZM227.983 5.4H211.783V0.999994H249.183V5.4H233.383V82H227.983V5.4ZM273.581 0.999994H279.881L296.981 82H291.481L287.281 59.6H266.281L261.981 82H256.581L273.581 0.999994ZM286.581 55.6L276.781 7.6L267.081 55.6H286.581ZM313.658 0.999994H341.558V5.3H319.058V37.9H338.458V42.1H319.058V82H313.658V0.999994ZM357.939 0.999994H385.839V5.3H363.339V37.9H382.739V42.1H363.339V82H357.939V0.999994Z" fill="#A7D5DE"/>
</svg>
