<svg width="511" height="70" viewBox="0 0 511 70" fill="none" xmlns="http://www.w3.org/2000/svg">
<path d="M25 69.2C20.2667 69.2 16.0667 67.8 12.4 65C8.73333 62.1333 5.83333 58.1333 3.7 53C1.63333 47.8 0.6 41.7333 0.6 34.8C0.6 27.8667 1.63333 21.8667 3.7 16.8C5.83333 11.6667 8.73333 7.73333 12.4 4.99999C16.0667 2.19999 20.2667 0.799995 25 0.799995C29.7333 0.799995 33.9333 2.19999 37.6 4.99999C41.2667 7.73333 44.1333 11.6667 46.2 16.8C48.3333 21.8667 49.4 27.8667 49.4 34.8C49.4 41.7333 48.3333 47.8 46.2 53C44.1333 58.1333 41.2667 62.1333 37.6 65C33.9333 67.8 29.7333 69.2 25 69.2ZM25 66.2C29.2 66.2 32.8667 64.9 36 62.3C39.1333 59.7 41.5667 56.0667 43.3 51.4C45.1 46.6667 46 41.1333 46 34.8C46 28.4667 45.1 23 43.3 18.4C41.5667 13.7333 39.1333 10.1333 36 7.6C32.8667 5.06666 29.2 3.8 25 3.8C20.8 3.8 17.1333 5.06666 14 7.6C10.8667 10.1333 8.4 13.7333 6.6 18.4C4.86667 23 4 28.4667 4 34.8C4 41.1333 4.86667 46.6667 6.6 51.4C8.4 56.0667 10.8667 59.7 14 62.3C17.1333 64.9 20.8 66.2 25 66.2ZM90.9609 69.2C88.3609 69.2 85.8276 68.8 83.3609 68C80.8943 67.2 78.6609 65.8667 76.6609 64C74.6609 62.0667 73.0609 59.4333 71.8609 56.1C70.7276 52.7 70.1609 48.4667 70.1609 43.4V2H73.3609V42.6C73.3609 48.6667 74.1943 53.4333 75.8609 56.9C77.5276 60.3 79.6943 62.7 82.3609 64.1C85.0276 65.5 87.8943 66.2 90.9609 66.2C94.0943 66.2 96.9943 65.5 99.6609 64.1C102.394 62.7 104.594 60.3 106.261 56.9C107.928 53.4333 108.761 48.6667 108.761 42.6V2H111.761V43.4C111.761 48.4667 111.161 52.7 109.961 56.1C108.828 59.4333 107.261 62.0667 105.261 64C103.261 65.8667 101.028 67.2 98.5609 68C96.0943 68.8 93.5609 69.2 90.9609 69.2ZM155.322 68V4.8H131.922V2H181.922V4.8H158.522V68H155.322ZM223.883 69.2C218.816 69.2 214.349 68.2667 210.483 66.4C206.683 64.4667 203.483 62.0667 200.883 59.2L203.083 57C205.616 59.8 208.649 62.0333 212.183 63.7C215.783 65.3667 219.683 66.2 223.883 66.2C229.483 66.2 233.949 64.9 237.283 62.3C240.616 59.6333 242.283 56.2 242.283 52C242.283 49.0667 241.683 46.7333 240.483 45C239.283 43.2 237.683 41.7333 235.683 40.6C233.683 39.4667 231.483 38.4 229.083 37.4L218.883 32.8C216.883 31.9333 214.749 30.8667 212.483 29.6C210.283 28.3333 208.383 26.6667 206.783 24.6C205.249 22.5333 204.483 19.8667 204.483 16.6C204.483 13.4667 205.316 10.7333 206.983 8.4C208.716 6 211.049 4.13333 213.983 2.8C216.983 1.46666 220.349 0.799995 224.083 0.799995C228.283 0.799995 231.983 1.6 235.183 3.2C238.449 4.73333 241.083 6.53333 243.083 8.6L241.083 10.8C239.083 8.66666 236.649 6.96666 233.783 5.7C230.916 4.43333 227.683 3.8 224.083 3.8C219.216 3.8 215.249 4.96666 212.183 7.29999C209.183 9.56666 207.683 12.6 207.683 16.4C207.683 19.1333 208.383 21.3667 209.783 23.1C211.183 24.7667 212.849 26.1333 214.783 27.2C216.783 28.2 218.616 29.0667 220.283 29.8L230.483 34.4C233.083 35.4667 235.516 36.7 237.783 38.1C240.116 39.5 241.983 41.3 243.383 43.5C244.783 45.6333 245.483 48.4 245.483 51.8C245.483 55.1333 244.583 58.1333 242.783 60.8C240.983 63.4 238.449 65.4667 235.183 67C231.983 68.4667 228.216 69.2 223.883 69.2ZM287.244 68V4.8H263.844V2H313.844V4.8H290.444V68H287.244ZM329.805 68L353.405 2H356.205L379.805 68H376.405L362.605 28.4C361.205 24.4 359.871 20.6 358.605 17C357.405 13.3333 356.205 9.46667 355.005 5.4H354.605C353.405 9.46667 352.171 13.3333 350.905 17C349.705 20.6 348.405 24.4 347.005 28.4L333.005 68H329.805ZM340.005 44.4V41.6H369.305V44.4H340.005ZM406.366 68V2H444.166V4.8H409.566V32.6H438.666V35.4H409.566V68H406.366ZM472.327 68V2H510.127V4.8H475.527V32.6H504.627V35.4H475.527V68H472.327Z" fill="#A7D5DE"/>
</svg>
