<svg width="174" height="82" viewBox="0 0 174 82" fill="none" xmlns="http://www.w3.org/2000/svg">
<rect width="174" height="82" fill="white"/>
<path d="M48.2279 50.078C46.9106 50.078 45.6712 49.844 44.5099 49.376C43.3486 48.8907 42.4559 48.2667 41.8319 47.504L42.1959 47.166C42.7852 47.8593 43.6259 48.44 44.7179 48.908C45.8099 49.3587 46.9712 49.584 48.2019 49.584C50.0912 49.584 51.5126 49.2113 52.4659 48.466C53.4366 47.7033 53.9219 46.724 53.9219 45.528C53.9219 44.592 53.6706 43.8467 53.1679 43.292C52.6652 42.7373 52.0412 42.3213 51.2959 42.044C50.5679 41.7667 49.5799 41.4807 48.3319 41.186C46.9972 40.8567 45.9399 40.5447 45.1599 40.25C44.3799 39.938 43.7126 39.47 43.1579 38.846C42.6206 38.2047 42.3519 37.3553 42.3519 36.298C42.3519 35.466 42.5686 34.7033 43.0019 34.01C43.4352 33.3167 44.1112 32.762 45.0299 32.346C45.9486 31.93 47.0839 31.722 48.4359 31.722C49.4066 31.722 50.3599 31.878 51.2959 32.19C52.2319 32.4847 53.0379 32.8833 53.7139 33.386L53.4279 33.802C52.7172 33.282 51.9199 32.892 51.0359 32.632C50.1692 32.3547 49.3112 32.216 48.4619 32.216C46.6419 32.216 45.2552 32.606 44.3019 33.386C43.3486 34.1487 42.8719 35.128 42.8719 36.324C42.8719 37.26 43.1232 38.014 43.6259 38.586C44.1286 39.1407 44.7526 39.5567 45.4979 39.834C46.2432 40.1113 47.2486 40.406 48.5139 40.718C49.8312 41.0473 50.8799 41.368 51.6599 41.68C52.4399 41.9747 53.0986 42.434 53.6359 43.058C54.1732 43.6647 54.4419 44.488 54.4419 45.528C54.4419 46.36 54.2166 47.1227 53.7659 47.816C53.3152 48.5093 52.6219 49.064 51.6859 49.48C50.7672 49.8787 49.6146 50.078 48.2279 50.078ZM65.4291 50.078C64.1985 50.078 63.0805 49.792 62.0751 49.22C61.0871 48.6307 60.3071 47.816 59.7351 46.776C59.1805 45.736 58.9031 44.566 58.9031 43.266C58.9031 41.966 59.1805 40.8047 59.7351 39.782C60.3071 38.742 61.0871 37.936 62.0751 37.364C63.0805 36.7747 64.1985 36.48 65.4291 36.48C66.6598 36.48 67.7691 36.7747 68.7571 37.364C69.7625 37.936 70.5425 38.742 71.0971 39.782C71.6691 40.8047 71.9551 41.966 71.9551 43.266C71.9551 44.566 71.6691 45.736 71.0971 46.776C70.5425 47.816 69.7625 48.6307 68.7571 49.22C67.7691 49.792 66.6598 50.078 65.4291 50.078ZM65.4291 49.584C66.5558 49.584 67.5785 49.3153 68.4971 48.778C69.4158 48.2407 70.1351 47.4953 70.6551 46.542C71.1751 45.5713 71.4351 44.4793 71.4351 43.266C71.4351 42.0527 71.1751 40.9693 70.6551 40.016C70.1351 39.0453 69.4158 38.3 68.4971 37.78C67.5785 37.2427 66.5558 36.974 65.4291 36.974C64.3025 36.974 63.2798 37.2427 62.3611 37.78C61.4425 38.3 60.7231 39.0453 60.2031 40.016C59.6831 40.9693 59.4231 42.0527 59.4231 43.266C59.4231 44.4793 59.6831 45.5713 60.2031 46.542C60.7231 47.4953 61.4425 48.2407 62.3611 48.778C63.2798 49.3153 64.3025 49.584 65.4291 49.584ZM81.4023 31.124C80.5009 31.124 79.8163 31.3753 79.3483 31.878C78.8803 32.3807 78.6463 33.1087 78.6463 34.062V36.558H83.1963V37.052H78.6463V50H78.1263V37.052H75.5263V36.558H78.1263V33.932C78.1263 32.9267 78.4123 32.1293 78.9843 31.54C79.5563 30.9333 80.3536 30.63 81.3763 30.63C81.8789 30.63 82.3643 30.7167 82.8323 30.89C83.3176 31.046 83.7076 31.28 84.0023 31.592L83.6383 31.956C83.0489 31.4013 82.3036 31.124 81.4023 31.124ZM93.6365 49.116C93.3418 49.428 92.9518 49.6707 92.4665 49.844C91.9985 50 91.5132 50.078 91.0105 50.078C89.9705 50.078 89.1645 49.7833 88.5925 49.194C88.0378 48.5873 87.7605 47.7813 87.7605 46.776V37.052H85.1605V36.558H87.7605V33.62H88.2805V36.558H92.8305V37.052H88.2805V46.646C88.2805 47.5993 88.5145 48.3273 88.9825 48.83C89.4505 49.3327 90.1352 49.584 91.0365 49.584C91.9378 49.584 92.6832 49.3067 93.2725 48.752L93.6365 49.116ZM104.705 40.51L100.181 45.164V50H99.6606V31.8H100.181V44.462L112.505 31.8H113.207L105.095 40.146L113.805 50H113.103L104.705 40.51ZM118.526 36.558H119.046V50H118.526V36.558ZM118.786 32.84C118.595 32.84 118.431 32.7707 118.292 32.632C118.171 32.4933 118.11 32.3373 118.11 32.164C118.11 31.9733 118.171 31.8173 118.292 31.696C118.431 31.5573 118.595 31.488 118.786 31.488C118.959 31.488 119.115 31.5573 119.254 31.696C119.393 31.8173 119.462 31.9733 119.462 32.164C119.462 32.3373 119.393 32.4933 119.254 32.632C119.115 32.7707 118.959 32.84 118.786 32.84ZM132.67 49.116C132.375 49.428 131.985 49.6707 131.5 49.844C131.032 50 130.547 50.078 130.044 50.078C129.004 50.078 128.198 49.7833 127.626 49.194C127.071 48.5873 126.794 47.7813 126.794 46.776V37.052H124.194V36.558H126.794V33.62H127.314V36.558H131.864V37.052H127.314V46.646C127.314 47.5993 127.548 48.3273 128.016 48.83C128.484 49.3327 129.169 49.584 130.07 49.584C130.971 49.584 131.717 49.3067 132.306 48.752L132.67 49.116Z" fill="#121212"/>
</svg>
