<svg width="100" height="100" viewBox="0 0 100 100" fill="none" xmlns="http://www.w3.org/2000/svg">
<rect width="100" height="100" fill="#121212"/>
<path d="M40.3027 59.078C38.9854 59.078 37.746 58.844 36.5847 58.376C35.4234 57.8907 34.5307 57.2667 33.9067 56.504L34.2707 56.166C34.86 56.8593 35.7007 57.44 36.7927 57.908C37.8847 58.3587 39.046 58.584 40.2767 58.584C42.166 58.584 43.5874 58.2113 44.5407 57.466C45.5114 56.7033 45.9967 55.724 45.9967 54.528C45.9967 53.592 45.7454 52.8467 45.2427 52.292C44.74 51.7373 44.116 51.3213 43.3707 51.044C42.6427 50.7667 41.6547 50.4807 40.4067 50.186C39.072 49.8567 38.0147 49.5447 37.2347 49.25C36.4547 48.938 35.7874 48.47 35.2327 47.846C34.6954 47.2047 34.4267 46.3553 34.4267 45.298C34.4267 44.466 34.6434 43.7033 35.0767 43.01C35.51 42.3167 36.186 41.762 37.1047 41.346C38.0234 40.93 39.1587 40.722 40.5107 40.722C41.4814 40.722 42.4347 40.878 43.3707 41.19C44.3067 41.4847 45.1127 41.8833 45.7887 42.386L45.5027 42.802C44.792 42.282 43.9947 41.892 43.1107 41.632C42.244 41.3547 41.386 41.216 40.5367 41.216C38.7167 41.216 37.33 41.606 36.3767 42.386C35.4234 43.1487 34.9467 44.128 34.9467 45.324C34.9467 46.26 35.198 47.014 35.7007 47.586C36.2034 48.1407 36.8274 48.5567 37.5727 48.834C38.318 49.1113 39.3234 49.406 40.5887 49.718C41.906 50.0473 42.9547 50.368 43.7347 50.68C44.5147 50.9747 45.1734 51.434 45.7107 52.058C46.248 52.6647 46.5167 53.488 46.5167 54.528C46.5167 55.36 46.2914 56.1227 45.8407 56.816C45.39 57.5093 44.6967 58.064 43.7607 58.48C42.842 58.8787 41.6894 59.078 40.3027 59.078ZM58.0759 49.51L53.5519 54.164V59H53.0319V40.8H53.5519V53.462L65.8759 40.8H66.5779L58.4659 49.146L67.1759 59H66.4739L58.0759 49.51Z" fill="white"/>
</svg>
