<svg width="656" height="82" viewBox="0 0 656 82" fill="none" xmlns="http://www.w3.org/2000/svg">
<path d="M0.962891 -6.19888e-06H17.6629C24.5962 -6.19888e-06 29.4296 1.79999 32.1629 5.4C34.9629 9 36.3629 13.9333 36.3629 20.2C36.3629 24.2667 35.6629 27.9333 34.2629 31.2C32.8629 34.4 30.3962 36.4333 26.8629 37.3C31.0629 38.5667 33.9962 41.1 35.6629 44.9C37.3296 48.7 38.1629 52.8667 38.1629 57.4C38.1629 64.6667 36.8962 70.4333 34.3629 74.7C31.8962 78.9 27.1296 81 20.0629 81H0.962891V-6.19888e-06ZM20.0629 35.5C24.1962 35.5 27.0962 34.1333 28.7629 31.4C30.4296 28.6667 31.2629 24.9333 31.2629 20.2C31.2629 15.0667 30.2296 11.1667 28.1629 8.5C26.1629 5.76666 22.2296 4.4 16.3629 4.4H6.36289V35.5H20.0629ZM19.3629 76.7C22.8962 76.7 25.6296 76.0333 27.5629 74.7C29.4962 73.3 30.8629 71.2333 31.6629 68.5C32.4629 65.7667 32.8629 62.1 32.8629 57.5C32.8629 52.1667 31.8629 47.9 29.8629 44.7C27.9296 41.4333 24.6962 39.8 20.1629 39.8H6.36289V76.7H19.3629ZM62.591 81.9C59.791 81.9 57.5577 80.9 55.891 78.9C54.291 76.8333 53.491 73.6333 53.491 69.3V23.2H58.791V68.7C58.791 72.0333 59.291 74.4 60.291 75.8C61.3577 77.1333 62.891 77.8 64.891 77.8C66.891 77.8 68.9244 77.1667 70.991 75.9C73.0577 74.6333 74.991 72.9333 76.791 70.8V23.2H81.991V81H76.791V74.2C74.9243 76.6 72.7577 78.5 70.291 79.9C67.8244 81.2333 65.2577 81.9 62.591 81.9ZM100.244 6.39999H105.644V15.6H100.244V6.39999ZM100.244 23.2H105.644V81H100.244V23.2ZM137.489 81.9C132.956 81.9 129.356 80.4333 126.689 77.5C124.023 74.5667 122.489 70.5333 122.089 65.4L126.589 64.1C126.923 68.8333 128.023 72.3333 129.889 74.6C131.756 76.8 134.356 77.9 137.689 77.9C140.623 77.9 142.889 77.1 144.489 75.5C146.089 73.8333 146.889 71.5 146.889 68.5C146.889 64.3 144.056 59.8 138.389 55L131.689 49.3C128.756 46.7667 126.623 44.4 125.289 42.2C124.023 40 123.389 37.4667 123.389 34.6C123.389 30.7333 124.556 27.7333 126.889 25.6C129.289 23.4 132.489 22.3 136.489 22.3C140.689 22.3 143.889 23.6333 146.089 26.3C148.289 28.9667 149.456 32.6667 149.589 37.4L145.689 38.6C145.423 30.4 142.456 26.3 136.789 26.3C134.189 26.3 132.123 26.9667 130.589 28.3C129.056 29.6333 128.289 31.5333 128.289 34C128.289 36.2 128.689 38.1 129.489 39.7C130.356 41.2333 131.923 43 134.189 45L141.089 51.1C143.423 53.1667 145.256 54.9333 146.589 56.4C147.989 57.8667 149.156 59.6333 150.089 61.7C151.089 63.7 151.589 66 151.589 68.6C151.589 72.7333 150.323 76 147.789 78.4C145.256 80.7333 141.823 81.9 137.489 81.9ZM166.034 23.2H171.334V29.4C173.201 27.2 175.301 25.4667 177.634 24.2C179.967 22.9333 182.434 22.3 185.034 22.3C187.767 22.3 189.967 23.3333 191.634 25.4C193.301 27.4 194.134 30.5667 194.134 34.9V81H188.834V35.5C188.834 32.1667 188.301 29.8333 187.234 28.5C186.234 27.1 184.734 26.4 182.734 26.4C180.867 26.4 178.934 26.9667 176.934 28.1C175.001 29.2333 173.134 30.8 171.334 32.8V81H166.034V23.2ZM224.696 81.9C221.43 81.9 218.73 81.2667 216.596 80C214.463 78.7333 212.83 76.4667 211.696 73.2C210.563 69.9333 209.996 65.4 209.996 59.6V44.2C209.996 38.4 210.563 33.9 211.696 30.7C212.896 27.5 214.563 25.3 216.696 24.1C218.83 22.9 221.53 22.3 224.796 22.3C228.396 22.3 231.23 23.0667 233.296 24.6C235.363 26.1333 236.83 28.5667 237.696 31.9C238.563 35.1667 238.996 39.6333 238.996 45.3V50.8H215.296V60C215.296 64.6 215.596 68.2 216.196 70.8C216.863 73.4 217.863 75.2333 219.196 76.3C220.53 77.3667 222.363 77.9 224.696 77.9C227.43 77.9 229.63 77.1333 231.296 75.6C232.963 74 233.796 70.7333 233.796 65.8V61.5H238.996V65.3C238.996 70.6333 237.896 74.7333 235.696 77.6C233.563 80.4667 229.896 81.9 224.696 81.9ZM233.796 47.6V43.1C233.796 39.1667 233.596 36.0333 233.196 33.7C232.796 31.3667 231.93 29.5667 230.596 28.3C229.33 26.9667 227.396 26.3 224.796 26.3C222.53 26.3 220.696 26.7667 219.296 27.7C217.963 28.6333 216.963 30.3333 216.296 32.8C215.63 35.2667 215.296 38.7333 215.296 43.2V47.6H233.796ZM268.087 81.9C263.554 81.9 259.954 80.4333 257.287 77.5C254.62 74.5667 253.087 70.5333 252.687 65.4L257.187 64.1C257.52 68.8333 258.62 72.3333 260.487 74.6C262.354 76.8 264.954 77.9 268.287 77.9C271.22 77.9 273.487 77.1 275.087 75.5C276.687 73.8333 277.487 71.5 277.487 68.5C277.487 64.3 274.654 59.8 268.987 55L262.287 49.3C259.354 46.7667 257.22 44.4 255.887 42.2C254.62 40 253.987 37.4667 253.987 34.6C253.987 30.7333 255.154 27.7333 257.487 25.6C259.887 23.4 263.087 22.3 267.087 22.3C271.287 22.3 274.487 23.6333 276.687 26.3C278.887 28.9667 280.054 32.6667 280.187 37.4L276.287 38.6C276.02 30.4 273.054 26.3 267.387 26.3C264.787 26.3 262.72 26.9667 261.187 28.3C259.654 29.6333 258.887 31.5333 258.887 34C258.887 36.2 259.287 38.1 260.087 39.7C260.954 41.2333 262.52 43 264.787 45L271.687 51.1C274.02 53.1667 275.854 54.9333 277.187 56.4C278.587 57.8667 279.754 59.6333 280.687 61.7C281.687 63.7 282.187 66 282.187 68.6C282.187 72.7333 280.92 76 278.387 78.4C275.854 80.7333 272.42 81.9 268.087 81.9ZM309.732 81.9C305.198 81.9 301.598 80.4333 298.932 77.5C296.265 74.5667 294.732 70.5333 294.332 65.4L298.832 64.1C299.165 68.8333 300.265 72.3333 302.132 74.6C303.998 76.8 306.598 77.9 309.932 77.9C312.865 77.9 315.132 77.1 316.732 75.5C318.332 73.8333 319.132 71.5 319.132 68.5C319.132 64.3 316.298 59.8 310.632 55L303.932 49.3C300.998 46.7667 298.865 44.4 297.532 42.2C296.265 40 295.632 37.4667 295.632 34.6C295.632 30.7333 296.798 27.7333 299.132 25.6C301.532 23.4 304.732 22.3 308.732 22.3C312.932 22.3 316.132 23.6333 318.332 26.3C320.532 28.9667 321.698 32.6667 321.832 37.4L317.932 38.6C317.665 30.4 314.698 26.3 309.032 26.3C306.432 26.3 304.365 26.9667 302.832 28.3C301.298 29.6333 300.532 31.5333 300.532 34C300.532 36.2 300.932 38.1 301.732 39.7C302.598 41.2333 304.165 43 306.432 45L313.332 51.1C315.665 53.1667 317.498 54.9333 318.832 56.4C320.232 57.8667 321.398 59.6333 322.332 61.7C323.332 63.7 323.832 66 323.832 68.6C323.832 72.7333 322.565 76 320.032 78.4C317.498 80.7333 314.065 81.9 309.732 81.9ZM360.921 -6.19888e-06H365.721L377.621 70.3L390.621 1.79999H395.821L409.221 70.3L420.021 -6.19888e-06H424.721L411.621 81H407.021L393.221 10.1L379.721 81H375.021L360.921 -6.19888e-06ZM452.45 81.9C449.184 81.9 446.484 81.2667 444.35 80C442.217 78.7333 440.584 76.4667 439.45 73.2C438.317 69.9333 437.75 65.4 437.75 59.6V44.2C437.75 38.4 438.317 33.9 439.45 30.7C440.65 27.5 442.317 25.3 444.45 24.1C446.584 22.9 449.284 22.3 452.55 22.3C456.15 22.3 458.984 23.0667 461.05 24.6C463.117 26.1333 464.584 28.5667 465.45 31.9C466.317 35.1667 466.75 39.6333 466.75 45.3V50.8H443.05V60C443.05 64.6 443.35 68.2 443.95 70.8C444.617 73.4 445.617 75.2333 446.95 76.3C448.284 77.3667 450.117 77.9 452.45 77.9C455.184 77.9 457.384 77.1333 459.05 75.6C460.717 74 461.55 70.7333 461.55 65.8V61.5H466.75V65.3C466.75 70.6333 465.65 74.7333 463.45 77.6C461.317 80.4667 457.65 81.9 452.45 81.9ZM461.55 47.6V43.1C461.55 39.1667 461.35 36.0333 460.95 33.7C460.55 31.3667 459.684 29.5667 458.35 28.3C457.084 26.9667 455.15 26.3 452.55 26.3C450.284 26.3 448.45 26.7667 447.05 27.7C445.717 28.6333 444.717 30.3333 444.05 32.8C443.384 35.2667 443.05 38.7333 443.05 43.2V47.6H461.55ZM498.641 81.9C494.641 81.9 491.108 80 488.041 76.2V81H482.741V-6.19888e-06H488.041V28.1C489.241 26.4333 490.774 25.0667 492.641 24C494.574 22.8667 496.741 22.3 499.141 22.3C504.141 22.3 507.574 24.3 509.441 28.3C511.308 32.2333 512.241 38.1667 512.241 46.1V57.2C512.241 65.6667 511.208 71.9 509.141 75.9C507.141 79.9 503.641 81.9 498.641 81.9ZM497.941 77.8C500.341 77.8 502.174 77.1 503.441 75.7C504.708 74.3 505.574 72.1667 506.041 69.3C506.574 66.3667 506.841 62.4 506.841 57.4V46.1C506.841 41.1667 506.608 37.3333 506.141 34.6C505.741 31.8 504.908 29.7333 503.641 28.4C502.374 27.0667 500.508 26.4 498.041 26.4C494.641 26.4 491.308 28.2 488.041 31.8V72.6C490.974 76.0667 494.274 77.8 497.941 77.8ZM541.587 81.9C537.054 81.9 533.454 80.4333 530.787 77.5C528.12 74.5667 526.587 70.5333 526.187 65.4L530.687 64.1C531.02 68.8333 532.12 72.3333 533.987 74.6C535.854 76.8 538.454 77.9 541.787 77.9C544.72 77.9 546.987 77.1 548.587 75.5C550.187 73.8333 550.987 71.5 550.987 68.5C550.987 64.3 548.154 59.8 542.487 55L535.787 49.3C532.854 46.7667 530.72 44.4 529.387 42.2C528.12 40 527.487 37.4667 527.487 34.6C527.487 30.7333 528.654 27.7333 530.987 25.6C533.387 23.4 536.587 22.3 540.587 22.3C544.787 22.3 547.987 23.6333 550.187 26.3C552.387 28.9667 553.554 32.6667 553.687 37.4L549.787 38.6C549.52 30.4 546.554 26.3 540.887 26.3C538.287 26.3 536.22 26.9667 534.687 28.3C533.154 29.6333 532.387 31.5333 532.387 34C532.387 36.2 532.787 38.1 533.587 39.7C534.454 41.2333 536.02 43 538.287 45L545.187 51.1C547.52 53.1667 549.354 54.9333 550.687 56.4C552.087 57.8667 553.254 59.6333 554.187 61.7C555.187 63.7 555.687 66 555.687 68.6C555.687 72.7333 554.42 76 551.887 78.4C549.354 80.7333 545.92 81.9 541.587 81.9ZM570.932 6.39999H576.332V15.6H570.932V6.39999ZM570.932 23.2H576.332V81H570.932V23.2ZM607.777 81.6C604.044 81.6 601.577 80.6 600.377 78.6C599.177 76.5333 598.577 73.5333 598.577 69.6V26.7H590.977V23.2H598.577V4.7H603.877V23.2H613.677V26.7H603.877V68.9C603.877 72.1667 604.177 74.4 604.777 75.6C605.444 76.8 606.81 77.4 608.877 77.4C610.21 77.4 611.644 77.2333 613.177 76.9V81C611.577 81.4 609.777 81.6 607.777 81.6ZM640.946 81.9C637.68 81.9 634.98 81.2667 632.846 80C630.713 78.7333 629.08 76.4667 627.946 73.2C626.813 69.9333 626.246 65.4 626.246 59.6V44.2C626.246 38.4 626.813 33.9 627.946 30.7C629.146 27.5 630.813 25.3 632.946 24.1C635.08 22.9 637.78 22.3 641.046 22.3C644.646 22.3 647.48 23.0667 649.546 24.6C651.613 26.1333 653.08 28.5667 653.946 31.9C654.813 35.1667 655.246 39.6333 655.246 45.3V50.8H631.546V60C631.546 64.6 631.846 68.2 632.446 70.8C633.113 73.4 634.113 75.2333 635.446 76.3C636.78 77.3667 638.613 77.9 640.946 77.9C643.68 77.9 645.88 77.1333 647.546 75.6C649.213 74 650.046 70.7333 650.046 65.8V61.5H655.246V65.3C655.246 70.6333 654.146 74.7333 651.946 77.6C649.813 80.4667 646.146 81.9 640.946 81.9ZM650.046 47.6V43.1C650.046 39.1667 649.846 36.0333 649.446 33.7C649.046 31.3667 648.18 29.5667 646.846 28.3C645.58 26.9667 643.646 26.3 641.046 26.3C638.78 26.3 636.946 26.7667 635.546 27.7C634.213 28.6333 633.213 30.3333 632.546 32.8C631.88 35.2667 631.546 38.7333 631.546 43.2V47.6H650.046Z" fill="#121212"/>
</svg>
