<svg width="1031" height="75" viewBox="0 0 1031 75" fill="none" xmlns="http://www.w3.org/2000/svg">
<path d="M4.76837e-07 73V7H16C20.5333 7 24.3667 7.6 27.5 8.8C30.7 9.93333 33.1 11.7 34.7 14.1C36.3667 16.4333 37.2 19.4 37.2 23C37.2 26.4667 36.2333 29.5 34.3 32.1C32.3667 34.6333 29.4333 36.4 25.5 37.4V37.8C30.4333 38.4667 34.3 40.1667 37.1 42.9C39.9667 45.5667 41.4 49.2 41.4 53.8C41.4 58 40.4333 61.5333 38.5 64.4C36.6333 67.2667 33.9 69.4333 30.3 70.9C26.7 72.3 22.3333 73 17.2 73H4.76837e-07ZM3.2 36.4H14C21.2 36.4 26.3333 35.2667 29.4 33C32.4667 30.7333 34 27.4 34 23C34 18.2667 32.4 14.9 29.2 12.9C26.0667 10.8333 21.2 9.8 14.6 9.8H3.2V36.4ZM3.2 70.2H16C23.1333 70.2 28.6 68.9 32.4 66.3C36.2667 63.7 38.2 59.6 38.2 54C38.2 49 36.2667 45.3 32.4 42.9C28.6 40.4333 23.1333 39.2 16 39.2H3.2V70.2ZM80.3609 74.2C74.4943 74.2 70.1276 72.6333 67.2609 69.5C64.3943 66.3667 62.9609 61.5333 62.9609 55V25.2H65.9609V54.6C65.9609 60.2667 67.0943 64.5 69.3609 67.3C71.6276 70.0333 75.2943 71.4 80.3609 71.4C83.9609 71.4 87.2609 70.4667 90.2609 68.6C93.2609 66.6667 96.4943 63.7333 99.9609 59.8V25.2H102.961V73H100.361L99.9609 63.4H99.5609C96.8943 66.4667 93.9943 69.0333 90.8609 71.1C87.7943 73.1667 84.2943 74.2 80.3609 74.2ZM154.522 73V28H129.922V25.2H157.522V73H154.522ZM154.922 13C153.855 13 152.922 12.6333 152.122 11.9C151.322 11.1 150.922 10.0667 150.922 8.8C150.922 7.46666 151.322 6.43333 152.122 5.7C152.922 4.96666 153.855 4.6 154.922 4.6C156.055 4.6 156.989 4.96666 157.722 5.7C158.522 6.43333 158.922 7.46666 158.922 8.8C158.922 10.0667 158.522 11.1 157.722 11.9C156.989 12.6333 156.055 13 154.922 13ZM218.083 74.2C213.083 74.2 208.583 73.4333 204.583 71.9C200.649 70.3667 197.283 68.6 194.483 66.6L196.283 64.2C198.883 66.2667 201.883 68 205.283 69.4C208.683 70.7333 213.016 71.4 218.283 71.4C223.483 71.4 227.416 70.3667 230.083 68.3C232.749 66.2333 234.083 63.8667 234.083 61.2C234.083 60.0667 233.883 58.9667 233.483 57.9C233.149 56.8333 232.416 55.8333 231.283 54.9C230.149 53.9 228.383 52.9667 225.983 52.1C223.649 51.2333 220.483 50.4 216.483 49.6C210.483 48.4 205.783 46.7667 202.383 44.7C198.983 42.6333 197.283 39.8667 197.283 36.4C197.283 33.0667 198.716 30.1667 201.583 27.7C204.516 25.2333 209.149 24 215.483 24C218.549 24 221.749 24.5333 225.083 25.6C228.416 26.6667 231.216 28.0667 233.483 29.8L231.683 32.2C229.616 30.6 227.183 29.3 224.383 28.3C221.649 27.3 218.616 26.8 215.283 26.8C211.483 26.8 208.516 27.2667 206.383 28.2C204.249 29.0667 202.716 30.2333 201.783 31.7C200.916 33.1 200.483 34.6 200.483 36.2C200.483 38.8667 201.816 41 204.483 42.6C207.149 44.2 211.283 45.5667 216.883 46.7C222.483 47.8333 226.749 49.0667 229.683 50.4C232.616 51.7333 234.616 53.2667 235.683 55C236.749 56.6667 237.283 58.6667 237.283 61C237.283 63.3333 236.516 65.5 234.983 67.5C233.516 69.5 231.349 71.1333 228.483 72.4C225.616 73.6 222.149 74.2 218.083 74.2ZM262.844 73V25.2H265.444L265.844 34.8H266.244C269.11 31.6667 272.044 29.1 275.044 27.1C278.11 25.0333 281.577 24 285.444 24C291.31 24 295.677 25.5667 298.544 28.7C301.41 31.8333 302.844 36.6667 302.844 43.2V73H299.844V43.6C299.844 37.9333 298.71 33.7333 296.444 31C294.177 28.2 290.51 26.8 285.444 26.8C281.844 26.8 278.61 27.7667 275.744 29.7C272.877 31.5667 269.577 34.4667 265.844 38.4V73H262.844ZM350.805 74.2C346.271 74.2 342.105 73.2 338.305 71.2C334.505 69.2 331.471 66.3333 329.205 62.6C326.938 58.8667 325.805 54.4 325.805 49.2C325.805 44 326.905 39.5333 329.105 35.8C331.371 32 334.305 29.1 337.905 27.1C341.571 25.0333 345.471 24 349.605 24C353.871 24 357.571 24.8667 360.705 26.6C363.905 28.3333 366.371 30.8667 368.105 34.2C369.905 37.4667 370.805 41.4 370.805 46C370.805 46.4667 370.805 46.9667 370.805 47.5C370.805 48.0333 370.738 48.6 370.605 49.2H326.805V46.4H369.805L368.005 48C368.005 40.8 366.271 35.4667 362.805 32C359.405 28.5333 355.005 26.8 349.605 26.8C346.138 26.8 342.838 27.7 339.705 29.5C336.571 31.2333 334.005 33.7667 332.005 37.1C330.005 40.3667 329.005 44.3333 329.005 49C329.005 53.8 330.005 57.8667 332.005 61.2C334.071 64.5333 336.738 67.0667 340.005 68.8C343.338 70.5333 346.938 71.4 350.805 71.4C354.205 71.4 357.238 70.9 359.905 69.9C362.638 68.9 365.138 67.6 367.405 66L368.805 68.6C366.738 69.9333 364.305 71.2 361.505 72.4C358.705 73.6 355.138 74.2 350.805 74.2ZM415.966 74.2C410.966 74.2 406.466 73.4333 402.466 71.9C398.532 70.3667 395.166 68.6 392.366 66.6L394.166 64.2C396.766 66.2667 399.766 68 403.166 69.4C406.566 70.7333 410.899 71.4 416.166 71.4C421.366 71.4 425.299 70.3667 427.966 68.3C430.632 66.2333 431.966 63.8667 431.966 61.2C431.966 60.0667 431.766 58.9667 431.366 57.9C431.032 56.8333 430.299 55.8333 429.166 54.9C428.032 53.9 426.266 52.9667 423.866 52.1C421.532 51.2333 418.366 50.4 414.366 49.6C408.366 48.4 403.666 46.7667 400.266 44.7C396.866 42.6333 395.166 39.8667 395.166 36.4C395.166 33.0667 396.599 30.1667 399.466 27.7C402.399 25.2333 407.032 24 413.366 24C416.432 24 419.632 24.5333 422.966 25.6C426.299 26.6667 429.099 28.0667 431.366 29.8L429.566 32.2C427.499 30.6 425.066 29.3 422.266 28.3C419.532 27.3 416.499 26.8 413.166 26.8C409.366 26.8 406.399 27.2667 404.266 28.2C402.132 29.0667 400.599 30.2333 399.666 31.7C398.799 33.1 398.366 34.6 398.366 36.2C398.366 38.8667 399.699 41 402.366 42.6C405.032 44.2 409.166 45.5667 414.766 46.7C420.366 47.8333 424.632 49.0667 427.566 50.4C430.499 51.7333 432.499 53.2667 433.566 55C434.632 56.6667 435.166 58.6667 435.166 61C435.166 63.3333 434.399 65.5 432.866 67.5C431.399 69.5 429.232 71.1333 426.366 72.4C423.499 73.6 420.032 74.2 415.966 74.2ZM481.927 74.2C476.927 74.2 472.427 73.4333 468.427 71.9C464.493 70.3667 461.127 68.6 458.327 66.6L460.127 64.2C462.727 66.2667 465.727 68 469.127 69.4C472.527 70.7333 476.86 71.4 482.127 71.4C487.327 71.4 491.26 70.3667 493.927 68.3C496.593 66.2333 497.927 63.8667 497.927 61.2C497.927 60.0667 497.727 58.9667 497.327 57.9C496.993 56.8333 496.26 55.8333 495.127 54.9C493.993 53.9 492.227 52.9667 489.827 52.1C487.493 51.2333 484.327 50.4 480.327 49.6C474.327 48.4 469.627 46.7667 466.227 44.7C462.827 42.6333 461.127 39.8667 461.127 36.4C461.127 33.0667 462.56 30.1667 465.427 27.7C468.36 25.2333 472.993 24 479.327 24C482.393 24 485.593 24.5333 488.927 25.6C492.26 26.6667 495.06 28.0667 497.327 29.8L495.527 32.2C493.46 30.6 491.027 29.3 488.227 28.3C485.493 27.3 482.46 26.8 479.127 26.8C475.327 26.8 472.36 27.2667 470.227 28.2C468.093 29.0667 466.56 30.2333 465.627 31.7C464.76 33.1 464.327 34.6 464.327 36.2C464.327 38.8667 465.66 41 468.327 42.6C470.993 44.2 475.127 45.5667 480.727 46.7C486.327 47.8333 490.593 49.0667 493.527 50.4C496.46 51.7333 498.46 53.2667 499.527 55C500.593 56.6667 501.127 58.6667 501.127 61C501.127 63.3333 500.36 65.5 498.827 67.5C497.36 69.5 495.193 71.1333 492.327 72.4C489.46 73.6 485.993 74.2 481.927 74.2ZM594.348 73L583.148 6.9H586.048L593.848 53.4C594.048 55.1333 594.282 56.9 594.548 58.7C594.815 60.4333 595.082 62.1667 595.348 63.9C595.682 65.6333 595.948 67.4 596.148 69.2H596.348C596.948 67.4 597.515 65.6333 598.048 63.9C598.582 62.1667 599.115 60.4333 599.648 58.7C600.182 56.9 600.682 55.1333 601.148 53.4L609.948 24.2H613.448L622.448 53.4C622.915 55.1333 623.382 56.9 623.848 58.7C624.382 60.4333 624.915 62.2 625.448 64C625.982 65.7333 626.515 67.4667 627.048 69.2H627.448C627.715 67.4667 627.982 65.7333 628.248 64C628.515 62.2 628.782 60.4333 629.048 58.7C629.315 56.9 629.548 55.1333 629.748 53.4L637.248 6.9H640.048L629.148 73H624.948L614.848 39.9C614.315 37.9667 613.815 36.0667 613.348 34.2C612.882 32.3333 612.382 30.4333 611.848 28.5H611.548C611.015 30.4333 610.482 32.3333 609.948 34.2C609.482 36.0667 608.948 37.9667 608.348 39.9L598.548 73H594.348ZM680.609 74.2C676.076 74.2 671.909 73.2 668.109 71.2C664.309 69.2 661.276 66.3333 659.009 62.6C656.743 58.8667 655.609 54.4 655.609 49.2C655.609 44 656.709 39.5333 658.909 35.8C661.176 32 664.109 29.1 667.709 27.1C671.376 25.0333 675.276 24 679.409 24C683.676 24 687.376 24.8667 690.509 26.6C693.709 28.3333 696.176 30.8667 697.909 34.2C699.709 37.4667 700.609 41.4 700.609 46C700.609 46.4667 700.609 46.9667 700.609 47.5C700.609 48.0333 700.543 48.6 700.409 49.2H656.609V46.4H699.609L697.809 48C697.809 40.8 696.076 35.4667 692.609 32C689.209 28.5333 684.809 26.8 679.409 26.8C675.943 26.8 672.643 27.7 669.509 29.5C666.376 31.2333 663.809 33.7667 661.809 37.1C659.809 40.3667 658.809 44.3333 658.809 49C658.809 53.8 659.809 57.8667 661.809 61.2C663.876 64.5333 666.543 67.0667 669.809 68.8C673.143 70.5333 676.743 71.4 680.609 71.4C684.009 71.4 687.043 70.9 689.709 69.9C692.443 68.9 694.943 67.6 697.209 66L698.609 68.6C696.543 69.9333 694.109 71.2 691.309 72.4C688.509 73.6 684.943 74.2 680.609 74.2ZM744.17 74.2C741.704 74.2 738.97 73.6 735.97 72.4C732.97 71.2 730.237 69.6 727.77 67.6H727.57L727.17 73H724.57V0.799994H727.57V22.2L727.37 32.8H727.57C730.104 30.2 733.037 28.1 736.37 26.5C739.704 24.8333 742.97 24 746.17 24C750.77 24 754.57 25 757.57 27C760.57 29 762.804 31.8333 764.27 35.5C765.804 39.1667 766.57 43.4667 766.57 48.4C766.57 53.8 765.537 58.4333 763.47 62.3C761.404 66.1 758.67 69.0333 755.27 71.1C751.87 73.1667 748.17 74.2 744.17 74.2ZM744.37 71.4C748.037 71.4 751.304 70.4333 754.17 68.5C757.037 66.5 759.27 63.7667 760.87 60.3C762.537 56.8333 763.37 52.8667 763.37 48.4C763.37 44.3333 762.77 40.6667 761.57 37.4C760.437 34.1333 758.604 31.5667 756.07 29.7C753.537 27.7667 750.17 26.8 745.97 26.8C743.304 26.8 740.37 27.5667 737.17 29.1C733.97 30.6333 730.77 33 727.57 36.2V63.8C730.57 66.5333 733.604 68.5 736.67 69.7C739.737 70.8333 742.304 71.4 744.37 71.4ZM811.731 74.2C806.731 74.2 802.231 73.4333 798.231 71.9C794.298 70.3667 790.931 68.6 788.131 66.6L789.931 64.2C792.531 66.2667 795.531 68 798.931 69.4C802.331 70.7333 806.665 71.4 811.931 71.4C817.131 71.4 821.065 70.3667 823.731 68.3C826.398 66.2333 827.731 63.8667 827.731 61.2C827.731 60.0667 827.531 58.9667 827.131 57.9C826.798 56.8333 826.065 55.8333 824.931 54.9C823.798 53.9 822.031 52.9667 819.631 52.1C817.298 51.2333 814.131 50.4 810.131 49.6C804.131 48.4 799.431 46.7667 796.031 44.7C792.631 42.6333 790.931 39.8667 790.931 36.4C790.931 33.0667 792.365 30.1667 795.231 27.7C798.165 25.2333 802.798 24 809.131 24C812.198 24 815.398 24.5333 818.731 25.6C822.065 26.6667 824.865 28.0667 827.131 29.8L825.331 32.2C823.265 30.6 820.831 29.3 818.031 28.3C815.298 27.3 812.265 26.8 808.931 26.8C805.131 26.8 802.165 27.2667 800.031 28.2C797.898 29.0667 796.365 30.2333 795.431 31.7C794.565 33.1 794.131 34.6 794.131 36.2C794.131 38.8667 795.465 41 798.131 42.6C800.798 44.2 804.931 45.5667 810.531 46.7C816.131 47.8333 820.398 49.0667 823.331 50.4C826.265 51.7333 828.265 53.2667 829.331 55C830.398 56.6667 830.931 58.6667 830.931 61C830.931 63.3333 830.165 65.5 828.631 67.5C827.165 69.5 824.998 71.1333 822.131 72.4C819.265 73.6 815.798 74.2 811.731 74.2ZM880.092 73V28H855.492V25.2H883.092V73H880.092ZM880.492 13C879.426 13 878.492 12.6333 877.692 11.9C876.892 11.1 876.492 10.0667 876.492 8.8C876.492 7.46666 876.892 6.43333 877.692 5.7C878.492 4.96666 879.426 4.6 880.492 4.6C881.626 4.6 882.559 4.96666 883.292 5.7C884.092 6.43333 884.492 7.46666 884.492 8.8C884.492 10.0667 884.092 11.1 883.292 11.9C882.559 12.6333 881.626 13 880.492 13ZM951.253 74.2C946.986 74.2 943.653 73.4333 941.253 71.9C938.853 70.3 937.153 68.1 936.153 65.3C935.153 62.4333 934.653 59.1333 934.653 55.4V28H919.853V25.6L934.653 25.2L935.053 9.2H937.653V25.2H963.853V28H937.653V55.8C937.653 59 938.02 61.7667 938.753 64.1C939.486 66.4333 940.853 68.2333 942.853 69.5C944.853 70.7667 947.72 71.4 951.453 71.4C954.053 71.4 956.386 71.1667 958.453 70.7C960.586 70.2333 962.653 69.6 964.653 68.8L965.653 71.2C963.453 72.0667 961.22 72.7667 958.953 73.3C956.753 73.9 954.186 74.2 951.253 74.2ZM1010.41 74.2C1005.88 74.2 1001.71 73.2 997.914 71.2C994.114 69.2 991.081 66.3333 988.814 62.6C986.547 58.8667 985.414 54.4 985.414 49.2C985.414 44 986.514 39.5333 988.714 35.8C990.981 32 993.914 29.1 997.514 27.1C1001.18 25.0333 1005.08 24 1009.21 24C1013.48 24 1017.18 24.8667 1020.31 26.6C1023.51 28.3333 1025.98 30.8667 1027.71 34.2C1029.51 37.4667 1030.41 41.4 1030.41 46C1030.41 46.4667 1030.41 46.9667 1030.41 47.5C1030.41 48.0333 1030.35 48.6 1030.21 49.2H986.414V46.4H1029.41L1027.61 48C1027.61 40.8 1025.88 35.4667 1022.41 32C1019.01 28.5333 1014.61 26.8 1009.21 26.8C1005.75 26.8 1002.45 27.7 999.314 29.5C996.181 31.2333 993.614 33.7667 991.614 37.1C989.614 40.3667 988.614 44.3333 988.614 49C988.614 53.8 989.614 57.8667 991.614 61.2C993.681 64.5333 996.347 67.0667 999.614 68.8C1002.95 70.5333 1006.55 71.4 1010.41 71.4C1013.81 71.4 1016.85 70.9 1019.51 69.9C1022.25 68.9 1024.75 67.6 1027.01 66L1028.41 68.6C1026.35 69.9333 1023.91 71.2 1021.11 72.4C1018.31 73.6 1014.75 74.2 1010.41 74.2Z" fill="#121212"/>
</svg>
