<svg width="987" height="79" viewBox="0 0 987 79" fill="none" xmlns="http://www.w3.org/2000/svg">
<path d="M50.459 41.6C54.3257 42.8667 57.3923 45 59.659 48C61.9257 50.9333 63.059 54.6 63.059 59C63.059 65.0667 60.7257 69.7667 56.059 73.1C51.3923 76.3667 44.5923 78 35.659 78H0.858985V8H33.659C41.9257 8 48.2923 9.63333 52.759 12.9C57.2257 16.1 59.459 20.5333 59.459 26.2C59.459 29.6667 58.659 32.7333 57.059 35.4C55.459 38.0667 53.259 40.1333 50.459 41.6ZM13.859 18.2V37.5H32.259C36.7923 37.5 40.259 36.7 42.659 35.1C45.1257 33.4333 46.359 31.0333 46.359 27.9C46.359 24.7 45.1257 22.3 42.659 20.7C40.259 19.0333 36.7923 18.2 32.259 18.2H13.859ZM34.859 67.8C44.9257 67.8 49.959 64.4333 49.959 57.7C49.959 50.9667 44.9257 47.6 34.859 47.6H13.859V67.8H34.859ZM133.433 24.6V78H121.533V71.2C119.533 73.6 117.033 75.4667 114.033 76.8C111.033 78.0667 107.8 78.7 104.333 78.7C97.1999 78.7 91.5665 76.7333 87.4332 72.8C83.3665 68.8 81.3332 62.9 81.3332 55.1V24.6H93.8332V53.4C93.8332 58.2 94.8999 61.8 97.0332 64.2C99.2332 66.5333 102.333 67.7 106.333 67.7C110.8 67.7 114.333 66.3333 116.933 63.6C119.6 60.8 120.933 56.8 120.933 51.6V24.6H133.433ZM172.3 78.7C167.966 78.7 163.733 78.1333 159.6 77C155.466 75.8667 152.166 74.4333 149.7 72.7L154.5 63.2C156.9 64.8 159.766 66.1 163.1 67.1C166.5 68.0333 169.833 68.5 173.1 68.5C180.566 68.5 184.3 66.5333 184.3 62.6C184.3 60.7333 183.333 59.4333 181.4 58.7C179.533 57.9667 176.5 57.2667 172.3 56.6C167.9 55.9333 164.3 55.1667 161.5 54.3C158.766 53.4333 156.366 51.9333 154.3 49.8C152.3 47.6 151.3 44.5667 151.3 40.7C151.3 35.6333 153.4 31.6 157.6 28.6C161.866 25.5333 167.6 24 174.8 24C178.466 24 182.133 24.4333 185.8 25.3C189.466 26.1 192.466 27.2 194.8 28.6L190 38.1C185.466 35.4333 180.366 34.1 174.7 34.1C171.033 34.1 168.233 34.6667 166.3 35.8C164.433 36.8667 163.5 38.3 163.5 40.1C163.5 42.1 164.5 43.5333 166.5 44.4C168.566 45.2 171.733 45.9667 176 46.7C180.266 47.3667 183.766 48.1333 186.5 49C189.233 49.8667 191.566 51.3333 193.5 53.4C195.5 55.4667 196.5 58.4 196.5 62.2C196.5 67.2 194.333 71.2 190 74.2C185.666 77.2 179.766 78.7 172.3 78.7ZM213.264 24.6H225.764V78H213.264V24.6ZM219.564 15.8C217.298 15.8 215.398 15.1 213.864 13.7C212.331 12.2333 211.564 10.4333 211.564 8.3C211.564 6.16666 212.331 4.4 213.864 2.99999C215.398 1.53333 217.298 0.799999 219.564 0.799999C221.831 0.799999 223.731 1.5 225.264 2.9C226.798 4.23333 227.564 5.93333 227.564 8C227.564 10.2 226.798 12.0667 225.264 13.6C223.798 15.0667 221.898 15.8 219.564 15.8ZM278.471 24C285.204 24 290.604 25.9667 294.671 29.9C298.737 33.8333 300.771 39.6667 300.771 47.4V78H288.271V49C288.271 44.3333 287.171 40.8333 284.971 38.5C282.771 36.1 279.637 34.9 275.571 34.9C270.971 34.9 267.337 36.3 264.671 39.1C262.004 41.8333 260.671 45.8 260.671 51V78H248.171V24.6H260.071V31.5C262.137 29.0333 264.737 27.1667 267.871 25.9C271.004 24.6333 274.537 24 278.471 24ZM373.316 51.6C373.316 52.4667 373.249 53.7 373.116 55.3H331.216C331.949 59.2333 333.849 62.3667 336.916 64.7C340.049 66.9667 343.916 68.1 348.516 68.1C354.383 68.1 359.216 66.1667 363.016 62.3L369.716 70C367.316 72.8667 364.283 75.0333 360.616 76.5C356.949 77.9667 352.816 78.7 348.216 78.7C342.349 78.7 337.183 77.5333 332.716 75.2C328.249 72.8667 324.783 69.6333 322.316 65.5C319.916 61.3 318.716 56.5667 318.716 51.3C318.716 46.1 319.883 41.4333 322.216 37.3C324.616 33.1 327.916 29.8333 332.116 27.5C336.316 25.1667 341.049 24 346.316 24C351.516 24 356.149 25.1667 360.216 27.5C364.349 29.7667 367.549 33 369.816 37.2C372.149 41.3333 373.316 46.1333 373.316 51.6ZM346.316 34C342.316 34 338.916 35.2 336.116 37.6C333.383 39.9333 331.716 43.0667 331.116 47H361.416C360.883 43.1333 359.249 40 356.516 37.6C353.783 35.2 350.383 34 346.316 34ZM407.823 78.7C403.49 78.7 399.256 78.1333 395.123 77C390.99 75.8667 387.69 74.4333 385.223 72.7L390.023 63.2C392.423 64.8 395.29 66.1 398.623 67.1C402.023 68.0333 405.356 68.5 408.623 68.5C416.09 68.5 419.823 66.5333 419.823 62.6C419.823 60.7333 418.856 59.4333 416.923 58.7C415.056 57.9667 412.023 57.2667 407.823 56.6C403.423 55.9333 399.823 55.1667 397.023 54.3C394.29 53.4333 391.89 51.9333 389.823 49.8C387.823 47.6 386.823 44.5667 386.823 40.7C386.823 35.6333 388.923 31.6 393.123 28.6C397.39 25.5333 403.123 24 410.323 24C413.99 24 417.656 24.4333 421.323 25.3C424.99 26.1 427.99 27.2 430.323 28.6L425.523 38.1C420.99 35.4333 415.89 34.1 410.223 34.1C406.556 34.1 403.756 34.6667 401.823 35.8C399.956 36.8667 399.023 38.3 399.023 40.1C399.023 42.1 400.023 43.5333 402.023 44.4C404.09 45.2 407.256 45.9667 411.523 46.7C415.79 47.3667 419.29 48.1333 422.023 49C424.756 49.8667 427.09 51.3333 429.023 53.4C431.023 55.4667 432.023 58.4 432.023 62.2C432.023 67.2 429.856 71.2 425.523 74.2C421.19 77.2 415.29 78.7 407.823 78.7ZM465.288 78.7C460.955 78.7 456.721 78.1333 452.588 77C448.455 75.8667 445.155 74.4333 442.688 72.7L447.488 63.2C449.888 64.8 452.755 66.1 456.088 67.1C459.488 68.0333 462.821 68.5 466.088 68.5C473.555 68.5 477.288 66.5333 477.288 62.6C477.288 60.7333 476.321 59.4333 474.388 58.7C472.521 57.9667 469.488 57.2667 465.288 56.6C460.888 55.9333 457.288 55.1667 454.488 54.3C451.755 53.4333 449.355 51.9333 447.288 49.8C445.288 47.6 444.288 44.5667 444.288 40.7C444.288 35.6333 446.388 31.6 450.588 28.6C454.855 25.5333 460.588 24 467.788 24C471.455 24 475.121 24.4333 478.788 25.3C482.455 26.1 485.455 27.2 487.788 28.6L482.988 38.1C478.455 35.4333 473.355 34.1 467.688 34.1C464.021 34.1 461.221 34.6667 459.288 35.8C457.421 36.8667 456.488 38.3 456.488 40.1C456.488 42.1 457.488 43.5333 459.488 44.4C461.555 45.2 464.721 45.9667 468.988 46.7C473.255 47.3667 476.755 48.1333 479.488 49C482.221 49.8667 484.555 51.3333 486.488 53.4C488.488 55.4667 489.488 58.4 489.488 62.2C489.488 67.2 487.321 71.2 482.988 74.2C478.655 77.2 472.755 78.7 465.288 78.7ZM643.389 8L620.189 78H606.389L589.089 26.2L571.489 78H557.589L534.389 8H547.889L565.289 61.2L583.389 8H595.389L613.089 61.5L630.989 8H643.389ZM704.976 51.6C704.976 52.4667 704.91 53.7 704.776 55.3H662.876C663.61 59.2333 665.51 62.3667 668.576 64.7C671.71 66.9667 675.576 68.1 680.176 68.1C686.043 68.1 690.876 66.1667 694.676 62.3L701.376 70C698.976 72.8667 695.943 75.0333 692.276 76.5C688.61 77.9667 684.476 78.7 679.876 78.7C674.01 78.7 668.843 77.5333 664.376 75.2C659.91 72.8667 656.443 69.6333 653.976 65.5C651.576 61.3 650.376 56.5667 650.376 51.3C650.376 46.1 651.543 41.4333 653.876 37.3C656.276 33.1 659.576 29.8333 663.776 27.5C667.976 25.1667 672.71 24 677.976 24C683.176 24 687.81 25.1667 691.876 27.5C696.01 29.7667 699.21 33 701.476 37.2C703.81 41.3333 704.976 46.1333 704.976 51.6ZM677.976 34C673.976 34 670.576 35.2 667.776 37.6C665.043 39.9333 663.376 43.0667 662.776 47H693.076C692.543 43.1333 690.91 40 688.176 37.6C685.443 35.2 682.043 34 677.976 34ZM752.583 24C757.783 24 762.417 25.1333 766.483 27.4C770.617 29.6667 773.85 32.8667 776.183 37C778.517 41.1333 779.683 45.9 779.683 51.3C779.683 56.7 778.517 61.5 776.183 65.7C773.85 69.8333 770.617 73.0333 766.483 75.3C762.417 77.5667 757.783 78.7 752.583 78.7C748.917 78.7 745.55 78.0667 742.483 76.8C739.483 75.5333 736.95 73.6333 734.883 71.1V78H722.983V3.8H735.483V31.1C737.617 28.7667 740.117 27 742.983 25.8C745.917 24.6 749.117 24 752.583 24ZM751.183 68C755.783 68 759.55 66.4667 762.483 63.4C765.483 60.3333 766.983 56.3 766.983 51.3C766.983 46.3 765.483 42.2667 762.483 39.2C759.55 36.1333 755.783 34.6 751.183 34.6C748.183 34.6 745.483 35.3 743.083 36.7C740.683 38.0333 738.783 39.9667 737.383 42.5C735.983 45.0333 735.283 47.9667 735.283 51.3C735.283 54.6333 735.983 57.5667 737.383 60.1C738.783 62.6333 740.683 64.6 743.083 66C745.483 67.3333 748.183 68 751.183 68ZM814.038 78.7C809.705 78.7 805.471 78.1333 801.338 77C797.205 75.8667 793.905 74.4333 791.438 72.7L796.238 63.2C798.638 64.8 801.505 66.1 804.838 67.1C808.238 68.0333 811.571 68.5 814.838 68.5C822.305 68.5 826.038 66.5333 826.038 62.6C826.038 60.7333 825.071 59.4333 823.138 58.7C821.271 57.9667 818.238 57.2667 814.038 56.6C809.638 55.9333 806.038 55.1667 803.238 54.3C800.505 53.4333 798.105 51.9333 796.038 49.8C794.038 47.6 793.038 44.5667 793.038 40.7C793.038 35.6333 795.138 31.6 799.338 28.6C803.605 25.5333 809.338 24 816.538 24C820.205 24 823.871 24.4333 827.538 25.3C831.205 26.1 834.205 27.2 836.538 28.6L831.738 38.1C827.205 35.4333 822.105 34.1 816.438 34.1C812.771 34.1 809.971 34.6667 808.038 35.8C806.171 36.8667 805.238 38.3 805.238 40.1C805.238 42.1 806.238 43.5333 808.238 44.4C810.305 45.2 813.471 45.9667 817.738 46.7C822.005 47.3667 825.505 48.1333 828.238 49C830.971 49.8667 833.305 51.3333 835.238 53.4C837.238 55.4667 838.238 58.4 838.238 62.2C838.238 67.2 836.071 71.2 831.738 74.2C827.405 77.2 821.505 78.7 814.038 78.7ZM855.003 24.6H867.503V78H855.003V24.6ZM861.303 15.8C859.036 15.8 857.136 15.1 855.603 13.7C854.069 12.2333 853.303 10.4333 853.303 8.3C853.303 6.16666 854.069 4.4 855.603 2.99999C857.136 1.53333 859.036 0.799999 861.303 0.799999C863.569 0.799999 865.469 1.5 867.003 2.9C868.536 4.23333 869.303 5.93333 869.303 8C869.303 10.2 868.536 12.0667 867.003 13.6C865.536 15.0667 863.636 15.8 861.303 15.8ZM922.009 75.1C920.542 76.3 918.742 77.2 916.609 77.8C914.542 78.4 912.342 78.7 910.009 78.7C904.142 78.7 899.609 77.1667 896.409 74.1C893.209 71.0333 891.609 66.5667 891.609 60.7V35H882.809V25H891.609V12.8H904.109V25H918.409V35H904.109V60.4C904.109 63 904.742 65 906.009 66.4C907.276 67.7333 909.109 68.4 911.509 68.4C914.309 68.4 916.642 67.6667 918.509 66.2L922.009 75.1ZM986.734 51.6C986.734 52.4667 986.667 53.7 986.534 55.3H944.634C945.367 59.2333 947.267 62.3667 950.334 64.7C953.467 66.9667 957.334 68.1 961.934 68.1C967.801 68.1 972.634 66.1667 976.434 62.3L983.134 70C980.734 72.8667 977.701 75.0333 974.034 76.5C970.367 77.9667 966.234 78.7 961.634 78.7C955.767 78.7 950.601 77.5333 946.134 75.2C941.667 72.8667 938.201 69.6333 935.734 65.5C933.334 61.3 932.134 56.5667 932.134 51.3C932.134 46.1 933.301 41.4333 935.634 37.3C938.034 33.1 941.334 29.8333 945.534 27.5C949.734 25.1667 954.467 24 959.734 24C964.934 24 969.567 25.1667 973.634 27.5C977.767 29.7667 980.967 33 983.234 37.2C985.567 41.3333 986.734 46.1333 986.734 51.6ZM959.734 34C955.734 34 952.334 35.2 949.534 37.6C946.801 39.9333 945.134 43.0667 944.534 47H974.834C974.301 43.1333 972.667 40 969.934 37.6C967.201 35.2 963.801 34 959.734 34Z" fill="#121212"/>
</svg>
