<svg width="656" height="82" viewBox="0 0 656 82" fill="none" xmlns="http://www.w3.org/2000/svg">
<path d="M0.962891 81V-6.19888e-06H17.6629C21.3962 -6.19888e-06 24.4629 0.533328 26.8629 1.6C29.3296 2.6 31.2296 4.03333 32.5629 5.9C33.9629 7.76666 34.9296 9.93333 35.4629 12.4C36.0629 14.8 36.3629 17.4 36.3629 20.2C36.3629 22.3333 36.0962 24.6333 35.5629 27.1C35.0962 29.5 34.1962 31.6333 32.8629 33.5C31.5296 35.3667 29.5296 36.6333 26.8629 37.3C29.9962 38.2333 32.3629 39.8333 33.9629 42.1C35.6296 44.3667 36.7296 46.9 37.2629 49.7C37.8629 52.4333 38.1629 55 38.1629 57.4C38.1629 60.4667 37.9296 63.4 37.4629 66.2C37.0629 69 36.2296 71.5333 34.9629 73.8C33.6962 76 31.8629 77.7667 29.4629 79.1C27.1296 80.3667 23.9962 81 20.0629 81H0.962891ZM6.36289 76.7H19.3629C24.6962 76.7 28.2629 75.1333 30.0629 72C31.9296 68.8667 32.8629 64.0333 32.8629 57.5C32.8629 54.2333 32.4629 51.2667 31.6629 48.6C30.9296 45.9333 29.6296 43.8 27.7629 42.2C25.9629 40.6 23.4296 39.8 20.1629 39.8H6.36289V76.7ZM6.36289 35.5H20.0629C23.0629 35.5 25.3629 34.8 26.9629 33.4C28.5629 32 29.6629 30.1667 30.2629 27.9C30.9296 25.5667 31.2629 23 31.2629 20.2C31.2629 17.2 30.8962 14.5 30.1629 12.1C29.4296 9.7 27.9962 7.83333 25.8629 6.49999C23.7962 5.1 20.6296 4.4 16.3629 4.4H6.36289V35.5ZM62.591 81.9C60.8577 81.9 59.291 81.5 57.891 80.7C56.5577 79.8333 55.491 78.5 54.691 76.7C53.891 74.8333 53.491 72.3667 53.491 69.3V23.2H58.791V68.7C58.791 72.2333 59.3243 74.6333 60.391 75.9C61.5243 77.1667 63.0244 77.8 64.891 77.8C66.9577 77.8 69.0244 77.1667 71.091 75.9C73.1577 74.5667 75.0577 72.8667 76.791 70.8V23.2H81.991V81H76.791V74.2C74.9243 76.5333 72.7577 78.4 70.291 79.8C67.891 81.2 65.3244 81.9 62.591 81.9ZM112.544 81.9C108.011 81.9 104.411 80.4333 101.744 77.5C99.0775 74.5 97.5441 70.4667 97.1441 65.4L101.644 64.1C101.977 68.9667 103.077 72.5 104.944 74.7C106.877 76.8333 109.477 77.9 112.744 77.9C115.677 77.9 117.944 77.1 119.544 75.5C121.144 73.8333 121.944 71.5 121.944 68.5C121.944 66.4333 121.244 64.3 119.844 62.1C118.511 59.8333 116.377 57.4667 113.444 55L106.744 49.3C103.877 46.8333 101.777 44.5 100.444 42.3C99.1108 40.0333 98.4441 37.4667 98.4441 34.6C98.4441 31.9333 98.9775 29.7 100.044 27.9C101.177 26.1 102.711 24.7333 104.644 23.8C106.644 22.8 108.944 22.3 111.544 22.3C115.877 22.3 119.111 23.6667 121.244 26.4C123.377 29.1333 124.511 32.8 124.644 37.4L120.744 38.6C120.677 35.6 120.244 33.2 119.444 31.4C118.711 29.6 117.677 28.3 116.344 27.5C115.077 26.7 113.577 26.3 111.844 26.3C109.311 26.3 107.244 26.9667 105.644 28.3C104.111 29.5667 103.344 31.4667 103.344 34C103.344 36.1333 103.744 38 104.544 39.6C105.411 41.1333 106.977 42.9333 109.244 45L116.144 51.1C117.877 52.5667 119.544 54.1333 121.144 55.8C122.744 57.4667 124.044 59.3333 125.044 61.4C126.111 63.4 126.644 65.8 126.644 68.6C126.644 71.4 126.044 73.8 124.844 75.8C123.711 77.7333 122.077 79.2333 119.944 80.3C117.877 81.3667 115.411 81.9 112.544 81.9ZM141.889 81V23.2H147.289V81H141.889ZM141.889 15.6V6.39999H147.289V15.6H141.889ZM166.034 81V23.2H171.334V29.4C173.134 27.2667 175.201 25.5667 177.534 24.3C179.867 22.9667 182.367 22.3 185.034 22.3C186.767 22.3 188.301 22.7333 189.634 23.6C191.034 24.4 192.134 25.7333 192.934 27.6C193.734 29.4 194.134 31.8333 194.134 34.9V81H188.834V35.5C188.834 31.9667 188.267 29.5667 187.134 28.3C186.067 27.0333 184.601 26.4 182.734 26.4C180.801 26.4 178.834 27 176.834 28.2C174.901 29.3333 173.067 30.8667 171.334 32.8V81H166.034ZM224.696 81.9C221.63 81.9 218.996 81.3 216.796 80.1C214.596 78.8333 212.896 76.6 211.696 73.4C210.563 70.1333 209.996 65.5333 209.996 59.6V44.2C209.996 38.1333 210.596 33.5333 211.796 30.4C212.996 27.2667 214.696 25.1333 216.896 24C219.163 22.8667 221.796 22.3 224.796 22.3C228.396 22.3 231.23 23.0667 233.296 24.6C235.363 26.1333 236.83 28.6 237.696 32C238.563 35.3333 238.996 39.7667 238.996 45.3V50.8H215.296V60C215.296 64.6 215.596 68.2 216.196 70.8C216.863 73.4 217.896 75.2333 219.296 76.3C220.696 77.3667 222.496 77.9 224.696 77.9C226.096 77.9 227.496 77.6667 228.896 77.2C230.296 76.7333 231.463 75.6333 232.396 73.9C233.33 72.1667 233.796 69.4667 233.796 65.8V61.5H238.996V65.3C238.996 70.2333 237.963 74.2333 235.896 77.3C233.896 80.3667 230.163 81.9 224.696 81.9ZM215.296 47.6H233.796V43.1C233.796 39.6333 233.596 36.6667 233.196 34.2C232.863 31.6667 232.063 29.7333 230.796 28.4C229.53 27 227.53 26.3 224.796 26.3C222.663 26.3 220.863 26.7667 219.396 27.7C217.996 28.5667 216.963 30.2333 216.296 32.7C215.63 35.1 215.296 38.6 215.296 43.2V47.6ZM268.087 81.9C263.554 81.9 259.954 80.4333 257.287 77.5C254.62 74.5 253.087 70.4667 252.687 65.4L257.187 64.1C257.52 68.9667 258.62 72.5 260.487 74.7C262.42 76.8333 265.02 77.9 268.287 77.9C271.22 77.9 273.487 77.1 275.087 75.5C276.687 73.8333 277.487 71.5 277.487 68.5C277.487 66.4333 276.787 64.3 275.387 62.1C274.054 59.8333 271.92 57.4667 268.987 55L262.287 49.3C259.42 46.8333 257.32 44.5 255.987 42.3C254.654 40.0333 253.987 37.4667 253.987 34.6C253.987 31.9333 254.52 29.7 255.587 27.9C256.72 26.1 258.254 24.7333 260.187 23.8C262.187 22.8 264.487 22.3 267.087 22.3C271.42 22.3 274.654 23.6667 276.787 26.4C278.92 29.1333 280.054 32.8 280.187 37.4L276.287 38.6C276.22 35.6 275.787 33.2 274.987 31.4C274.254 29.6 273.22 28.3 271.887 27.5C270.62 26.7 269.12 26.3 267.387 26.3C264.854 26.3 262.787 26.9667 261.187 28.3C259.654 29.5667 258.887 31.4667 258.887 34C258.887 36.1333 259.287 38 260.087 39.6C260.954 41.1333 262.52 42.9333 264.787 45L271.687 51.1C273.42 52.5667 275.087 54.1333 276.687 55.8C278.287 57.4667 279.587 59.3333 280.587 61.4C281.654 63.4 282.187 65.8 282.187 68.6C282.187 71.4 281.587 73.8 280.387 75.8C279.254 77.7333 277.62 79.2333 275.487 80.3C273.42 81.3667 270.954 81.9 268.087 81.9ZM309.732 81.9C305.198 81.9 301.598 80.4333 298.932 77.5C296.265 74.5 294.732 70.4667 294.332 65.4L298.832 64.1C299.165 68.9667 300.265 72.5 302.132 74.7C304.065 76.8333 306.665 77.9 309.932 77.9C312.865 77.9 315.132 77.1 316.732 75.5C318.332 73.8333 319.132 71.5 319.132 68.5C319.132 66.4333 318.432 64.3 317.032 62.1C315.698 59.8333 313.565 57.4667 310.632 55L303.932 49.3C301.065 46.8333 298.965 44.5 297.632 42.3C296.298 40.0333 295.632 37.4667 295.632 34.6C295.632 31.9333 296.165 29.7 297.232 27.9C298.365 26.1 299.898 24.7333 301.832 23.8C303.832 22.8 306.132 22.3 308.732 22.3C313.065 22.3 316.298 23.6667 318.432 26.4C320.565 29.1333 321.698 32.8 321.832 37.4L317.932 38.6C317.865 35.6 317.432 33.2 316.632 31.4C315.898 29.6 314.865 28.3 313.532 27.5C312.265 26.7 310.765 26.3 309.032 26.3C306.498 26.3 304.432 26.9667 302.832 28.3C301.298 29.5667 300.532 31.4667 300.532 34C300.532 36.1333 300.932 38 301.732 39.6C302.598 41.1333 304.165 42.9333 306.432 45L313.332 51.1C315.065 52.5667 316.732 54.1333 318.332 55.8C319.932 57.4667 321.232 59.3333 322.232 61.4C323.298 63.4 323.832 65.8 323.832 68.6C323.832 71.4 323.232 73.8 322.032 75.8C320.898 77.7333 319.265 79.2333 317.132 80.3C315.065 81.3667 312.598 81.9 309.732 81.9ZM375.021 81L360.921 -6.19888e-06H365.721L377.621 70.3L390.621 1.79999H395.821L409.221 70.3L420.021 -6.19888e-06H424.721L411.621 81H407.021L393.221 10.1L379.721 81H375.021ZM452.45 81.9C449.384 81.9 446.75 81.3 444.55 80.1C442.35 78.8333 440.65 76.6 439.45 73.4C438.317 70.1333 437.75 65.5333 437.75 59.6V44.2C437.75 38.1333 438.35 33.5333 439.55 30.4C440.75 27.2667 442.45 25.1333 444.65 24C446.917 22.8667 449.55 22.3 452.55 22.3C456.15 22.3 458.984 23.0667 461.05 24.6C463.117 26.1333 464.584 28.6 465.45 32C466.317 35.3333 466.75 39.7667 466.75 45.3V50.8H443.05V60C443.05 64.6 443.35 68.2 443.95 70.8C444.617 73.4 445.65 75.2333 447.05 76.3C448.45 77.3667 450.25 77.9 452.45 77.9C453.85 77.9 455.25 77.6667 456.65 77.2C458.05 76.7333 459.217 75.6333 460.15 73.9C461.084 72.1667 461.55 69.4667 461.55 65.8V61.5H466.75V65.3C466.75 70.2333 465.717 74.2333 463.65 77.3C461.65 80.3667 457.917 81.9 452.45 81.9ZM443.05 47.6H461.55V43.1C461.55 39.6333 461.35 36.6667 460.95 34.2C460.617 31.6667 459.817 29.7333 458.55 28.4C457.284 27 455.284 26.3 452.55 26.3C450.417 26.3 448.617 26.7667 447.15 27.7C445.75 28.5667 444.717 30.2333 444.05 32.7C443.384 35.1 443.05 38.6 443.05 43.2V47.6ZM498.641 81.9C496.174 81.9 494.041 81.2667 492.241 80C490.508 78.7333 489.108 77.4667 488.041 76.2V81H482.741V-6.19888e-06H488.041V28.1C489.108 26.7 490.541 25.4 492.341 24.2C494.208 22.9333 496.474 22.3 499.141 22.3C501.808 22.3 503.974 22.8667 505.641 24C507.374 25.0667 508.708 26.6667 509.641 28.8C510.641 30.8667 511.308 33.3667 511.641 36.3C512.041 39.2333 512.241 42.5 512.241 46.1V57.2C512.241 62.6 511.808 67.1333 510.941 70.8C510.141 74.4667 508.741 77.2333 506.741 79.1C504.808 80.9667 502.108 81.9 498.641 81.9ZM497.941 77.8C500.408 77.8 502.274 77.1 503.541 75.7C504.808 74.2333 505.674 72 506.141 69C506.608 65.9333 506.841 62.0667 506.841 57.4V46.1C506.841 41.5 506.608 37.7667 506.141 34.9C505.741 31.9667 504.908 29.8333 503.641 28.5C502.441 27.1 500.574 26.4 498.041 26.4C495.908 26.4 493.974 27.0333 492.241 28.3C490.508 29.5 489.108 30.6667 488.041 31.8V72.6C489.174 73.9333 490.574 75.1333 492.241 76.2C493.974 77.2667 495.874 77.8 497.941 77.8ZM541.587 81.9C537.054 81.9 533.454 80.4333 530.787 77.5C528.12 74.5 526.587 70.4667 526.187 65.4L530.687 64.1C531.02 68.9667 532.12 72.5 533.987 74.7C535.92 76.8333 538.52 77.9 541.787 77.9C544.72 77.9 546.987 77.1 548.587 75.5C550.187 73.8333 550.987 71.5 550.987 68.5C550.987 66.4333 550.287 64.3 548.887 62.1C547.554 59.8333 545.42 57.4667 542.487 55L535.787 49.3C532.92 46.8333 530.82 44.5 529.487 42.3C528.154 40.0333 527.487 37.4667 527.487 34.6C527.487 31.9333 528.02 29.7 529.087 27.9C530.22 26.1 531.754 24.7333 533.687 23.8C535.687 22.8 537.987 22.3 540.587 22.3C544.92 22.3 548.154 23.6667 550.287 26.4C552.42 29.1333 553.554 32.8 553.687 37.4L549.787 38.6C549.72 35.6 549.287 33.2 548.487 31.4C547.754 29.6 546.72 28.3 545.387 27.5C544.12 26.7 542.62 26.3 540.887 26.3C538.354 26.3 536.287 26.9667 534.687 28.3C533.154 29.5667 532.387 31.4667 532.387 34C532.387 36.1333 532.787 38 533.587 39.6C534.454 41.1333 536.02 42.9333 538.287 45L545.187 51.1C546.92 52.5667 548.587 54.1333 550.187 55.8C551.787 57.4667 553.087 59.3333 554.087 61.4C555.154 63.4 555.687 65.8 555.687 68.6C555.687 71.4 555.087 73.8 553.887 75.8C552.754 77.7333 551.12 79.2333 548.987 80.3C546.92 81.3667 544.454 81.9 541.587 81.9ZM570.932 81V23.2H576.332V81H570.932ZM570.932 15.6V6.39999H576.332V15.6H570.932ZM607.777 81.6C605.11 81.6 603.11 81.0667 601.777 80C600.444 78.9333 599.577 77.5 599.177 75.7C598.777 73.9 598.577 71.8667 598.577 69.6V26.7H590.977V23.2H598.577V4.7H603.877V23.2H613.677V26.7H603.877V68.9C603.877 72.0333 604.177 74.2333 604.777 75.5C605.377 76.7667 606.744 77.4 608.877 77.4C609.544 77.4 610.244 77.3667 610.977 77.3C611.777 77.1667 612.51 77.0333 613.177 76.9V81C612.377 81.2 611.477 81.3333 610.477 81.4C609.477 81.5333 608.577 81.6 607.777 81.6ZM640.946 81.9C637.88 81.9 635.246 81.3 633.046 80.1C630.846 78.8333 629.146 76.6 627.946 73.4C626.813 70.1333 626.246 65.5333 626.246 59.6V44.2C626.246 38.1333 626.846 33.5333 628.046 30.4C629.246 27.2667 630.946 25.1333 633.146 24C635.413 22.8667 638.046 22.3 641.046 22.3C644.646 22.3 647.48 23.0667 649.546 24.6C651.613 26.1333 653.08 28.6 653.946 32C654.813 35.3333 655.246 39.7667 655.246 45.3V50.8H631.546V60C631.546 64.6 631.846 68.2 632.446 70.8C633.113 73.4 634.146 75.2333 635.546 76.3C636.946 77.3667 638.746 77.9 640.946 77.9C642.346 77.9 643.746 77.6667 645.146 77.2C646.546 76.7333 647.713 75.6333 648.646 73.9C649.58 72.1667 650.046 69.4667 650.046 65.8V61.5H655.246V65.3C655.246 70.2333 654.213 74.2333 652.146 77.3C650.146 80.3667 646.413 81.9 640.946 81.9ZM631.546 47.6H650.046V43.1C650.046 39.6333 649.846 36.6667 649.446 34.2C649.113 31.6667 648.313 29.7333 647.046 28.4C645.78 27 643.78 26.3 641.046 26.3C638.913 26.3 637.113 26.7667 635.646 27.7C634.246 28.5667 633.213 30.2333 632.546 32.7C631.88 35.1 631.546 38.6 631.546 43.2V47.6Z" fill="#121212"/>
</svg>
