<svg width="375" height="600" viewBox="0 0 375 600" fill="none" xmlns="http://www.w3.org/2000/svg">
<rect width="1205.67" height="600" transform="translate(-415)" fill="white"/>
<path d="M65.7786 67.0935V50.2935H73.3146C75.2506 50.2935 76.7386 50.6855 77.7786 51.4695C78.8186 52.2375 79.3386 53.2935 79.3386 54.6375C79.3386 55.5495 79.1306 56.3175 78.7146 56.9415C78.3146 57.5655 77.7706 58.0455 77.0826 58.3815C76.3946 58.7175 75.6506 58.8855 74.8506 58.8855L75.2826 58.1655C76.2426 58.1655 77.0906 58.3335 77.8266 58.6695C78.5626 59.0055 79.1466 59.5015 79.5786 60.1575C80.0106 60.7975 80.2266 61.5975 80.2266 62.5575C80.2266 63.9975 79.6826 65.1175 78.5946 65.9175C77.5226 66.7015 75.9226 67.0935 73.7946 67.0935H65.7786ZM68.1786 65.1495H73.6986C75.0266 65.1495 76.0426 64.9255 76.7466 64.4775C77.4506 64.0295 77.8026 63.3255 77.8026 62.3655C77.8026 61.3895 77.4506 60.6775 76.7466 60.2295C76.0426 59.7815 75.0266 59.5575 73.6986 59.5575H67.9626V57.6135H73.0986C74.3146 57.6135 75.2586 57.3895 75.9306 56.9415C76.6026 56.4935 76.9386 55.8215 76.9386 54.9255C76.9386 54.0295 76.6026 53.3575 75.9306 52.9095C75.2586 52.4615 74.3146 52.2375 73.0986 52.2375H68.1786V65.1495ZM91.5987 67.2375C90.5107 67.2375 89.5507 67.0375 88.7187 66.6375C87.9027 66.2375 87.2627 65.6295 86.7987 64.8135C86.3507 63.9815 86.1267 62.9415 86.1267 61.6935V54.3735H88.4307V61.4295C88.4307 62.6775 88.7267 63.6135 89.3187 64.2375C89.9267 64.8615 90.7747 65.1735 91.8627 65.1735C92.6627 65.1735 93.3587 65.0135 93.9507 64.6935C94.5427 64.3575 94.9987 63.8775 95.3187 63.2535C95.6387 62.6135 95.7987 61.8455 95.7987 60.9495V54.3735H98.1027V67.0935H95.9187V63.6615L96.2787 64.5735C95.8627 65.4215 95.2387 66.0775 94.4067 66.5415C93.5747 67.0055 92.6387 67.2375 91.5987 67.2375ZM108.777 67.2375C107.721 67.2375 106.713 67.0935 105.753 66.8055C104.809 66.5175 104.065 66.1655 103.521 65.7495L104.481 63.9255C105.025 64.2935 105.697 64.6055 106.497 64.8615C107.297 65.1175 108.113 65.2455 108.945 65.2455C110.017 65.2455 110.785 65.0935 111.249 64.7895C111.729 64.4855 111.969 64.0615 111.969 63.5175C111.969 63.1175 111.825 62.8055 111.537 62.5815C111.249 62.3575 110.865 62.1895 110.385 62.0775C109.921 61.9655 109.401 61.8695 108.825 61.7895C108.249 61.6935 107.673 61.5815 107.097 61.4535C106.521 61.3095 105.993 61.1175 105.513 60.8775C105.033 60.6215 104.649 60.2775 104.361 59.8455C104.073 59.3975 103.929 58.8055 103.929 58.0695C103.929 57.3015 104.145 56.6295 104.577 56.0535C105.009 55.4775 105.617 55.0375 106.401 54.7335C107.201 54.4135 108.145 54.2535 109.233 54.2535C110.065 54.2535 110.905 54.3575 111.753 54.5655C112.617 54.7575 113.321 55.0375 113.865 55.4055L112.881 57.2295C112.305 56.8455 111.705 56.5815 111.081 56.4375C110.457 56.2935 109.833 56.2215 109.209 56.2215C108.201 56.2215 107.449 56.3895 106.953 56.7255C106.457 57.0455 106.209 57.4615 106.209 57.9735C106.209 58.4055 106.353 58.7415 106.641 58.9815C106.945 59.2055 107.329 59.3815 107.793 59.5095C108.273 59.6375 108.801 59.7495 109.377 59.8455C109.953 59.9255 110.529 60.0375 111.105 60.1815C111.681 60.3095 112.201 60.4935 112.665 60.7335C113.145 60.9735 113.529 61.3095 113.817 61.7415C114.121 62.1735 114.273 62.7495 114.273 63.4695C114.273 64.2375 114.049 64.9015 113.601 65.4615C113.153 66.0215 112.521 66.4615 111.705 66.7815C110.889 67.0855 109.913 67.2375 108.777 67.2375ZM119.792 67.0935V54.3735H122.096V67.0935H119.792ZM120.944 51.9255C120.496 51.9255 120.12 51.7815 119.816 51.4935C119.528 51.2055 119.384 50.8535 119.384 50.4375C119.384 50.0055 119.528 49.6455 119.816 49.3575C120.12 49.0695 120.496 48.9255 120.944 48.9255C121.392 48.9255 121.76 49.0695 122.048 49.3575C122.352 49.6295 122.504 49.9735 122.504 50.3895C122.504 50.8215 122.36 51.1895 122.072 51.4935C121.784 51.7815 121.408 51.9255 120.944 51.9255ZM135.927 54.2535C136.967 54.2535 137.879 54.4535 138.663 54.8535C139.463 55.2535 140.087 55.8615 140.535 56.6775C140.983 57.4935 141.207 58.5255 141.207 59.7735V67.0935H138.903V60.0375C138.903 58.8055 138.599 57.8775 137.991 57.2535C137.399 56.6295 136.559 56.3175 135.471 56.3175C134.655 56.3175 133.943 56.4775 133.335 56.7975C132.727 57.1175 132.255 57.5895 131.919 58.2135C131.599 58.8375 131.439 59.6135 131.439 60.5415V67.0935H129.135V54.3735H131.343V57.8055L130.983 56.8935C131.399 56.0615 132.039 55.4135 132.903 54.9495C133.767 54.4855 134.775 54.2535 135.927 54.2535ZM153.775 67.2375C152.415 67.2375 151.215 66.9575 150.175 66.3975C149.151 65.8375 148.351 65.0695 147.775 64.0935C147.215 63.1175 146.935 61.9975 146.935 60.7335C146.935 59.4695 147.207 58.3495 147.751 57.3735C148.311 56.3975 149.071 55.6375 150.031 55.0935C151.007 54.5335 152.103 54.2535 153.319 54.2535C154.551 54.2535 155.639 54.5255 156.583 55.0695C157.527 55.6135 158.263 56.3815 158.791 57.3735C159.335 58.3495 159.607 59.4935 159.607 60.8055C159.607 60.9015 159.599 61.0135 159.583 61.1415C159.583 61.2695 159.575 61.3895 159.559 61.5015H148.735V59.8455H158.359L157.423 60.4215C157.439 59.6055 157.271 58.8775 156.919 58.2375C156.567 57.5975 156.079 57.1015 155.455 56.7495C154.847 56.3815 154.135 56.1975 153.319 56.1975C152.519 56.1975 151.807 56.3815 151.183 56.7495C150.559 57.1015 150.071 57.6055 149.719 58.2615C149.367 58.9015 149.191 59.6375 149.191 60.4695V60.8535C149.191 61.7015 149.383 62.4615 149.767 63.1335C150.167 63.7895 150.719 64.3015 151.423 64.6695C152.127 65.0375 152.935 65.2215 153.847 65.2215C154.599 65.2215 155.279 65.0935 155.887 64.8375C156.511 64.5815 157.055 64.1975 157.519 63.6855L158.791 65.1735C158.215 65.8455 157.495 66.3575 156.631 66.7095C155.783 67.0615 154.831 67.2375 153.775 67.2375ZM169.095 67.2375C168.039 67.2375 167.031 67.0935 166.071 66.8055C165.127 66.5175 164.383 66.1655 163.839 65.7495L164.799 63.9255C165.343 64.2935 166.015 64.6055 166.815 64.8615C167.615 65.1175 168.431 65.2455 169.263 65.2455C170.335 65.2455 171.103 65.0935 171.567 64.7895C172.047 64.4855 172.287 64.0615 172.287 63.5175C172.287 63.1175 172.143 62.8055 171.855 62.5815C171.567 62.3575 171.183 62.1895 170.703 62.0775C170.239 61.9655 169.719 61.8695 169.143 61.7895C168.567 61.6935 167.991 61.5815 167.415 61.4535C166.839 61.3095 166.311 61.1175 165.831 60.8775C165.351 60.6215 164.967 60.2775 164.679 59.8455C164.391 59.3975 164.247 58.8055 164.247 58.0695C164.247 57.3015 164.463 56.6295 164.895 56.0535C165.327 55.4775 165.935 55.0375 166.719 54.7335C167.519 54.4135 168.463 54.2535 169.551 54.2535C170.383 54.2535 171.223 54.3575 172.071 54.5655C172.935 54.7575 173.639 55.0375 174.183 55.4055L173.199 57.2295C172.623 56.8455 172.023 56.5815 171.399 56.4375C170.775 56.2935 170.151 56.2215 169.527 56.2215C168.519 56.2215 167.767 56.3895 167.271 56.7255C166.775 57.0455 166.527 57.4615 166.527 57.9735C166.527 58.4055 166.671 58.7415 166.959 58.9815C167.263 59.2055 167.647 59.3815 168.111 59.5095C168.591 59.6375 169.119 59.7495 169.695 59.8455C170.271 59.9255 170.847 60.0375 171.423 60.1815C171.999 60.3095 172.519 60.4935 172.983 60.7335C173.463 60.9735 173.847 61.3095 174.135 61.7415C174.439 62.1735 174.591 62.7495 174.591 63.4695C174.591 64.2375 174.367 64.9015 173.919 65.4615C173.471 66.0215 172.839 66.4615 172.023 66.7815C171.207 67.0855 170.231 67.2375 169.095 67.2375ZM183.758 67.2375C182.702 67.2375 181.694 67.0935 180.734 66.8055C179.79 66.5175 179.046 66.1655 178.502 65.7495L179.462 63.9255C180.006 64.2935 180.678 64.6055 181.478 64.8615C182.278 65.1175 183.094 65.2455 183.926 65.2455C184.998 65.2455 185.766 65.0935 186.23 64.7895C186.71 64.4855 186.95 64.0615 186.95 63.5175C186.95 63.1175 186.806 62.8055 186.518 62.5815C186.23 62.3575 185.846 62.1895 185.366 62.0775C184.902 61.9655 184.382 61.8695 183.806 61.7895C183.23 61.6935 182.654 61.5815 182.078 61.4535C181.502 61.3095 180.974 61.1175 180.494 60.8775C180.014 60.6215 179.63 60.2775 179.342 59.8455C179.054 59.3975 178.91 58.8055 178.91 58.0695C178.91 57.3015 179.126 56.6295 179.558 56.0535C179.99 55.4775 180.598 55.0375 181.382 54.7335C182.182 54.4135 183.126 54.2535 184.214 54.2535C185.046 54.2535 185.886 54.3575 186.734 54.5655C187.598 54.7575 188.302 55.0375 188.846 55.4055L187.862 57.2295C187.286 56.8455 186.686 56.5815 186.062 56.4375C185.438 56.2935 184.814 56.2215 184.19 56.2215C183.182 56.2215 182.43 56.3895 181.934 56.7255C181.438 57.0455 181.19 57.4615 181.19 57.9735C181.19 58.4055 181.334 58.7415 181.622 58.9815C181.926 59.2055 182.31 59.3815 182.774 59.5095C183.254 59.6375 183.782 59.7495 184.358 59.8455C184.934 59.9255 185.51 60.0375 186.086 60.1815C186.662 60.3095 187.182 60.4935 187.646 60.7335C188.126 60.9735 188.51 61.3095 188.798 61.7415C189.102 62.1735 189.254 62.7495 189.254 63.4695C189.254 64.2375 189.03 64.9015 188.582 65.4615C188.134 66.0215 187.502 66.4615 186.686 66.7815C185.87 67.0855 184.894 67.2375 183.758 67.2375ZM206.547 67.0935L201.819 54.3735H204.003L208.203 65.8935H207.171L211.539 54.3735L213.483 54.3735L217.755 65.8935H216.747L221.043 54.3735H223.107L218.355 67.0935H216.147L212.139 56.5815H212.811L208.755 67.0935H206.547ZM233.397 67.2375C232.037 67.2375 230.837 66.9575 229.797 66.3975C228.773 65.8375 227.973 65.0695 227.397 64.0935C226.837 63.1175 226.557 61.9975 226.557 60.7335C226.557 59.4695 226.829 58.3495 227.373 57.3735C227.933 56.3975 228.693 55.6375 229.653 55.0935C230.629 54.5335 231.725 54.2535 232.941 54.2535C234.173 54.2535 235.261 54.5255 236.205 55.0695C237.149 55.6135 237.885 56.3815 238.413 57.3735C238.957 58.3495 239.229 59.4935 239.229 60.8055C239.229 60.9015 239.221 61.0135 239.205 61.1415C239.205 61.2695 239.197 61.3895 239.181 61.5015H228.357V59.8455H237.981L237.045 60.4215C237.061 59.6055 236.893 58.8775 236.541 58.2375C236.189 57.5975 235.701 57.1015 235.077 56.7495C234.469 56.3815 233.757 56.1975 232.941 56.1975C232.141 56.1975 231.429 56.3815 230.805 56.7495C230.181 57.1015 229.693 57.6055 229.341 58.2615C228.989 58.9015 228.813 59.6375 228.813 60.4695V60.8535C228.813 61.7015 229.005 62.4615 229.389 63.1335C229.789 63.7895 230.341 64.3015 231.045 64.6695C231.749 65.0375 232.557 65.2215 233.469 65.2215C234.221 65.2215 234.901 65.0935 235.509 64.8375C236.133 64.5815 236.677 64.1975 237.141 63.6855L238.413 65.1735C237.837 65.8455 237.117 66.3575 236.253 66.7095C235.405 67.0615 234.453 67.2375 233.397 67.2375ZM251.813 67.2375C250.725 67.2375 249.741 66.9975 248.861 66.5175C247.997 66.0215 247.309 65.2935 246.797 64.3335C246.301 63.3735 246.053 62.1735 246.053 60.7335C246.053 59.2935 246.309 58.0935 246.821 57.1335C247.349 56.1735 248.045 55.4535 248.909 54.9735C249.789 54.4935 250.757 54.2535 251.813 54.2535C253.061 54.2535 254.165 54.5255 255.125 55.0695C256.085 55.6135 256.845 56.3735 257.405 57.3495C257.965 58.3095 258.245 59.4375 258.245 60.7335C258.245 62.0295 257.965 63.1655 257.405 64.1415C256.845 65.1175 256.085 65.8775 255.125 66.4215C254.165 66.9655 253.061 67.2375 251.813 67.2375ZM245.069 67.0935V49.2855H247.373V57.7575L247.133 60.7095L247.277 63.6615V67.0935H245.069ZM251.621 65.2215C252.437 65.2215 253.165 65.0375 253.805 64.6695C254.461 64.3015 254.973 63.7815 255.341 63.1095C255.725 62.4215 255.917 61.6295 255.917 60.7335C255.917 59.8215 255.725 59.0375 255.341 58.3815C254.973 57.7095 254.461 57.1895 253.805 56.8215C253.165 56.4535 252.437 56.2695 251.621 56.2695C250.821 56.2695 250.093 56.4535 249.437 56.8215C248.797 57.1895 248.285 57.7095 247.901 58.3815C247.533 59.0375 247.349 59.8215 247.349 60.7335C247.349 61.6295 247.533 62.4215 247.901 63.1095C248.285 63.7815 248.797 64.3015 249.437 64.6695C250.093 65.0375 250.821 65.2215 251.621 65.2215ZM267.716 67.2375C266.66 67.2375 265.652 67.0935 264.692 66.8055C263.748 66.5175 263.004 66.1655 262.46 65.7495L263.42 63.9255C263.964 64.2935 264.636 64.6055 265.436 64.8615C266.236 65.1175 267.052 65.2455 267.884 65.2455C268.956 65.2455 269.724 65.0935 270.188 64.7895C270.668 64.4855 270.908 64.0615 270.908 63.5175C270.908 63.1175 270.764 62.8055 270.476 62.5815C270.188 62.3575 269.804 62.1895 269.324 62.0775C268.86 61.9655 268.34 61.8695 267.764 61.7895C267.188 61.6935 266.612 61.5815 266.036 61.4535C265.46 61.3095 264.932 61.1175 264.452 60.8775C263.972 60.6215 263.588 60.2775 263.3 59.8455C263.012 59.3975 262.868 58.8055 262.868 58.0695C262.868 57.3015 263.084 56.6295 263.516 56.0535C263.948 55.4775 264.556 55.0375 265.34 54.7335C266.14 54.4135 267.084 54.2535 268.172 54.2535C269.004 54.2535 269.844 54.3575 270.692 54.5655C271.556 54.7575 272.26 55.0375 272.804 55.4055L271.82 57.2295C271.244 56.8455 270.644 56.5815 270.02 56.4375C269.396 56.2935 268.772 56.2215 268.148 56.2215C267.14 56.2215 266.388 56.3895 265.892 56.7255C265.396 57.0455 265.148 57.4615 265.148 57.9735C265.148 58.4055 265.292 58.7415 265.58 58.9815C265.884 59.2055 266.268 59.3815 266.732 59.5095C267.212 59.6375 267.74 59.7495 268.316 59.8455C268.892 59.9255 269.468 60.0375 270.044 60.1815C270.62 60.3095 271.14 60.4935 271.604 60.7335C272.084 60.9735 272.468 61.3095 272.756 61.7415C273.06 62.1735 273.212 62.7495 273.212 63.4695C273.212 64.2375 272.988 64.9015 272.54 65.4615C272.092 66.0215 271.46 66.4615 270.644 66.7815C269.828 67.0855 268.852 67.2375 267.716 67.2375ZM278.731 67.0935V54.3735H281.035V67.0935H278.731ZM279.883 51.9255C279.435 51.9255 279.059 51.7815 278.755 51.4935C278.467 51.2055 278.323 50.8535 278.323 50.4375C278.323 50.0055 278.467 49.6455 278.755 49.3575C279.059 49.0695 279.435 48.9255 279.883 48.9255C280.331 48.9255 280.699 49.0695 280.987 49.3575C281.291 49.6295 281.443 49.9735 281.443 50.3895C281.443 50.8215 281.299 51.1895 281.011 51.4935C280.723 51.7815 280.347 51.9255 279.883 51.9255ZM292.442 67.2375C291.162 67.2375 290.17 66.8935 289.466 66.2055C288.762 65.5175 288.41 64.5335 288.41 63.2535V51.5895H290.714V63.1575C290.714 63.8455 290.882 64.3735 291.218 64.7415C291.57 65.1095 292.066 65.2935 292.706 65.2935C293.426 65.2935 294.026 65.0935 294.506 64.6935L295.226 66.3495C294.874 66.6535 294.45 66.8775 293.954 67.0215C293.474 67.1655 292.97 67.2375 292.442 67.2375ZM286.25 56.2695V54.3735H294.362V56.2695H286.25ZM305.894 67.2375C304.534 67.2375 303.334 66.9575 302.294 66.3975C301.27 65.8375 300.47 65.0695 299.894 64.0935C299.334 63.1175 299.054 61.9975 299.054 60.7335C299.054 59.4695 299.326 58.3495 299.87 57.3735C300.43 56.3975 301.19 55.6375 302.15 55.0935C303.126 54.5335 304.222 54.2535 305.438 54.2535C306.67 54.2535 307.758 54.5255 308.702 55.0695C309.646 55.6135 310.382 56.3815 310.91 57.3735C311.454 58.3495 311.726 59.4935 311.726 60.8055C311.726 60.9015 311.718 61.0135 311.702 61.1415C311.702 61.2695 311.694 61.3895 311.678 61.5015H300.854V59.8455H310.478L309.542 60.4215C309.558 59.6055 309.39 58.8775 309.038 58.2375C308.686 57.5975 308.198 57.1015 307.574 56.7495C306.966 56.3815 306.254 56.1975 305.438 56.1975C304.638 56.1975 303.926 56.3815 303.302 56.7495C302.678 57.1015 302.19 57.6055 301.838 58.2615C301.486 58.9015 301.31 59.6375 301.31 60.4695V60.8535C301.31 61.7015 301.502 62.4615 301.886 63.1335C302.286 63.7895 302.838 64.3015 303.542 64.6695C304.246 65.0375 305.054 65.2215 305.966 65.2215C306.718 65.2215 307.398 65.0935 308.006 64.8375C308.63 64.5815 309.174 64.1975 309.638 63.6855L310.91 65.1735C310.334 65.8455 309.614 66.3575 308.75 66.7095C307.902 67.0615 306.95 67.2375 305.894 67.2375Z" fill="#121212"/>
<circle cx="162.965" cy="97.5354" r="7.53541" fill="#121212"/>
<circle cx="187.832" cy="97.5354" r="7.53541" fill="#FDBCA7"/>
<circle cx="212.699" cy="97.5354" r="7.53541" fill="#EED480"/>
<rect x="165.84" y="214.002" width="33.9664" height="10.409" rx="5.20452" fill="#121212"/>
<rect x="159.266" y="243.038" width="20.2702" height="10.409" rx="5.20452" fill="#121212"/>
<rect x="186.109" y="243.038" width="20.2702" height="10.409" rx="5.20452" fill="#121212"/>
<circle cx="104.481" cy="219.481" r="61.3219" stroke="#121212" stroke-width="14.3173"/>
<path d="M90.7852 207.406H118.177V229.318H90.7852V207.406Z" fill="white"/>
<path d="M92.9688 212.352H97.3515V218.424H92.9688V212.352Z" fill="white"/>
<path d="M115.672 227.098H102.234V212.633H115.672V220.287V227.098Z" fill="white"/>
<path d="M91.3609 210.065H117.695M99.6837 228.971V210.065M90.7812 207.406H118.173V229.318H90.7812V207.406Z" stroke="#121212" stroke-width="1.50708" stroke-miterlimit="10" stroke-linecap="round" stroke-linejoin="round"/>
<path d="M92.9141 222.099H95.707M92.9141 224.291H97.4656M92.9141 226.482H95.707M102.232 227.098L115.67 212.632M102.232 212.632L115.67 227.098M92.9639 212.352H97.3467V218.424H92.9639V212.352ZM115.67 227.098H102.232V212.632H115.67V220.287V227.098Z" stroke="#121212" stroke-width="1.50708" stroke-miterlimit="10" stroke-linecap="round" stroke-linejoin="round"/>
<rect x="79.484" y="203.799" width="49.9903" height="29.7201" rx="3.01416" stroke="#121212" stroke-width="1.50708"/>
<path d="M112.695 233.725L131.694 233.725C132.365 233.725 132.701 234.536 132.227 235.011L127.433 239.804C127.292 239.945 127.1 240.025 126.901 240.025H82.0537C81.8539 240.025 81.6622 239.945 81.5209 239.804L76.7278 235.011C76.2531 234.536 76.5893 233.725 77.2606 233.725L95.9856 233.725M112.695 233.725L110.45 235.969C110.309 236.11 110.117 236.19 109.917 236.19H98.763C98.5632 236.19 98.3715 236.11 98.2302 235.969L95.9856 233.725M112.695 233.725L95.9856 233.725" stroke="#121212" stroke-width="1.50708" stroke-linejoin="round"/>
<rect width="37.2534" height="10.409" rx="5.20452" transform="matrix(-1 0 0 1 87.25 447.21)" fill="#EED480"/>
<rect width="31.775" height="10.409" rx="5.20452" transform="matrix(-1 0 0 1 88.8945 476.246)" fill="#EED480"/>
<circle r="61.3219" transform="matrix(-1 0 0 1 148.609 467.481)" stroke="#EED480" stroke-width="14.3173"/>
<path d="M119.781 453.716H176.893V483.435C176.893 485.1 175.544 486.449 173.879 486.449H122.795C121.13 486.449 119.781 485.1 119.781 483.435V453.716ZM176.893 452.209H119.781V450.43C119.781 448.766 121.13 447.416 122.795 447.416H173.879C175.544 447.416 176.893 448.766 176.893 450.43V452.209Z" stroke="#EED480" stroke-width="1.50708"/>
<circle cx="123.413" cy="449.949" r="1.26676" stroke="#EED480" stroke-width="0.753541"/>
<circle cx="127.245" cy="449.949" r="1.26676" stroke="#EED480" stroke-width="0.753541"/>
<circle cx="131.081" cy="449.949" r="1.26676" stroke="#EED480" stroke-width="0.753541"/>
<circle cx="130.53" cy="475.15" r="3.08137" stroke="#EED480" stroke-width="1.50708"/>
<circle cx="142.581" cy="463.646" r="3.08137" stroke="#EED480" stroke-width="1.50708"/>
<circle cx="154.089" cy="475.15" r="3.08137" stroke="#EED480" stroke-width="1.50708"/>
<circle cx="166.14" cy="463.646" r="3.08137" stroke="#EED480" stroke-width="1.50708"/>
<path d="M139.568 464.741L131.898 472.411" stroke="#EED480" stroke-width="1.50708" stroke-linejoin="round"/>
<path d="M162.853 464.741L155.184 472.411" stroke="#EED480" stroke-width="1.50708" stroke-linejoin="round"/>
<path d="M145.596 464.741L152.992 472.137" stroke="#EED480" stroke-width="1.50708" stroke-linejoin="round"/>
<path d="M141.486 466.385L133.816 474.055" stroke="#EED480" stroke-width="1.50708" stroke-linejoin="round"/>
<path d="M164.771 466.385L157.102 474.055" stroke="#EED480" stroke-width="1.50708" stroke-linejoin="round"/>
<path d="M143.678 466.385L151.348 474.055" stroke="#EED480" stroke-width="1.50708" stroke-linejoin="round"/>
<rect x="313.922" y="329.255" width="29.9646" height="10.6723" rx="5.33617" fill="#FDBCA7"/>
<rect x="305.301" y="300.522" width="18.4714" height="10.2619" rx="5.13093" fill="#FDBCA7"/>
<rect x="333.434" y="300.419" width="20.2702" height="10.409" rx="5.20452" fill="#FDBCA7"/>
<rect x="151" y="315.21" width="39.9927" height="10.409" rx="5.20452" fill="#FDBCA7"/>
<rect x="159.219" y="344.246" width="29.5836" height="10.409" rx="5.20452" fill="#FDBCA7"/>
<circle cx="250.707" cy="335.481" r="61.3219" stroke="#FDBCA7" stroke-width="14.3173"/>
<path d="M278.448 338.562H230.101V316.994V315.143C230.101 313.478 231.451 312.129 233.115 312.129H275.434C277.098 312.129 278.448 313.478 278.448 315.143V316.994V338.562ZM278.448 340.069V343.765C278.448 345.43 277.098 346.78 275.434 346.78H233.115C231.451 346.78 230.101 345.43 230.101 343.765V340.069H278.448Z" stroke="#FDBCA7" stroke-width="1.50708"/>
<circle cx="254.546" cy="343.15" r="3.08137" stroke="#FDBCA7" stroke-width="1.50708"/>
<path d="M246.623 353.354L247.271 347.739H261.018L261.882 353.354H246.623Z" stroke="#FDBCA7" stroke-width="1.50708"/>
<path d="M242.46 357.463L243.571 354.313H265.295L266.778 357.463H242.46Z" stroke="#FDBCA7" stroke-width="1.50708"/>
<path d="M222.77 357.942H271.254" stroke="#FDBCA7" stroke-width="1.50708" stroke-linejoin="round"/>
<path d="M273.168 357.942L279.742 357.942" stroke="#FDBCA7" stroke-width="1.50708" stroke-linejoin="round"/>
<rect x="222.255" y="331.68" width="15.2704" height="24.5838" rx="2.63739" fill="white" stroke="#FDBCA7" stroke-width="2.26062"/>
</svg>
