<svg width="1600" height="706" viewBox="0 0 1600 706" fill="none" xmlns="http://www.w3.org/2000/svg">
<rect width="1600" height="706" fill="white"/>
<path d="M494.446 164V122H513.286C518.126 122 521.846 122.98 524.446 124.94C527.046 126.86 528.346 129.5 528.346 132.86C528.346 135.14 527.826 137.06 526.786 138.62C525.786 140.18 524.426 141.38 522.706 142.22C520.986 143.06 519.126 143.48 517.126 143.48L518.206 141.68C520.606 141.68 522.726 142.1 524.566 142.94C526.406 143.78 527.866 145.02 528.946 146.66C530.026 148.26 530.566 150.26 530.566 152.66C530.566 156.26 529.206 159.06 526.486 161.06C523.806 163.02 519.806 164 514.486 164H494.446ZM500.446 159.14H514.246C517.566 159.14 520.106 158.58 521.866 157.46C523.626 156.34 524.506 154.58 524.506 152.18C524.506 149.74 523.626 147.96 521.866 146.84C520.106 145.72 517.566 145.16 514.246 145.16H499.906V140.3H512.746C515.786 140.3 518.146 139.74 519.826 138.62C521.506 137.5 522.346 135.82 522.346 133.58C522.346 131.34 521.506 129.66 519.826 128.54C518.146 127.42 515.786 126.86 512.746 126.86H500.446V159.14ZM558.997 164.36C556.277 164.36 553.877 163.86 551.797 162.86C549.757 161.86 548.157 160.34 546.997 158.3C545.877 156.22 545.317 153.62 545.317 150.5V132.2H551.077V149.84C551.077 152.96 551.817 155.3 553.297 156.86C554.817 158.42 556.937 159.2 559.657 159.2C561.657 159.2 563.397 158.8 564.877 158C566.357 157.16 567.497 155.96 568.297 154.4C569.097 152.8 569.497 150.88 569.497 148.64V132.2H575.257V164H569.797V155.42L570.697 157.7C569.657 159.82 568.097 161.46 566.017 162.62C563.937 163.78 561.597 164.36 558.997 164.36ZM601.942 164.36C599.302 164.36 596.782 164 594.382 163.28C592.022 162.56 590.162 161.68 588.802 160.64L591.202 156.08C592.562 157 594.242 157.78 596.242 158.42C598.242 159.06 600.282 159.38 602.362 159.38C605.042 159.38 606.962 159 608.122 158.24C609.322 157.48 609.922 156.42 609.922 155.06C609.922 154.06 609.562 153.28 608.842 152.72C608.122 152.16 607.162 151.74 605.962 151.46C604.802 151.18 603.502 150.94 602.062 150.74C600.622 150.5 599.182 150.22 597.742 149.9C596.302 149.54 594.982 149.06 593.782 148.46C592.582 147.82 591.622 146.96 590.902 145.88C590.182 144.76 589.822 143.28 589.822 141.44C589.822 139.52 590.362 137.84 591.442 136.4C592.522 134.96 594.042 133.86 596.002 133.1C598.002 132.3 600.362 131.9 603.082 131.9C605.162 131.9 607.262 132.16 609.382 132.68C611.542 133.16 613.302 133.86 614.662 134.78L612.202 139.34C610.762 138.38 609.262 137.72 607.702 137.36C606.142 137 604.582 136.82 603.022 136.82C600.502 136.82 598.622 137.24 597.382 138.08C596.142 138.88 595.522 139.92 595.522 141.2C595.522 142.28 595.882 143.12 596.602 143.72C597.362 144.28 598.322 144.72 599.482 145.04C600.682 145.36 602.002 145.64 603.442 145.88C604.882 146.08 606.322 146.36 607.762 146.72C609.202 147.04 610.502 147.5 611.662 148.1C612.862 148.7 613.822 149.54 614.542 150.62C615.302 151.7 615.682 153.14 615.682 154.94C615.682 156.86 615.122 158.52 614.002 159.92C612.882 161.32 611.302 162.42 609.262 163.22C607.222 163.98 604.782 164.36 601.942 164.36ZM629.481 164V132.2H635.241V164H629.481ZM632.361 126.08C631.241 126.08 630.301 125.72 629.541 125C628.821 124.28 628.461 123.4 628.461 122.36C628.461 121.28 628.821 120.38 629.541 119.66C630.301 118.94 631.241 118.58 632.361 118.58C633.481 118.58 634.401 118.94 635.121 119.66C635.881 120.34 636.261 121.2 636.261 122.24C636.261 123.32 635.901 124.24 635.181 125C634.461 125.72 633.521 126.08 632.361 126.08ZM669.819 131.9C672.419 131.9 674.699 132.4 676.659 133.4C678.659 134.4 680.219 135.92 681.339 137.96C682.459 140 683.019 142.58 683.019 145.7V164H677.259V146.36C677.259 143.28 676.499 140.96 674.979 139.4C673.499 137.84 671.399 137.06 668.679 137.06C666.639 137.06 664.859 137.46 663.339 138.26C661.819 139.06 660.639 140.24 659.799 141.8C658.999 143.36 658.599 145.3 658.599 147.62V164H652.839V132.2H658.359V140.78L657.459 138.5C658.499 136.42 660.099 134.8 662.259 133.64C664.419 132.48 666.939 131.9 669.819 131.9ZM714.438 164.36C711.038 164.36 708.038 163.66 705.438 162.26C702.878 160.86 700.878 158.94 699.438 156.5C698.038 154.06 697.338 151.26 697.338 148.1C697.338 144.94 698.018 142.14 699.378 139.7C700.778 137.26 702.678 135.36 705.078 134C707.518 132.6 710.258 131.9 713.298 131.9C716.378 131.9 719.098 132.58 721.458 133.94C723.818 135.3 725.658 137.22 726.978 139.7C728.338 142.14 729.018 145 729.018 148.28C729.018 148.52 728.998 148.8 728.958 149.12C728.958 149.44 728.938 149.74 728.898 150.02H701.838V145.88H725.898L723.558 147.32C723.598 145.28 723.178 143.46 722.298 141.86C721.418 140.26 720.198 139.02 718.638 138.14C717.118 137.22 715.338 136.76 713.298 136.76C711.298 136.76 709.518 137.22 707.958 138.14C706.398 139.02 705.178 140.28 704.298 141.92C703.418 143.52 702.978 145.36 702.978 147.44V148.4C702.978 150.52 703.458 152.42 704.418 154.1C705.418 155.74 706.798 157.02 708.558 157.94C710.318 158.86 712.338 159.32 714.618 159.32C716.498 159.32 718.198 159 719.718 158.36C721.278 157.72 722.638 156.76 723.798 155.48L726.978 159.2C725.538 160.88 723.738 162.16 721.578 163.04C719.458 163.92 717.078 164.36 714.438 164.36ZM752.737 164.36C750.097 164.36 747.577 164 745.177 163.28C742.817 162.56 740.957 161.68 739.597 160.64L741.997 156.08C743.357 157 745.037 157.78 747.037 158.42C749.037 159.06 751.077 159.38 753.157 159.38C755.837 159.38 757.757 159 758.917 158.24C760.117 157.48 760.717 156.42 760.717 155.06C760.717 154.06 760.357 153.28 759.637 152.72C758.917 152.16 757.957 151.74 756.757 151.46C755.597 151.18 754.297 150.94 752.857 150.74C751.417 150.5 749.977 150.22 748.537 149.9C747.097 149.54 745.777 149.06 744.577 148.46C743.377 147.82 742.417 146.96 741.697 145.88C740.977 144.76 740.617 143.28 740.617 141.44C740.617 139.52 741.157 137.84 742.237 136.4C743.317 134.96 744.837 133.86 746.797 133.1C748.797 132.3 751.157 131.9 753.877 131.9C755.957 131.9 758.057 132.16 760.177 132.68C762.337 133.16 764.097 133.86 765.457 134.78L762.997 139.34C761.557 138.38 760.057 137.72 758.497 137.36C756.937 137 755.377 136.82 753.817 136.82C751.297 136.82 749.417 137.24 748.177 138.08C746.937 138.88 746.317 139.92 746.317 141.2C746.317 142.28 746.677 143.12 747.397 143.72C748.157 144.28 749.117 144.72 750.277 145.04C751.477 145.36 752.797 145.64 754.237 145.88C755.677 146.08 757.117 146.36 758.557 146.72C759.997 147.04 761.297 147.5 762.457 148.1C763.657 148.7 764.617 149.54 765.337 150.62C766.097 151.7 766.477 153.14 766.477 154.94C766.477 156.86 765.917 158.52 764.797 159.92C763.677 161.32 762.097 162.42 760.057 163.22C758.017 163.98 755.577 164.36 752.737 164.36ZM789.395 164.36C786.755 164.36 784.235 164 781.835 163.28C779.475 162.56 777.615 161.68 776.255 160.64L778.655 156.08C780.015 157 781.695 157.78 783.695 158.42C785.695 159.06 787.735 159.38 789.815 159.38C792.495 159.38 794.415 159 795.575 158.24C796.775 157.48 797.375 156.42 797.375 155.06C797.375 154.06 797.015 153.28 796.295 152.72C795.575 152.16 794.615 151.74 793.415 151.46C792.255 151.18 790.955 150.94 789.515 150.74C788.075 150.5 786.635 150.22 785.195 149.9C783.755 149.54 782.435 149.06 781.235 148.46C780.035 147.82 779.075 146.96 778.355 145.88C777.635 144.76 777.275 143.28 777.275 141.44C777.275 139.52 777.815 137.84 778.895 136.4C779.975 134.96 781.495 133.86 783.455 133.1C785.455 132.3 787.815 131.9 790.535 131.9C792.615 131.9 794.715 132.16 796.835 132.68C798.995 133.16 800.755 133.86 802.115 134.78L799.655 139.34C798.215 138.38 796.715 137.72 795.155 137.36C793.595 137 792.035 136.82 790.475 136.82C787.955 136.82 786.075 137.24 784.835 138.08C783.595 138.88 782.975 139.92 782.975 141.2C782.975 142.28 783.335 143.12 784.055 143.72C784.815 144.28 785.775 144.72 786.935 145.04C788.135 145.36 789.455 145.64 790.895 145.88C792.335 146.08 793.775 146.36 795.215 146.72C796.655 147.04 797.955 147.5 799.115 148.1C800.315 148.7 801.275 149.54 801.995 150.62C802.755 151.7 803.135 153.14 803.135 154.94C803.135 156.86 802.575 158.52 801.455 159.92C800.335 161.32 798.755 162.42 796.715 163.22C794.675 163.98 792.235 164.36 789.395 164.36ZM846.367 164L834.547 132.2H840.007L850.507 161H847.927L858.847 132.2H863.707L874.387 161H871.867L882.607 132.2H887.767L875.887 164H870.367L860.347 137.72H862.027L851.887 164H846.367ZM913.493 164.36C910.093 164.36 907.093 163.66 904.493 162.26C901.933 160.86 899.933 158.94 898.493 156.5C897.093 154.06 896.393 151.26 896.393 148.1C896.393 144.94 897.073 142.14 898.433 139.7C899.833 137.26 901.733 135.36 904.133 134C906.573 132.6 909.313 131.9 912.353 131.9C915.433 131.9 918.153 132.58 920.513 133.94C922.873 135.3 924.713 137.22 926.033 139.7C927.393 142.14 928.073 145 928.073 148.28C928.073 148.52 928.053 148.8 928.013 149.12C928.013 149.44 927.993 149.74 927.953 150.02H900.893V145.88H924.953L922.613 147.32C922.653 145.28 922.233 143.46 921.353 141.86C920.473 140.26 919.253 139.02 917.693 138.14C916.173 137.22 914.393 136.76 912.353 136.76C910.353 136.76 908.573 137.22 907.013 138.14C905.453 139.02 904.233 140.28 903.353 141.92C902.473 143.52 902.033 145.36 902.033 147.44V148.4C902.033 150.52 902.513 152.42 903.473 154.1C904.473 155.74 905.853 157.02 907.613 157.94C909.373 158.86 911.393 159.32 913.673 159.32C915.553 159.32 917.253 159 918.773 158.36C920.333 157.72 921.693 156.76 922.853 155.48L926.033 159.2C924.593 160.88 922.793 162.16 920.633 163.04C918.513 163.92 916.133 164.36 913.493 164.36ZM959.531 164.36C956.811 164.36 954.351 163.76 952.151 162.56C949.991 161.32 948.271 159.5 946.991 157.1C945.751 154.7 945.131 151.7 945.131 148.1C945.131 144.5 945.771 141.5 947.051 139.1C948.371 136.7 950.111 134.9 952.271 133.7C954.471 132.5 956.891 131.9 959.531 131.9C962.651 131.9 965.411 132.58 967.811 133.94C970.211 135.3 972.111 137.2 973.511 139.64C974.911 142.04 975.611 144.86 975.611 148.1C975.611 151.34 974.911 154.18 973.511 156.62C972.111 159.06 970.211 160.96 967.811 162.32C965.411 163.68 962.651 164.36 959.531 164.36ZM942.671 164V119.48H948.431V140.66L947.831 148.04L948.191 155.42V164H942.671ZM959.051 159.32C961.091 159.32 962.911 158.86 964.511 157.94C966.151 157.02 967.431 155.72 968.351 154.04C969.311 152.32 969.791 150.34 969.791 148.1C969.791 145.82 969.311 143.86 968.351 142.22C967.431 140.54 966.151 139.24 964.511 138.32C962.911 137.4 961.091 136.94 959.051 136.94C957.051 136.94 955.231 137.4 953.591 138.32C951.991 139.24 950.711 140.54 949.751 142.22C948.831 143.86 948.371 145.82 948.371 148.1C948.371 150.34 948.831 152.32 949.751 154.04C950.711 155.72 951.991 157.02 953.591 157.94C955.231 158.86 957.051 159.32 959.051 159.32ZM999.29 164.36C996.65 164.36 994.13 164 991.73 163.28C989.37 162.56 987.51 161.68 986.15 160.64L988.55 156.08C989.91 157 991.59 157.78 993.59 158.42C995.59 159.06 997.63 159.38 999.71 159.38C1002.39 159.38 1004.31 159 1005.47 158.24C1006.67 157.48 1007.27 156.42 1007.27 155.06C1007.27 154.06 1006.91 153.28 1006.19 152.72C1005.47 152.16 1004.51 151.74 1003.31 151.46C1002.15 151.18 1000.85 150.94 999.41 150.74C997.97 150.5 996.53 150.22 995.09 149.9C993.65 149.54 992.33 149.06 991.13 148.46C989.93 147.82 988.97 146.96 988.25 145.88C987.53 144.76 987.17 143.28 987.17 141.44C987.17 139.52 987.71 137.84 988.79 136.4C989.87 134.96 991.39 133.86 993.35 133.1C995.35 132.3 997.71 131.9 1000.43 131.9C1002.51 131.9 1004.61 132.16 1006.73 132.68C1008.89 133.16 1010.65 133.86 1012.01 134.78L1009.55 139.34C1008.11 138.38 1006.61 137.72 1005.05 137.36C1003.49 137 1001.93 136.82 1000.37 136.82C997.85 136.82 995.97 137.24 994.73 138.08C993.49 138.88 992.87 139.92 992.87 141.2C992.87 142.28 993.23 143.12 993.95 143.72C994.71 144.28 995.67 144.72 996.83 145.04C998.03 145.36 999.35 145.64 1000.79 145.88C1002.23 146.08 1003.67 146.36 1005.11 146.72C1006.55 147.04 1007.85 147.5 1009.01 148.1C1010.21 148.7 1011.17 149.54 1011.89 150.62C1012.65 151.7 1013.03 153.14 1013.03 154.94C1013.03 156.86 1012.47 158.52 1011.35 159.92C1010.23 161.32 1008.65 162.42 1006.61 163.22C1004.57 163.98 1002.13 164.36 999.29 164.36ZM1026.83 164V132.2H1032.59V164H1026.83ZM1029.71 126.08C1028.59 126.08 1027.65 125.72 1026.89 125C1026.17 124.28 1025.81 123.4 1025.81 122.36C1025.81 121.28 1026.17 120.38 1026.89 119.66C1027.65 118.94 1028.59 118.58 1029.71 118.58C1030.83 118.58 1031.75 118.94 1032.47 119.66C1033.23 120.34 1033.61 121.2 1033.61 122.24C1033.61 123.32 1033.25 124.24 1032.53 125C1031.81 125.72 1030.87 126.08 1029.71 126.08ZM1061.11 164.36C1057.91 164.36 1055.43 163.5 1053.67 161.78C1051.91 160.06 1051.03 157.6 1051.03 154.4V125.24H1056.79V154.16C1056.79 155.88 1057.21 157.2 1058.05 158.12C1058.93 159.04 1060.17 159.5 1061.77 159.5C1063.57 159.5 1065.07 159 1066.27 158L1068.07 162.14C1067.19 162.9 1066.13 163.46 1064.89 163.82C1063.69 164.18 1062.43 164.36 1061.11 164.36ZM1045.63 136.94V132.2H1065.91V136.94H1045.63ZM1094.74 164.36C1091.34 164.36 1088.34 163.66 1085.74 162.26C1083.18 160.86 1081.18 158.94 1079.74 156.5C1078.34 154.06 1077.64 151.26 1077.64 148.1C1077.64 144.94 1078.32 142.14 1079.68 139.7C1081.08 137.26 1082.98 135.36 1085.38 134C1087.82 132.6 1090.56 131.9 1093.6 131.9C1096.68 131.9 1099.4 132.58 1101.76 133.94C1104.12 135.3 1105.96 137.22 1107.28 139.7C1108.64 142.14 1109.32 145 1109.32 148.28C1109.32 148.52 1109.3 148.8 1109.26 149.12C1109.26 149.44 1109.24 149.74 1109.2 150.02L1082.14 150.02V145.88L1106.2 145.88L1103.86 147.32C1103.9 145.28 1103.48 143.46 1102.6 141.86C1101.72 140.26 1100.5 139.02 1098.94 138.14C1097.42 137.22 1095.64 136.76 1093.6 136.76C1091.6 136.76 1089.82 137.22 1088.26 138.14C1086.7 139.02 1085.48 140.28 1084.6 141.92C1083.72 143.52 1083.28 145.36 1083.28 147.44V148.4C1083.28 150.52 1083.76 152.42 1084.72 154.1C1085.72 155.74 1087.1 157.02 1088.86 157.94C1090.62 158.86 1092.64 159.32 1094.92 159.32C1096.8 159.32 1098.5 159 1100.02 158.36C1101.58 157.72 1102.94 156.76 1104.1 155.48L1107.28 159.2C1105.84 160.88 1104.04 162.16 1101.88 163.04C1099.76 163.92 1097.38 164.36 1094.74 164.36Z" fill="#121212"/>
<circle cx="767" cy="231" r="10" fill="#121212"/>
<circle cx="800" cy="231" r="10" fill="#FDBCA7"/>
<circle cx="833" cy="231" r="10" fill="#EED480"/>
<rect x="531.734" y="428.486" width="82.749" height="25.3586" rx="12.6793" fill="#121212"/>
<rect x="515.719" y="499.223" width="49.3825" height="25.3586" rx="12.6793" fill="#121212"/>
<rect x="581.117" y="499.223" width="49.3825" height="25.3586" rx="12.6793" fill="#121212"/>
<circle cx="382.251" cy="441.833" r="157.333" stroke="#121212" stroke-width="19"/>
<path d="M348.883 412.415H415.616V465.799H348.883V412.415Z" fill="white"/>
<path d="M354.203 424.466H364.88V439.258H354.203V424.466Z" fill="white"/>
<path d="M409.518 460.391H376.781V425.149H409.518V443.797V460.391Z" fill="white"/>
<path d="M350.295 418.894H414.449M370.571 464.954V418.894M348.883 412.415H415.616V465.799H348.883V412.415Z" stroke="#121212" stroke-width="2" stroke-miterlimit="10" stroke-linecap="round" stroke-linejoin="round"/>
<path d="M354.078 448.212H360.882M354.078 453.551H365.166M354.078 458.89H360.882M376.779 460.391L409.516 425.149M376.779 425.149L409.516 460.391M354.2 424.466H364.877V439.258H354.2V424.466ZM409.516 460.391H376.779V425.149H409.516V443.797V460.391Z" stroke="#121212" stroke-width="2" stroke-miterlimit="10" stroke-linecap="round" stroke-linejoin="round"/>
<rect x="320.523" y="402.793" width="123.458" height="74.0757" rx="4" stroke="#121212" stroke-width="2"/>
<path d="M402.273 476.534L450.576 476.534C451.466 476.534 451.913 477.611 451.283 478.241L437.934 491.59C437.746 491.777 437.492 491.882 437.227 491.882H327.278C327.013 491.882 326.759 491.777 326.571 491.59L313.223 478.241C312.593 477.611 313.039 476.534 313.93 476.534L361.565 476.534M402.273 476.534L396.56 482.247C396.372 482.434 396.118 482.54 395.852 482.54H367.986C367.72 482.54 367.466 482.434 367.279 482.247L361.565 476.534M402.273 476.534L361.565 476.534" stroke="#121212" stroke-width="2" stroke-linejoin="round"/>
<rect width="90.757" height="25.3586" rx="12.6793" transform="matrix(-1 0 0 1 1068.27 393.785)" fill="#EED480"/>
<rect width="77.4104" height="25.3586" rx="12.6793" transform="matrix(-1 0 0 1 1072.27 464.522)" fill="#EED480"/>
<circle r="157.333" transform="matrix(-1 0 0 1 1217.75 443.167)" stroke="#EED480" stroke-width="19"/>
<path d="M1146.68 397.45C1146.68 395.241 1148.47 393.45 1150.68 393.45H1283.48C1285.69 393.45 1287.48 395.241 1287.48 397.45V407.799V486.215C1287.48 488.424 1285.69 490.215 1283.48 490.215H1150.68C1148.47 490.215 1146.68 488.424 1146.68 486.215V407.799V397.45Z" stroke="#EED480" stroke-width="2"/>
<circle cx="1156.35" cy="400.458" r="3.50398" stroke="#EED480"/>
<circle cx="1165.69" cy="400.458" r="3.50398" stroke="#EED480"/>
<circle cx="1175.04" cy="400.458" r="3.50398" stroke="#EED480"/>
<circle cx="1173.7" cy="461.853" r="8.34263" stroke="#EED480" stroke-width="2"/>
<circle cx="1203.07" cy="433.825" r="8.34263" stroke="#EED480" stroke-width="2"/>
<circle cx="1231.09" cy="461.853" r="8.34263" stroke="#EED480" stroke-width="2"/>
<circle cx="1260.46" cy="433.825" r="8.34263" stroke="#EED480" stroke-width="2"/>
<path d="M1195.72 436.494L1177.04 455.179" stroke="#EED480" stroke-width="2" stroke-linejoin="round"/>
<path d="M1252.45 436.494L1233.76 455.179" stroke="#EED480" stroke-width="2" stroke-linejoin="round"/>
<path d="M1210.4 436.494L1228.42 454.512" stroke="#EED480" stroke-width="2" stroke-linejoin="round"/>
<path d="M1200.4 440.498L1181.71 459.183" stroke="#EED480" stroke-width="2" stroke-linejoin="round"/>
<path d="M1257.12 440.498L1238.43 459.183" stroke="#EED480" stroke-width="2" stroke-linejoin="round"/>
<path d="M1205.74 440.498L1224.42 459.183" stroke="#EED480" stroke-width="2" stroke-linejoin="round"/>
<rect x="954" y="428" width="73" height="26" rx="13" fill="#FDBCA7"/>
<rect x="933" y="358" width="45" height="25" rx="12.5" fill="#FDBCA7"/>
<rect x="1001.54" y="357.749" width="49.3825" height="25.3586" rx="12.6793" fill="#FDBCA7"/>
<rect x="557.094" y="393.785" width="97.4303" height="25.3586" rx="12.6793" fill="#FDBCA7"/>
<rect x="577.113" y="464.522" width="72.0717" height="25.3586" rx="12.6793" fill="#FDBCA7"/>
<circle cx="800.005" cy="443.167" r="157.333" stroke="#FDBCA7" stroke-width="19"/>
<path d="M752.949 385.442H864.403C866.613 385.442 868.403 387.233 868.403 389.442V398.132V452.51V467.53C868.403 469.739 866.613 471.53 864.403 471.53H752.949C750.74 471.53 748.949 469.739 748.949 467.53V452.51V398.132V389.442C748.949 387.233 750.74 385.442 752.949 385.442Z" stroke="#FDBCA7" stroke-width="2"/>
<circle cx="809.343" cy="461.853" r="8.34263" stroke="#FDBCA7" stroke-width="2"/>
<path d="M789.11 487.546L790.882 472.195H825.836L828.197 487.546H789.11Z" stroke="#FDBCA7" stroke-width="2"/>
<path d="M778.726 497.556L782.024 488.211H836.07L840.468 497.556H778.726Z" stroke="#FDBCA7" stroke-width="2"/>
<path d="M731.934 497.888H850.051" stroke="#FDBCA7" stroke-width="2" stroke-linejoin="round"/>
<path d="M854.723 497.888L870.739 497.888" stroke="#FDBCA7" stroke-width="2" stroke-linejoin="round"/>
<rect x="729.43" y="432.655" width="39.7092" height="62.3984" rx="3.5" fill="white" stroke="#FDBCA7" stroke-width="3"/>
</svg>
