<svg width="375" height="600" viewBox="0 0 375 600" fill="none" xmlns="http://www.w3.org/2000/svg">
<rect width="1205.67" height="600" transform="translate(-415)" fill="white"/>
<path d="M77.0474 58.3815C78.0234 58.6535 78.7914 59.1495 79.3514 59.8695C79.9114 60.5735 80.1914 61.4695 80.1914 62.5575C80.1914 64.0135 79.6394 65.1335 78.5354 65.9175C77.4474 66.7015 75.8554 67.0935 73.7594 67.0935H65.7434V50.2935H73.2794C75.1994 50.2935 76.6794 50.6775 77.7194 51.4455C78.7754 52.2135 79.3034 53.2775 79.3034 54.6375C79.3034 55.5175 79.0954 56.2775 78.6794 56.9175C78.2794 57.5575 77.7354 58.0455 77.0474 58.3815ZM68.1434 52.2375V57.6135H73.0634C74.2954 57.6135 75.2394 57.3895 75.8954 56.9415C76.5674 56.4775 76.9034 55.8055 76.9034 54.9255C76.9034 54.0455 76.5674 53.3815 75.8954 52.9335C75.2394 52.4695 74.2954 52.2375 73.0634 52.2375H68.1434ZM73.6634 65.1495C75.0234 65.1495 76.0474 64.9255 76.7354 64.4775C77.4234 64.0295 77.7674 63.3255 77.7674 62.3655C77.7674 60.4935 76.3994 59.5575 73.6634 59.5575H68.1434V65.1495H73.6634ZM98.0675 54.3735V67.0935H95.8835V65.1735C95.4195 65.8295 94.8035 66.3415 94.0355 66.7095C93.2835 67.0615 92.4595 67.2375 91.5635 67.2375C89.8675 67.2375 88.5315 66.7735 87.5555 65.8455C86.5795 64.9015 86.0915 63.5175 86.0915 61.6935V54.3735H88.3955V61.4295C88.3955 62.6615 88.6915 63.5975 89.2835 64.2375C89.8755 64.8615 90.7235 65.1735 91.8275 65.1735C93.0435 65.1735 94.0035 64.8055 94.7075 64.0695C95.4115 63.3335 95.7635 62.2935 95.7635 60.9495V54.3735H98.0675ZM105.094 54.3735H107.398V67.0935H105.094V54.3735ZM106.246 51.9255C105.798 51.9255 105.422 51.7815 105.118 51.4935C104.83 51.2055 104.686 50.8535 104.686 50.4375C104.686 50.0215 104.83 49.6695 105.118 49.3815C105.422 49.0775 105.798 48.9255 106.246 48.9255C106.694 48.9255 107.062 49.0695 107.35 49.3575C107.654 49.6295 107.806 49.9735 107.806 50.3895C107.806 50.8215 107.654 51.1895 107.35 51.4935C107.062 51.7815 106.694 51.9255 106.246 51.9255ZM118.085 67.2375C117.045 67.2375 116.045 67.1015 115.085 66.8295C114.125 66.5415 113.373 66.1815 112.829 65.7495L113.789 63.9255C114.349 64.3255 115.029 64.6455 115.829 64.8855C116.629 65.1255 117.437 65.2455 118.253 65.2455C120.269 65.2455 121.277 64.6695 121.277 63.5175C121.277 63.1335 121.141 62.8295 120.869 62.6055C120.597 62.3815 120.253 62.2215 119.837 62.1255C119.437 62.0135 118.861 61.8935 118.109 61.7655C117.085 61.6055 116.245 61.4215 115.589 61.2135C114.949 61.0055 114.397 60.6535 113.933 60.1575C113.469 59.6615 113.237 58.9655 113.237 58.0695C113.237 56.9175 113.717 55.9975 114.677 55.3095C115.637 54.6055 116.925 54.2535 118.541 54.2535C119.389 54.2535 120.237 54.3575 121.085 54.5655C121.933 54.7735 122.629 55.0535 123.173 55.4055L122.189 57.2295C121.149 56.5575 119.925 56.2215 118.517 56.2215C117.541 56.2215 116.797 56.3815 116.285 56.7015C115.773 57.0215 115.517 57.4455 115.517 57.9735C115.517 58.3895 115.661 58.7175 115.949 58.9575C116.237 59.1975 116.589 59.3735 117.005 59.4855C117.437 59.5975 118.037 59.7255 118.805 59.8695C119.829 60.0455 120.653 60.2375 121.277 60.4455C121.917 60.6375 122.461 60.9735 122.909 61.4535C123.357 61.9335 123.581 62.6055 123.581 63.4695C123.581 64.6215 123.085 65.5415 122.093 66.2295C121.117 66.9015 119.781 67.2375 118.085 67.2375ZM135.892 54.2535C137.508 54.2535 138.788 54.7255 139.732 55.6695C140.692 56.5975 141.172 57.9655 141.172 59.7735V67.0935H138.868V60.0375C138.868 58.8055 138.572 57.8775 137.98 57.2535C137.388 56.6295 136.54 56.3175 135.436 56.3175C134.188 56.3175 133.204 56.6855 132.484 57.4215C131.764 58.1415 131.404 59.1815 131.404 60.5415V67.0935H129.1V54.3735H131.308V56.2935C131.772 55.6375 132.396 55.1335 133.18 54.7815C133.98 54.4295 134.884 54.2535 135.892 54.2535ZM159.642 60.8055C159.642 60.9815 159.626 61.2135 159.594 61.5015H149.274C149.418 62.6215 149.906 63.5255 150.738 64.2135C151.586 64.8855 152.634 65.2215 153.882 65.2215C155.402 65.2215 156.626 64.7095 157.554 63.6855L158.826 65.1735C158.25 65.8455 157.53 66.3575 156.666 66.7095C155.818 67.0615 154.866 67.2375 153.81 67.2375C152.466 67.2375 151.274 66.9655 150.234 66.4215C149.194 65.8615 148.386 65.0855 147.81 64.0935C147.25 63.1015 146.97 61.9815 146.97 60.7335C146.97 59.5015 147.242 58.3895 147.786 57.3975C148.346 56.4055 149.106 55.6375 150.066 55.0935C151.042 54.5335 152.138 54.2535 153.354 54.2535C154.57 54.2535 155.65 54.5335 156.594 55.0935C157.554 55.6375 158.298 56.4055 158.826 57.3975C159.37 58.3895 159.642 59.5255 159.642 60.8055ZM153.354 56.1975C152.25 56.1975 151.322 56.5335 150.57 57.2055C149.834 57.8775 149.402 58.7575 149.274 59.8455H157.434C157.306 58.7735 156.866 57.9015 156.114 57.2295C155.378 56.5415 154.458 56.1975 153.354 56.1975ZM169.13 67.2375C168.09 67.2375 167.09 67.1015 166.13 66.8295C165.17 66.5415 164.418 66.1815 163.874 65.7495L164.834 63.9255C165.394 64.3255 166.074 64.6455 166.874 64.8855C167.674 65.1255 168.482 65.2455 169.298 65.2455C171.314 65.2455 172.322 64.6695 172.322 63.5175C172.322 63.1335 172.186 62.8295 171.914 62.6055C171.642 62.3815 171.298 62.2215 170.882 62.1255C170.482 62.0135 169.906 61.8935 169.154 61.7655C168.13 61.6055 167.29 61.4215 166.634 61.2135C165.994 61.0055 165.442 60.6535 164.978 60.1575C164.514 59.6615 164.282 58.9655 164.282 58.0695C164.282 56.9175 164.762 55.9975 165.722 55.3095C166.682 54.6055 167.97 54.2535 169.586 54.2535C170.434 54.2535 171.282 54.3575 172.13 54.5655C172.978 54.7735 173.674 55.0535 174.218 55.4055L173.234 57.2295C172.194 56.5575 170.97 56.2215 169.562 56.2215C168.586 56.2215 167.842 56.3815 167.33 56.7015C166.818 57.0215 166.562 57.4455 166.562 57.9735C166.562 58.3895 166.706 58.7175 166.994 58.9575C167.282 59.1975 167.634 59.3735 168.05 59.4855C168.482 59.5975 169.082 59.7255 169.85 59.8695C170.874 60.0455 171.698 60.2375 172.322 60.4455C172.962 60.6375 173.506 60.9735 173.954 61.4535C174.402 61.9335 174.626 62.6055 174.626 63.4695C174.626 64.6215 174.13 65.5415 173.138 66.2295C172.162 66.9015 170.826 67.2375 169.13 67.2375ZM183.793 67.2375C182.753 67.2375 181.753 67.1015 180.793 66.8295C179.833 66.5415 179.081 66.1815 178.537 65.7495L179.497 63.9255C180.057 64.3255 180.737 64.6455 181.537 64.8855C182.337 65.1255 183.145 65.2455 183.961 65.2455C185.977 65.2455 186.985 64.6695 186.985 63.5175C186.985 63.1335 186.849 62.8295 186.577 62.6055C186.305 62.3815 185.961 62.2215 185.545 62.1255C185.145 62.0135 184.569 61.8935 183.817 61.7655C182.793 61.6055 181.953 61.4215 181.297 61.2135C180.657 61.0055 180.105 60.6535 179.641 60.1575C179.177 59.6615 178.945 58.9655 178.945 58.0695C178.945 56.9175 179.425 55.9975 180.385 55.3095C181.345 54.6055 182.633 54.2535 184.249 54.2535C185.097 54.2535 185.945 54.3575 186.793 54.5655C187.641 54.7735 188.337 55.0535 188.881 55.4055L187.897 57.2295C186.857 56.5575 185.633 56.2215 184.225 56.2215C183.249 56.2215 182.505 56.3815 181.993 56.7015C181.481 57.0215 181.225 57.4455 181.225 57.9735C181.225 58.3895 181.369 58.7175 181.657 58.9575C181.945 59.1975 182.297 59.3735 182.713 59.4855C183.145 59.5975 183.745 59.7255 184.513 59.8695C185.537 60.0455 186.361 60.2375 186.985 60.4455C187.625 60.6375 188.169 60.9735 188.617 61.4535C189.065 61.9335 189.289 62.6055 189.289 63.4695C189.289 64.6215 188.793 65.5415 187.801 66.2295C186.825 66.9015 185.489 67.2375 183.793 67.2375ZM223.142 54.3735L218.39 67.0935H216.182L212.51 57.4455L208.79 67.0935H206.582L201.854 54.3735H204.038L207.734 64.5015L211.574 54.3735L213.518 54.3735L217.286 64.5495L221.078 54.3735H223.142ZM239.264 60.8055C239.264 60.9815 239.248 61.2135 239.216 61.5015H228.896C229.04 62.6215 229.528 63.5255 230.36 64.2135C231.208 64.8855 232.256 65.2215 233.504 65.2215C235.024 65.2215 236.248 64.7095 237.176 63.6855L238.448 65.1735C237.872 65.8455 237.152 66.3575 236.288 66.7095C235.44 67.0615 234.488 67.2375 233.432 67.2375C232.088 67.2375 230.896 66.9655 229.856 66.4215C228.816 65.8615 228.008 65.0855 227.432 64.0935C226.872 63.1015 226.592 61.9815 226.592 60.7335C226.592 59.5015 226.864 58.3895 227.408 57.3975C227.968 56.4055 228.728 55.6375 229.688 55.0935C230.664 54.5335 231.76 54.2535 232.976 54.2535C234.192 54.2535 235.272 54.5335 236.216 55.0935C237.176 55.6375 237.92 56.4055 238.448 57.3975C238.992 58.3895 239.264 59.5255 239.264 60.8055ZM232.976 56.1975C231.872 56.1975 230.944 56.5335 230.192 57.2055C229.456 57.8775 229.024 58.7575 228.896 59.8455H237.056C236.928 58.7735 236.488 57.9015 235.736 57.2295C235 56.5415 234.08 56.1975 232.976 56.1975ZM251.848 54.2535C253.08 54.2535 254.184 54.5255 255.16 55.0695C256.136 55.6135 256.896 56.3735 257.44 57.3495C258 58.3255 258.28 59.4535 258.28 60.7335C258.28 62.0135 258 63.1495 257.44 64.1415C256.896 65.1175 256.136 65.8775 255.16 66.4215C254.184 66.9655 253.08 67.2375 251.848 67.2375C250.904 67.2375 250.04 67.0535 249.256 66.6855C248.472 66.3175 247.824 65.7815 247.312 65.0775V67.0935H245.104V49.2855H247.408V56.2935C247.92 55.6215 248.56 55.1175 249.328 54.7815C250.096 54.4295 250.936 54.2535 251.848 54.2535ZM251.656 65.2215C252.472 65.2215 253.2 65.0375 253.84 64.6695C254.496 64.2855 255.008 63.7575 255.376 63.0855C255.76 62.3975 255.952 61.6135 255.952 60.7335C255.952 59.8535 255.76 59.0775 255.376 58.4055C255.008 57.7175 254.496 57.1895 253.84 56.8215C253.2 56.4535 252.472 56.2695 251.656 56.2695C250.856 56.2695 250.128 56.4535 249.472 56.8215C248.816 57.1895 248.304 57.7175 247.936 58.4055C247.568 59.0775 247.384 59.8535 247.384 60.7335C247.384 61.6135 247.568 62.3975 247.936 63.0855C248.304 63.7575 248.816 64.2855 249.472 64.6695C250.128 65.0375 250.856 65.2215 251.656 65.2215ZM267.751 67.2375C266.711 67.2375 265.711 67.1015 264.751 66.8295C263.791 66.5415 263.039 66.1815 262.495 65.7495L263.455 63.9255C264.015 64.3255 264.695 64.6455 265.495 64.8855C266.295 65.1255 267.103 65.2455 267.919 65.2455C269.935 65.2455 270.943 64.6695 270.943 63.5175C270.943 63.1335 270.807 62.8295 270.535 62.6055C270.263 62.3815 269.919 62.2215 269.503 62.1255C269.103 62.0135 268.527 61.8935 267.775 61.7655C266.751 61.6055 265.911 61.4215 265.255 61.2135C264.615 61.0055 264.063 60.6535 263.599 60.1575C263.135 59.6615 262.903 58.9655 262.903 58.0695C262.903 56.9175 263.383 55.9975 264.343 55.3095C265.303 54.6055 266.591 54.2535 268.207 54.2535C269.055 54.2535 269.903 54.3575 270.751 54.5655C271.599 54.7735 272.295 55.0535 272.839 55.4055L271.855 57.2295C270.815 56.5575 269.591 56.2215 268.183 56.2215C267.207 56.2215 266.463 56.3815 265.951 56.7015C265.439 57.0215 265.183 57.4455 265.183 57.9735C265.183 58.3895 265.327 58.7175 265.615 58.9575C265.903 59.1975 266.255 59.3735 266.671 59.4855C267.103 59.5975 267.703 59.7255 268.471 59.8695C269.495 60.0455 270.319 60.2375 270.943 60.4455C271.583 60.6375 272.127 60.9735 272.575 61.4535C273.023 61.9335 273.247 62.6055 273.247 63.4695C273.247 64.6215 272.751 65.5415 271.759 66.2295C270.783 66.9015 269.447 67.2375 267.751 67.2375ZM278.767 54.3735H281.071V67.0935H278.767V54.3735ZM279.919 51.9255C279.471 51.9255 279.095 51.7815 278.791 51.4935C278.503 51.2055 278.359 50.8535 278.359 50.4375C278.359 50.0215 278.503 49.6695 278.791 49.3815C279.095 49.0775 279.471 48.9255 279.919 48.9255C280.367 48.9255 280.735 49.0695 281.023 49.3575C281.327 49.6295 281.479 49.9735 281.479 50.3895C281.479 50.8215 281.327 51.1895 281.023 51.4935C280.735 51.7815 280.367 51.9255 279.919 51.9255ZM295.262 66.3495C294.926 66.6375 294.51 66.8615 294.014 67.0215C293.518 67.1655 293.006 67.2375 292.478 67.2375C291.198 67.2375 290.206 66.8935 289.502 66.2055C288.798 65.5175 288.446 64.5335 288.446 63.2535V56.2695H286.286V54.3735H288.446V51.5895H290.75V54.3735H294.398V56.2695H290.75V63.1575C290.75 63.8455 290.918 64.3735 291.254 64.7415C291.606 65.1095 292.102 65.2935 292.742 65.2935C293.446 65.2935 294.046 65.0935 294.542 64.6935L295.262 66.3495ZM311.761 60.8055C311.761 60.9815 311.745 61.2135 311.713 61.5015H301.393C301.537 62.6215 302.025 63.5255 302.857 64.2135C303.705 64.8855 304.753 65.2215 306.001 65.2215C307.521 65.2215 308.745 64.7095 309.673 63.6855L310.945 65.1735C310.369 65.8455 309.649 66.3575 308.785 66.7095C307.937 67.0615 306.985 67.2375 305.929 67.2375C304.585 67.2375 303.393 66.9655 302.353 66.4215C301.313 65.8615 300.505 65.0855 299.929 64.0935C299.369 63.1015 299.089 61.9815 299.089 60.7335C299.089 59.5015 299.361 58.3895 299.905 57.3975C300.465 56.4055 301.225 55.6375 302.185 55.0935C303.161 54.5335 304.257 54.2535 305.473 54.2535C306.689 54.2535 307.769 54.5335 308.713 55.0935C309.673 55.6375 310.417 56.4055 310.945 57.3975C311.489 58.3895 311.761 59.5255 311.761 60.8055ZM305.473 56.1975C304.369 56.1975 303.441 56.5335 302.689 57.2055C301.953 57.8775 301.521 58.7575 301.393 59.8455H309.553C309.425 58.7735 308.985 57.9015 308.233 57.2295C307.497 56.5415 306.577 56.1975 305.473 56.1975Z" fill="#121212"/>
<circle cx="162.965" cy="97.5354" r="7.53541" fill="#121212"/>
<circle cx="187.832" cy="97.5354" r="7.53541" fill="#FDBCA7"/>
<circle cx="212.699" cy="97.5354" r="7.53541" fill="#EED480"/>
<rect x="165.84" y="214.002" width="33.9664" height="10.409" rx="5.20452" fill="#121212"/>
<rect x="159.266" y="243.038" width="20.2702" height="10.409" rx="5.20452" fill="#121212"/>
<rect x="186.109" y="243.038" width="20.2702" height="10.409" rx="5.20452" fill="#121212"/>
<circle cx="104.481" cy="219.481" r="61.3219" stroke="#121212" stroke-width="14.3173"/>
<path d="M90.7852 207.406H118.177V229.318H90.7852V207.406Z" fill="white"/>
<path d="M92.9688 212.352H97.3515V218.424H92.9688V212.352Z" fill="white"/>
<path d="M115.672 227.098H102.234V212.633H115.672V220.287V227.098Z" fill="white"/>
<path d="M91.3609 210.065H117.695M99.6837 228.971V210.065M90.7812 207.406H118.173V229.318H90.7812V207.406Z" stroke="#121212" stroke-width="1.50708" stroke-miterlimit="10" stroke-linecap="round" stroke-linejoin="round"/>
<path d="M92.9141 222.099H95.707M92.9141 224.291H97.4656M92.9141 226.482H95.707M102.232 227.098L115.67 212.632M102.232 212.632L115.67 227.098M92.9639 212.352H97.3467V218.424H92.9639V212.352ZM115.67 227.098H102.232V212.632H115.67V220.287V227.098Z" stroke="#121212" stroke-width="1.50708" stroke-miterlimit="10" stroke-linecap="round" stroke-linejoin="round"/>
<rect x="79.484" y="203.799" width="49.9903" height="29.7201" rx="3.01416" stroke="#121212" stroke-width="1.50708"/>
<path d="M112.695 233.725L131.694 233.725C132.365 233.725 132.701 234.536 132.227 235.011L127.433 239.804C127.292 239.945 127.1 240.025 126.901 240.025H82.0537C81.8539 240.025 81.6622 239.945 81.5209 239.804L76.7278 235.011C76.2531 234.536 76.5893 233.725 77.2606 233.725L95.9856 233.725M112.695 233.725L110.45 235.969C110.309 236.11 110.117 236.19 109.917 236.19H98.763C98.5632 236.19 98.3715 236.11 98.2302 235.969L95.9856 233.725M112.695 233.725L95.9856 233.725" stroke="#121212" stroke-width="1.50708" stroke-linejoin="round"/>
<rect width="37.2534" height="10.409" rx="5.20452" transform="matrix(-1 0 0 1 87.25 447.21)" fill="#EED480"/>
<rect width="31.775" height="10.409" rx="5.20452" transform="matrix(-1 0 0 1 88.8945 476.246)" fill="#EED480"/>
<circle r="61.3219" transform="matrix(-1 0 0 1 148.609 467.481)" stroke="#EED480" stroke-width="14.3173"/>
<path d="M119.781 450.43C119.781 448.766 121.13 447.416 122.795 447.416H173.879C175.544 447.416 176.893 448.766 176.893 450.43V452.963V483.435C176.893 485.1 175.544 486.449 173.879 486.449H122.795C121.13 486.449 119.781 485.1 119.781 483.435V452.963V450.43Z" stroke="#EED480" stroke-width="1.50708"/>
<circle cx="123.413" cy="449.949" r="1.26676" stroke="#EED480" stroke-width="0.753541"/>
<circle cx="127.245" cy="449.949" r="1.26676" stroke="#EED480" stroke-width="0.753541"/>
<circle cx="131.081" cy="449.949" r="1.26676" stroke="#EED480" stroke-width="0.753541"/>
<circle cx="130.53" cy="475.15" r="3.08137" stroke="#EED480" stroke-width="1.50708"/>
<circle cx="142.581" cy="463.646" r="3.08137" stroke="#EED480" stroke-width="1.50708"/>
<circle cx="154.089" cy="475.15" r="3.08137" stroke="#EED480" stroke-width="1.50708"/>
<circle cx="166.14" cy="463.646" r="3.08137" stroke="#EED480" stroke-width="1.50708"/>
<path d="M139.568 464.741L131.898 472.411" stroke="#EED480" stroke-width="1.50708" stroke-linejoin="round"/>
<path d="M162.853 464.741L155.184 472.411" stroke="#EED480" stroke-width="1.50708" stroke-linejoin="round"/>
<path d="M145.596 464.741L152.992 472.137" stroke="#EED480" stroke-width="1.50708" stroke-linejoin="round"/>
<path d="M141.486 466.385L133.816 474.055" stroke="#EED480" stroke-width="1.50708" stroke-linejoin="round"/>
<path d="M164.771 466.385L157.102 474.055" stroke="#EED480" stroke-width="1.50708" stroke-linejoin="round"/>
<path d="M143.678 466.385L151.348 474.055" stroke="#EED480" stroke-width="1.50708" stroke-linejoin="round"/>
<rect x="313.922" y="329.255" width="29.9646" height="10.6723" rx="5.33617" fill="#FDBCA7"/>
<rect x="305.301" y="300.522" width="18.4714" height="10.2619" rx="5.13093" fill="#FDBCA7"/>
<rect x="333.434" y="300.419" width="20.2702" height="10.409" rx="5.20452" fill="#FDBCA7"/>
<rect x="151" y="315.21" width="39.9927" height="10.409" rx="5.20452" fill="#FDBCA7"/>
<rect x="159.219" y="344.246" width="29.5836" height="10.409" rx="5.20452" fill="#FDBCA7"/>
<circle cx="250.707" cy="335.481" r="61.3219" stroke="#FDBCA7" stroke-width="14.3173"/>
<path d="M233.115 312.129H275.434C277.098 312.129 278.448 313.478 278.448 315.143V316.994V339.315V343.765C278.448 345.43 277.098 346.78 275.434 346.78H233.115C231.451 346.78 230.101 345.43 230.101 343.765V339.315V316.994V315.143C230.101 313.478 231.451 312.129 233.115 312.129Z" stroke="#FDBCA7" stroke-width="1.50708"/>
<circle cx="254.546" cy="343.15" r="3.08137" stroke="#FDBCA7" stroke-width="1.50708"/>
<path d="M246.623 353.354L247.271 347.739H261.018L261.882 353.354H246.623Z" stroke="#FDBCA7" stroke-width="1.50708"/>
<path d="M242.46 357.463L243.571 354.313H265.295L266.778 357.463H242.46Z" stroke="#FDBCA7" stroke-width="1.50708"/>
<path d="M222.77 357.942H271.254" stroke="#FDBCA7" stroke-width="1.50708" stroke-linejoin="round"/>
<path d="M273.168 357.942L279.742 357.942" stroke="#FDBCA7" stroke-width="1.50708" stroke-linejoin="round"/>
<rect x="222.255" y="331.68" width="15.2704" height="24.5838" rx="2.63739" fill="white" stroke="#FDBCA7" stroke-width="2.26062"/>
</svg>
