<svg width="1600" height="706" viewBox="0 0 1600 706" fill="none" xmlns="http://www.w3.org/2000/svg">
<rect width="1600" height="706" fill="white"/>
<path d="M522.619 142.22C525.059 142.9 526.979 144.14 528.379 145.94C529.779 147.7 530.479 149.94 530.479 152.66C530.479 156.3 529.099 159.1 526.339 161.06C523.619 163.02 519.639 164 514.399 164H494.359V122H513.199C517.999 122 521.699 122.96 524.299 124.88C526.939 126.8 528.259 129.46 528.259 132.86C528.259 135.06 527.739 136.96 526.699 138.56C525.699 140.16 524.339 141.38 522.619 142.22ZM500.359 126.86V140.3H512.659C515.739 140.3 518.099 139.74 519.739 138.62C521.419 137.46 522.259 135.78 522.259 133.58C522.259 131.38 521.419 129.72 519.739 128.6C518.099 127.44 515.739 126.86 512.659 126.86H500.359ZM514.159 159.14C517.559 159.14 520.119 158.58 521.839 157.46C523.559 156.34 524.419 154.58 524.419 152.18C524.419 147.5 520.999 145.16 514.159 145.16H500.359V159.14H514.159ZM575.169 132.2V164H569.709V159.2C568.549 160.84 567.009 162.12 565.089 163.04C563.209 163.92 561.149 164.36 558.909 164.36C554.669 164.36 551.329 163.2 548.889 160.88C546.449 158.52 545.229 155.06 545.229 150.5V132.2H550.989V149.84C550.989 152.92 551.729 155.26 553.209 156.86C554.689 158.42 556.809 159.2 559.569 159.2C562.609 159.2 565.009 158.28 566.769 156.44C568.529 154.6 569.409 152 569.409 148.64V132.2H575.169ZM592.734 132.2L598.494 132.2V164H592.734V132.2ZM595.614 126.08C594.494 126.08 593.554 125.72 592.794 125C592.074 124.28 591.714 123.4 591.714 122.36C591.714 121.32 592.074 120.44 592.794 119.72C593.554 118.96 594.494 118.58 595.614 118.58C596.734 118.58 597.654 118.94 598.374 119.66C599.134 120.34 599.514 121.2 599.514 122.24C599.514 123.32 599.134 124.24 598.374 125C597.654 125.72 596.734 126.08 595.614 126.08ZM625.212 164.36C622.612 164.36 620.112 164.02 617.712 163.34C615.312 162.62 613.432 161.72 612.072 160.64L614.472 156.08C615.872 157.08 617.572 157.88 619.572 158.48C621.572 159.08 623.592 159.38 625.632 159.38C630.672 159.38 633.192 157.94 633.192 155.06C633.192 154.1 632.852 153.34 632.172 152.78C631.492 152.22 630.632 151.82 629.592 151.58C628.592 151.3 627.152 151 625.272 150.68C622.712 150.28 620.612 149.82 618.972 149.3C617.372 148.78 615.992 147.9 614.832 146.66C613.672 145.42 613.092 143.68 613.092 141.44C613.092 138.56 614.292 136.26 616.692 134.54C619.092 132.78 622.312 131.9 626.352 131.9C628.472 131.9 630.592 132.16 632.712 132.68C634.832 133.2 636.572 133.9 637.932 134.78L635.472 139.34C632.872 137.66 629.812 136.82 626.292 136.82C623.852 136.82 621.992 137.22 620.712 138.02C619.432 138.82 618.792 139.88 618.792 141.2C618.792 142.24 619.152 143.06 619.872 143.66C620.592 144.26 621.472 144.7 622.512 144.98C623.592 145.26 625.092 145.58 627.012 145.94C629.572 146.38 631.632 146.86 633.192 147.38C634.792 147.86 636.152 148.7 637.272 149.9C638.392 151.1 638.952 152.78 638.952 154.94C638.952 157.82 637.712 160.12 635.232 161.84C632.792 163.52 629.452 164.36 625.212 164.36ZM669.731 131.9C673.771 131.9 676.971 133.08 679.331 135.44C681.731 137.76 682.931 141.18 682.931 145.7V164H677.171V146.36C677.171 143.28 676.431 140.96 674.951 139.4C673.471 137.84 671.351 137.06 668.591 137.06C665.471 137.06 663.011 137.98 661.211 139.82C659.411 141.62 658.511 144.22 658.511 147.62V164H652.751V132.2H658.271V137C659.431 135.36 660.991 134.1 662.951 133.22C664.951 132.34 667.211 131.9 669.731 131.9ZM729.106 148.28C729.106 148.72 729.066 149.3 728.986 150.02H703.186C703.546 152.82 704.766 155.08 706.846 156.8C708.966 158.48 711.586 159.32 714.706 159.32C718.506 159.32 721.566 158.04 723.886 155.48L727.066 159.2C725.626 160.88 723.826 162.16 721.666 163.04C719.546 163.92 717.166 164.36 714.526 164.36C711.166 164.36 708.186 163.68 705.586 162.32C702.986 160.92 700.966 158.98 699.526 156.5C698.126 154.02 697.426 151.22 697.426 148.1C697.426 145.02 698.106 142.24 699.466 139.76C700.866 137.28 702.766 135.36 705.166 134C707.606 132.6 710.346 131.9 713.386 131.9C716.426 131.9 719.126 132.6 721.486 134C723.886 135.36 725.746 137.28 727.066 139.76C728.426 142.24 729.106 145.08 729.106 148.28ZM713.386 136.76C710.626 136.76 708.306 137.6 706.426 139.28C704.586 140.96 703.506 143.16 703.186 145.88H723.586C723.266 143.2 722.166 141.02 720.286 139.34C718.446 137.62 716.146 136.76 713.386 136.76ZM752.825 164.36C750.225 164.36 747.725 164.02 745.325 163.34C742.925 162.62 741.045 161.72 739.685 160.64L742.085 156.08C743.485 157.08 745.185 157.88 747.185 158.48C749.185 159.08 751.205 159.38 753.245 159.38C758.285 159.38 760.805 157.94 760.805 155.06C760.805 154.1 760.465 153.34 759.785 152.78C759.105 152.22 758.245 151.82 757.205 151.58C756.205 151.3 754.765 151 752.885 150.68C750.325 150.28 748.225 149.82 746.585 149.3C744.985 148.78 743.605 147.9 742.445 146.66C741.285 145.42 740.705 143.68 740.705 141.44C740.705 138.56 741.905 136.26 744.305 134.54C746.705 132.78 749.925 131.9 753.965 131.9C756.085 131.9 758.205 132.16 760.325 132.68C762.445 133.2 764.185 133.9 765.545 134.78L763.085 139.34C760.485 137.66 757.425 136.82 753.905 136.82C751.465 136.82 749.605 137.22 748.325 138.02C747.045 138.82 746.405 139.88 746.405 141.2C746.405 142.24 746.765 143.06 747.485 143.66C748.205 144.26 749.085 144.7 750.125 144.98C751.205 145.26 752.705 145.58 754.625 145.94C757.185 146.38 759.245 146.86 760.805 147.38C762.405 147.86 763.765 148.7 764.885 149.9C766.005 151.1 766.565 152.78 766.565 154.94C766.565 157.82 765.325 160.12 762.845 161.84C760.405 163.52 757.065 164.36 752.825 164.36ZM789.483 164.36C786.883 164.36 784.383 164.02 781.983 163.34C779.583 162.62 777.703 161.72 776.343 160.64L778.743 156.08C780.143 157.08 781.843 157.88 783.843 158.48C785.843 159.08 787.863 159.38 789.903 159.38C794.943 159.38 797.463 157.94 797.463 155.06C797.463 154.1 797.123 153.34 796.443 152.78C795.763 152.22 794.903 151.82 793.863 151.58C792.863 151.3 791.423 151 789.543 150.68C786.983 150.28 784.883 149.82 783.243 149.3C781.643 148.78 780.263 147.9 779.103 146.66C777.943 145.42 777.363 143.68 777.363 141.44C777.363 138.56 778.563 136.26 780.963 134.54C783.363 132.78 786.583 131.9 790.623 131.9C792.743 131.9 794.863 132.16 796.983 132.68C799.103 133.2 800.843 133.9 802.203 134.78L799.743 139.34C797.143 137.66 794.083 136.82 790.563 136.82C788.123 136.82 786.263 137.22 784.983 138.02C783.703 138.82 783.063 139.88 783.063 141.2C783.063 142.24 783.423 143.06 784.143 143.66C784.863 144.26 785.743 144.7 786.783 144.98C787.863 145.26 789.363 145.58 791.283 145.94C793.843 146.38 795.903 146.86 797.463 147.38C799.063 147.86 800.423 148.7 801.543 149.9C802.663 151.1 803.223 152.78 803.223 154.94C803.223 157.82 801.983 160.12 799.503 161.84C797.063 163.52 793.723 164.36 789.483 164.36ZM887.855 132.2L875.975 164H870.455L861.275 139.88L851.975 164H846.455L834.635 132.2H840.095L849.335 157.52L858.935 132.2H863.795L873.215 157.64L882.695 132.2H887.855ZM928.161 148.28C928.161 148.72 928.121 149.3 928.041 150.02H902.241C902.601 152.82 903.821 155.08 905.901 156.8C908.021 158.48 910.641 159.32 913.761 159.32C917.561 159.32 920.621 158.04 922.941 155.48L926.121 159.2C924.681 160.88 922.881 162.16 920.721 163.04C918.601 163.92 916.221 164.36 913.581 164.36C910.221 164.36 907.241 163.68 904.641 162.32C902.041 160.92 900.021 158.98 898.581 156.5C897.181 154.02 896.481 151.22 896.481 148.1C896.481 145.02 897.161 142.24 898.521 139.76C899.921 137.28 901.821 135.36 904.221 134C906.661 132.6 909.401 131.9 912.441 131.9C915.481 131.9 918.181 132.6 920.541 134C922.941 135.36 924.801 137.28 926.121 139.76C927.481 142.24 928.161 145.08 928.161 148.28ZM912.441 136.76C909.681 136.76 907.361 137.6 905.481 139.28C903.641 140.96 902.561 143.16 902.241 145.88H922.641C922.321 143.2 921.221 141.02 919.341 139.34C917.501 137.62 915.201 136.76 912.441 136.76ZM959.619 131.9C962.699 131.9 965.459 132.58 967.899 133.94C970.339 135.3 972.239 137.2 973.599 139.64C974.999 142.08 975.699 144.9 975.699 148.1C975.699 151.3 974.999 154.14 973.599 156.62C972.239 159.06 970.339 160.96 967.899 162.32C965.459 163.68 962.699 164.36 959.619 164.36C957.259 164.36 955.099 163.9 953.139 162.98C951.179 162.06 949.559 160.72 948.279 158.96V164H942.759V119.48H948.519V137C949.799 135.32 951.399 134.06 953.319 133.22C955.239 132.34 957.339 131.9 959.619 131.9ZM959.139 159.32C961.179 159.32 962.999 158.86 964.599 157.94C966.239 156.98 967.519 155.66 968.439 153.98C969.399 152.26 969.879 150.3 969.879 148.1C969.879 145.9 969.399 143.96 968.439 142.28C967.519 140.56 966.239 139.24 964.599 138.32C962.999 137.4 961.179 136.94 959.139 136.94C957.139 136.94 955.319 137.4 953.679 138.32C952.039 139.24 950.759 140.56 949.839 142.28C948.919 143.96 948.459 145.9 948.459 148.1C948.459 150.3 948.919 152.26 949.839 153.98C950.759 155.66 952.039 156.98 953.679 157.94C955.319 158.86 957.139 159.32 959.139 159.32ZM999.378 164.36C996.778 164.36 994.278 164.02 991.878 163.34C989.478 162.62 987.598 161.72 986.238 160.64L988.638 156.08C990.038 157.08 991.738 157.88 993.738 158.48C995.738 159.08 997.758 159.38 999.798 159.38C1004.84 159.38 1007.36 157.94 1007.36 155.06C1007.36 154.1 1007.02 153.34 1006.34 152.78C1005.66 152.22 1004.8 151.82 1003.76 151.58C1002.76 151.3 1001.32 151 999.438 150.68C996.878 150.28 994.778 149.82 993.138 149.3C991.538 148.78 990.158 147.9 988.998 146.66C987.838 145.42 987.258 143.68 987.258 141.44C987.258 138.56 988.458 136.26 990.858 134.54C993.258 132.78 996.478 131.9 1000.52 131.9C1002.64 131.9 1004.76 132.16 1006.88 132.68C1009 133.2 1010.74 133.9 1012.1 134.78L1009.64 139.34C1007.04 137.66 1003.98 136.82 1000.46 136.82C998.018 136.82 996.158 137.22 994.878 138.02C993.598 138.82 992.958 139.88 992.958 141.2C992.958 142.24 993.318 143.06 994.038 143.66C994.758 144.26 995.638 144.7 996.678 144.98C997.758 145.26 999.258 145.58 1001.18 145.94C1003.74 146.38 1005.8 146.86 1007.36 147.38C1008.96 147.86 1010.32 148.7 1011.44 149.9C1012.56 151.1 1013.12 152.78 1013.12 154.94C1013.12 157.82 1011.88 160.12 1009.4 161.84C1006.96 163.52 1003.62 164.36 999.378 164.36ZM1026.92 132.2H1032.68V164H1026.92V132.2ZM1029.8 126.08C1028.68 126.08 1027.74 125.72 1026.98 125C1026.26 124.28 1025.9 123.4 1025.9 122.36C1025.9 121.32 1026.26 120.44 1026.98 119.72C1027.74 118.96 1028.68 118.58 1029.8 118.58C1030.92 118.58 1031.84 118.94 1032.56 119.66C1033.32 120.34 1033.7 121.2 1033.7 122.24C1033.7 123.32 1033.32 124.24 1032.56 125C1031.84 125.72 1030.92 126.08 1029.8 126.08ZM1068.15 162.14C1067.31 162.86 1066.27 163.42 1065.03 163.82C1063.79 164.18 1062.51 164.36 1061.19 164.36C1057.99 164.36 1055.51 163.5 1053.75 161.78C1051.99 160.06 1051.11 157.6 1051.11 154.4V136.94H1045.71V132.2H1051.11V125.24H1056.87V132.2H1065.99V136.94H1056.87V154.16C1056.87 155.88 1057.29 157.2 1058.13 158.12C1059.01 159.04 1060.25 159.5 1061.85 159.5C1063.61 159.5 1065.11 159 1066.35 158L1068.15 162.14ZM1109.4 148.28C1109.4 148.72 1109.36 149.3 1109.28 150.02L1083.48 150.02C1083.84 152.82 1085.06 155.08 1087.14 156.8C1089.26 158.48 1091.88 159.32 1095 159.32C1098.8 159.32 1101.86 158.04 1104.18 155.48L1107.36 159.2C1105.92 160.88 1104.12 162.16 1101.96 163.04C1099.84 163.92 1097.46 164.36 1094.82 164.36C1091.46 164.36 1088.48 163.68 1085.88 162.32C1083.28 160.92 1081.26 158.98 1079.82 156.5C1078.42 154.02 1077.72 151.22 1077.72 148.1C1077.72 145.02 1078.4 142.24 1079.76 139.76C1081.16 137.28 1083.06 135.36 1085.46 134C1087.9 132.6 1090.64 131.9 1093.68 131.9C1096.72 131.9 1099.42 132.6 1101.78 134C1104.18 135.36 1106.04 137.28 1107.36 139.76C1108.72 142.24 1109.4 145.08 1109.4 148.28ZM1093.68 136.76C1090.92 136.76 1088.6 137.6 1086.72 139.28C1084.88 140.96 1083.8 143.16 1083.48 145.88L1103.88 145.88C1103.56 143.2 1102.46 141.02 1100.58 139.34C1098.74 137.62 1096.44 136.76 1093.68 136.76Z" fill="#121212"/>
<circle cx="767" cy="231" r="10" fill="#121212"/>
<circle cx="800" cy="231" r="10" fill="#FDBCA7"/>
<circle cx="833" cy="231" r="10" fill="#EED480"/>
<rect x="531.732" y="428.486" width="82.749" height="25.3586" rx="12.6793" fill="#121212"/>
<rect x="515.717" y="499.223" width="49.3825" height="25.3586" rx="12.6793" fill="#121212"/>
<rect x="581.115" y="499.223" width="49.3825" height="25.3586" rx="12.6793" fill="#121212"/>
<circle cx="382.251" cy="441.833" r="157.333" stroke="#121212" stroke-width="19"/>
<path d="M348.885 412.416H415.618V465.799H348.885V412.416Z" fill="white"/>
<path d="M354.202 424.466H364.879V439.258H354.202V424.466Z" fill="white"/>
<path d="M409.518 460.391H376.781V425.149H409.518V443.797V460.391Z" fill="white"/>
<path d="M350.297 418.894H414.451M370.573 464.954V418.894M348.885 412.416H415.618V465.799H348.885V412.416Z" stroke="#121212" stroke-width="2" stroke-miterlimit="10" stroke-linecap="round" stroke-linejoin="round"/>
<path d="M354.081 448.213H360.885M354.081 453.551H365.169M354.081 458.89H360.885M376.782 460.391L409.519 425.15M376.782 425.15L409.519 460.391M354.203 424.466H364.88V439.258H354.203V424.466ZM409.519 460.391H376.782V425.15H409.519V443.798V460.391Z" stroke="#121212" stroke-width="2" stroke-miterlimit="10" stroke-linecap="round" stroke-linejoin="round"/>
<rect x="320.522" y="402.793" width="123.458" height="74.0757" rx="4" stroke="#121212" stroke-width="2"/>
<path d="M402.271 476.534L450.574 476.534C451.464 476.534 451.911 477.611 451.281 478.241L437.932 491.59C437.745 491.777 437.49 491.883 437.225 491.883H327.276C327.011 491.883 326.757 491.777 326.569 491.59L313.221 478.241C312.591 477.611 313.037 476.534 313.928 476.534L361.563 476.534M402.271 476.534L396.558 482.247C396.37 482.435 396.116 482.54 395.85 482.54H367.984C367.718 482.54 367.464 482.435 367.277 482.247L361.563 476.534M402.271 476.534L361.563 476.534" stroke="#121212" stroke-width="2" stroke-linejoin="round"/>
<rect width="90.757" height="25.3586" rx="12.6793" transform="matrix(-1 0 0 1 1068.27 393.785)" fill="#EED480"/>
<rect width="77.4104" height="25.3586" rx="12.6793" transform="matrix(-1 0 0 1 1072.27 464.521)" fill="#EED480"/>
<circle r="157.333" transform="matrix(-1 0 0 1 1217.75 443.167)" stroke="#EED480" stroke-width="19"/>
<path d="M1146.68 397.45C1146.68 395.241 1148.47 393.45 1150.68 393.45H1283.48C1285.69 393.45 1287.48 395.241 1287.48 397.45V407.799V486.215C1287.48 488.424 1285.69 490.215 1283.48 490.215H1150.68C1148.47 490.215 1146.68 488.424 1146.68 486.215V407.799V397.45Z" stroke="#EED480" stroke-width="2"/>
<circle cx="1156.35" cy="400.458" r="3.50398" stroke="#EED480"/>
<circle cx="1165.69" cy="400.458" r="3.50398" stroke="#EED480"/>
<circle cx="1175.04" cy="400.458" r="3.50398" stroke="#EED480"/>
<circle cx="1173.7" cy="461.852" r="8.34263" stroke="#EED480" stroke-width="2"/>
<circle cx="1203.07" cy="433.825" r="8.34263" stroke="#EED480" stroke-width="2"/>
<circle cx="1231.09" cy="461.852" r="8.34263" stroke="#EED480" stroke-width="2"/>
<circle cx="1260.46" cy="433.825" r="8.34263" stroke="#EED480" stroke-width="2"/>
<path d="M1195.72 436.494L1177.04 455.179" stroke="#EED480" stroke-width="2" stroke-linejoin="round"/>
<path d="M1252.45 436.494L1233.76 455.179" stroke="#EED480" stroke-width="2" stroke-linejoin="round"/>
<path d="M1210.41 436.494L1228.42 454.512" stroke="#EED480" stroke-width="2" stroke-linejoin="round"/>
<path d="M1200.4 440.498L1181.71 459.183" stroke="#EED480" stroke-width="2" stroke-linejoin="round"/>
<path d="M1257.12 440.498L1238.43 459.183" stroke="#EED480" stroke-width="2" stroke-linejoin="round"/>
<path d="M1205.73 440.498L1224.42 459.183" stroke="#EED480" stroke-width="2" stroke-linejoin="round"/>
<rect x="954" y="428" width="73" height="26" rx="13" fill="#FDBCA7"/>
<rect x="933" y="358" width="45" height="25" rx="12.5" fill="#FDBCA7"/>
<rect x="1001.53" y="357.749" width="49.3825" height="25.3586" rx="12.6793" fill="#FDBCA7"/>
<rect x="557.092" y="393.785" width="97.4303" height="25.3586" rx="12.6793" fill="#FDBCA7"/>
<rect x="577.112" y="464.522" width="72.0717" height="25.3586" rx="12.6793" fill="#FDBCA7"/>
<circle cx="800.001" cy="443.167" r="157.333" stroke="#FDBCA7" stroke-width="19"/>
<path d="M752.948 385.442H864.402C866.612 385.442 868.402 387.233 868.402 389.442V398.132V452.51V467.53C868.402 469.739 866.612 471.53 864.402 471.53H752.948C750.739 471.53 748.948 469.739 748.948 467.53V452.51V398.132V389.442C748.948 387.233 750.739 385.442 752.948 385.442Z" stroke="#FDBCA7" stroke-width="2"/>
<circle cx="809.343" cy="461.853" r="8.34263" stroke="#FDBCA7" stroke-width="2"/>
<path d="M789.11 487.546L790.882 472.195H825.836L828.197 487.546H789.11Z" stroke="#FDBCA7" stroke-width="2"/>
<path d="M778.725 497.556L782.023 488.211H836.069L840.467 497.556H778.725Z" stroke="#FDBCA7" stroke-width="2"/>
<path d="M731.933 497.889H850.05" stroke="#FDBCA7" stroke-width="2" stroke-linejoin="round"/>
<path d="M854.722 497.889L870.737 497.889" stroke="#FDBCA7" stroke-width="2" stroke-linejoin="round"/>
<rect x="729.429" y="432.656" width="39.7092" height="62.3984" rx="3.5" fill="white" stroke="#FDBCA7" stroke-width="3"/>
</svg>
