<svg width="634" height="70" viewBox="0 0 634 70" fill="none" xmlns="http://www.w3.org/2000/svg">
<path d="M0.2 68V2H38.6V4.8H3.4V31.4H33V34.2H3.4V65.2H39.6V68H0.2ZM62.7609 36.4V33.6H103.161V36.4H62.7609ZM153.622 69.2C149.555 69.2 145.855 68.4 142.522 66.8C139.189 65.1333 136.289 62.8 133.822 59.8C131.422 56.8 129.555 53.2 128.222 49C126.955 44.7333 126.322 40 126.322 34.8C126.322 27.8667 127.489 21.8667 129.822 16.8C132.155 11.6667 135.389 7.73333 139.522 4.99999C143.722 2.19999 148.622 0.799995 154.222 0.799995C158.022 0.799995 161.355 1.6 164.222 3.2C167.089 4.8 169.355 6.6 171.022 8.6L169.022 10.8C167.222 8.66666 165.089 6.96666 162.622 5.7C160.155 4.43333 157.355 3.8 154.222 3.8C149.155 3.8 144.789 5.06666 141.122 7.6C137.455 10.1333 134.622 13.7333 132.622 18.4C130.689 23 129.722 28.4667 129.722 34.8C129.722 41.1333 130.689 46.6667 132.622 51.4C134.622 56.0667 137.422 59.7 141.022 62.3C144.622 64.9 148.889 66.2 153.822 66.2C157.355 66.2 160.489 65.5 163.222 64.1C165.955 62.7 168.555 60.6 171.022 57.8L173.022 59.8C170.555 62.6667 167.789 64.9667 164.722 66.7C161.655 68.3667 157.955 69.2 153.622 69.2ZM214.883 69.2C210.683 69.2 206.849 68.2333 203.383 66.3C199.916 64.3 197.116 61.4333 194.983 57.7C192.916 53.9667 191.883 49.4667 191.883 44.2C191.883 38.8667 192.916 34.3333 194.983 30.6C197.116 26.8 199.916 23.9333 203.383 22C206.849 20 210.683 19 214.883 19C219.083 19 222.916 20 226.383 22C229.849 23.9333 232.616 26.8 234.683 30.6C236.816 34.3333 237.883 38.8667 237.883 44.2C237.883 49.4667 236.816 53.9667 234.683 57.7C232.616 61.4333 229.849 64.3 226.383 66.3C222.916 68.2333 219.083 69.2 214.883 69.2ZM214.883 66.4C218.683 66.4 222.083 65.4667 225.083 63.6C228.083 61.7333 230.416 59.1333 232.083 55.8C233.816 52.4667 234.683 48.6 234.683 44.2C234.683 39.8 233.816 35.9333 232.083 32.6C230.416 29.2 228.083 26.5667 225.083 24.7C222.083 22.7667 218.683 21.8 214.883 21.8C211.083 21.8 207.683 22.7667 204.683 24.7C201.749 26.5667 199.416 29.2 197.683 32.6C195.949 35.9333 195.083 39.8 195.083 44.2C195.083 48.6 195.949 52.4667 197.683 55.8C199.416 59.1333 201.749 61.7333 204.683 63.6C207.683 65.4667 211.083 66.4 214.883 66.4ZM258.844 68V20.2H261.444L261.844 26.8H262.044C263.51 24.4 265.044 22.5 266.644 21.1C268.31 19.7 270.477 19 273.144 19C275.877 19 278.01 19.7 279.544 21.1C281.077 22.5 282.177 24.6667 282.844 27.6C284.71 24.8 286.477 22.6667 288.144 21.2C289.877 19.7333 292.077 19 294.744 19C298.077 19 300.61 20.1667 302.344 22.5C304.144 24.8333 305.044 28.4 305.044 33.2V68H302.044V33.6C302.044 25.7333 299.544 21.8 294.544 21.8C292.21 21.8 290.21 22.6 288.544 24.2C286.877 25.8 285.177 28.2 283.444 31.4V68H280.444V33.6C280.444 29.6667 279.81 26.7333 278.544 24.8C277.344 22.8 275.477 21.8 272.944 21.8C270.61 21.8 268.61 22.6 266.944 24.2C265.277 25.8 263.577 28.2 261.844 31.4V68H258.844ZM324.805 68V20.2H327.405L327.805 26.8H328.005C329.471 24.4 331.005 22.5 332.605 21.1C334.271 19.7 336.438 19 339.105 19C341.838 19 343.971 19.7 345.505 21.1C347.038 22.5 348.138 24.6667 348.805 27.6C350.671 24.8 352.438 22.6667 354.105 21.2C355.838 19.7333 358.038 19 360.705 19C364.038 19 366.571 20.1667 368.305 22.5C370.105 24.8333 371.005 28.4 371.005 33.2V68H368.005V33.6C368.005 25.7333 365.505 21.8 360.505 21.8C358.171 21.8 356.171 22.6 354.505 24.2C352.838 25.8 351.138 28.2 349.405 31.4V68H346.405V33.6C346.405 29.6667 345.771 26.7333 344.505 24.8C343.305 22.8 341.438 21.8 338.905 21.8C336.571 21.8 334.571 22.6 332.905 24.2C331.238 25.8 329.538 28.2 327.805 31.4V68H324.805ZM415.766 69.2C411.232 69.2 407.066 68.2 403.266 66.2C399.466 64.2 396.432 61.3333 394.166 57.6C391.899 53.8667 390.766 49.4 390.766 44.2C390.766 39 391.866 34.5333 394.066 30.8C396.332 27 399.266 24.1 402.866 22.1C406.532 20.0333 410.432 19 414.566 19C418.832 19 422.532 19.8667 425.666 21.6C428.866 23.3333 431.332 25.8667 433.066 29.2C434.866 32.4667 435.766 36.4 435.766 41C435.766 41.4667 435.766 41.9667 435.766 42.5C435.766 43.0333 435.699 43.6 435.566 44.2H391.766V41.4H434.766L432.966 43C432.966 35.8 431.232 30.4667 427.766 27C424.366 23.5333 419.966 21.8 414.566 21.8C411.099 21.8 407.799 22.7 404.666 24.5C401.532 26.2333 398.966 28.7667 396.966 32.1C394.966 35.3667 393.966 39.3333 393.966 44C393.966 48.8 394.966 52.8667 396.966 56.2C399.032 59.5333 401.699 62.0667 404.966 63.8C408.299 65.5333 411.899 66.4 415.766 66.4C419.166 66.4 422.199 65.9 424.866 64.9C427.599 63.9 430.099 62.6 432.366 61L433.766 63.6C431.699 64.9333 429.266 66.2 426.466 67.4C423.666 68.6 420.099 69.2 415.766 69.2ZM465.727 68V20.2H468.327L468.727 32.2H468.927C471.527 28.4 474.76 25.2667 478.627 22.8C482.56 20.2667 486.96 19 491.827 19C493.36 19 494.96 19.1333 496.627 19.4C498.36 19.6667 499.993 20.2 501.527 21L500.527 23.8C498.727 23.1333 497.227 22.6667 496.027 22.4C494.893 22.1333 493.36 22 491.427 22C487.293 22 483.36 23.1667 479.627 25.5C475.893 27.8333 472.26 31.8 468.727 37.4V68H465.727ZM549.488 69.2C544.554 69.2 540.121 68.2333 536.188 66.3C532.321 64.3 529.254 61.4333 526.988 57.7C524.788 53.9667 523.688 49.4667 523.688 44.2C523.688 38.8667 524.854 34.3333 527.188 30.6C529.521 26.8 532.621 23.9333 536.488 22C540.421 20 544.754 19 549.488 19C553.554 19 556.921 19.7667 559.588 21.3C562.321 22.7667 564.654 24.4667 566.588 26.4L564.588 28.6C562.521 26.6 560.254 24.9667 557.788 23.7C555.388 22.4333 552.621 21.8 549.488 21.8C545.021 21.8 541.088 22.7667 537.688 24.7C534.288 26.5667 531.621 29.2 529.688 32.6C527.821 35.9333 526.888 39.8 526.888 44.2C526.888 48.6 527.821 52.4667 529.688 55.8C531.554 59.1333 534.188 61.7333 537.588 63.6C540.988 65.4667 544.954 66.4 549.488 66.4C552.821 66.4 555.854 65.7333 558.588 64.4C561.388 63 563.888 61.2667 566.087 59.2L567.888 61.4C565.488 63.6667 562.754 65.5333 559.688 67C556.688 68.4667 553.288 69.2 549.488 69.2ZM613.648 69.2C609.115 69.2 604.948 68.2 601.148 66.2C597.348 64.2 594.315 61.3333 592.048 57.6C589.782 53.8667 588.648 49.4 588.648 44.2C588.648 39 589.748 34.5333 591.948 30.8C594.215 27 597.148 24.1 600.748 22.1C604.415 20.0333 608.315 19 612.448 19C616.715 19 620.415 19.8667 623.548 21.6C626.748 23.3333 629.215 25.8667 630.948 29.2C632.748 32.4667 633.648 36.4 633.648 41C633.648 41.4667 633.648 41.9667 633.648 42.5C633.648 43.0333 633.582 43.6 633.448 44.2H589.648V41.4H632.648L630.848 43C630.848 35.8 629.115 30.4667 625.648 27C622.248 23.5333 617.848 21.8 612.448 21.8C608.982 21.8 605.682 22.7 602.548 24.5C599.415 26.2333 596.848 28.7667 594.848 32.1C592.848 35.3667 591.848 39.3333 591.848 44C591.848 48.8 592.848 52.8667 594.848 56.2C596.915 59.5333 599.582 62.0667 602.848 63.8C606.182 65.5333 609.782 66.4 613.648 66.4C617.048 66.4 620.082 65.9 622.748 64.9C625.482 63.9 627.982 62.6 630.248 61L631.648 63.6C629.582 64.9333 627.148 66.2 624.348 67.4C621.548 68.6 617.982 69.2 613.648 69.2Z" fill="#FDBCA7"/>
</svg>
