<svg width="464" height="84" viewBox="0 0 464 84" fill="none" xmlns="http://www.w3.org/2000/svg">
<path d="M0.597266 0.999994H28.5973V5.4H6.09727V37.9H24.5973V42.1H6.09727V77.7H28.8973V82H0.597266V0.999994ZM42.3551 45.7H62.9551V50.1H42.3551V45.7ZM98.2754 83.1C90.8754 83.1 85.7421 80.9667 82.8754 76.7C80.0087 72.3667 78.5754 66.3667 78.5754 58.7V24.3C78.5754 16.6333 80.0421 10.7 82.9754 6.49999C85.9087 2.23333 91.0087 0.0999935 98.2754 0.0999935C105.009 0.0999935 109.775 2.06666 112.575 5.99999C115.375 9.86666 116.775 15.5 116.775 22.9V27H111.575V22.9C111.575 16.7 110.609 12.1 108.675 9.1C106.742 6.1 103.275 4.6 98.2754 4.6C92.8087 4.6 89.0754 6.2 87.0754 9.4C85.0754 12.6 84.0754 17.3667 84.0754 23.7V59.5C84.0754 65.9 85.1087 70.7 87.1754 73.9C89.2421 77.0333 92.9421 78.6 98.2754 78.6C103.342 78.6 106.809 77.0667 108.675 74C110.609 70.8667 111.575 66.2667 111.575 60.2V55.3H116.775V59.3C116.775 66.9 115.409 72.7667 112.675 76.9C109.942 81.0333 105.142 83.1 98.2754 83.1ZM146.801 82.9C141.268 82.9 137.468 81.1667 135.401 77.7C133.335 74.1667 132.301 68.5667 132.301 60.9V45.3C132.301 37.7 133.335 32.1333 135.401 28.6C137.468 25.0667 141.268 23.3 146.801 23.3C152.335 23.3 156.135 25.0667 158.201 28.6C160.335 32.0667 161.401 37.6333 161.401 45.3V60.9C161.401 68.5667 160.335 74.1667 158.201 77.7C156.135 81.1667 152.335 82.9 146.801 82.9ZM146.801 78.9C149.468 78.9 151.468 78.2333 152.801 76.9C154.201 75.5 155.101 73.5667 155.501 71.1C155.901 68.6333 156.101 65.3 156.101 61.1V45.1C156.101 40.9 155.901 37.5667 155.501 35.1C155.101 32.6333 154.201 30.7333 152.801 29.4C151.468 28 149.468 27.3 146.801 27.3C144.135 27.3 142.135 28 140.801 29.4C139.468 30.7333 138.601 32.6333 138.201 35.1C137.801 37.5 137.601 40.8333 137.601 45.1V61.1C137.601 65.3667 137.801 68.7333 138.201 71.2C138.601 73.6 139.468 75.5 140.801 76.9C142.135 78.2333 144.135 78.9 146.801 78.9ZM177.682 24.2H182.682V30.3C184.549 28.0333 186.649 26.3 188.982 25.1C191.316 23.8333 193.749 23.2 196.282 23.2C201.082 23.2 204.082 25.7667 205.282 30.9C207.216 28.4333 209.382 26.5333 211.782 25.2C214.182 23.8667 216.716 23.2 219.382 23.2C222.182 23.2 224.482 24.2 226.282 26.2C228.082 28.1333 228.982 31.5 228.982 36.3V82H223.882V36.2C223.882 32.7333 223.349 30.3333 222.282 29C221.216 27.6667 219.682 27 217.682 27C215.682 27 213.649 27.6 211.582 28.8C209.516 30 207.549 31.6667 205.682 33.8C205.816 34.7333 205.882 35.5667 205.882 36.3V82H200.782V36.2C200.782 32.7333 200.249 30.3333 199.182 29C198.116 27.6667 196.582 27 194.582 27C192.649 27 190.649 27.6 188.582 28.8C186.516 30 184.549 31.6333 182.682 33.7V82H177.682V24.2ZM245.987 24.2H250.987V30.3C252.854 28.0333 254.954 26.3 257.287 25.1C259.62 23.8333 262.054 23.2 264.587 23.2C269.387 23.2 272.387 25.7667 273.587 30.9C275.52 28.4333 277.687 26.5333 280.087 25.2C282.487 23.8667 285.02 23.2 287.687 23.2C290.487 23.2 292.787 24.2 294.587 26.2C296.387 28.1333 297.287 31.5 297.287 36.3V82H292.187V36.2C292.187 32.7333 291.654 30.3333 290.587 29C289.52 27.6667 287.987 27 285.987 27C283.987 27 281.954 27.6 279.887 28.8C277.82 30 275.854 31.6667 273.987 33.8C274.12 34.7333 274.187 35.5667 274.187 36.3V82H269.087V36.2C269.087 32.7333 268.554 30.3333 267.487 29C266.42 27.6667 264.887 27 262.887 27C260.954 27 258.954 27.6 256.887 28.8C254.82 30 252.854 31.6333 250.987 33.7V82H245.987V24.2ZM327.892 82.9C324.625 82.9 321.925 82.2667 319.792 81C317.658 79.7333 316.025 77.4667 314.892 74.2C313.758 70.9333 313.192 66.4 313.192 60.6V45.2C313.192 39.4 313.758 34.9 314.892 31.7C316.092 28.5 317.758 26.3 319.892 25.1C322.025 23.9 324.725 23.3 327.992 23.3C331.592 23.3 334.425 24.0667 336.492 25.6C338.558 27.1333 340.025 29.5667 340.892 32.9C341.758 36.1667 342.192 40.6333 342.192 46.3V51.8H318.492V61C318.492 65.6 318.792 69.2 319.392 71.8C320.058 74.4 321.058 76.2333 322.392 77.3C323.725 78.3667 325.558 78.9 327.892 78.9C330.625 78.9 332.825 78.1333 334.492 76.6C336.158 75 336.992 71.7333 336.992 66.8V62.5H342.192V66.3C342.192 71.6333 341.092 75.7333 338.892 78.6C336.758 81.4667 333.092 82.9 327.892 82.9ZM336.992 48.6V44.1C336.992 40.1667 336.792 37.0333 336.392 34.7C335.992 32.3667 335.125 30.5667 333.792 29.3C332.525 27.9667 330.592 27.3 327.992 27.3C325.725 27.3 323.892 27.7667 322.492 28.7C321.158 29.6333 320.158 31.3333 319.492 33.8C318.825 36.2667 318.492 39.7333 318.492 44.2V48.6H336.992ZM358.882 24.2H364.182V32C365.782 29.3333 367.849 27.2667 370.382 25.8C372.982 24.3333 375.482 23.6 377.882 23.6C378.282 23.6 378.616 23.6333 378.882 23.7V29.2C378.416 29 377.682 28.9 376.682 28.9C371.349 28.9 367.182 31.3667 364.182 36.3V82H358.882V24.2ZM405.612 82.9C401.479 82.9 398.345 81.9667 396.212 80.1C394.145 78.1667 392.745 75.6 392.012 72.4C391.345 69.2 391.012 65.1667 391.012 60.3V46.7C391.012 40.8333 391.445 36.2333 392.312 32.9C393.179 29.5667 394.645 27.1333 396.712 25.6C398.845 24.0667 401.812 23.3 405.612 23.3C411.145 23.3 414.879 24.9 416.812 28.1C418.745 31.3 419.712 35.9333 419.712 42V44.3H414.712V42C414.712 38.1333 414.379 35.1333 413.712 33C413.112 30.8667 412.145 29.4 410.812 28.6C409.545 27.7333 407.812 27.3 405.612 27.3C403.012 27.3 401.045 27.9 399.712 29.1C398.379 30.3 397.479 32.2333 397.012 34.9C396.545 37.5 396.312 41.2333 396.312 46.1V61.1C396.312 65.5 396.579 68.9667 397.112 71.5C397.645 74.0333 398.579 75.9 399.912 77.1C401.245 78.3 403.179 78.9 405.712 78.9C408.245 78.9 410.145 78.3667 411.412 77.3C412.745 76.1667 413.612 74.4667 414.012 72.2C414.479 69.9333 414.712 66.7333 414.712 62.6V60.4H419.712V62.5C419.712 66.9667 419.379 70.6333 418.712 73.5C418.045 76.3667 416.679 78.6667 414.612 80.4C412.612 82.0667 409.612 82.9 405.612 82.9ZM449.212 82.9C445.945 82.9 443.245 82.2667 441.112 81C438.979 79.7333 437.345 77.4667 436.212 74.2C435.079 70.9333 434.512 66.4 434.512 60.6V45.2C434.512 39.4 435.079 34.9 436.212 31.7C437.412 28.5 439.079 26.3 441.212 25.1C443.345 23.9 446.045 23.3 449.312 23.3C452.912 23.3 455.745 24.0667 457.812 25.6C459.879 27.1333 461.345 29.5667 462.212 32.9C463.079 36.1667 463.512 40.6333 463.512 46.3V51.8H439.812V61C439.812 65.6 440.112 69.2 440.712 71.8C441.379 74.4 442.379 76.2333 443.712 77.3C445.045 78.3667 446.879 78.9 449.212 78.9C451.945 78.9 454.145 78.1333 455.812 76.6C457.479 75 458.312 71.7333 458.312 66.8V62.5H463.512V66.3C463.512 71.6333 462.412 75.7333 460.212 78.6C458.079 81.4667 454.412 82.9 449.212 82.9ZM458.312 48.6V44.1C458.312 40.1667 458.112 37.0333 457.712 34.7C457.312 32.3667 456.445 30.5667 455.112 29.3C453.845 27.9667 451.912 27.3 449.312 27.3C447.045 27.3 445.212 27.7667 443.812 28.7C442.479 29.6333 441.479 31.3333 440.812 33.8C440.145 36.2667 439.812 39.7333 439.812 44.2V48.6H458.312Z" fill="#FDBCA7"/>
</svg>
