<svg width="715" height="72" viewBox="0 0 715 72" fill="none" xmlns="http://www.w3.org/2000/svg">
<path d="M52.9254 60.1V71H0.425391V0.999995H51.5254V11.9H13.4254V30.1H47.2254V40.8H13.4254V60.1H52.9254ZM67.5645 38H95.0645V48.4H67.5645V38ZM148.829 72C141.763 72 135.363 70.4667 129.629 67.4C123.963 64.2667 119.496 59.9667 116.229 54.5C113.029 49.0333 111.429 42.8667 111.429 36C111.429 29.1333 113.063 22.9667 116.329 17.5C119.596 12.0333 124.063 7.76666 129.729 4.7C135.463 1.56666 141.863 -3.8147e-06 148.929 -3.8147e-06C154.663 -3.8147e-06 159.896 0.999997 164.629 3C169.363 5 173.363 7.9 176.629 11.7L168.229 19.6C163.163 14.1333 156.929 11.4 149.529 11.4C144.729 11.4 140.429 12.4667 136.629 14.6C132.829 16.6667 129.863 19.5667 127.729 23.3C125.596 27.0333 124.529 31.2667 124.529 36C124.529 40.7333 125.596 44.9667 127.729 48.7C129.863 52.4333 132.829 55.3667 136.629 57.5C140.429 59.5667 144.729 60.6 149.529 60.6C156.929 60.6 163.163 57.8333 168.229 52.3L176.629 60.3C173.363 64.1 169.329 67 164.529 69C159.796 71 154.563 72 148.829 72ZM215.932 71.7C210.532 71.7 205.666 70.5333 201.332 68.2C196.999 65.8667 193.599 62.6333 191.132 58.5C188.732 54.3 187.532 49.5667 187.532 44.3C187.532 39.0333 188.732 34.3333 191.132 30.2C193.599 26.0667 196.999 22.8333 201.332 20.5C205.666 18.1667 210.532 17 215.932 17C221.399 17 226.299 18.1667 230.632 20.5C234.966 22.8333 238.332 26.0667 240.732 30.2C243.199 34.3333 244.432 39.0333 244.432 44.3C244.432 49.5667 243.199 54.3 240.732 58.5C238.332 62.6333 234.966 65.8667 230.632 68.2C226.299 70.5333 221.399 71.7 215.932 71.7ZM215.932 61C220.532 61 224.332 59.4667 227.332 56.4C230.332 53.3333 231.832 49.3 231.832 44.3C231.832 39.3 230.332 35.2667 227.332 32.2C224.332 29.1333 220.532 27.6 215.932 27.6C211.332 27.6 207.532 29.1333 204.532 32.2C201.599 35.2667 200.132 39.3 200.132 44.3C200.132 49.3 201.599 53.3333 204.532 56.4C207.532 59.4667 211.332 61 215.932 61ZM329.786 17C336.519 17 341.852 18.9667 345.786 22.9C349.719 26.7667 351.686 32.6 351.686 40.4V71H339.186V42C339.186 37.3333 338.152 33.8333 336.086 31.5C334.019 29.1 331.052 27.9 327.186 27.9C322.986 27.9 319.619 29.3 317.086 32.1C314.552 34.8333 313.286 38.7667 313.286 43.9V71H300.786V42C300.786 37.3333 299.752 33.8333 297.686 31.5C295.619 29.1 292.652 27.9 288.786 27.9C284.519 27.9 281.119 29.2667 278.586 32C276.119 34.7333 274.886 38.7 274.886 43.9V71H262.386V17.6H274.286V24.4C276.286 22 278.786 20.1667 281.786 18.9C284.786 17.6333 288.119 17 291.786 17C295.786 17 299.319 17.7667 302.386 19.3C305.519 20.7667 307.986 22.9667 309.786 25.9C311.986 23.1 314.819 20.9333 318.286 19.4C321.752 17.8 325.586 17 329.786 17ZM441.059 17C447.792 17 453.126 18.9667 457.059 22.9C460.992 26.7667 462.959 32.6 462.959 40.4V71H450.459V42C450.459 37.3333 449.426 33.8333 447.359 31.5C445.292 29.1 442.326 27.9 438.459 27.9C434.259 27.9 430.892 29.3 428.359 32.1C425.826 34.8333 424.559 38.7667 424.559 43.9V71H412.059V42C412.059 37.3333 411.026 33.8333 408.959 31.5C406.892 29.1 403.926 27.9 400.059 27.9C395.792 27.9 392.392 29.2667 389.859 32C387.392 34.7333 386.159 38.7 386.159 43.9V71H373.659V17.6H385.559V24.4C387.559 22 390.059 20.1667 393.059 18.9C396.059 17.6333 399.392 17 403.059 17C407.059 17 410.592 17.7667 413.659 19.3C416.792 20.7667 419.259 22.9667 421.059 25.9C423.259 23.1 426.092 20.9333 429.559 19.4C433.026 17.8 436.859 17 441.059 17ZM535.621 44.6C535.621 45.4667 535.554 46.7 535.421 48.3H493.521C494.254 52.2333 496.154 55.3667 499.221 57.7C502.354 59.9667 506.221 61.1 510.821 61.1C516.687 61.1 521.521 59.1667 525.321 55.3L532.021 63C529.621 65.8667 526.587 68.0333 522.921 69.5C519.254 70.9667 515.121 71.7 510.521 71.7C504.654 71.7 499.487 70.5333 495.021 68.2C490.554 65.8667 487.087 62.6333 484.621 58.5C482.221 54.3 481.021 49.5667 481.021 44.3C481.021 39.1 482.187 34.4333 484.521 30.3C486.921 26.1 490.221 22.8333 494.421 20.5C498.621 18.1667 503.354 17 508.621 17C513.821 17 518.454 18.1667 522.521 20.5C526.654 22.7667 529.854 26 532.121 30.2C534.454 34.3333 535.621 39.1333 535.621 44.6ZM508.621 27C504.621 27 501.221 28.2 498.421 30.6C495.687 32.9333 494.021 36.0667 493.421 40H523.721C523.187 36.1333 521.554 33 518.821 30.6C516.087 28.2 512.687 27 508.621 27ZM565.528 25.4C569.128 19.8 575.461 17 584.528 17V28.9C583.461 28.7 582.494 28.6 581.628 28.6C576.761 28.6 572.961 30.0333 570.228 32.9C567.494 35.7 566.128 39.7667 566.128 45.1V71H553.628V17.6H565.528V25.4ZM625.143 71.7C619.61 71.7 614.643 70.5333 610.243 68.2C605.843 65.8667 602.41 62.6333 599.943 58.5C597.477 54.3 596.243 49.5667 596.243 44.3C596.243 39.0333 597.477 34.3333 599.943 30.2C602.41 26.0667 605.81 22.8333 610.143 20.5C614.543 18.1667 619.543 17 625.143 17C630.41 17 635.01 18.0667 638.943 20.2C642.943 22.3333 645.943 25.4 647.943 29.4L638.343 35C636.81 32.5333 634.877 30.7 632.543 29.5C630.277 28.2333 627.777 27.6 625.043 27.6C620.377 27.6 616.51 29.1333 613.443 32.2C610.377 35.2 608.843 39.2333 608.843 44.3C608.843 49.3667 610.343 53.4333 613.343 56.5C616.41 59.5 620.31 61 625.043 61C627.777 61 630.277 60.4 632.543 59.2C634.877 57.9333 636.81 56.0667 638.343 53.6L647.943 59.2C645.877 63.2 642.843 66.3 638.843 68.5C634.91 70.6333 630.343 71.7 625.143 71.7ZM714.168 44.6C714.168 45.4667 714.101 46.7 713.968 48.3H672.068C672.801 52.2333 674.701 55.3667 677.768 57.7C680.901 59.9667 684.768 61.1 689.368 61.1C695.234 61.1 700.068 59.1667 703.868 55.3L710.568 63C708.168 65.8667 705.134 68.0333 701.468 69.5C697.801 70.9667 693.668 71.7 689.068 71.7C683.201 71.7 678.034 70.5333 673.568 68.2C669.101 65.8667 665.634 62.6333 663.168 58.5C660.768 54.3 659.568 49.5667 659.568 44.3C659.568 39.1 660.734 34.4333 663.068 30.3C665.468 26.1 668.768 22.8333 672.968 20.5C677.168 18.1667 681.901 17 687.168 17C692.368 17 697.001 18.1667 701.068 20.5C705.201 22.7667 708.401 26 710.668 30.2C713.001 34.3333 714.168 39.1333 714.168 44.6ZM687.168 27C683.168 27 679.768 28.2 676.968 30.6C674.234 32.9333 672.568 36.0667 671.968 40H702.268C701.734 36.1333 700.101 33 697.368 30.6C694.634 28.2 691.234 27 687.168 27Z" fill="#FDBCA7"/>
</svg>
