<svg width="146" height="20" viewBox="0 0 146 20" fill="none" xmlns="http://www.w3.org/2000/svg">
<path d="M14.9364 3.83444C14.4646 3.49671 13.878 3.36019 13.3056 3.45489C12.7332 3.54959 12.2218 3.86776 11.8839 4.33944L6.36393 12.0457C6.23832 12.2121 6.14729 12.402 6.0962 12.6041C6.0451 12.8063 6.03498 13.0166 6.06643 13.2227C6.09788 13.4288 6.17026 13.6265 6.27931 13.8042C6.38836 13.9819 6.53187 14.136 6.70139 14.2574C6.87091 14.3788 7.06301 14.465 7.26637 14.511C7.46973 14.557 7.68024 14.5618 7.8855 14.5252C8.09075 14.4886 8.2866 14.4113 8.46151 14.2978C8.63642 14.1843 8.78685 14.037 8.90393 13.8644L12.8014 8.42382L12.2933 8.05944L8.39643 13.5013C8.25154 13.7031 8.03257 13.8393 7.78749 13.8799C7.54241 13.9206 7.29121 13.8624 7.08893 13.7182C6.88697 13.5731 6.75084 13.3538 6.71041 13.1084C6.66998 12.863 6.72857 12.6117 6.8733 12.4094L12.3921 4.70319H12.3933L12.3921 4.70194C12.6341 4.36561 12.9995 4.13889 13.4083 4.07142C13.8171 4.00394 14.236 4.10122 14.5733 4.34194C14.9096 4.58396 15.1364 4.94939 15.2038 5.35821C15.2713 5.76704 15.174 6.18594 14.9333 6.52319V6.52194L8.8833 14.9694C8.54509 15.4406 8.03387 15.7585 7.46168 15.8534C6.88949 15.9483 6.30301 15.8125 5.8308 15.4757C5.35969 15.1371 5.04205 14.6255 4.94751 14.0531C4.85296 13.4806 4.98922 12.8941 5.32643 12.4219L9.7233 6.28319L9.21518 5.91944L4.8183 12.0582C4.60322 12.3584 4.44942 12.6981 4.36568 13.0578C4.28195 13.4175 4.26992 13.7901 4.33028 14.1545C4.39065 14.5188 4.52222 14.8677 4.71749 15.1811C4.91276 15.4946 5.16789 15.7665 5.4683 15.9813C5.76834 16.1966 6.10787 16.3506 6.46748 16.4346C6.82709 16.5186 7.19972 16.5309 7.56407 16.4707C7.92843 16.4106 8.27736 16.2792 8.59091 16.0841C8.90446 15.8891 9.17648 15.6341 9.39143 15.3338L15.4414 6.88632C15.7788 6.41443 15.915 5.82786 15.8201 5.25558C15.7252 4.68329 15.4069 4.17212 14.9352 3.83444H14.9364Z" fill="black"/>
<path d="M33.88 12.848H27.384L25.96 16H25.08L30.232 4.8H31.048L36.2 16H35.32L33.88 12.848ZM33.576 12.16L30.632 5.696L27.704 12.16H33.576ZM43.0031 15.472C42.8005 15.664 42.5445 15.8133 42.2351 15.92C41.9365 16.016 41.6218 16.064 41.2911 16.064C40.5658 16.064 40.0058 15.8667 39.6111 15.472C39.2165 15.0667 39.0191 14.5067 39.0191 13.792V8.336H37.4831V7.648H39.0191V5.824H39.8191V7.648H42.4751V8.336H39.8191V13.712C39.8191 14.256 39.9471 14.672 40.2031 14.96C40.4698 15.2373 40.8591 15.376 41.3711 15.376C41.8938 15.376 42.3258 15.2213 42.6671 14.912L43.0031 15.472ZM50.1194 15.472C49.9167 15.664 49.6607 15.8133 49.3514 15.92C49.0527 16.016 48.738 16.064 48.4074 16.064C47.682 16.064 47.122 15.8667 46.7274 15.472C46.3327 15.0667 46.1354 14.5067 46.1354 13.792V8.336H44.5994V7.648H46.1354V5.824H46.9354V7.648H49.5914V8.336H46.9354V13.712C46.9354 14.256 47.0634 14.672 47.3194 14.96C47.586 15.2373 47.9754 15.376 48.4874 15.376C49.01 15.376 49.442 15.2213 49.7834 14.912L50.1194 15.472ZM56.1264 7.584C57.161 7.584 57.9557 7.85067 58.5104 8.384C59.065 8.90667 59.3424 9.68 59.3424 10.704V16H58.5744V14.512C58.3077 15.0027 57.9184 15.3867 57.4064 15.664C56.8944 15.9307 56.281 16.064 55.5664 16.064C54.6384 16.064 53.9024 15.8453 53.3584 15.408C52.825 14.9707 52.5584 14.3947 52.5584 13.68C52.5584 12.9867 52.8037 12.4267 53.2944 12C53.7957 11.5627 54.5904 11.344 55.6784 11.344H58.5424V10.672C58.5424 9.89333 58.329 9.30133 57.9024 8.896C57.4864 8.49067 56.873 8.288 56.0624 8.288C55.5077 8.288 54.9744 8.384 54.4624 8.576C53.961 8.768 53.5344 9.024 53.1824 9.344L52.7824 8.768C53.1984 8.39467 53.6997 8.10667 54.2864 7.904C54.873 7.69067 55.4864 7.584 56.1264 7.584ZM55.6784 15.408C56.3717 15.408 56.9584 15.248 57.4384 14.928C57.929 14.608 58.297 14.144 58.5424 13.536V11.968H55.6944C54.873 11.968 54.2757 12.1173 53.9024 12.416C53.5397 12.7147 53.3584 13.1253 53.3584 13.648C53.3584 14.192 53.561 14.624 53.9664 14.944C54.3717 15.2533 54.9424 15.408 55.6784 15.408ZM66.9261 16.064C66.1155 16.064 65.3901 15.8827 64.7501 15.52C64.1101 15.1573 63.6088 14.656 63.2461 14.016C62.8835 13.3653 62.7021 12.6347 62.7021 11.824C62.7021 11.0027 62.8835 10.272 63.2461 9.632C63.6088 8.98133 64.1101 8.48 64.7501 8.128C65.3901 7.76533 66.1155 7.584 66.9261 7.584C67.5981 7.584 68.2061 7.71733 68.7501 7.984C69.3048 8.24 69.7528 8.61867 70.0941 9.12L69.5021 9.552C69.2035 9.136 68.8301 8.82667 68.3821 8.624C67.9448 8.41067 67.4595 8.304 66.9261 8.304C66.2755 8.304 65.6888 8.45333 65.1661 8.752C64.6541 9.04 64.2488 9.45067 63.9501 9.984C63.6621 10.5173 63.5181 11.1307 63.5181 11.824C63.5181 12.5173 63.6621 13.1307 63.9501 13.664C64.2488 14.1973 64.6541 14.6133 65.1661 14.912C65.6888 15.2 66.2755 15.344 66.9261 15.344C67.4595 15.344 67.9448 15.2427 68.3821 15.04C68.8301 14.8267 69.2035 14.512 69.5021 14.096L70.0941 14.528C69.7528 15.0293 69.3048 15.4133 68.7501 15.68C68.2061 15.936 67.5981 16.064 66.9261 16.064ZM77.3885 7.584C78.4338 7.584 79.2605 7.888 79.8685 8.496C80.4765 9.104 80.7805 9.97867 80.7805 11.12V16H79.9805V11.184C79.9805 10.2453 79.7405 9.53067 79.2605 9.04C78.7912 8.54933 78.1298 8.304 77.2765 8.304C76.2952 8.304 75.5218 8.59733 74.9565 9.184C74.3912 9.77067 74.1085 10.56 74.1085 11.552V16H73.3085V4.128H74.1085V9.392C74.3965 8.816 74.8232 8.37333 75.3885 8.064C75.9538 7.744 76.6205 7.584 77.3885 7.584ZM92.1057 12.016H84.9217C84.9431 12.6667 85.1084 13.248 85.4177 13.76C85.7271 14.2613 86.1431 14.6507 86.6657 14.928C87.1991 15.2053 87.7964 15.344 88.4577 15.344C89.0017 15.344 89.5031 15.248 89.9617 15.056C90.4311 14.8533 90.8204 14.56 91.1297 14.176L91.5937 14.704C91.2311 15.1413 90.7724 15.4773 90.2177 15.712C89.6737 15.9467 89.0817 16.064 88.4417 16.064C87.6097 16.064 86.8684 15.8827 86.2177 15.52C85.5671 15.1573 85.0551 14.656 84.6817 14.016C84.3191 13.376 84.1377 12.6453 84.1377 11.824C84.1377 11.0133 84.3084 10.288 84.6497 9.648C85.0017 8.99733 85.4817 8.49067 86.0897 8.128C86.6977 7.76533 87.3804 7.584 88.1377 7.584C88.8951 7.584 89.5724 7.76533 90.1697 8.128C90.7777 8.48 91.2524 8.976 91.5937 9.616C91.9457 10.256 92.1217 10.9813 92.1217 11.792L92.1057 12.016ZM88.1377 8.288C87.5511 8.288 87.0231 8.42133 86.5537 8.688C86.0844 8.944 85.7057 9.312 85.4177 9.792C85.1404 10.2613 84.9804 10.7947 84.9377 11.392H91.3377C91.3057 10.7947 91.1457 10.2613 90.8577 9.792C90.5697 9.32267 90.1911 8.95467 89.7217 8.688C89.2524 8.42133 88.7244 8.288 88.1377 8.288ZM102.981 4.128V16H102.197V14.032C101.866 14.6827 101.402 15.184 100.805 15.536C100.207 15.888 99.53 16.064 98.7726 16.064C97.994 16.064 97.29 15.8827 96.6606 15.52C96.0313 15.1573 95.5353 14.656 95.1726 14.016C94.8206 13.376 94.6446 12.6453 94.6446 11.824C94.6446 11.0027 94.8206 10.272 95.1726 9.632C95.5353 8.98133 96.0313 8.48 96.6606 8.128C97.29 7.76533 97.994 7.584 98.7726 7.584C99.5193 7.584 100.186 7.76 100.773 8.112C101.37 8.464 101.839 8.95467 102.181 9.584V4.128H102.981ZM98.8206 15.344C99.4606 15.344 100.031 15.1947 100.533 14.896C101.045 14.5973 101.445 14.1813 101.733 13.648C102.031 13.1147 102.181 12.5067 102.181 11.824C102.181 11.1413 102.031 10.5333 101.733 10C101.445 9.46667 101.045 9.05067 100.533 8.752C100.031 8.45333 99.4606 8.304 98.8206 8.304C98.1806 8.304 97.6046 8.45333 97.0926 8.752C96.5913 9.05067 96.1913 9.46667 95.8926 10C95.6046 10.5333 95.4606 11.1413 95.4606 11.824C95.4606 12.5067 95.6046 13.1147 95.8926 13.648C96.1913 14.1813 96.5913 14.5973 97.0926 14.896C97.6046 15.1947 98.1806 15.344 98.8206 15.344ZM114.895 4.752C113.85 4.752 113.327 5.312 113.327 6.432V7.648H115.999V8.336H113.343V16H112.543V8.336H111.007V7.648H112.543V6.368C112.543 5.664 112.746 5.104 113.151 4.688C113.556 4.272 114.127 4.064 114.863 4.064C115.183 4.064 115.487 4.112 115.775 4.208C116.074 4.29333 116.319 4.42667 116.511 4.608L116.191 5.216C115.85 4.90667 115.418 4.752 114.895 4.752ZM118.911 7.648H119.711V16H118.911V7.648ZM119.311 5.616C119.13 5.616 118.975 5.55733 118.847 5.44C118.719 5.312 118.655 5.15733 118.655 4.976C118.655 4.79467 118.719 4.64 118.847 4.512C118.975 4.384 119.13 4.32 119.311 4.32C119.492 4.32 119.647 4.384 119.775 4.512C119.903 4.62933 119.967 4.77867 119.967 4.96C119.967 5.14133 119.903 5.296 119.775 5.424C119.647 5.552 119.492 5.616 119.311 5.616ZM124.046 4.128H124.846V16H124.046V4.128ZM136.234 12.016H129.05C129.071 12.6667 129.237 13.248 129.546 13.76C129.855 14.2613 130.271 14.6507 130.794 14.928C131.327 15.2053 131.925 15.344 132.586 15.344C133.13 15.344 133.631 15.248 134.09 15.056C134.559 14.8533 134.949 14.56 135.258 14.176L135.722 14.704C135.359 15.1413 134.901 15.4773 134.346 15.712C133.802 15.9467 133.21 16.064 132.57 16.064C131.738 16.064 130.997 15.8827 130.346 15.52C129.695 15.1573 129.183 14.656 128.81 14.016C128.447 13.376 128.266 12.6453 128.266 11.824C128.266 11.0133 128.437 10.288 128.778 9.648C129.13 8.99733 129.61 8.49067 130.218 8.128C130.826 7.76533 131.509 7.584 132.266 7.584C133.023 7.584 133.701 7.76533 134.298 8.128C134.906 8.48 135.381 8.976 135.722 9.616C136.074 10.256 136.25 10.9813 136.25 11.792L136.234 12.016ZM132.266 8.288C131.679 8.288 131.151 8.42133 130.682 8.688C130.213 8.944 129.834 9.312 129.546 9.792C129.269 10.2613 129.109 10.7947 129.066 11.392H135.466C135.434 10.7947 135.274 10.2613 134.986 9.792C134.698 9.32267 134.319 8.95467 133.85 8.688C133.381 8.42133 132.853 8.288 132.266 8.288ZM141.797 16.064C141.125 16.064 140.485 15.9627 139.877 15.76C139.269 15.5573 138.794 15.3013 138.453 14.992L138.821 14.352C139.162 14.64 139.599 14.88 140.133 15.072C140.677 15.264 141.242 15.36 141.829 15.36C142.671 15.36 143.29 15.2213 143.685 14.944C144.09 14.6667 144.293 14.2827 144.293 13.792C144.293 13.44 144.181 13.1627 143.957 12.96C143.743 12.7573 143.477 12.608 143.157 12.512C142.837 12.416 142.394 12.3147 141.829 12.208C141.167 12.0907 140.634 11.9627 140.229 11.824C139.823 11.6853 139.477 11.4613 139.189 11.152C138.901 10.8427 138.757 10.416 138.757 9.872C138.757 9.21067 139.029 8.66667 139.573 8.24C140.127 7.80267 140.911 7.584 141.925 7.584C142.458 7.584 142.986 7.65867 143.509 7.808C144.031 7.95733 144.458 8.15467 144.789 8.4L144.421 9.04C144.079 8.79467 143.69 8.608 143.253 8.48C142.815 8.352 142.367 8.288 141.909 8.288C141.13 8.288 140.543 8.432 140.149 8.72C139.754 9.008 139.557 9.38667 139.557 9.856C139.557 10.2293 139.669 10.5227 139.893 10.736C140.117 10.9387 140.389 11.0933 140.709 11.2C141.039 11.296 141.498 11.4027 142.085 11.52C142.735 11.6373 143.258 11.7653 143.653 11.904C144.058 12.032 144.399 12.2453 144.677 12.544C144.954 12.8427 145.093 13.2533 145.093 13.776C145.093 14.4693 144.805 15.024 144.229 15.44C143.653 15.856 142.842 16.064 141.797 16.064Z" fill="black"/>
</svg>
