<svg width="282" height="83" viewBox="0 0 282 83" fill="none" xmlns="http://www.w3.org/2000/svg">
<path d="M19.9461 83C15.6794 83 12.1461 82.1333 9.34609 80.4C6.61276 78.6667 4.51276 76.2333 3.04609 73.1C1.64609 69.9667 0.779427 66.2667 0.446094 62L5.14609 60.5C5.61276 64.0333 6.31276 67.1667 7.24609 69.9C8.24609 72.6333 9.74609 74.7667 11.7461 76.3C13.7461 77.7667 16.5128 78.5 20.0461 78.5C24.0461 78.5 27.1794 77.5 29.4461 75.5C31.7794 73.5 32.9461 70.1667 32.9461 65.5C32.9461 61.9667 32.0128 58.8 30.1461 56C28.3461 53.1333 25.7794 50.0667 22.4461 46.8L7.64609 32.1C5.17943 29.5667 3.37943 27.0333 2.24609 24.5C1.11276 21.9667 0.546094 19.3667 0.546094 16.7C0.546094 11.3667 2.17943 7.26666 5.44609 4.4C8.77943 1.53333 13.0794 0.0999935 18.3461 0.0999935C21.0794 0.0999935 23.5461 0.466661 25.7461 1.2C27.9461 1.86666 29.8461 3 31.4461 4.6C33.1128 6.13333 34.4128 8.2 35.3461 10.8C36.2794 13.4 36.8794 16.6 37.1461 20.4L32.5461 21.5C32.2794 17.7 31.6461 14.5333 30.6461 12C29.6461 9.46666 28.1794 7.6 26.2461 6.4C24.3128 5.13333 21.7128 4.5 18.4461 4.5C14.7794 4.5 11.7128 5.43333 9.24609 7.3C6.77943 9.16666 5.54609 12.1667 5.54609 16.3C5.54609 18.3667 5.94609 20.3667 6.74609 22.3C7.61276 24.2333 9.17943 26.3333 11.4461 28.6L26.0461 43C29.3128 46.2 32.1128 49.6333 34.4461 53.3C36.8461 56.9 38.0461 60.8667 38.0461 65.2C38.0461 69.2667 37.2794 72.6333 35.7461 75.3C34.2128 77.9 32.0794 79.8333 29.3461 81.1C26.6128 82.3667 23.4794 83 19.9461 83ZM66.5609 82.9C62.7609 82.9 59.7943 82.0667 57.6609 80.4C55.5943 78.7333 54.1276 76.2667 53.2609 73C52.4609 69.7333 52.0609 65.7 52.0609 60.9V45.3C52.0609 40.5 52.4609 36.4667 53.2609 33.2C54.1276 29.9333 55.5943 27.4667 57.6609 25.8C59.7943 24.1333 62.7609 23.3 66.5609 23.3C70.4276 23.3 73.3943 24.1333 75.4609 25.8C77.5943 27.4667 79.0609 29.9333 79.8609 33.2C80.7276 36.4 81.1609 40.4333 81.1609 45.3V60.9C81.1609 65.7 80.7276 69.7333 79.8609 73C79.0609 76.2667 77.5943 78.7333 75.4609 80.4C73.3943 82.0667 70.4276 82.9 66.5609 82.9ZM66.5609 78.9C69.3609 78.9 71.4276 78.2 72.7609 76.8C74.0943 75.3333 74.9276 73.2667 75.2609 70.6C75.6609 67.9333 75.8609 64.7667 75.8609 61.1V45.1C75.8609 41.3667 75.6609 38.2 75.2609 35.6C74.9276 32.9333 74.0943 30.9 72.7609 29.5C71.4276 28.0333 69.3609 27.3 66.5609 27.3C63.7609 27.3 61.6943 28.0333 60.3609 29.5C59.0943 30.9 58.2609 32.9333 57.8609 35.6C57.5276 38.2 57.3609 41.3667 57.3609 45.1V61.1C57.3609 64.7667 57.5276 67.9333 57.8609 70.6C58.2609 73.2667 59.0943 75.3333 60.3609 76.8C61.6943 78.2 63.7609 78.9 66.5609 78.9ZM101.242 82V27.9H93.4422V24.2H101.242V16.4C101.242 13.9333 101.409 11.7333 101.742 9.79999C102.142 7.8 103.009 6.23333 104.342 5.09999C105.676 3.89999 107.776 3.29999 110.642 3.29999C111.509 3.29999 112.409 3.36666 113.342 3.5C114.276 3.56666 115.142 3.73333 115.942 4V8C115.276 7.8 114.542 7.66666 113.742 7.6C113.009 7.46666 112.342 7.39999 111.742 7.39999C109.476 7.39999 108.042 8.1 107.442 9.5C106.842 10.9 106.542 13.1667 106.542 16.3V24.2H116.242V27.9H106.542V82H101.242ZM141.728 82.6C139.061 82.6 137.061 82.0667 135.728 81C134.395 79.9333 133.528 78.5 133.128 76.7C132.728 74.9 132.528 72.8667 132.528 70.6V27.7H124.928V24.2H132.528V5.7H137.828V24.2H147.628V27.7H137.828V69.9C137.828 73.0333 138.128 75.2333 138.728 76.5C139.328 77.7667 140.695 78.4 142.828 78.4C143.495 78.4 144.195 78.3667 144.928 78.3C145.728 78.1667 146.461 78.0333 147.128 77.9V82C146.328 82.2 145.428 82.3333 144.428 82.4C143.428 82.5333 142.528 82.6 141.728 82.6Z" fill="#121212"/>
<path d="M187.943 82V0.999994H193.443V46.5L216.943 0.999994H222.343L205.243 35.3L226.443 82H221.043L201.943 40L193.443 55.5V82H187.943ZM239.039 82V24.2H244.439V82H239.039ZM239.039 16.6V7.39999H244.439V16.6H239.039ZM275.884 82.6C273.218 82.6 271.218 82.0667 269.884 81C268.551 79.9333 267.684 78.5 267.284 76.7C266.884 74.9 266.684 72.8667 266.684 70.6V27.7H259.084V24.2H266.684V5.7H271.984V24.2H281.784V27.7H271.984V69.9C271.984 73.0333 272.284 75.2333 272.884 76.5C273.484 77.7667 274.851 78.4 276.984 78.4C277.651 78.4 278.351 78.3667 279.084 78.3C279.884 78.1667 280.618 78.0333 281.284 77.9V82C280.484 82.2 279.584 82.3333 278.584 82.4C277.584 82.5333 276.684 82.6 275.884 82.6Z" fill="#FDBCA7"/>
</svg>
