<svg width="471" height="126" viewBox="0 0 471 126" fill="none" xmlns="http://www.w3.org/2000/svg">
<path d="M31 100.2C25.9333 100.2 21.4667 99.2667 17.6 97.4C13.8 95.4667 10.6 93.0667 8 90.2L10.2 88C12.7333 90.8 15.7667 93.0333 19.3 94.7C22.9 96.3667 26.8 97.2 31 97.2C36.6 97.2 41.0667 95.9 44.4 93.3C47.7333 90.6333 49.4 87.2 49.4 83C49.4 80.0667 48.8 77.7333 47.6 76C46.4 74.2 44.8 72.7333 42.8 71.6C40.8 70.4667 38.6 69.4 36.2 68.4L26 63.8C24 62.9333 21.8667 61.8667 19.6 60.6C17.4 59.3333 15.5 57.6667 13.9 55.6C12.3667 53.5333 11.6 50.8667 11.6 47.6C11.6 44.4667 12.4333 41.7333 14.1 39.4C15.8333 37 18.1667 35.1333 21.1 33.8C24.1 32.4667 27.4667 31.8 31.2 31.8C35.4 31.8 39.1 32.6 42.3 34.2C45.5667 35.7333 48.2 37.5333 50.2 39.6L48.2 41.8C46.2 39.6667 43.7667 37.9667 40.9 36.7C38.0333 35.4333 34.8 34.8 31.2 34.8C26.3333 34.8 22.3667 35.9667 19.3 38.3C16.3 40.5667 14.8 43.6 14.8 47.4C14.8 50.1333 15.5 52.3667 16.9 54.1C18.3 55.7667 19.9667 57.1333 21.9 58.2C23.9 59.2 25.7333 60.0667 27.4 60.8L37.6 65.4C40.2 66.4667 42.6333 67.7 44.9 69.1C47.2333 70.5 49.1 72.3 50.5 74.5C51.9 76.6333 52.6 79.4 52.6 82.8C52.6 86.1333 51.7 89.1333 49.9 91.8C48.1 94.4 45.5667 96.4667 42.3 98C39.1 99.4667 35.3333 100.2 31 100.2Z" fill="#121212"/>
<path d="M173.6 99V44.8C173.6 40.7333 174.233 37.2667 175.5 34.4C176.833 31.5333 178.767 29.3667 181.3 27.9C183.9 26.3667 187.133 25.6 191 25.6C193.067 25.6 195.167 25.8 197.3 26.2C199.433 26.6 201.733 27.4 204.2 28.6L203 31C200.733 29.8667 198.733 29.1667 197 28.9C195.333 28.5667 193.333 28.4 191 28.4C185.733 28.4 181.967 29.9 179.7 32.9C177.5 35.8333 176.4 39.6667 176.4 44.4V99H173.6ZM159 54V51.6L173.6 51.2H199.4V54H159ZM252.761 100.2C248.494 100.2 245.161 99.4333 242.761 97.9C240.361 96.3 238.661 94.1 237.661 91.3C236.661 88.4333 236.161 85.1333 236.161 81.4V54H221.361V51.6L236.161 51.2L236.561 35.2H239.161V51.2H265.361V54H239.161V81.8C239.161 85 239.528 87.7667 240.261 90.1C240.994 92.4333 242.361 94.2333 244.361 95.5C246.361 96.7667 249.228 97.4 252.961 97.4C255.561 97.4 257.894 97.1667 259.961 96.7C262.094 96.2333 264.161 95.6 266.161 94.8L267.161 97.2C264.961 98.0667 262.728 98.7667 260.461 99.3C258.261 99.9 255.694 100.2 252.761 100.2ZM291.122 99V33H294.322V71H294.522L328.922 33H332.822L294.322 75.6V99H291.122ZM331.922 99L307.522 57.2L309.722 54.6L335.722 99H331.922ZM379.483 99V54H354.883V51.2H382.483V99H379.483ZM379.883 39C378.816 39 377.883 38.6333 377.083 37.9C376.283 37.1 375.883 36.0667 375.883 34.8C375.883 33.4667 376.283 32.4333 377.083 31.7C377.883 30.9667 378.816 30.6 379.883 30.6C381.016 30.6 381.949 30.9667 382.683 31.7C383.483 32.4333 383.883 33.4667 383.883 34.8C383.883 36.0667 383.483 37.1 382.683 37.9C381.949 38.6333 381.016 39 379.883 39ZM450.644 100.2C446.377 100.2 443.044 99.4333 440.644 97.9C438.244 96.3 436.544 94.1 435.544 91.3C434.544 88.4333 434.044 85.1333 434.044 81.4V54H419.244V51.6L434.044 51.2L434.444 35.2H437.044V51.2H463.244V54H437.044V81.8C437.044 85 437.41 87.7667 438.144 90.1C438.877 92.4333 440.244 94.2333 442.244 95.5C444.244 96.7667 447.11 97.4 450.844 97.4C453.444 97.4 455.777 97.1667 457.844 96.7C459.977 96.2333 462.044 95.6 464.044 94.8L465.044 97.2C462.844 98.0667 460.61 98.7667 458.344 99.3C456.144 99.9 453.577 100.2 450.644 100.2Z" fill="#121212"/>
<rect x="62" y="59" width="83" height="41" rx="20.5" stroke="#121212" stroke-width="2"/>
<circle cx="84" cy="80" r="16" fill="#FDBCA7"/>
</svg>
