<svg width="415" height="79" viewBox="0 0 415 79" fill="none" xmlns="http://www.w3.org/2000/svg">
<path d="M28.3793 79C22.9793 79 17.746 78.2333 12.6793 76.7C7.6793 75.1667 3.71263 73.1333 0.779297 70.6L5.2793 60.5C8.14596 62.7667 11.646 64.6333 15.7793 66.1C19.9793 67.5 24.1793 68.2 28.3793 68.2C33.5793 68.2 37.446 67.3667 39.9793 65.7C42.5793 64.0333 43.8793 61.8333 43.8793 59.1C43.8793 57.1 43.146 55.4667 41.6793 54.2C40.2793 52.8667 38.4793 51.8333 36.2793 51.1C34.0793 50.3667 31.0793 49.5333 27.2793 48.6C21.946 47.3333 17.6126 46.0667 14.2793 44.8C11.0126 43.5333 8.1793 41.5667 5.7793 38.9C3.44596 36.1667 2.2793 32.5 2.2793 27.9C2.2793 24.0333 3.31263 20.5333 5.3793 17.4C7.51263 14.2 10.6793 11.6667 14.8793 9.8C19.146 7.93333 24.346 7 30.4793 7C34.746 7 38.946 7.53333 43.0793 8.6C47.2126 9.66666 50.7793 11.2 53.7793 13.2L49.6793 23.3C46.6126 21.5 43.4126 20.1333 40.0793 19.2C36.746 18.2667 33.5126 17.8 30.3793 17.8C25.246 17.8 21.4126 18.6667 18.8793 20.4C16.4126 22.1333 15.1793 24.4333 15.1793 27.3C15.1793 29.3 15.8793 30.9333 17.2793 32.2C18.746 33.4667 20.5793 34.4667 22.7793 35.2C24.9793 35.9333 27.9793 36.7667 31.7793 37.7C36.9793 38.9 41.246 40.1667 44.5793 41.5C47.9126 42.7667 50.746 44.7333 53.0793 47.4C55.4793 50.0667 56.6793 53.6667 56.6793 58.2C56.6793 62.0667 55.6126 65.5667 53.4793 68.7C51.4126 71.8333 48.246 74.3333 43.9793 76.2C39.7126 78.0667 34.5126 79 28.3793 79ZM98.3699 78.7C92.9699 78.7 88.1033 77.5333 83.7699 75.2C79.4366 72.8667 76.0366 69.6333 73.5699 65.5C71.1699 61.3 69.9699 56.5667 69.9699 51.3C69.9699 46.0333 71.1699 41.3333 73.5699 37.2C76.0366 33.0667 79.4366 29.8333 83.7699 27.5C88.1033 25.1667 92.9699 24 98.3699 24C103.837 24 108.737 25.1667 113.07 27.5C117.403 29.8333 120.77 33.0667 123.17 37.2C125.637 41.3333 126.87 46.0333 126.87 51.3C126.87 56.5667 125.637 61.3 123.17 65.5C120.77 69.6333 117.403 72.8667 113.07 75.2C108.737 77.5333 103.837 78.7 98.3699 78.7ZM98.3699 68C102.97 68 106.77 66.4667 109.77 63.4C112.77 60.3333 114.27 56.3 114.27 51.3C114.27 46.3 112.77 42.2667 109.77 39.2C106.77 36.1333 102.97 34.6 98.3699 34.6C93.7699 34.6 89.9699 36.1333 86.9699 39.2C84.0366 42.2667 82.5699 46.3 82.5699 51.3C82.5699 56.3 84.0366 60.3333 86.9699 63.4C89.9699 66.4667 93.7699 68 98.3699 68ZM166.523 13.2C161.256 13.2 158.623 16.0667 158.623 21.8V25H173.323V35H159.023V78H146.523V35H137.723V25H146.523V21.6C146.523 15.8667 148.19 11.3667 151.523 8.09999C154.856 4.76666 159.556 3.1 165.623 3.1C170.423 3.1 174.19 4.06666 176.923 6L173.423 15.4C171.29 13.9333 168.99 13.2 166.523 13.2ZM219.837 75.1C218.37 76.3 216.57 77.2 214.437 77.8C212.37 78.4 210.17 78.7 207.837 78.7C201.97 78.7 197.437 77.1667 194.237 74.1C191.037 71.0333 189.437 66.5667 189.437 60.7V35H180.637V25H189.437V12.8H201.937V25H216.237V35H201.937V60.4C201.937 63 202.57 65 203.837 66.4C205.104 67.7333 206.937 68.4 209.337 68.4C212.137 68.4 214.47 67.6667 216.337 66.2L219.837 75.1Z" fill="#FDBCA7"/>
<path d="M295.057 48.7L283.957 60.1V78H270.957V8H283.957V43.9L318.557 8H333.157L303.757 39.3L334.957 78H319.757L295.057 48.7ZM347.632 24.6H360.132V78H347.632V24.6ZM353.932 15.8C351.665 15.8 349.765 15.1 348.232 13.7C346.698 12.2333 345.932 10.4333 345.932 8.3C345.932 6.16666 346.698 4.4 348.232 2.99999C349.765 1.53333 351.665 0.799999 353.932 0.799999C356.198 0.799999 358.098 1.5 359.632 2.9C361.165 4.23333 361.932 5.93333 361.932 8C361.932 10.2 361.165 12.0667 359.632 13.6C358.165 15.0667 356.265 15.8 353.932 15.8ZM414.638 75.1C413.171 76.3 411.371 77.2 409.238 77.8C407.171 78.4 404.971 78.7 402.638 78.7C396.771 78.7 392.238 77.1667 389.038 74.1C385.838 71.0333 384.238 66.5667 384.238 60.7V35H375.438V25H384.238V12.8H396.738V25H411.038V35H396.738V60.4C396.738 63 397.371 65 398.638 66.4C399.905 67.7333 401.738 68.4 404.138 68.4C406.938 68.4 409.271 67.6667 411.138 66.2L414.638 75.1Z" fill="#121212"/>
</svg>
