<svg width="92" height="21" viewBox="0 0 92 21" fill="none" xmlns="http://www.w3.org/2000/svg">
<path d="M7.22791 20.078C5.91057 20.078 4.67124 19.844 3.50991 19.376C2.34857 18.8907 1.45591 18.2667 0.831906 17.504L1.19591 17.166C1.78524 17.8593 2.62591 18.44 3.71791 18.908C4.80991 19.3587 5.97124 19.584 7.20191 19.584C9.09124 19.584 10.5126 19.2113 11.4659 18.466C12.4366 17.7033 12.9219 16.724 12.9219 15.528C12.9219 14.592 12.6706 13.8467 12.1679 13.292C11.6652 12.7373 11.0412 12.3213 10.2959 12.044C9.56791 11.7667 8.57991 11.4807 7.33191 11.186C5.99724 10.8567 4.93991 10.5447 4.15991 10.25C3.37991 9.938 2.71257 9.47 2.15791 8.846C1.62057 8.20467 1.35191 7.35533 1.35191 6.298C1.35191 5.466 1.56857 4.70333 2.00191 4.01C2.43524 3.31667 3.11124 2.762 4.02991 2.346C4.94857 1.93 6.08391 1.722 7.43591 1.722C8.40657 1.722 9.35991 1.878 10.2959 2.19C11.2319 2.48467 12.0379 2.88333 12.7139 3.386L12.4279 3.802C11.7172 3.282 10.9199 2.892 10.0359 2.632C9.16924 2.35467 8.31124 2.216 7.46191 2.216C5.64191 2.216 4.25524 2.606 3.30191 3.386C2.34857 4.14867 1.87191 5.128 1.87191 6.324C1.87191 7.26 2.12324 8.014 2.62591 8.586C3.12857 9.14067 3.75257 9.55667 4.49791 9.834C5.24324 10.1113 6.24857 10.406 7.51391 10.718C8.83124 11.0473 9.87991 11.368 10.6599 11.68C11.4399 11.9747 12.0986 12.434 12.6359 13.058C13.1732 13.6647 13.4419 14.488 13.4419 15.528C13.4419 16.36 13.2166 17.1227 12.7659 17.816C12.3152 18.5093 11.6219 19.064 10.6859 19.48C9.76724 19.8787 8.61457 20.078 7.22791 20.078ZM24.4291 20.078C23.1985 20.078 22.0805 19.792 21.0751 19.22C20.0871 18.6307 19.3071 17.816 18.7351 16.776C18.1805 15.736 17.9031 14.566 17.9031 13.266C17.9031 11.966 18.1805 10.8047 18.7351 9.782C19.3071 8.742 20.0871 7.936 21.0751 7.364C22.0805 6.77467 23.1985 6.48 24.4291 6.48C25.6598 6.48 26.7691 6.77467 27.7571 7.364C28.7625 7.936 29.5425 8.742 30.0971 9.782C30.6691 10.8047 30.9551 11.966 30.9551 13.266C30.9551 14.566 30.6691 15.736 30.0971 16.776C29.5425 17.816 28.7625 18.6307 27.7571 19.22C26.7691 19.792 25.6598 20.078 24.4291 20.078ZM24.4291 19.584C25.5558 19.584 26.5785 19.3153 27.4971 18.778C28.4158 18.2407 29.1351 17.4953 29.6551 16.542C30.1751 15.5713 30.4351 14.4793 30.4351 13.266C30.4351 12.0527 30.1751 10.9693 29.6551 10.016C29.1351 9.04533 28.4158 8.3 27.4971 7.78C26.5785 7.24267 25.5558 6.974 24.4291 6.974C23.3025 6.974 22.2798 7.24267 21.3611 7.78C20.4425 8.3 19.7231 9.04533 19.2031 10.016C18.6831 10.9693 18.4231 12.0527 18.4231 13.266C18.4231 14.4793 18.6831 15.5713 19.2031 16.542C19.7231 17.4953 20.4425 18.2407 21.3611 18.778C22.2798 19.3153 23.3025 19.584 24.4291 19.584ZM40.4023 1.124C39.5009 1.124 38.8163 1.37533 38.3483 1.878C37.8803 2.38067 37.6463 3.10867 37.6463 4.062V6.558H42.1963V7.052H37.6463V20H37.1263V7.052H34.5263V6.558H37.1263V3.932C37.1263 2.92667 37.4123 2.12933 37.9843 1.54C38.5563 0.933332 39.3536 0.629998 40.3763 0.629998C40.8789 0.629998 41.3643 0.716665 41.8323 0.89C42.3176 1.046 42.7076 1.28 43.0023 1.592L42.6383 1.956C42.0489 1.40133 41.3036 1.124 40.4023 1.124ZM52.6365 19.116C52.3418 19.428 51.9518 19.6707 51.4665 19.844C50.9985 20 50.5132 20.078 50.0105 20.078C48.9705 20.078 48.1645 19.7833 47.5925 19.194C47.0378 18.5873 46.7605 17.7813 46.7605 16.776V7.052H44.1605V6.558H46.7605V3.62H47.2805V6.558H51.8305V7.052H47.2805V16.646C47.2805 17.5993 47.5145 18.3273 47.9825 18.83C48.4505 19.3327 49.1352 19.584 50.0365 19.584C50.9378 19.584 51.6832 19.3067 52.2725 18.752L52.6365 19.116ZM63.7046 10.51L59.1806 15.164V20H58.6606V1.8H59.1806V14.462L71.5046 1.8H72.2066L64.0946 10.146L72.8046 20H72.1026L63.7046 10.51ZM77.526 6.558H78.046V20H77.526V6.558ZM77.786 2.84C77.5954 2.84 77.4307 2.77067 77.292 2.632C77.1707 2.49333 77.11 2.33733 77.11 2.164C77.11 1.97333 77.1707 1.81733 77.292 1.696C77.4307 1.55733 77.5954 1.488 77.786 1.488C77.9594 1.488 78.1154 1.55733 78.254 1.696C78.3927 1.81733 78.462 1.97333 78.462 2.164C78.462 2.33733 78.3927 2.49333 78.254 2.632C78.1154 2.77067 77.9594 2.84 77.786 2.84ZM91.67 19.116C91.3753 19.428 90.9853 19.6707 90.5 19.844C90.032 20 89.5467 20.078 89.044 20.078C88.004 20.078 87.198 19.7833 86.626 19.194C86.0713 18.5873 85.794 17.7813 85.794 16.776V7.052H83.194V6.558H85.794V3.62H86.314V6.558H90.864V7.052H86.314V16.646C86.314 17.5993 86.548 18.3273 87.016 18.83C87.484 19.3327 88.1687 19.584 89.07 19.584C89.9713 19.584 90.7167 19.3067 91.306 18.752L91.67 19.116Z" fill="#fff"/>
</svg>
