<svg width="390" height="76" viewBox="0 0 390 76" fill="none" xmlns="http://www.w3.org/2000/svg">
<path d="M62.7523 5V75H49.7523V45H13.5523V75H0.552344V5H13.5523V33.9H49.7523V5H62.7523ZM110.309 75.7C104.909 75.7 100.043 74.5333 95.7094 72.2C91.376 69.8667 87.976 66.6333 85.5094 62.5C83.1094 58.3 81.9094 53.5667 81.9094 48.3C81.9094 43.0333 83.1094 38.3333 85.5094 34.2C87.976 30.0667 91.376 26.8333 95.7094 24.5C100.043 22.1667 104.909 21 110.309 21C115.776 21 120.676 22.1667 125.009 24.5C129.343 26.8333 132.709 30.0667 135.109 34.2C137.576 38.3333 138.809 43.0333 138.809 48.3C138.809 53.5667 137.576 58.3 135.109 62.5C132.709 66.6333 129.343 69.8667 125.009 72.2C120.676 74.5333 115.776 75.7 110.309 75.7ZM110.309 65C114.909 65 118.709 63.4667 121.709 60.4C124.709 57.3333 126.209 53.3 126.209 48.3C126.209 43.3 124.709 39.2667 121.709 36.2C118.709 33.1333 114.909 31.6 110.309 31.6C105.709 31.6 101.909 33.1333 98.9094 36.2C95.976 39.2667 94.5094 43.3 94.5094 48.3C94.5094 53.3 95.976 57.3333 98.9094 60.4C101.909 63.4667 105.709 65 110.309 65ZM156.763 0.799996H169.263V75H156.763V0.799996ZM243.969 0.799996V75H231.969V68.1C229.902 70.6333 227.335 72.5333 224.269 73.8C221.269 75.0667 217.935 75.7 214.269 75.7C209.135 75.7 204.502 74.5667 200.369 72.3C196.302 70.0333 193.102 66.8333 190.769 62.7C188.435 58.5 187.269 53.7 187.269 48.3C187.269 42.9 188.435 38.1333 190.769 34C193.102 29.8667 196.302 26.6667 200.369 24.4C204.502 22.1333 209.135 21 214.269 21C217.802 21 221.035 21.6 223.969 22.8C226.902 24 229.402 25.8 231.469 28.2V0.799996H243.969ZM215.769 65C218.769 65 221.469 64.3333 223.869 63C226.269 61.6 228.169 59.6333 229.569 57.1C230.969 54.5667 231.669 51.6333 231.669 48.3C231.669 44.9667 230.969 42.0333 229.569 39.5C228.169 36.9667 226.269 35.0333 223.869 33.7C221.469 32.3 218.769 31.6 215.769 31.6C212.769 31.6 210.069 32.3 207.669 33.7C205.269 35.0333 203.369 36.9667 201.969 39.5C200.569 42.0333 199.869 44.9667 199.869 48.3C199.869 51.6333 200.569 54.5667 201.969 57.1C203.369 59.6333 205.269 61.6 207.669 63C210.069 64.3333 212.769 65 215.769 65ZM301.158 5H314.158V75H301.158V5ZM353.291 16H330.091V5H389.491V16H366.291V75H353.291V16Z" fill="#121212"/>
</svg>
