<svg width="102" height="38" viewBox="0 0 102 38" fill="none" xmlns="http://www.w3.org/2000/svg">
<rect width="102" height="38" fill="transparent"/>
<path d="M23.9967 4.8V23H23.4767V14.004H10.2167V23H9.69667V4.8H10.2167V13.51H23.4767V4.8H23.9967ZM36.9552 23.078C35.7246 23.078 34.6066 22.792 33.6012 22.22C32.6132 21.6307 31.8332 20.816 31.2612 19.776C30.7066 18.736 30.4292 17.566 30.4292 16.266C30.4292 14.966 30.7066 13.8047 31.2612 12.782C31.8332 11.742 32.6132 10.936 33.6012 10.364C34.6066 9.77467 35.7246 9.48 36.9552 9.48C38.1859 9.48 39.2952 9.77467 40.2832 10.364C41.2886 10.936 42.0686 11.742 42.6232 12.782C43.1952 13.8047 43.4812 14.966 43.4812 16.266C43.4812 17.566 43.1952 18.736 42.6232 19.776C42.0686 20.816 41.2886 21.6307 40.2832 22.22C39.2952 22.792 38.1859 23.078 36.9552 23.078ZM36.9552 22.584C38.0819 22.584 39.1046 22.3153 40.0232 21.778C40.9419 21.2407 41.6612 20.4953 42.1812 19.542C42.7012 18.5713 42.9612 17.4793 42.9612 16.266C42.9612 15.0527 42.7012 13.9693 42.1812 13.016C41.6612 12.0453 40.9419 11.3 40.0232 10.78C39.1046 10.2427 38.0819 9.974 36.9552 9.974C35.8286 9.974 34.8059 10.2427 33.8872 10.78C32.9686 11.3 32.2492 12.0453 31.7292 13.016C31.2092 13.9693 30.9492 15.0527 30.9492 16.266C30.9492 17.4793 31.2092 18.5713 31.7292 19.542C32.2492 20.4953 32.9686 21.2407 33.8872 21.778C34.8059 22.3153 35.8286 22.584 36.9552 22.584ZM49.4444 3.708H49.9644V23H49.4444V3.708ZM68.9704 3.708V23H68.4504V18.892C67.9997 20.1747 67.237 21.1973 66.1624 21.96C65.0877 22.7053 63.8484 23.078 62.4444 23.078C61.231 23.078 60.1217 22.792 59.1164 22.22C58.1284 21.6307 57.3484 20.816 56.7764 19.776C56.2044 18.736 55.9184 17.566 55.9184 16.266C55.9184 14.966 56.2044 13.8047 56.7764 12.782C57.3484 11.742 58.1284 10.936 59.1164 10.364C60.1217 9.77467 61.231 9.48 62.4444 9.48C63.831 9.48 65.0617 9.86133 66.1364 10.624C67.2284 11.3693 67.9997 12.3747 68.4504 13.64V3.708H68.9704ZM62.4444 22.584C63.571 22.584 64.5937 22.3153 65.5124 21.778C66.431 21.2407 67.1504 20.4953 67.6704 19.542C68.1904 18.5713 68.4504 17.4793 68.4504 16.266C68.4504 15.0527 68.1904 13.9693 67.6704 13.016C67.1504 12.0453 66.431 11.3 65.5124 10.78C64.5937 10.2427 63.571 9.974 62.4444 9.974C61.3177 9.974 60.295 10.2427 59.3764 10.78C58.4577 11.3 57.7384 12.0453 57.2184 13.016C56.6984 13.9693 56.4384 15.0527 56.4384 16.266C56.4384 17.4793 56.6984 18.5713 57.2184 19.542C57.7384 20.4953 58.4577 21.2407 59.3764 21.778C60.295 22.3153 61.3177 22.584 62.4444 22.584ZM76.9757 4.8H77.4957V23H76.9757V4.8ZM89.3812 5.294H82.6212V4.8H96.6612V5.294H89.9012V23H89.3812V5.294Z" fill="#121212"/>
<path d="M5.7388 35.06C5.1228 35.06 4.5348 34.956 3.9748 34.748C3.4228 34.532 2.9908 34.256 2.6788 33.92L2.9548 33.464C3.2508 33.776 3.6468 34.032 4.1428 34.232C4.6468 34.424 5.1748 34.52 5.7268 34.52C6.5268 34.52 7.1308 34.368 7.5388 34.064C7.9468 33.76 8.1508 33.364 8.1508 32.876C8.1508 32.5 8.0428 32.2 7.8268 31.976C7.6108 31.752 7.3428 31.58 7.0228 31.46C6.7028 31.34 6.2708 31.216 5.7268 31.088C5.1108 30.936 4.6148 30.788 4.2388 30.644C3.8708 30.5 3.5548 30.28 3.2908 29.984C3.0348 29.68 2.9068 29.276 2.9068 28.772C2.9068 28.364 3.0148 27.992 3.2308 27.656C3.4468 27.312 3.7748 27.04 4.2148 26.84C4.6628 26.64 5.2188 26.54 5.8828 26.54C6.3468 26.54 6.8028 26.608 7.2508 26.744C7.6988 26.88 8.0868 27.064 8.4148 27.296L8.1868 27.788C7.8508 27.556 7.4788 27.38 7.0708 27.26C6.6708 27.14 6.2748 27.08 5.8828 27.08C5.1068 27.08 4.5188 27.236 4.1188 27.548C3.7188 27.86 3.5188 28.264 3.5188 28.76C3.5188 29.136 3.6268 29.436 3.8428 29.66C4.0588 29.884 4.3268 30.056 4.6468 30.176C4.9668 30.296 5.4028 30.424 5.9548 30.56C6.5708 30.712 7.0628 30.86 7.4308 31.004C7.7988 31.148 8.1108 31.368 8.3668 31.664C8.6308 31.952 8.7628 32.344 8.7628 32.84C8.7628 33.248 8.6508 33.62 8.4268 33.956C8.2108 34.292 7.8748 34.56 7.4188 34.76C6.9628 34.96 6.4028 35.06 5.7388 35.06ZM18.1993 35.048C17.6073 35.048 17.0713 34.912 16.5913 34.64C16.1193 34.368 15.7473 33.992 15.4753 33.512C15.2033 33.024 15.0673 32.476 15.0673 31.868C15.0673 31.26 15.2033 30.716 15.4753 30.236C15.7473 29.748 16.1193 29.368 16.5913 29.096C17.0713 28.824 17.6073 28.688 18.1993 28.688C18.7913 28.688 19.3233 28.824 19.7953 29.096C20.2753 29.368 20.6513 29.748 20.9233 30.236C21.1953 30.716 21.3313 31.26 21.3313 31.868C21.3313 32.476 21.1953 33.024 20.9233 33.512C20.6513 33.992 20.2753 34.368 19.7953 34.64C19.3233 34.912 18.7913 35.048 18.1993 35.048ZM18.1993 34.508C18.6793 34.508 19.1073 34.396 19.4833 34.172C19.8673 33.948 20.1673 33.636 20.3833 33.236C20.6073 32.836 20.7193 32.38 20.7193 31.868C20.7193 31.356 20.6073 30.9 20.3833 30.5C20.1673 30.1 19.8673 29.788 19.4833 29.564C19.1073 29.34 18.6793 29.228 18.1993 29.228C17.7193 29.228 17.2873 29.34 16.9033 29.564C16.5273 29.788 16.2273 30.1 16.0033 30.5C15.7873 30.9 15.6793 31.356 15.6793 31.868C15.6793 32.38 15.7873 32.836 16.0033 33.236C16.2273 33.636 16.5273 33.948 16.9033 34.172C17.2873 34.396 17.7193 34.508 18.1993 34.508ZM28.2927 26.096H28.8927V35H28.2927V26.096ZM42.0056 28.736V35H41.4296V33.656C41.2216 34.096 40.9136 34.44 40.5056 34.688C40.0976 34.928 39.6176 35.048 39.0656 35.048C38.2496 35.048 37.6096 34.82 37.1456 34.364C36.6816 33.908 36.4496 33.252 36.4496 32.396V28.736H37.0496V32.348C37.0496 33.052 37.2296 33.588 37.5896 33.956C37.9496 34.324 38.4576 34.508 39.1136 34.508C39.8176 34.508 40.3736 34.288 40.7816 33.848C41.1976 33.408 41.4056 32.816 41.4056 32.072V28.736H42.0056ZM52.757 34.604C52.605 34.748 52.413 34.86 52.181 34.94C51.957 35.012 51.721 35.048 51.473 35.048C50.929 35.048 50.509 34.9 50.213 34.604C49.917 34.3 49.769 33.88 49.769 33.344V29.252H48.617V28.736H49.769V27.368H50.369V28.736H52.361V29.252H50.369V33.284C50.369 33.692 50.465 34.004 50.657 34.22C50.857 34.428 51.149 34.532 51.533 34.532C51.925 34.532 52.249 34.416 52.505 34.184L52.757 34.604ZM59.5302 28.736H60.1302V35H59.5302V28.736ZM59.8302 27.212C59.6942 27.212 59.5782 27.168 59.4822 27.08C59.3862 26.984 59.3382 26.868 59.3382 26.732C59.3382 26.596 59.3862 26.48 59.4822 26.384C59.5782 26.288 59.6942 26.24 59.8302 26.24C59.9662 26.24 60.0822 26.288 60.1782 26.384C60.2742 26.472 60.3222 26.584 60.3222 26.72C60.3222 26.856 60.2742 26.972 60.1782 27.068C60.0822 27.164 59.9662 27.212 59.8302 27.212ZM70.2071 35.048C69.6151 35.048 69.0791 34.912 68.5991 34.64C68.1271 34.368 67.7551 33.992 67.4831 33.512C67.2111 33.024 67.0751 32.476 67.0751 31.868C67.0751 31.26 67.2111 30.716 67.4831 30.236C67.7551 29.748 68.1271 29.368 68.5991 29.096C69.0791 28.824 69.6151 28.688 70.2071 28.688C70.7991 28.688 71.3311 28.824 71.8031 29.096C72.2831 29.368 72.6591 29.748 72.9311 30.236C73.2031 30.716 73.3391 31.26 73.3391 31.868C73.3391 32.476 73.2031 33.024 72.9311 33.512C72.6591 33.992 72.2831 34.368 71.8031 34.64C71.3311 34.912 70.7991 35.048 70.2071 35.048ZM70.2071 34.508C70.6871 34.508 71.1151 34.396 71.4911 34.172C71.8751 33.948 72.1751 33.636 72.3911 33.236C72.6151 32.836 72.7271 32.38 72.7271 31.868C72.7271 31.356 72.6151 30.9 72.3911 30.5C72.1751 30.1 71.8751 29.788 71.4911 29.564C71.1151 29.34 70.6871 29.228 70.2071 29.228C69.7271 29.228 69.2951 29.34 68.9111 29.564C68.5351 29.788 68.2351 30.1 68.0111 30.5C67.7951 30.9 67.6871 31.356 67.6871 31.868C67.6871 32.38 67.7951 32.836 68.0111 33.236C68.2351 33.636 68.5351 33.948 68.9111 34.172C69.2951 34.396 69.7271 34.508 70.2071 34.508ZM83.3605 28.688C84.1445 28.688 84.7645 28.916 85.2205 29.372C85.6765 29.828 85.9045 30.484 85.9045 31.34V35H85.3045V31.388C85.3045 30.684 85.1245 30.148 84.7645 29.78C84.4125 29.412 83.9165 29.228 83.2765 29.228C82.5405 29.228 81.9605 29.448 81.5365 29.888C81.1125 30.328 80.9005 30.92 80.9005 31.664V35H80.3005V28.736H80.8765V30.092C81.0925 29.652 81.4125 29.308 81.8365 29.06C82.2685 28.812 82.7765 28.688 83.3605 28.688ZM95.0587 35.048C94.5547 35.048 94.0747 34.972 93.6187 34.82C93.1627 34.668 92.8067 34.476 92.5507 34.244L92.8267 33.764C93.0827 33.98 93.4107 34.16 93.8107 34.304C94.2187 34.448 94.6427 34.52 95.0827 34.52C95.7147 34.52 96.1787 34.416 96.4747 34.208C96.7787 34 96.9307 33.712 96.9307 33.344C96.9307 33.08 96.8467 32.872 96.6787 32.72C96.5187 32.568 96.3187 32.456 96.0787 32.384C95.8387 32.312 95.5067 32.236 95.0827 32.156C94.5867 32.068 94.1867 31.972 93.8827 31.868C93.5787 31.764 93.3187 31.596 93.1027 31.364C92.8867 31.132 92.7787 30.812 92.7787 30.404C92.7787 29.908 92.9827 29.5 93.3907 29.18C93.8067 28.852 94.3947 28.688 95.1547 28.688C95.5547 28.688 95.9507 28.744 96.3427 28.856C96.7347 28.968 97.0547 29.116 97.3027 29.3L97.0267 29.78C96.7707 29.596 96.4787 29.456 96.1507 29.36C95.8227 29.264 95.4867 29.216 95.1427 29.216C94.5587 29.216 94.1187 29.324 93.8227 29.54C93.5267 29.756 93.3787 30.04 93.3787 30.392C93.3787 30.672 93.4627 30.892 93.6307 31.052C93.7987 31.204 94.0027 31.32 94.2427 31.4C94.4907 31.472 94.8347 31.552 95.2747 31.64C95.7627 31.728 96.1547 31.824 96.4507 31.928C96.7547 32.024 97.0107 32.184 97.2187 32.408C97.4267 32.632 97.5307 32.94 97.5307 33.332C97.5307 33.852 97.3147 34.268 96.8827 34.58C96.4507 34.892 95.8427 35.048 95.0587 35.048Z" fill="#474747"/>
</svg>
