<svg width="259" height="82" viewBox="0 0 259 82" fill="none" xmlns="http://www.w3.org/2000/svg">
<path d="M0.677344 -6.19888e-06H6.17734V36.5H34.5773V-6.19888e-06H39.9773V81H34.5773V40.7H6.17734V81H0.677344V-6.19888e-06ZM72.5766 81.9C67.0432 81.9 63.2432 80.1667 61.1766 76.7C59.1099 73.1667 58.0766 67.5667 58.0766 59.9V44.3C58.0766 36.7 59.1099 31.1333 61.1766 27.6C63.2432 24.0667 67.0432 22.3 72.5766 22.3C78.1099 22.3 81.9099 24.0667 83.9766 27.6C86.1099 31.0667 87.1766 36.6333 87.1766 44.3V59.9C87.1766 67.5667 86.1099 73.1667 83.9766 76.7C81.9099 80.1667 78.1099 81.9 72.5766 81.9ZM72.5766 77.9C75.2432 77.9 77.2432 77.2333 78.5766 75.9C79.9766 74.5 80.8766 72.5667 81.2766 70.1C81.6766 67.6333 81.8766 64.3 81.8766 60.1V44.1C81.8766 39.9 81.6766 36.5667 81.2766 34.1C80.8766 31.6333 79.9766 29.7333 78.5766 28.4C77.2432 27 75.2432 26.3 72.5766 26.3C69.9099 26.3 67.9099 27 66.5766 28.4C65.2432 29.7333 64.3766 31.6333 63.9766 34.1C63.5766 36.5 63.3766 39.8333 63.3766 44.1V60.1C63.3766 64.3667 63.5766 67.7333 63.9766 70.2C64.3766 72.6 65.2432 74.5 66.5766 75.9C67.9099 77.2333 69.9099 77.9 72.5766 77.9ZM104.458 -6.19888e-06H109.758V81H104.458V-6.19888e-06ZM140.513 81.9C137.179 81.9 134.513 81.0667 132.513 79.4C130.579 77.7333 129.146 75.1333 128.213 71.6C127.346 68 126.913 63.2333 126.913 57.3V47C126.913 41.2667 127.279 36.6333 128.013 33.1C128.813 29.5 130.179 26.8 132.113 25C134.046 23.2 136.746 22.3 140.213 22.3C142.479 22.3 144.479 22.8 146.213 23.8C148.013 24.8 149.513 26.0667 150.713 27.6V-6.19888e-06H156.013V81H150.713V76.6C147.713 80.1333 144.313 81.9 140.513 81.9ZM141.213 77.8C143.013 77.8 144.713 77.3333 146.313 76.4C147.979 75.4667 149.446 74.3 150.713 72.9V31.4C147.379 28.0667 144.179 26.4 141.113 26.4C138.646 26.4 136.779 27.0667 135.512 28.4C134.246 29.6667 133.379 31.6667 132.913 34.4C132.446 37.1333 132.213 40.9 132.213 45.7V57.7C132.213 62.5667 132.446 66.4333 132.913 69.3C133.446 72.1667 134.346 74.3 135.613 75.7C136.946 77.1 138.813 77.8 141.213 77.8ZM200.311 -6.19888e-06H205.711V81H200.311V-6.19888e-06ZM237.516 4.4H221.316V-6.19888e-06H258.716V4.4H242.916V81H237.516V4.4Z" fill="#121212"/>
</svg>
