<svg width="102" height="38" viewBox="0 0 102 38" fill="none" xmlns="http://www.w3.org/2000/svg">
<rect width="102" height="38" fill="transparent"/>
<path d="M21.9967 1.8V20H21.4767V11.004H8.21667V20H7.69667V1.8H8.21667V10.51H21.4767V1.8H21.9967ZM34.9552 20.078C33.7246 20.078 32.6066 19.792 31.6012 19.22C30.6132 18.6307 29.8332 17.816 29.2612 16.776C28.7066 15.736 28.4292 14.566 28.4292 13.266C28.4292 11.966 28.7066 10.8047 29.2612 9.782C29.8332 8.742 30.6132 7.936 31.6012 7.364C32.6066 6.77467 33.7246 6.48 34.9552 6.48C36.1859 6.48 37.2952 6.77467 38.2832 7.364C39.2886 7.936 40.0686 8.742 40.6232 9.782C41.1952 10.8047 41.4812 11.966 41.4812 13.266C41.4812 14.566 41.1952 15.736 40.6232 16.776C40.0686 17.816 39.2886 18.6307 38.2832 19.22C37.2952 19.792 36.1859 20.078 34.9552 20.078ZM34.9552 19.584C36.0819 19.584 37.1046 19.3153 38.0232 18.778C38.9419 18.2407 39.6612 17.4953 40.1812 16.542C40.7012 15.5713 40.9612 14.4793 40.9612 13.266C40.9612 12.0527 40.7012 10.9693 40.1812 10.016C39.6612 9.04533 38.9419 8.3 38.0232 7.78C37.1046 7.24267 36.0819 6.974 34.9552 6.974C33.8286 6.974 32.8059 7.24267 31.8872 7.78C30.9686 8.3 30.2492 9.04533 29.7292 10.016C29.2092 10.9693 28.9492 12.0527 28.9492 13.266C28.9492 14.4793 29.2092 15.5713 29.7292 16.542C30.2492 17.4953 30.9686 18.2407 31.8872 18.778C32.8059 19.3153 33.8286 19.584 34.9552 19.584ZM47.4444 0.707999H47.9644V20H47.4444V0.707999ZM66.9704 0.707999V20H66.4504V15.892C65.9997 17.1747 65.237 18.1973 64.1624 18.96C63.0877 19.7053 61.8484 20.078 60.4444 20.078C59.231 20.078 58.1217 19.792 57.1164 19.22C56.1284 18.6307 55.3484 17.816 54.7764 16.776C54.2044 15.736 53.9184 14.566 53.9184 13.266C53.9184 11.966 54.2044 10.8047 54.7764 9.782C55.3484 8.742 56.1284 7.936 57.1164 7.364C58.1217 6.77467 59.231 6.48 60.4444 6.48C61.831 6.48 63.0617 6.86133 64.1364 7.624C65.2284 8.36933 65.9997 9.37467 66.4504 10.64V0.707999H66.9704ZM60.4444 19.584C61.571 19.584 62.5937 19.3153 63.5124 18.778C64.431 18.2407 65.1504 17.4953 65.6704 16.542C66.1904 15.5713 66.4504 14.4793 66.4504 13.266C66.4504 12.0527 66.1904 10.9693 65.6704 10.016C65.1504 9.04533 64.431 8.3 63.5124 7.78C62.5937 7.24267 61.571 6.974 60.4444 6.974C59.3177 6.974 58.295 7.24267 57.3764 7.78C56.4577 8.3 55.7384 9.04533 55.2184 10.016C54.6984 10.9693 54.4384 12.0527 54.4384 13.266C54.4384 14.4793 54.6984 15.5713 55.2184 16.542C55.7384 17.4953 56.4577 18.2407 57.3764 18.778C58.295 19.3153 59.3177 19.584 60.4444 19.584ZM74.9757 1.8H75.4957V20H74.9757V1.8ZM87.3812 2.294H80.6212V1.8H94.6612V2.294H87.9012V20H87.3812V2.294Z" fill="white"/>
<path d="M5.7388 36.06C5.1228 36.06 4.5348 35.956 3.9748 35.748C3.4228 35.532 2.9908 35.256 2.6788 34.92L2.9548 34.464C3.2508 34.776 3.6468 35.032 4.1428 35.232C4.6468 35.424 5.1748 35.52 5.7268 35.52C6.5268 35.52 7.1308 35.368 7.5388 35.064C7.9468 34.76 8.1508 34.364 8.1508 33.876C8.1508 33.5 8.0428 33.2 7.8268 32.976C7.6108 32.752 7.3428 32.58 7.0228 32.46C6.7028 32.34 6.2708 32.216 5.7268 32.088C5.1108 31.936 4.6148 31.788 4.2388 31.644C3.8708 31.5 3.5548 31.28 3.2908 30.984C3.0348 30.68 2.9068 30.276 2.9068 29.772C2.9068 29.364 3.0148 28.992 3.2308 28.656C3.4468 28.312 3.7748 28.04 4.2148 27.84C4.6628 27.64 5.2188 27.54 5.8828 27.54C6.3468 27.54 6.8028 27.608 7.2508 27.744C7.6988 27.88 8.0868 28.064 8.4148 28.296L8.1868 28.788C7.8508 28.556 7.4788 28.38 7.0708 28.26C6.6708 28.14 6.2748 28.08 5.8828 28.08C5.1068 28.08 4.5188 28.236 4.1188 28.548C3.7188 28.86 3.5188 29.264 3.5188 29.76C3.5188 30.136 3.6268 30.436 3.8428 30.66C4.0588 30.884 4.3268 31.056 4.6468 31.176C4.9668 31.296 5.4028 31.424 5.9548 31.56C6.5708 31.712 7.0628 31.86 7.4308 32.004C7.7988 32.148 8.1108 32.368 8.3668 32.664C8.6308 32.952 8.7628 33.344 8.7628 33.84C8.7628 34.248 8.6508 34.62 8.4268 34.956C8.2108 35.292 7.8748 35.56 7.4188 35.76C6.9628 35.96 6.4028 36.06 5.7388 36.06ZM18.1993 36.048C17.6073 36.048 17.0713 35.912 16.5913 35.64C16.1193 35.368 15.7473 34.992 15.4753 34.512C15.2033 34.024 15.0673 33.476 15.0673 32.868C15.0673 32.26 15.2033 31.716 15.4753 31.236C15.7473 30.748 16.1193 30.368 16.5913 30.096C17.0713 29.824 17.6073 29.688 18.1993 29.688C18.7913 29.688 19.3233 29.824 19.7953 30.096C20.2753 30.368 20.6513 30.748 20.9233 31.236C21.1953 31.716 21.3313 32.26 21.3313 32.868C21.3313 33.476 21.1953 34.024 20.9233 34.512C20.6513 34.992 20.2753 35.368 19.7953 35.64C19.3233 35.912 18.7913 36.048 18.1993 36.048ZM18.1993 35.508C18.6793 35.508 19.1073 35.396 19.4833 35.172C19.8673 34.948 20.1673 34.636 20.3833 34.236C20.6073 33.836 20.7193 33.38 20.7193 32.868C20.7193 32.356 20.6073 31.9 20.3833 31.5C20.1673 31.1 19.8673 30.788 19.4833 30.564C19.1073 30.34 18.6793 30.228 18.1993 30.228C17.7193 30.228 17.2873 30.34 16.9033 30.564C16.5273 30.788 16.2273 31.1 16.0033 31.5C15.7873 31.9 15.6793 32.356 15.6793 32.868C15.6793 33.38 15.7873 33.836 16.0033 34.236C16.2273 34.636 16.5273 34.948 16.9033 35.172C17.2873 35.396 17.7193 35.508 18.1993 35.508ZM28.2927 27.096H28.8927V36H28.2927V27.096ZM42.0056 29.736V36H41.4296V34.656C41.2216 35.096 40.9136 35.44 40.5056 35.688C40.0976 35.928 39.6176 36.048 39.0656 36.048C38.2496 36.048 37.6096 35.82 37.1456 35.364C36.6816 34.908 36.4496 34.252 36.4496 33.396V29.736H37.0496V33.348C37.0496 34.052 37.2296 34.588 37.5896 34.956C37.9496 35.324 38.4576 35.508 39.1136 35.508C39.8176 35.508 40.3736 35.288 40.7816 34.848C41.1976 34.408 41.4056 33.816 41.4056 33.072V29.736H42.0056ZM52.757 35.604C52.605 35.748 52.413 35.86 52.181 35.94C51.957 36.012 51.721 36.048 51.473 36.048C50.929 36.048 50.509 35.9 50.213 35.604C49.917 35.3 49.769 34.88 49.769 34.344V30.252H48.617V29.736H49.769V28.368H50.369V29.736H52.361V30.252H50.369V34.284C50.369 34.692 50.465 35.004 50.657 35.22C50.857 35.428 51.149 35.532 51.533 35.532C51.925 35.532 52.249 35.416 52.505 35.184L52.757 35.604ZM59.5302 29.736H60.1302V36H59.5302V29.736ZM59.8302 28.212C59.6942 28.212 59.5782 28.168 59.4822 28.08C59.3862 27.984 59.3382 27.868 59.3382 27.732C59.3382 27.596 59.3862 27.48 59.4822 27.384C59.5782 27.288 59.6942 27.24 59.8302 27.24C59.9662 27.24 60.0822 27.288 60.1782 27.384C60.2742 27.472 60.3222 27.584 60.3222 27.72C60.3222 27.856 60.2742 27.972 60.1782 28.068C60.0822 28.164 59.9662 28.212 59.8302 28.212ZM70.2071 36.048C69.6151 36.048 69.0791 35.912 68.5991 35.64C68.1271 35.368 67.7551 34.992 67.4831 34.512C67.2111 34.024 67.0751 33.476 67.0751 32.868C67.0751 32.26 67.2111 31.716 67.4831 31.236C67.7551 30.748 68.1271 30.368 68.5991 30.096C69.0791 29.824 69.6151 29.688 70.2071 29.688C70.7991 29.688 71.3311 29.824 71.8031 30.096C72.2831 30.368 72.6591 30.748 72.9311 31.236C73.2031 31.716 73.3391 32.26 73.3391 32.868C73.3391 33.476 73.2031 34.024 72.9311 34.512C72.6591 34.992 72.2831 35.368 71.8031 35.64C71.3311 35.912 70.7991 36.048 70.2071 36.048ZM70.2071 35.508C70.6871 35.508 71.1151 35.396 71.4911 35.172C71.8751 34.948 72.1751 34.636 72.3911 34.236C72.6151 33.836 72.7271 33.38 72.7271 32.868C72.7271 32.356 72.6151 31.9 72.3911 31.5C72.1751 31.1 71.8751 30.788 71.4911 30.564C71.1151 30.34 70.6871 30.228 70.2071 30.228C69.7271 30.228 69.2951 30.34 68.9111 30.564C68.5351 30.788 68.2351 31.1 68.0111 31.5C67.7951 31.9 67.6871 32.356 67.6871 32.868C67.6871 33.38 67.7951 33.836 68.0111 34.236C68.2351 34.636 68.5351 34.948 68.9111 35.172C69.2951 35.396 69.7271 35.508 70.2071 35.508ZM83.3605 29.688C84.1445 29.688 84.7645 29.916 85.2205 30.372C85.6765 30.828 85.9045 31.484 85.9045 32.34V36H85.3045V32.388C85.3045 31.684 85.1245 31.148 84.7645 30.78C84.4125 30.412 83.9165 30.228 83.2765 30.228C82.5405 30.228 81.9605 30.448 81.5365 30.888C81.1125 31.328 80.9005 31.92 80.9005 32.664V36H80.3005V29.736H80.8765V31.092C81.0925 30.652 81.4125 30.308 81.8365 30.06C82.2685 29.812 82.7765 29.688 83.3605 29.688ZM95.0587 36.048C94.5547 36.048 94.0747 35.972 93.6187 35.82C93.1627 35.668 92.8067 35.476 92.5507 35.244L92.8267 34.764C93.0827 34.98 93.4107 35.16 93.8107 35.304C94.2187 35.448 94.6427 35.52 95.0827 35.52C95.7147 35.52 96.1787 35.416 96.4747 35.208C96.7787 35 96.9307 34.712 96.9307 34.344C96.9307 34.08 96.8467 33.872 96.6787 33.72C96.5187 33.568 96.3187 33.456 96.0787 33.384C95.8387 33.312 95.5067 33.236 95.0827 33.156C94.5867 33.068 94.1867 32.972 93.8827 32.868C93.5787 32.764 93.3187 32.596 93.1027 32.364C92.8867 32.132 92.7787 31.812 92.7787 31.404C92.7787 30.908 92.9827 30.5 93.3907 30.18C93.8067 29.852 94.3947 29.688 95.1547 29.688C95.5547 29.688 95.9507 29.744 96.3427 29.856C96.7347 29.968 97.0547 30.116 97.3027 30.3L97.0267 30.78C96.7707 30.596 96.4787 30.456 96.1507 30.36C95.8227 30.264 95.4867 30.216 95.1427 30.216C94.5587 30.216 94.1187 30.324 93.8227 30.54C93.5267 30.756 93.3787 31.04 93.3787 31.392C93.3787 31.672 93.4627 31.892 93.6307 32.052C93.7987 32.204 94.0027 32.32 94.2427 32.4C94.4907 32.472 94.8347 32.552 95.2747 32.64C95.7627 32.728 96.1547 32.824 96.4507 32.928C96.7547 33.024 97.0107 33.184 97.2187 33.408C97.4267 33.632 97.5307 33.94 97.5307 34.332C97.5307 34.852 97.3147 35.268 96.8827 35.58C96.4507 35.892 95.8427 36.048 95.0587 36.048Z" fill="white"/>
</svg>
