<svg width="471" height="126" viewBox="0 0 471 126" fill="none" xmlns="http://www.w3.org/2000/svg">
<path d="M9.2 99V33H12.4V62.4H47.6V33H50.8V99H47.6V65.2H12.4V99H9.2Z" fill="#121212"/>
<path d="M188.6 100.2C184.333 100.2 181 99.0333 178.6 96.7C176.2 94.3667 175 90.5333 175 85.2V29.6H156.4V26.8H178V85.8C178 89.6667 178.9 92.5667 180.7 94.5C182.5 96.4333 185.2 97.4 188.8 97.4C190.4 97.4 192.033 97.2 193.7 96.8C195.433 96.3333 197.2 95.6667 199 94.8L200.2 97.2C198.2 98.2 196.333 98.9333 194.6 99.4C192.933 99.9333 190.933 100.2 188.6 100.2ZM241.161 100.2C234.894 100.2 229.794 98.0667 225.861 93.8C221.928 89.4667 219.961 83.2667 219.961 75.2C219.961 70.0667 221.028 65.6333 223.161 61.9C225.294 58.1 228.094 55.1667 231.561 53.1C235.028 51.0333 238.761 50 242.761 50C245.828 50 248.661 50.6333 251.261 51.9C253.928 53.1 256.494 54.8 258.961 57H259.161L258.961 47V26.8H261.961V99H259.361L258.961 91.6H258.761C256.628 93.8667 254.028 95.8667 250.961 97.6C247.961 99.3333 244.694 100.2 241.161 100.2ZM241.361 97.4C244.294 97.4 247.228 96.6 250.161 95C253.161 93.3333 256.094 91 258.961 88V60.4C256.094 57.6667 253.294 55.7333 250.561 54.6C247.894 53.4 245.228 52.8 242.561 52.8C238.961 52.8 235.694 53.8 232.761 55.8C229.828 57.8 227.494 60.5 225.761 63.9C224.028 67.3 223.161 71.0667 223.161 75.2C223.161 81.8 224.761 87.1667 227.961 91.3C231.228 95.3667 235.694 97.4 241.361 97.4ZM356.083 99V96.2H373.283V35.8H356.083V33H393.683V35.8H376.483V96.2H393.683V99H356.083ZM439.244 99V35.8H415.844V33H465.844V35.8H442.444V99H439.244Z" fill="#121212"/>
<rect x="62" y="59" width="83" height="41" rx="20.5" stroke="#121212" stroke-width="2"/>
<circle cx="84" cy="80" r="16" fill="#121212"/>
</svg>
