<svg width="74" height="74" viewBox="0 0 74 74" fill="none" xmlns="http://www.w3.org/2000/svg">
<circle cx="56" cy="13" r="12" fill="#A7D5DE"/>
<path d="M16.5781 28.421V14.9894C16.5781 14.879 16.6677 14.7894 16.7781 14.7894H24.1676C24.2781 14.7894 24.3676 14.879 24.3676 14.9894V28.221C24.3676 28.3315 24.2781 28.421 24.1676 28.421H16.5781ZM16.5781 28.421L20.4176 36.0999C20.4515 36.1677 20.5207 36.2105 20.5965 36.2105H24.3676" stroke="black" stroke-width="2" stroke-linejoin="round"/>
<path d="M12.6836 47.6211C12.6836 45.5922 14.3284 43.9474 16.3573 43.9474H57.6415C59.6704 43.9474 61.3152 45.5922 61.3152 47.6211C61.3152 57.3936 53.393 65.3158 43.6204 65.3158H30.3783C20.6058 65.3158 12.6836 57.3936 12.6836 47.6211Z" stroke="black" stroke-width="2"/>
<circle cx="38.9461" cy="22.5789" r="14.5789" stroke="black" stroke-width="2"/>
</svg>
