<svg width="423" height="195" viewBox="0 0 423 195" fill="none" xmlns="http://www.w3.org/2000/svg">
<path d="M27.3 182.375C24.7333 182.375 22.2833 181.942 19.95 181.075C17.65 180.175 15.85 179.025 14.55 177.625L15.7 175.725C16.9333 177.025 18.5833 178.092 20.65 178.925C22.75 179.725 24.95 180.125 27.25 180.125C30.5833 180.125 33.1 179.492 34.8 178.225C36.5 176.958 37.35 175.308 37.35 173.275C37.35 171.708 36.9 170.458 36 169.525C35.1 168.592 33.9833 167.875 32.65 167.375C31.3167 166.875 29.5167 166.358 27.25 165.825C24.6833 165.192 22.6167 164.575 21.05 163.975C19.5167 163.375 18.2 162.458 17.1 161.225C16.0333 159.958 15.5 158.275 15.5 156.175C15.5 154.475 15.95 152.925 16.85 151.525C17.75 150.092 19.1167 148.958 20.95 148.125C22.8167 147.292 25.1333 146.875 27.9 146.875C29.8333 146.875 31.7333 147.158 33.6 147.725C35.4667 148.292 37.0833 149.058 38.45 150.025L37.5 152.075C36.1 151.108 34.55 150.375 32.85 149.875C31.1833 149.375 29.5333 149.125 27.9 149.125C24.6667 149.125 22.2167 149.775 20.55 151.075C18.8833 152.375 18.05 154.058 18.05 156.125C18.05 157.692 18.5 158.942 19.4 159.875C20.3 160.808 21.4167 161.525 22.75 162.025C24.0833 162.525 25.9 163.058 28.2 163.625C30.7667 164.258 32.8167 164.875 34.35 165.475C35.8833 166.075 37.1833 166.992 38.25 168.225C39.35 169.425 39.9 171.058 39.9 173.125C39.9 174.825 39.4333 176.375 38.5 177.775C37.6 179.175 36.2 180.292 34.3 181.125C32.4 181.958 30.0667 182.375 27.3 182.375ZM79.2188 182.325C76.7521 182.325 74.5188 181.758 72.5188 180.625C70.5521 179.492 69.0021 177.925 67.8688 175.925C66.7354 173.892 66.1688 171.608 66.1688 169.075C66.1688 166.542 66.7354 164.275 67.8688 162.275C69.0021 160.242 70.5521 158.658 72.5188 157.525C74.5188 156.392 76.7521 155.825 79.2188 155.825C81.6854 155.825 83.9021 156.392 85.8688 157.525C87.8688 158.658 89.4354 160.242 90.5688 162.275C91.7021 164.275 92.2688 166.542 92.2688 169.075C92.2688 171.608 91.7021 173.892 90.5688 175.925C89.4354 177.925 87.8688 179.492 85.8688 180.625C83.9021 181.758 81.6854 182.325 79.2188 182.325ZM79.2188 180.075C81.2188 180.075 83.0021 179.608 84.5688 178.675C86.1688 177.742 87.4188 176.442 88.3188 174.775C89.2521 173.108 89.7188 171.208 89.7188 169.075C89.7188 166.942 89.2521 165.042 88.3188 163.375C87.4188 161.708 86.1688 160.408 84.5688 159.475C83.0021 158.542 81.2188 158.075 79.2188 158.075C77.2188 158.075 75.4188 158.542 73.8188 159.475C72.2521 160.408 71.0021 161.708 70.0688 163.375C69.1688 165.042 68.7188 166.942 68.7188 169.075C68.7188 171.208 69.1688 173.108 70.0688 174.775C71.0021 176.442 72.2521 177.742 73.8188 178.675C75.4188 179.608 77.2188 180.075 79.2188 180.075ZM121.275 145.025H123.775V182.125H121.275V145.025ZM178.412 156.025V182.125H176.012V176.525C175.145 178.358 173.862 179.792 172.162 180.825C170.462 181.825 168.462 182.325 166.162 182.325C162.762 182.325 160.095 181.375 158.162 179.475C156.228 177.575 155.262 174.842 155.262 171.275V156.025H157.762V171.075C157.762 174.008 158.512 176.242 160.012 177.775C161.512 179.308 163.628 180.075 166.362 180.075C169.295 180.075 171.612 179.158 173.312 177.325C175.045 175.492 175.912 173.025 175.912 169.925V156.025H178.412ZM223.209 180.475C222.576 181.075 221.776 181.542 220.809 181.875C219.876 182.175 218.892 182.325 217.859 182.325C215.592 182.325 213.842 181.708 212.609 180.475C211.376 179.208 210.759 177.458 210.759 175.225V158.175H205.959V156.025H210.759V150.325H213.259V156.025H221.559V158.175H213.259V174.975C213.259 176.675 213.659 177.975 214.459 178.875C215.292 179.742 216.509 180.175 218.109 180.175C219.742 180.175 221.092 179.692 222.159 178.725L223.209 180.475ZM251.431 156.025H253.931V182.125H251.431V156.025ZM252.681 149.675C252.114 149.675 251.631 149.492 251.231 149.125C250.831 148.725 250.631 148.242 250.631 147.675C250.631 147.108 250.831 146.625 251.231 146.225C251.631 145.825 252.114 145.625 252.681 145.625C253.248 145.625 253.731 145.825 254.131 146.225C254.531 146.592 254.731 147.058 254.731 147.625C254.731 148.192 254.531 148.675 254.131 149.075C253.731 149.475 253.248 149.675 252.681 149.675ZM295.918 182.325C293.451 182.325 291.218 181.758 289.218 180.625C287.251 179.492 285.701 177.925 284.568 175.925C283.435 173.892 282.868 171.608 282.868 169.075C282.868 166.542 283.435 164.275 284.568 162.275C285.701 160.242 287.251 158.658 289.218 157.525C291.218 156.392 293.451 155.825 295.918 155.825C298.385 155.825 300.601 156.392 302.568 157.525C304.568 158.658 306.135 160.242 307.268 162.275C308.401 164.275 308.968 166.542 308.968 169.075C308.968 171.608 308.401 173.892 307.268 175.925C306.135 177.925 304.568 179.492 302.568 180.625C300.601 181.758 298.385 182.325 295.918 182.325ZM295.918 180.075C297.918 180.075 299.701 179.608 301.268 178.675C302.868 177.742 304.118 176.442 305.018 174.775C305.951 173.108 306.418 171.208 306.418 169.075C306.418 166.942 305.951 165.042 305.018 163.375C304.118 161.708 302.868 160.408 301.268 159.475C299.701 158.542 297.918 158.075 295.918 158.075C293.918 158.075 292.118 158.542 290.518 159.475C288.951 160.408 287.701 161.708 286.768 163.375C285.868 165.042 285.418 166.942 285.418 169.075C285.418 171.208 285.868 173.108 286.768 174.775C287.701 176.442 288.951 177.742 290.518 178.675C292.118 179.608 293.918 180.075 295.918 180.075ZM350.724 155.825C353.99 155.825 356.574 156.775 358.474 158.675C360.374 160.575 361.324 163.308 361.324 166.875V182.125H358.824V167.075C358.824 164.142 358.074 161.908 356.574 160.375C355.107 158.842 353.04 158.075 350.374 158.075C347.307 158.075 344.89 158.992 343.124 160.825C341.357 162.658 340.474 165.125 340.474 168.225V182.125H337.974V156.025H340.374V161.675C341.274 159.842 342.607 158.408 344.374 157.375C346.174 156.342 348.29 155.825 350.724 155.825ZM399.466 182.325C397.366 182.325 395.366 182.008 393.466 181.375C391.566 180.742 390.083 179.942 389.016 178.975L390.166 176.975C391.233 177.875 392.6 178.625 394.266 179.225C395.966 179.825 397.733 180.125 399.566 180.125C402.2 180.125 404.133 179.692 405.366 178.825C406.633 177.958 407.266 176.758 407.266 175.225C407.266 174.125 406.916 173.258 406.216 172.625C405.55 171.992 404.716 171.525 403.716 171.225C402.716 170.925 401.333 170.608 399.566 170.275C397.5 169.908 395.833 169.508 394.566 169.075C393.3 168.642 392.216 167.942 391.316 166.975C390.416 166.008 389.966 164.675 389.966 162.975C389.966 160.908 390.816 159.208 392.516 157.875C394.25 156.508 396.7 155.825 399.866 155.825C401.533 155.825 403.183 156.058 404.816 156.525C406.45 156.992 407.783 157.608 408.816 158.375L407.666 160.375C406.6 159.608 405.383 159.025 404.016 158.625C402.65 158.225 401.25 158.025 399.816 158.025C397.383 158.025 395.55 158.475 394.316 159.375C393.083 160.275 392.466 161.458 392.466 162.925C392.466 164.092 392.816 165.008 393.516 165.675C394.216 166.308 395.066 166.792 396.066 167.125C397.1 167.425 398.533 167.758 400.366 168.125C402.4 168.492 404.033 168.892 405.266 169.325C406.533 169.725 407.6 170.392 408.466 171.325C409.333 172.258 409.766 173.542 409.766 175.175C409.766 177.342 408.866 179.075 407.066 180.375C405.266 181.675 402.733 182.325 399.466 182.325Z" fill="#A7D5DE"/>
<path d="M76.1257 29V106H70.5157V69.37H19.0357V106H13.4257V29H19.0357V64.42H70.5157V29H76.1257ZM130.296 106.44C124.869 106.44 119.956 105.193 115.556 102.7C111.229 100.207 107.819 96.76 105.326 92.36C102.832 87.8867 101.586 82.8633 101.586 77.29C101.586 71.7167 102.832 66.73 105.326 62.33C107.819 57.8567 111.229 54.3733 115.556 51.88C119.956 49.3867 124.869 48.14 130.296 48.14C135.722 48.14 140.599 49.3867 144.926 51.88C149.326 54.3733 152.772 57.8567 155.266 62.33C157.759 66.73 159.006 71.7167 159.006 77.29C159.006 82.8633 157.759 87.8867 155.266 92.36C152.772 96.76 149.326 100.207 144.926 102.7C140.599 105.193 135.722 106.44 130.296 106.44ZM130.296 101.49C134.696 101.49 138.619 100.463 142.066 98.41C145.586 96.3567 148.336 93.4967 150.316 89.83C152.369 86.1633 153.396 81.9833 153.396 77.29C153.396 72.5967 152.369 68.4167 150.316 64.75C148.336 61.0833 145.586 58.2233 142.066 56.17C138.619 54.1167 134.696 53.09 130.296 53.09C125.896 53.09 121.936 54.1167 118.416 56.17C114.969 58.2233 112.219 61.0833 110.166 64.75C108.186 68.4167 107.196 72.5967 107.196 77.29C107.196 81.9833 108.186 86.1633 110.166 89.83C112.219 93.4967 114.969 96.3567 118.416 98.41C121.936 100.463 125.896 101.49 130.296 101.49ZM182.668 24.38H188.168V106H182.668V24.38ZM268.99 24.38V106H263.6V92.47C261.327 96.9433 258.137 100.39 254.03 102.81C249.923 105.23 245.267 106.44 240.06 106.44C234.707 106.44 229.867 105.193 225.54 102.7C221.213 100.207 217.803 96.76 215.31 92.36C212.89 87.96 211.68 82.9367 211.68 77.29C211.68 71.6433 212.89 66.62 215.31 62.22C217.803 57.7467 221.213 54.3 225.54 51.88C229.867 49.3867 234.707 48.14 240.06 48.14C245.193 48.14 249.777 49.35 253.81 51.77C257.917 54.19 261.143 57.5633 263.49 61.89V24.38H268.99ZM240.39 101.49C244.79 101.49 248.713 100.463 252.16 98.41C255.68 96.3567 258.43 93.4967 260.41 89.83C262.463 86.1633 263.49 81.9833 263.49 77.29C263.49 72.5967 262.463 68.4167 260.41 64.75C258.43 61.0833 255.68 58.2233 252.16 56.17C248.713 54.1167 244.79 53.09 240.39 53.09C235.99 53.09 232.03 54.1167 228.51 56.17C225.063 58.2233 222.313 61.0833 220.26 64.75C218.28 68.4167 217.29 72.5967 217.29 77.29C217.29 81.9833 218.28 86.1633 220.26 89.83C222.313 93.4967 225.063 96.3567 228.51 98.41C232.03 100.463 235.99 101.49 240.39 101.49ZM335.391 29H341.001V106H335.391V29ZM389.172 34.06H361.452V29H422.502V34.06H394.782V106H389.172V34.06Z" fill="#A7D5DE"/>
</svg>
