<svg width="74" height="74" viewBox="0 0 74 74" fill="none" xmlns="http://www.w3.org/2000/svg">
<circle cx="17" cy="12" r="12" fill="#A7D5DE"/>
<path d="M45.5867 6.95292L60.9448 22.311M19.2736 35.3473H39.3153M19.2736 53.9491H39.3153M19.2736 44.6482H39.3153M46.5984 33.9167L51.6486 37L55.5028 30.0625M46.5984 43.1667L51.6486 46.25L55.5028 39.3125M46.5984 52.4167L51.6486 55.5L55.5028 48.5625M15.979 6.95292C15.1769 6.97263 14.4142 7.30519 13.854 7.87957C13.2937 8.45395 12.9802 9.22462 12.9805 10.027V63.9884C12.9802 64.7905 13.2935 65.561 13.8534 66.1353C14.4134 66.7096 15.1756 67.0424 15.9775 67.0625H57.9478C58.7631 67.0625 59.545 66.7386 60.1215 66.1621C60.698 65.5856 61.0219 64.8037 61.0219 63.9884V22.311H48.724C47.9216 22.2913 47.1587 21.9585 46.5984 21.3838C46.0381 20.8091 45.7248 20.038 45.7255 19.2354V6.9375L15.979 6.95292Z" stroke="#121212" stroke-width="2" stroke-linecap="round" stroke-linejoin="round"/>
</svg>
