<svg width="341" height="339" viewBox="0 0 341 339" fill="none" xmlns="http://www.w3.org/2000/svg">
<g filter="url(#filter0_i_438_7698)">
<circle cx="170.815" cy="169.873" r="121.092" stroke="#75B5C1" stroke-width="20"/>
</g>
<path d="M338.692 169.873C338.692 143.645 332.546 117.781 320.747 94.3559C308.948 70.9309 291.825 50.5965 270.749 34.9832C249.674 19.37 225.233 8.91227 199.387 4.44872C173.541 -0.0148384 147.009 1.63993 121.917 9.28034C96.8261 16.9208 73.8742 30.3342 54.9021 48.4451C35.93 66.5561 21.4656 88.8606 12.6687 113.57C3.87185 138.28 0.987241 164.707 4.24622 190.732C7.50521 216.758 16.8171 241.657 31.4352 263.435" stroke="#75B5C1" stroke-width="4"/>
<path d="M338.633 169.873C338.633 205.642 327.075 240.465 305.663 269.207C284.25 297.949 254.116 319.089 219.703 329.509C185.29 339.93 148.42 339.078 114.531 327.081C80.6412 315.083 51.5265 292.575 31.4788 262.875" stroke="#75B5C1" stroke-width="2" stroke-miterlimit="7.20319" stroke-linecap="round" stroke-linejoin="round" stroke-dasharray="23 23"/>
<defs>
<filter id="filter0_i_438_7698" x="39.7227" y="38.7812" width="262.184" height="266.184" filterUnits="userSpaceOnUse" color-interpolation-filters="sRGB">
<feFlood flood-opacity="0" result="BackgroundImageFix"/>
<feBlend mode="normal" in="SourceGraphic" in2="BackgroundImageFix" result="shape"/>
<feColorMatrix in="SourceAlpha" type="matrix" values="0 0 0 0 0 0 0 0 0 0 0 0 0 0 0 0 0 0 127 0" result="hardAlpha"/>
<feOffset dy="4"/>
<feGaussianBlur stdDeviation="2"/>
<feComposite in2="hardAlpha" operator="arithmetic" k2="-1" k3="1"/>
<feColorMatrix type="matrix" values="0 0 0 0 0 0 0 0 0 0 0 0 0 0 0 0 0 0 0.25 0"/>
<feBlend mode="normal" in2="shape" result="effect1_innerShadow_438_7698"/>
</filter>
</defs>
</svg>
