<svg width="341" height="340" viewBox="0 0 341 340" fill="none" xmlns="http://www.w3.org/2000/svg">
<g filter="url(#filter0_i_609_7780)">
<circle cx="170.815" cy="169.875" r="121.092" stroke="#376C76" stroke-width="20"/>
</g>
<path d="M14.9668 107.482C5.21875 131.832 1.31199 158.127 3.55977 184.259C5.80755 210.391 14.1473 235.633 27.9104 257.961C41.6734 280.289 60.4767 299.081 82.8126 312.83C105.149 326.58 130.395 334.905 156.529 337.137C182.663 339.369 208.956 335.447 233.3 325.684C257.644 315.921 279.362 300.59 296.712 280.92C314.062 261.25 326.562 237.788 333.209 212.415C339.856 187.043 340.465 160.466 334.988 134.815" stroke="#376C76" stroke-width="4"/>
<path d="M15.023 107.503C28.3165 74.297 51.9886 46.2643 82.5494 27.5391C113.11 8.8139 148.943 0.387284 184.764 3.50305C220.585 6.61883 254.497 21.1121 281.5 44.8455C308.503 68.579 327.167 100.296 334.741 135.319" stroke="#376C76" stroke-width="2" stroke-miterlimit="7.20319" stroke-linecap="round" stroke-linejoin="round" stroke-dasharray="23 23"/>
<defs>
<filter id="filter0_i_609_7780" x="39.7227" y="38.783" width="262.184" height="266.184" filterUnits="userSpaceOnUse" color-interpolation-filters="sRGB">
<feFlood flood-opacity="0" result="BackgroundImageFix"/>
<feBlend mode="normal" in="SourceGraphic" in2="BackgroundImageFix" result="shape"/>
<feColorMatrix in="SourceAlpha" type="matrix" values="0 0 0 0 0 0 0 0 0 0 0 0 0 0 0 0 0 0 127 0" result="hardAlpha"/>
<feOffset dy="4"/>
<feGaussianBlur stdDeviation="2"/>
<feComposite in2="hardAlpha" operator="arithmetic" k2="-1" k3="1"/>
<feColorMatrix type="matrix" values="0 0 0 0 0 0 0 0 0 0 0 0 0 0 0 0 0 0 0.25 0"/>
<feBlend mode="normal" in2="shape" result="effect1_innerShadow_609_7780"/>
</filter>
</defs>
</svg>
