<svg width="375" height="290" viewBox="0 0 375 290" fill="none" xmlns="http://www.w3.org/2000/svg">
<g clip-path="url(#clip0_477_7949)">
<rect width="375" height="290" fill="white"/>
<circle cx="180.025" cy="93.7904" r="2.79037" fill="#121212"/>
<circle cx="189.236" cy="93.7904" r="2.79037" fill="#FDBCA7"/>
<circle cx="198.439" cy="93.7904" r="2.79037" fill="#EED480"/>
<rect x="114.375" y="148.896" width="23.09" height="7.07597" rx="3.53799" fill="#121212"/>
<rect x="109.906" y="168.634" width="13.7795" height="7.07597" rx="3.53799" fill="#121212"/>
<rect x="128.156" y="168.634" width="13.7795" height="7.07597" rx="3.53799" fill="#121212"/>
<circle cx="72.6618" cy="152.62" r="43.9016" stroke="#121212" stroke-width="5.3017"/>
<path d="M63.3516 144.412H81.9725V159.308H63.3516V144.412Z" fill="white"/>
<path d="M64.832 147.775H67.8114V151.903H64.832V147.775Z" fill="white"/>
<path d="M80.2675 157.8H71.1328V147.966H80.2675V153.169V157.8Z" fill="white"/>
<path d="M63.7456 146.22H81.6471M69.4034 159.072V146.22M63.3516 144.412H81.9725V159.308H63.3516V144.412Z" stroke="#121212" stroke-width="0.558074" stroke-miterlimit="10" stroke-linecap="round" stroke-linejoin="round"/>
<path d="M64.8008 154.401H66.6994M64.8008 155.89H67.8948M64.8008 157.38H66.6994M71.1353 157.799L80.27 147.965M71.1353 147.965L80.27 157.799M64.8347 147.774H67.814V151.902H64.8347V147.774ZM80.27 157.799H71.1353V147.965H80.27V153.169V157.799Z" stroke="#121212" stroke-width="0.558074" stroke-miterlimit="10" stroke-linecap="round" stroke-linejoin="round"/>
<rect x="55.4353" y="141.727" width="34.4494" height="20.6698" rx="1.11615" stroke="#121212" stroke-width="0.558074"/>
<path d="M78.2464 162.304L91.7247 162.304C91.9733 162.304 92.0978 162.604 91.922 162.78L88.1973 166.505C88.1449 166.557 88.074 166.587 88 166.587H57.3203C57.2463 166.587 57.1753 166.557 57.123 166.505L53.3982 162.78C53.2224 162.604 53.3469 162.304 53.5955 162.304L66.8876 162.304M78.2464 162.304L76.6523 163.898C76.5999 163.95 76.5289 163.98 76.4549 163.98H68.6791C68.6051 163.98 68.5341 163.95 68.4818 163.898L66.8876 162.304M78.2464 162.304L66.8876 162.304" stroke="#121212" stroke-width="0.558074" stroke-linejoin="round"/>
<rect width="25.3245" height="7.07597" rx="3.53799" transform="matrix(-1 0 0 1 264.086 139.214)" fill="#EED480"/>
<rect width="21.6003" height="7.07597" rx="3.53799" transform="matrix(-1 0 0 1 265.203 158.952)" fill="#EED480"/>
<circle cx="46.5525" cy="46.5525" r="43.9016" transform="matrix(-1 0 0 1 352.352 106.44)" stroke="#EED480" stroke-width="5.3017"/>
<path d="M285.967 140.235C285.967 139.619 286.466 139.119 287.083 139.119H324.141C324.758 139.119 325.257 139.619 325.257 140.235V143.123V165.004C325.257 165.62 324.758 166.12 324.141 166.12H287.083C286.466 166.12 285.967 165.62 285.967 165.004V143.123V140.235Z" stroke="#EED480" stroke-width="0.558074"/>
<circle cx="288.668" cy="141.075" r="0.977741" stroke="#EED480" stroke-width="0.279037"/>
<circle cx="291.273" cy="141.075" r="0.977741" stroke="#EED480" stroke-width="0.279037"/>
<circle cx="293.883" cy="141.075" r="0.977741" stroke="#EED480" stroke-width="0.279037"/>
<circle cx="293.509" cy="158.206" r="2.3279" stroke="#EED480" stroke-width="0.558074"/>
<circle cx="301.701" cy="150.386" r="2.3279" stroke="#EED480" stroke-width="0.558074"/>
<circle cx="309.521" cy="158.207" r="2.3279" stroke="#EED480" stroke-width="0.558074"/>
<circle cx="317.716" cy="150.386" r="2.3279" stroke="#EED480" stroke-width="0.558074"/>
<path d="M299.651 151.13L294.438 156.344" stroke="#EED480" stroke-width="0.558074" stroke-linejoin="round"/>
<path d="M315.48 151.13L310.266 156.344" stroke="#EED480" stroke-width="0.558074" stroke-linejoin="round"/>
<path d="M303.75 151.13L308.777 156.158" stroke="#EED480" stroke-width="0.558074" stroke-linejoin="round"/>
<path d="M300.96 152.248L295.746 157.462" stroke="#EED480" stroke-width="0.558074" stroke-linejoin="round"/>
<path d="M316.788 152.248L311.574 157.462" stroke="#EED480" stroke-width="0.558074" stroke-linejoin="round"/>
<path d="M302.446 152.248L307.66 157.462" stroke="#EED480" stroke-width="0.558074" stroke-linejoin="round"/>
<rect x="232.203" y="148.761" width="20.3697" height="7.25496" rx="3.62748" fill="#FDBCA7"/>
<rect x="226.344" y="129.229" width="12.5567" height="6.97592" rx="3.48796" fill="#FDBCA7"/>
<rect x="245.465" y="129.158" width="13.7795" height="7.07597" rx="3.53799" fill="#FDBCA7"/>
<rect x="121.449" y="139.213" width="27.1866" height="7.07597" rx="3.53799" fill="#FDBCA7"/>
<rect x="127.035" y="158.952" width="20.1107" height="7.07597" rx="3.53799" fill="#FDBCA7"/>
<circle cx="189.232" cy="152.993" r="43.9016" stroke="#FDBCA7" stroke-width="5.3017"/>
<path d="M176.102 136.886H207.202C207.818 136.886 208.318 137.386 208.318 138.002V140.427V155.6V159.791C208.318 160.408 207.818 160.908 207.202 160.908H176.102C175.486 160.908 174.986 160.408 174.986 159.791V155.6V140.427V138.002C174.986 137.386 175.486 136.886 176.102 136.886Z" stroke="#FDBCA7" stroke-width="0.558074"/>
<circle cx="191.837" cy="158.207" r="2.3279" stroke="#FDBCA7" stroke-width="0.558074"/>
<path d="M186.192 165.376L186.686 161.093H196.44L197.099 165.376H186.192Z" stroke="#FDBCA7" stroke-width="0.558074"/>
<path d="M183.293 168.17L184.213 165.562H199.294L200.521 168.17H183.293Z" stroke="#FDBCA7" stroke-width="0.558074"/>
<path d="M170.238 168.262H203.197" stroke="#FDBCA7" stroke-width="0.558074" stroke-linejoin="round"/>
<path d="M204.5 168.262L208.969 168.262" stroke="#FDBCA7" stroke-width="0.558074" stroke-linejoin="round"/>
<rect x="169.54" y="150.06" width="11.0803" height="17.4115" rx="0.976629" fill="white" stroke="#FDBCA7" stroke-width="0.837111"/>
<rect width="518" height="291.375" transform="translate(-70 -0.6875)" fill="#A7D5DE"/>
<g filter="url(#filter0_dd_477_7949)">
<rect x="14.1758" y="213.635" width="58.275" height="11.3313" fill="#A7D5DE"/>
</g>
<g filter="url(#filter1_dd_477_7949)">
<rect x="87.0195" y="176.404" width="58.275" height="11.3313" fill="#A7D5DE"/>
</g>
<g filter="url(#filter2_dd_477_7949)">
<rect x="159.863" y="139.172" width="58.275" height="11.3313" fill="#A7D5DE"/>
</g>
<g filter="url(#filter3_dd_477_7949)">
<rect x="232.707" y="101.941" width="58.275" height="11.3313" fill="#A7D5DE"/>
</g>
<g filter="url(#filter4_ddf_477_7949)">
<rect x="305.551" y="64.71" width="58.275" height="11.3313" fill="white"/>
</g>
</g>
<defs>
<filter id="filter0_dd_477_7949" x="4.78703" y="203.922" width="78.9934" height="30.7561" filterUnits="userSpaceOnUse" color-interpolation-filters="sRGB">
<feFlood flood-opacity="0" result="BackgroundImageFix"/>
<feColorMatrix in="SourceAlpha" type="matrix" values="0 0 0 0 0 0 0 0 0 0 0 0 0 0 0 0 0 0 127 0" result="hardAlpha"/>
<feMorphology radius="1.295" operator="dilate" in="SourceAlpha" result="effect1_dropShadow_477_7949"/>
<feOffset dx="-2.59" dy="2.91375"/>
<feGaussianBlur stdDeviation="2.75187"/>
<feComposite in2="hardAlpha" operator="out"/>
<feColorMatrix type="matrix" values="0 0 0 0 0 0 0 0 0 0 0 0 0 0 0 0 0 0 0.27 0"/>
<feBlend mode="normal" in2="BackgroundImageFix" result="effect1_dropShadow_477_7949"/>
<feColorMatrix in="SourceAlpha" type="matrix" values="0 0 0 0 0 0 0 0 0 0 0 0 0 0 0 0 0 0 127 0" result="hardAlpha"/>
<feOffset dx="4.85625" dy="-3.2375"/>
<feGaussianBlur stdDeviation="3.2375"/>
<feComposite in2="hardAlpha" operator="out"/>
<feColorMatrix type="matrix" values="0 0 0 0 1 0 0 0 0 1 0 0 0 0 1 0 0 0 0.35 0"/>
<feBlend mode="normal" in2="effect1_dropShadow_477_7949" result="effect2_dropShadow_477_7949"/>
<feBlend mode="normal" in="SourceGraphic" in2="effect2_dropShadow_477_7949" result="shape"/>
</filter>
<filter id="filter1_dd_477_7949" x="77.6308" y="166.691" width="78.9934" height="30.7561" filterUnits="userSpaceOnUse" color-interpolation-filters="sRGB">
<feFlood flood-opacity="0" result="BackgroundImageFix"/>
<feColorMatrix in="SourceAlpha" type="matrix" values="0 0 0 0 0 0 0 0 0 0 0 0 0 0 0 0 0 0 127 0" result="hardAlpha"/>
<feMorphology radius="1.295" operator="dilate" in="SourceAlpha" result="effect1_dropShadow_477_7949"/>
<feOffset dx="-2.59" dy="2.91375"/>
<feGaussianBlur stdDeviation="2.75187"/>
<feComposite in2="hardAlpha" operator="out"/>
<feColorMatrix type="matrix" values="0 0 0 0 0 0 0 0 0 0 0 0 0 0 0 0 0 0 0.27 0"/>
<feBlend mode="normal" in2="BackgroundImageFix" result="effect1_dropShadow_477_7949"/>
<feColorMatrix in="SourceAlpha" type="matrix" values="0 0 0 0 0 0 0 0 0 0 0 0 0 0 0 0 0 0 127 0" result="hardAlpha"/>
<feOffset dx="4.85625" dy="-3.2375"/>
<feGaussianBlur stdDeviation="3.2375"/>
<feComposite in2="hardAlpha" operator="out"/>
<feColorMatrix type="matrix" values="0 0 0 0 1 0 0 0 0 1 0 0 0 0 1 0 0 0 0.35 0"/>
<feBlend mode="normal" in2="effect1_dropShadow_477_7949" result="effect2_dropShadow_477_7949"/>
<feBlend mode="normal" in="SourceGraphic" in2="effect2_dropShadow_477_7949" result="shape"/>
</filter>
<filter id="filter2_dd_477_7949" x="150.475" y="129.46" width="78.9934" height="30.7561" filterUnits="userSpaceOnUse" color-interpolation-filters="sRGB">
<feFlood flood-opacity="0" result="BackgroundImageFix"/>
<feColorMatrix in="SourceAlpha" type="matrix" values="0 0 0 0 0 0 0 0 0 0 0 0 0 0 0 0 0 0 127 0" result="hardAlpha"/>
<feMorphology radius="1.295" operator="dilate" in="SourceAlpha" result="effect1_dropShadow_477_7949"/>
<feOffset dx="-2.59" dy="2.91375"/>
<feGaussianBlur stdDeviation="2.75187"/>
<feComposite in2="hardAlpha" operator="out"/>
<feColorMatrix type="matrix" values="0 0 0 0 0 0 0 0 0 0 0 0 0 0 0 0 0 0 0.27 0"/>
<feBlend mode="normal" in2="BackgroundImageFix" result="effect1_dropShadow_477_7949"/>
<feColorMatrix in="SourceAlpha" type="matrix" values="0 0 0 0 0 0 0 0 0 0 0 0 0 0 0 0 0 0 127 0" result="hardAlpha"/>
<feOffset dx="4.85625" dy="-3.2375"/>
<feGaussianBlur stdDeviation="3.2375"/>
<feComposite in2="hardAlpha" operator="out"/>
<feColorMatrix type="matrix" values="0 0 0 0 1 0 0 0 0 1 0 0 0 0 1 0 0 0 0.35 0"/>
<feBlend mode="normal" in2="effect1_dropShadow_477_7949" result="effect2_dropShadow_477_7949"/>
<feBlend mode="normal" in="SourceGraphic" in2="effect2_dropShadow_477_7949" result="shape"/>
</filter>
<filter id="filter3_dd_477_7949" x="223.318" y="92.2289" width="78.9934" height="30.7561" filterUnits="userSpaceOnUse" color-interpolation-filters="sRGB">
<feFlood flood-opacity="0" result="BackgroundImageFix"/>
<feColorMatrix in="SourceAlpha" type="matrix" values="0 0 0 0 0 0 0 0 0 0 0 0 0 0 0 0 0 0 127 0" result="hardAlpha"/>
<feMorphology radius="1.295" operator="dilate" in="SourceAlpha" result="effect1_dropShadow_477_7949"/>
<feOffset dx="-2.59" dy="2.91375"/>
<feGaussianBlur stdDeviation="2.75187"/>
<feComposite in2="hardAlpha" operator="out"/>
<feColorMatrix type="matrix" values="0 0 0 0 0 0 0 0 0 0 0 0 0 0 0 0 0 0 0.27 0"/>
<feBlend mode="normal" in2="BackgroundImageFix" result="effect1_dropShadow_477_7949"/>
<feColorMatrix in="SourceAlpha" type="matrix" values="0 0 0 0 0 0 0 0 0 0 0 0 0 0 0 0 0 0 127 0" result="hardAlpha"/>
<feOffset dx="4.85625" dy="-3.2375"/>
<feGaussianBlur stdDeviation="3.2375"/>
<feComposite in2="hardAlpha" operator="out"/>
<feColorMatrix type="matrix" values="0 0 0 0 1 0 0 0 0 1 0 0 0 0 1 0 0 0 0.35 0"/>
<feBlend mode="normal" in2="effect1_dropShadow_477_7949" result="effect2_dropShadow_477_7949"/>
<feBlend mode="normal" in="SourceGraphic" in2="effect2_dropShadow_477_7949" result="shape"/>
</filter>
<filter id="filter4_ddf_477_7949" x="296.162" y="54.9975" width="78.9934" height="30.7561" filterUnits="userSpaceOnUse" color-interpolation-filters="sRGB">
<feFlood flood-opacity="0" result="BackgroundImageFix"/>
<feColorMatrix in="SourceAlpha" type="matrix" values="0 0 0 0 0 0 0 0 0 0 0 0 0 0 0 0 0 0 127 0" result="hardAlpha"/>
<feMorphology radius="1.295" operator="dilate" in="SourceAlpha" result="effect1_dropShadow_477_7949"/>
<feOffset dx="-2.59" dy="2.91375"/>
<feGaussianBlur stdDeviation="2.75187"/>
<feComposite in2="hardAlpha" operator="out"/>
<feColorMatrix type="matrix" values="0 0 0 0 1 0 0 0 0 1 0 0 0 0 1 0 0 0 0.27 0"/>
<feBlend mode="normal" in2="BackgroundImageFix" result="effect1_dropShadow_477_7949"/>
<feColorMatrix in="SourceAlpha" type="matrix" values="0 0 0 0 0 0 0 0 0 0 0 0 0 0 0 0 0 0 127 0" result="hardAlpha"/>
<feOffset dx="4.85625" dy="-3.2375"/>
<feGaussianBlur stdDeviation="3.2375"/>
<feComposite in2="hardAlpha" operator="out"/>
<feColorMatrix type="matrix" values="0 0 0 0 1 0 0 0 0 1 0 0 0 0 1 0 0 0 0.35 0"/>
<feBlend mode="normal" in2="effect1_dropShadow_477_7949" result="effect2_dropShadow_477_7949"/>
<feBlend mode="normal" in="SourceGraphic" in2="effect2_dropShadow_477_7949" result="shape"/>
<feGaussianBlur stdDeviation="0.32375" result="effect3_foregroundBlur_477_7949"/>
</filter>
<clipPath id="clip0_477_7949">
<rect width="375" height="290" fill="white"/>
</clipPath>
</defs>
</svg>
