<svg width="644" height="97" viewBox="0 0 644 97" fill="none" xmlns="http://www.w3.org/2000/svg">
<path d="M11.7 73L0.5 6.9H3.4L11.2 53.4C11.4 55.1333 11.6333 56.9 11.9 58.7C12.1667 60.4333 12.4333 62.1667 12.7 63.9C13.0333 65.6333 13.3 67.4 13.5 69.2H13.7C14.3 67.4 14.8667 65.6333 15.4 63.9C15.9333 62.1667 16.4667 60.4333 17 58.7C17.5333 56.9 18.0333 55.1333 18.5 53.4L27.3 24.2H30.8L39.8 53.4C40.2667 55.1333 40.7333 56.9 41.2 58.7C41.7333 60.4333 42.2667 62.2 42.8 64C43.3333 65.7333 43.8667 67.4667 44.4 69.2H44.8C45.0667 67.4667 45.3333 65.7333 45.6 64C45.8667 62.2 46.1333 60.4333 46.4 58.7C46.6667 56.9 46.9 55.1333 47.1 53.4L54.6 6.9H57.4L46.5 73H42.3L32.2 39.9C31.6667 37.9667 31.1667 36.0667 30.7 34.2C30.2333 32.3333 29.7333 30.4333 29.2 28.5H28.9C28.3667 30.4333 27.8333 32.3333 27.3 34.2C26.8333 36.0667 26.3 37.9667 25.7 39.9L15.9 73H11.7ZM97.9609 74.2C93.4276 74.2 89.2609 73.2 85.4609 71.2C81.6609 69.2 78.6276 66.3333 76.3609 62.6C74.0943 58.8667 72.9609 54.4 72.9609 49.2C72.9609 44 74.0609 39.5333 76.2609 35.8C78.5276 32 81.4609 29.1 85.0609 27.1C88.7276 25.0333 92.6276 24 96.7609 24C101.028 24 104.728 24.8667 107.861 26.6C111.061 28.3333 113.528 30.8667 115.261 34.2C117.061 37.4667 117.961 41.4 117.961 46C117.961 46.4667 117.961 46.9667 117.961 47.5C117.961 48.0333 117.894 48.6 117.761 49.2H73.9609V46.4H116.961L115.161 48C115.161 40.8 113.428 35.4667 109.961 32C106.561 28.5333 102.161 26.8 96.7609 26.8C93.2943 26.8 89.9943 27.7 86.8609 29.5C83.7276 31.2333 81.1609 33.7667 79.1609 37.1C77.1609 40.3667 76.1609 44.3333 76.1609 49C76.1609 53.8 77.1609 57.8667 79.1609 61.2C81.2276 64.5333 83.8943 67.0667 87.1609 68.8C90.4943 70.5333 94.0943 71.4 97.9609 71.4C101.361 71.4 104.394 70.9 107.061 69.9C109.794 68.9 112.294 67.6 114.561 66L115.961 68.6C113.894 69.9333 111.461 71.2 108.661 72.4C105.861 73.6 102.294 74.2 97.9609 74.2ZM161.522 74.2C159.055 74.2 156.322 73.6 153.322 72.4C150.322 71.2 147.589 69.6 145.122 67.6H144.922L144.522 73H141.922V0.799994H144.922V22.2L144.722 32.8H144.922C147.455 30.2 150.389 28.1 153.722 26.5C157.055 24.8333 160.322 24 163.522 24C168.122 24 171.922 25 174.922 27C177.922 29 180.155 31.8333 181.622 35.5C183.155 39.1667 183.922 43.4667 183.922 48.4C183.922 53.8 182.889 58.4333 180.822 62.3C178.755 66.1 176.022 69.0333 172.622 71.1C169.222 73.1667 165.522 74.2 161.522 74.2ZM161.722 71.4C165.389 71.4 168.655 70.4333 171.522 68.5C174.389 66.5 176.622 63.7667 178.222 60.3C179.889 56.8333 180.722 52.8667 180.722 48.4C180.722 44.3333 180.122 40.6667 178.922 37.4C177.789 34.1333 175.955 31.5667 173.422 29.7C170.889 27.7667 167.522 26.8 163.322 26.8C160.655 26.8 157.722 27.5667 154.522 29.1C151.322 30.6333 148.122 33 144.922 36.2V63.8C147.922 66.5333 150.955 68.5 154.022 69.7C157.089 70.8333 159.655 71.4 161.722 71.4ZM272.844 73V7H287.644C294.444 7 300.01 8.36666 304.344 11.1C308.744 13.8333 311.977 17.6667 314.044 22.6C316.177 27.5333 317.244 33.2667 317.244 39.8C317.244 46.3333 316.177 52.1 314.044 57.1C311.977 62.1 308.744 66 304.344 68.8C300.01 71.6 294.444 73 287.644 73H272.844ZM276.044 70.2H287.244C293.51 70.2 298.577 68.8667 302.444 66.2C306.377 63.5333 309.244 59.9333 311.044 55.4C312.91 50.8 313.844 45.6 313.844 39.8C313.844 34 312.91 28.8333 311.044 24.3C309.244 19.7667 306.377 16.2333 302.444 13.7C298.577 11.1 293.51 9.8 287.244 9.8H276.044V70.2ZM361.805 74.2C357.271 74.2 353.105 73.2 349.305 71.2C345.505 69.2 342.471 66.3333 340.205 62.6C337.938 58.8667 336.805 54.4 336.805 49.2C336.805 44 337.905 39.5333 340.105 35.8C342.371 32 345.305 29.1 348.905 27.1C352.571 25.0333 356.471 24 360.605 24C364.871 24 368.571 24.8667 371.705 26.6C374.905 28.3333 377.371 30.8667 379.105 34.2C380.905 37.4667 381.805 41.4 381.805 46C381.805 46.4667 381.805 46.9667 381.805 47.5C381.805 48.0333 381.738 48.6 381.605 49.2H337.805V46.4H380.805L379.005 48C379.005 40.8 377.271 35.4667 373.805 32C370.405 28.5333 366.005 26.8 360.605 26.8C357.138 26.8 353.838 27.7 350.705 29.5C347.571 31.2333 345.005 33.7667 343.005 37.1C341.005 40.3667 340.005 44.3333 340.005 49C340.005 53.8 341.005 57.8667 343.005 61.2C345.071 64.5333 347.738 67.0667 351.005 68.8C354.338 70.5333 357.938 71.4 361.805 71.4C365.205 71.4 368.238 70.9 370.905 69.9C373.638 68.9 376.138 67.6 378.405 66L379.805 68.6C377.738 69.9333 375.305 71.2 372.505 72.4C369.705 73.6 366.138 74.2 361.805 74.2ZM426.966 74.2C421.966 74.2 417.466 73.4333 413.466 71.9C409.532 70.3667 406.166 68.6 403.366 66.6L405.166 64.2C407.766 66.2667 410.766 68 414.166 69.4C417.566 70.7333 421.899 71.4 427.166 71.4C432.366 71.4 436.299 70.3667 438.966 68.3C441.632 66.2333 442.966 63.8667 442.966 61.2C442.966 60.0667 442.766 58.9667 442.366 57.9C442.032 56.8333 441.299 55.8333 440.166 54.9C439.032 53.9 437.266 52.9667 434.866 52.1C432.532 51.2333 429.366 50.4 425.366 49.6C419.366 48.4 414.666 46.7667 411.266 44.7C407.866 42.6333 406.166 39.8667 406.166 36.4C406.166 33.0667 407.599 30.1667 410.466 27.7C413.399 25.2333 418.032 24 424.366 24C427.432 24 430.632 24.5333 433.966 25.6C437.299 26.6667 440.099 28.0667 442.366 29.8L440.566 32.2C438.499 30.6 436.066 29.3 433.266 28.3C430.532 27.3 427.499 26.8 424.166 26.8C420.366 26.8 417.399 27.2667 415.266 28.2C413.132 29.0667 411.599 30.2333 410.666 31.7C409.799 33.1 409.366 34.6 409.366 36.2C409.366 38.8667 410.699 41 413.366 42.6C416.032 44.2 420.166 45.5667 425.766 46.7C431.366 47.8333 435.632 49.0667 438.566 50.4C441.499 51.7333 443.499 53.2667 444.566 55C445.632 56.6667 446.166 58.6667 446.166 61C446.166 63.3333 445.399 65.5 443.866 67.5C442.399 69.5 440.232 71.1333 437.366 72.4C434.499 73.6 431.032 74.2 426.966 74.2ZM495.327 73V28H470.727V25.2H498.327V73H495.327ZM495.727 13C494.66 13 493.727 12.6333 492.927 11.9C492.127 11.1 491.727 10.0667 491.727 8.8C491.727 7.46666 492.127 6.43333 492.927 5.7C493.727 4.96666 494.66 4.6 495.727 4.6C496.86 4.6 497.793 4.96666 498.527 5.7C499.327 6.43333 499.727 7.46666 499.727 8.8C499.727 10.0667 499.327 11.1 498.527 11.9C497.793 12.6333 496.86 13 495.727 13ZM557.888 96.4C552.821 96.4 548.621 95.8 545.288 94.6C542.021 93.4 539.554 91.7333 537.888 89.6C536.288 87.4667 535.488 85.0333 535.488 82.3C535.488 80.4333 536.188 78.4667 537.588 76.4C539.054 74.3333 541.088 72.4667 543.688 70.8V70.4C542.488 69.8667 541.354 68.9667 540.288 67.7C539.221 66.4333 538.688 64.8 538.688 62.8C538.688 61.2667 539.188 59.7 540.188 58.1C541.188 56.5 542.621 55.0667 544.488 53.8V53.4C543.021 52.0667 541.721 50.4 540.588 48.4C539.454 46.3333 538.888 43.8667 538.888 41C538.888 37.8 539.654 34.9333 541.188 32.4C542.788 29.8 544.888 27.7667 547.488 26.3C550.154 24.7667 553.088 24 556.288 24C558.754 24 560.888 24.4 562.688 25.2H582.688V28H567.488C569.088 29.4667 570.521 31.3333 571.788 33.6C573.054 35.8 573.688 38.2667 573.688 41C573.688 44.2 572.888 47.0667 571.288 49.6C569.754 52.1333 567.654 54.1333 564.988 55.6C562.388 57.0667 559.488 57.8 556.288 57.8C554.821 57.8 553.254 57.6 551.588 57.2C549.988 56.8 548.421 56.2 546.888 55.4C545.421 56.2667 544.221 57.3333 543.288 58.6C542.354 59.8667 541.888 61.1667 541.888 62.5C541.888 64.9667 542.921 66.7667 544.988 67.9C547.121 69.0333 549.888 69.6 553.288 69.6H565.588C571.654 69.6 576.021 70.4333 578.688 72.1C581.354 73.7 582.688 76.4 582.688 80.2C582.688 82.8667 581.654 85.4333 579.588 87.9C577.588 90.3667 574.721 92.4 570.988 94C567.321 95.6 562.954 96.4 557.888 96.4ZM556.288 55C558.888 55 561.254 54.4 563.388 53.2C565.521 52 567.221 50.3667 568.488 48.3C569.821 46.1667 570.488 43.7333 570.488 41C570.488 38.2667 569.821 35.8333 568.488 33.7C567.221 31.5667 565.521 29.9 563.388 28.7C561.254 27.4333 558.888 26.8 556.288 26.8C553.688 26.8 551.321 27.4333 549.188 28.7C547.054 29.9 545.321 31.5667 543.988 33.7C542.721 35.8333 542.088 38.2667 542.088 41C542.088 43.7333 542.721 46.1667 543.988 48.3C545.321 50.3667 547.054 52 549.188 53.2C551.321 54.4 553.688 55 556.288 55ZM557.288 93.6C561.954 93.6 565.921 92.9333 569.188 91.6C572.521 90.3333 575.054 88.6667 576.788 86.6C578.588 84.6 579.487 82.5333 579.487 80.4C579.487 77.5333 578.388 75.5333 576.188 74.4C574.054 73.3333 570.788 72.8 566.388 72.8H554.288C553.221 72.8 552.021 72.7333 550.688 72.6C549.354 72.4667 548.121 72.2333 546.988 71.9C543.921 73.5667 541.754 75.3 540.488 77.1C539.288 78.9667 538.688 80.8333 538.688 82.7C538.688 85.7667 540.221 88.3333 543.288 90.4C546.354 92.5333 551.021 93.6 557.288 93.6ZM603.648 73V25.2H606.248L606.648 34.8H607.048C609.915 31.6667 612.848 29.1 615.848 27.1C618.915 25.0333 622.382 24 626.248 24C632.115 24 636.482 25.5667 639.348 28.7C642.215 31.8333 643.648 36.6667 643.648 43.2V73H640.648V43.6C640.648 37.9333 639.515 33.7333 637.248 31C634.982 28.2 631.315 26.8 626.248 26.8C622.648 26.8 619.415 27.7667 616.548 29.7C613.682 31.5667 610.382 34.4667 606.648 38.4V73H603.648Z" fill="#121212"/>
</svg>
