<svg width="439" height="101" viewBox="0 0 439 101" fill="none" xmlns="http://www.w3.org/2000/svg">
<path d="M0.757422 -6.19888e-06H5.55742L17.4574 70.3L30.4574 1.79999H35.6574L49.0574 70.3L59.8574 -6.19888e-06H64.5574L51.4574 81H46.8574L33.0574 10.1L19.5574 81H14.8574L0.757422 -6.19888e-06ZM92.2863 81.9C89.0197 81.9 86.3197 81.2667 84.1863 80C82.053 78.7333 80.4197 76.4667 79.2863 73.2C78.153 69.9333 77.5863 65.4 77.5863 59.6V44.2C77.5863 38.4 78.153 33.9 79.2863 30.7C80.4863 27.5 82.153 25.3 84.2863 24.1C86.4197 22.9 89.1197 22.3 92.3863 22.3C95.9863 22.3 98.8197 23.0667 100.886 24.6C102.953 26.1333 104.42 28.5667 105.286 31.9C106.153 35.1667 106.586 39.6333 106.586 45.3V50.8H82.8863V60C82.8863 64.6 83.1863 68.2 83.7863 70.8C84.453 73.4 85.453 75.2333 86.7863 76.3C88.1197 77.3667 89.953 77.9 92.2863 77.9C95.0197 77.9 97.2197 77.1333 98.8863 75.6C100.553 74 101.386 70.7333 101.386 65.8V61.5H106.586V65.3C106.586 70.6333 105.486 74.7333 103.286 77.6C101.153 80.4667 97.4863 81.9 92.2863 81.9ZM101.386 47.6V43.1C101.386 39.1667 101.186 36.0333 100.786 33.7C100.386 31.3667 99.5197 29.5667 98.1863 28.3C96.9197 26.9667 94.9863 26.3 92.3863 26.3C90.1197 26.3 88.2863 26.7667 86.8863 27.7C85.553 28.6333 84.553 30.3333 83.8863 32.8C83.2197 35.2667 82.8863 38.7333 82.8863 43.2V47.6H101.386ZM138.477 81.9C134.477 81.9 130.944 80 127.877 76.2V81H122.577V-6.19888e-06H127.877V28.1C129.077 26.4333 130.61 25.0667 132.477 24C134.41 22.8667 136.577 22.3 138.977 22.3C143.977 22.3 147.41 24.3 149.277 28.3C151.144 32.2333 152.077 38.1667 152.077 46.1V57.2C152.077 65.6667 151.044 71.9 148.977 75.9C146.977 79.9 143.477 81.9 138.477 81.9ZM137.777 77.8C140.177 77.8 142.01 77.1 143.277 75.7C144.544 74.3 145.41 72.1667 145.877 69.3C146.41 66.3667 146.677 62.4 146.677 57.4V46.1C146.677 41.1667 146.444 37.3333 145.977 34.6C145.577 31.8 144.744 29.7333 143.477 28.4C142.21 27.0667 140.344 26.4 137.877 26.4C134.477 26.4 131.144 28.2 127.877 31.8V72.6C130.81 76.0667 134.11 77.8 137.777 77.8ZM195.068 -6.19888e-06H212.768C220.302 -6.19888e-06 225.635 2.09999 228.768 6.3C231.902 10.4333 233.468 16.1 233.468 23.3V56.9C233.468 64.5 231.935 70.4333 228.868 74.7C225.868 78.9 220.668 81 213.268 81H195.068V-6.19888e-06ZM212.968 76.7C217.102 76.7 220.268 75.8333 222.468 74.1C224.668 72.3 226.135 69.9333 226.868 67C227.602 64.0667 227.968 60.5 227.968 56.3V23.7C227.968 17.2333 226.868 12.4 224.668 9.19999C222.535 6 218.568 4.4 212.768 4.4H200.468V76.7H212.968ZM264.529 81.9C261.262 81.9 258.562 81.2667 256.429 80C254.295 78.7333 252.662 76.4667 251.529 73.2C250.395 69.9333 249.829 65.4 249.829 59.6V44.2C249.829 38.4 250.395 33.9 251.529 30.7C252.729 27.5 254.395 25.3 256.529 24.1C258.662 22.9 261.362 22.3 264.629 22.3C268.229 22.3 271.062 23.0667 273.129 24.6C275.195 26.1333 276.662 28.5667 277.529 31.9C278.395 35.1667 278.829 39.6333 278.829 45.3V50.8H255.129V60C255.129 64.6 255.429 68.2 256.029 70.8C256.695 73.4 257.695 75.2333 259.029 76.3C260.362 77.3667 262.195 77.9 264.529 77.9C267.262 77.9 269.462 77.1333 271.129 75.6C272.795 74 273.629 70.7333 273.629 65.8V61.5H278.829V65.3C278.829 70.6333 277.729 74.7333 275.529 77.6C273.395 80.4667 269.729 81.9 264.529 81.9ZM273.629 47.6V43.1C273.629 39.1667 273.429 36.0333 273.029 33.7C272.629 31.3667 271.762 29.5667 270.429 28.3C269.162 26.9667 267.229 26.3 264.629 26.3C262.362 26.3 260.529 26.7667 259.129 27.7C257.795 28.6333 256.795 30.3333 256.129 32.8C255.462 35.2667 255.129 38.7333 255.129 43.2V47.6H273.629ZM307.919 81.9C303.386 81.9 299.786 80.4333 297.119 77.5C294.452 74.5667 292.919 70.5333 292.519 65.4L297.019 64.1C297.352 68.8333 298.452 72.3333 300.319 74.6C302.186 76.8 304.786 77.9 308.119 77.9C311.052 77.9 313.319 77.1 314.919 75.5C316.519 73.8333 317.319 71.5 317.319 68.5C317.319 64.3 314.486 59.8 308.819 55L302.119 49.3C299.186 46.7667 297.052 44.4 295.719 42.2C294.452 40 293.819 37.4667 293.819 34.6C293.819 30.7333 294.986 27.7333 297.319 25.6C299.719 23.4 302.919 22.3 306.919 22.3C311.119 22.3 314.319 23.6333 316.519 26.3C318.719 28.9667 319.886 32.6667 320.019 37.4L316.119 38.6C315.852 30.4 312.886 26.3 307.219 26.3C304.619 26.3 302.552 26.9667 301.019 28.3C299.486 29.6333 298.719 31.5333 298.719 34C298.719 36.2 299.119 38.1 299.919 39.7C300.786 41.2333 302.352 43 304.619 45L311.519 51.1C313.852 53.1667 315.686 54.9333 317.019 56.4C318.419 57.8667 319.586 59.6333 320.519 61.7C321.519 63.7 322.019 66 322.019 68.6C322.019 72.7333 320.752 76 318.219 78.4C315.686 80.7333 312.252 81.9 307.919 81.9ZM337.264 6.39999H342.664V15.6H337.264V6.39999ZM337.264 23.2H342.664V81H337.264V23.2ZM375.909 100.6C363.442 100.6 357.209 97.2 357.209 90.4C357.209 87.6667 358.209 85.1 360.209 82.7C362.276 80.3 364.709 78.3667 367.509 76.9C364.976 76.2333 363.176 75.4333 362.109 74.5C361.042 73.5 360.509 72.1667 360.509 70.5C360.509 68.7667 361.109 67.1 362.309 65.5C363.509 63.9 365.309 62.1 367.709 60.1C362.642 56.4333 360.109 50.4667 360.109 42.2C360.109 38.8 360.676 35.6 361.809 32.6C362.942 29.6 364.709 27.1333 367.109 25.2C369.576 23.2667 372.609 22.3 376.209 22.3C382.009 22.3 386.276 24.8667 389.009 30C389.676 28.6667 390.742 27.3333 392.209 26C393.742 24.6667 395.276 23.7333 396.809 23.2L398.209 22.7L399.709 26.7C397.976 27.1 396.242 27.8667 394.509 29C392.776 30.0667 391.409 31.2333 390.409 32.5C390.876 33.7667 391.309 35.4333 391.709 37.5C392.109 39.5 392.309 41.1 392.309 42.3C392.309 48.4333 391.009 53.3667 388.409 57.1C385.809 60.7667 381.809 62.6 376.409 62.6C375.276 62.6 374.109 62.5 372.909 62.3C371.776 62.1 370.876 61.8667 370.209 61.6C368.609 63.2 367.342 64.6333 366.409 65.9C365.542 67.1667 365.109 68.3667 365.109 69.5C365.109 70.5667 365.476 71.3667 366.209 71.9C366.942 72.4333 368.176 72.8667 369.909 73.2L379.309 74.9C384.242 75.7667 388.009 77.2667 390.609 79.4C393.209 81.4667 394.509 84.2667 394.509 87.8C394.509 92.0667 392.742 95.2667 389.209 97.4C385.742 99.5333 381.309 100.6 375.909 100.6ZM376.409 58.7C383.742 58.7 387.409 53.2 387.409 42.2C387.409 38.1333 386.576 34.4667 384.909 31.2C383.242 27.8667 380.376 26.2 376.309 26.2C372.242 26.2 369.342 27.9333 367.609 31.4C365.876 34.8 365.009 38.4 365.009 42.2C365.009 46.4667 365.809 50.3 367.409 53.7C369.009 57.0333 372.009 58.7 376.409 58.7ZM375.909 96.3C380.109 96.3 383.509 95.6 386.109 94.2C388.709 92.8 390.009 90.7 390.009 87.9C390.009 85.5667 389.142 83.7 387.409 82.3C385.676 80.9 382.309 79.7667 377.309 78.9L371.009 77.8C368.476 79.2667 366.309 80.9 364.509 82.7C362.709 84.5667 361.809 86.7 361.809 89.1C361.809 91.5667 362.976 93.3667 365.309 94.5C367.709 95.7 371.242 96.3 375.909 96.3ZM410.28 23.2H415.58V29.4C417.447 27.2 419.547 25.4667 421.88 24.2C424.213 22.9333 426.68 22.3 429.28 22.3C432.013 22.3 434.213 23.3333 435.88 25.4C437.547 27.4 438.38 30.5667 438.38 34.9V81H433.08V35.5C433.08 32.1667 432.547 29.8333 431.48 28.5C430.48 27.1 428.98 26.4 426.98 26.4C425.113 26.4 423.18 26.9667 421.18 28.1C419.247 29.2333 417.38 30.8 415.58 32.8V81H410.28V23.2Z" fill="#121212"/>
</svg>
