<svg width="675" height="99" viewBox="0 0 675 99" fill="none" xmlns="http://www.w3.org/2000/svg">
<path d="M109.014 8L85.8145 78H72.0145L54.7145 26.2L37.1145 78H23.2145L0.0144532 8H13.5145L30.9145 61.2L49.0145 8H61.0145L78.7145 61.5L96.6145 8H109.014ZM170.601 51.6C170.601 52.4667 170.535 53.7 170.401 55.3H128.501C129.235 59.2333 131.135 62.3667 134.201 64.7C137.335 66.9667 141.201 68.1 145.801 68.1C151.668 68.1 156.501 66.1667 160.301 62.3L167.001 70C164.601 72.8667 161.568 75.0333 157.901 76.5C154.235 77.9667 150.101 78.7 145.501 78.7C139.635 78.7 134.468 77.5333 130.001 75.2C125.535 72.8667 122.068 69.6333 119.601 65.5C117.201 61.3 116.001 56.5667 116.001 51.3C116.001 46.1 117.168 41.4333 119.501 37.3C121.901 33.1 125.201 29.8333 129.401 27.5C133.601 25.1667 138.335 24 143.601 24C148.801 24 153.435 25.1667 157.501 27.5C161.635 29.7667 164.835 33 167.101 37.2C169.435 41.3333 170.601 46.1333 170.601 51.6ZM143.601 34C139.601 34 136.201 35.2 133.401 37.6C130.668 39.9333 129.001 43.0667 128.401 47H158.701C158.168 43.1333 156.535 40 153.801 37.6C151.068 35.2 147.668 34 143.601 34ZM218.208 24C223.408 24 228.042 25.1333 232.108 27.4C236.242 29.6667 239.475 32.8667 241.808 37C244.142 41.1333 245.308 45.9 245.308 51.3C245.308 56.7 244.142 61.5 241.808 65.7C239.475 69.8333 236.242 73.0333 232.108 75.3C228.042 77.5667 223.408 78.7 218.208 78.7C214.542 78.7 211.175 78.0667 208.108 76.8C205.108 75.5333 202.575 73.6333 200.508 71.1V78H188.608V3.8H201.108V31.1C203.242 28.7667 205.742 27 208.608 25.8C211.542 24.6 214.742 24 218.208 24ZM216.808 68C221.408 68 225.175 66.4667 228.108 63.4C231.108 60.3333 232.608 56.3 232.608 51.3C232.608 46.3 231.108 42.2667 228.108 39.2C225.175 36.1333 221.408 34.6 216.808 34.6C213.808 34.6 211.108 35.3 208.708 36.7C206.308 38.0333 204.408 39.9667 203.008 42.5C201.608 45.0333 200.908 47.9667 200.908 51.3C200.908 54.6333 201.608 57.5667 203.008 60.1C204.408 62.6333 206.308 64.6 208.708 66C211.108 67.3333 213.808 68 216.808 68ZM298 8H328.6C336.066 8 342.7 9.46666 348.5 12.4C354.3 15.2667 358.8 19.3667 362 24.7C365.2 29.9667 366.8 36.0667 366.8 43C366.8 49.9333 365.2 56.0667 362 61.4C358.8 66.6667 354.3 70.7667 348.5 73.7C342.7 76.5667 336.066 78 328.6 78H298V8ZM328 67C333.133 67 337.633 66.0333 341.5 64.1C345.433 62.1 348.433 59.3 350.5 55.7C352.633 52.0333 353.7 47.8 353.7 43C353.7 38.2 352.633 34 350.5 30.4C348.433 26.7333 345.433 23.9333 341.5 22C337.633 20 333.133 19 328 19H311V67H328ZM435.617 51.6C435.617 52.4667 435.55 53.7 435.417 55.3H393.517C394.25 59.2333 396.15 62.3667 399.217 64.7C402.35 66.9667 406.217 68.1 410.817 68.1C416.683 68.1 421.517 66.1667 425.317 62.3L432.017 70C429.617 72.8667 426.583 75.0333 422.917 76.5C419.25 77.9667 415.117 78.7 410.517 78.7C404.65 78.7 399.483 77.5333 395.017 75.2C390.55 72.8667 387.083 69.6333 384.617 65.5C382.217 61.3 381.017 56.5667 381.017 51.3C381.017 46.1 382.183 41.4333 384.517 37.3C386.917 33.1 390.217 29.8333 394.417 27.5C398.617 25.1667 403.35 24 408.617 24C413.817 24 418.45 25.1667 422.517 27.5C426.65 29.7667 429.85 33 432.117 37.2C434.45 41.3333 435.617 46.1333 435.617 51.6ZM408.617 34C404.617 34 401.217 35.2 398.417 37.6C395.683 39.9333 394.017 43.0667 393.417 47H423.717C423.183 43.1333 421.55 40 418.817 37.6C416.083 35.2 412.683 34 408.617 34ZM470.124 78.7C465.79 78.7 461.557 78.1333 457.424 77C453.29 75.8667 449.99 74.4333 447.524 72.7L452.324 63.2C454.724 64.8 457.59 66.1 460.924 67.1C464.324 68.0333 467.657 68.5 470.924 68.5C478.39 68.5 482.124 66.5333 482.124 62.6C482.124 60.7333 481.157 59.4333 479.224 58.7C477.357 57.9667 474.324 57.2667 470.124 56.6C465.724 55.9333 462.124 55.1667 459.324 54.3C456.59 53.4333 454.19 51.9333 452.124 49.8C450.124 47.6 449.124 44.5667 449.124 40.7C449.124 35.6333 451.224 31.6 455.424 28.6C459.69 25.5333 465.424 24 472.624 24C476.29 24 479.957 24.4333 483.624 25.3C487.29 26.1 490.29 27.2 492.624 28.6L487.824 38.1C483.29 35.4333 478.19 34.1 472.524 34.1C468.857 34.1 466.057 34.6667 464.124 35.8C462.257 36.8667 461.324 38.3 461.324 40.1C461.324 42.1 462.324 43.5333 464.324 44.4C466.39 45.2 469.557 45.9667 473.824 46.7C478.09 47.3667 481.59 48.1333 484.324 49C487.057 49.8667 489.39 51.3333 491.324 53.4C493.324 55.4667 494.324 58.4 494.324 62.2C494.324 67.2 492.157 71.2 487.824 74.2C483.49 77.2 477.59 78.7 470.124 78.7ZM511.089 24.6H523.589V78H511.089V24.6ZM517.389 15.8C515.122 15.8 513.222 15.1 511.689 13.7C510.155 12.2333 509.389 10.4333 509.389 8.3C509.389 6.16666 510.155 4.4 511.689 2.99999C513.222 1.53333 515.122 0.799999 517.389 0.799999C519.655 0.799999 521.555 1.5 523.089 2.9C524.622 4.23333 525.389 5.93333 525.389 8C525.389 10.2 524.622 12.0667 523.089 13.6C521.622 15.0667 519.722 15.8 517.389 15.8ZM598.995 24.6V69.9C598.995 88.7 589.395 98.1 570.195 98.1C565.062 98.1 560.195 97.4333 555.595 96.1C550.995 94.8333 547.195 92.9667 544.195 90.5L549.795 81.1C552.128 83.0333 555.062 84.5667 558.595 85.7C562.195 86.9 565.828 87.5 569.495 87.5C575.362 87.5 579.662 86.1667 582.395 83.5C585.128 80.8333 586.495 76.7667 586.495 71.3V68.5C584.362 70.8333 581.762 72.6 578.695 73.8C575.628 75 572.262 75.6 568.595 75.6C563.528 75.6 558.928 74.5333 554.795 72.4C550.728 70.2 547.495 67.1333 545.095 63.2C542.762 59.2667 541.595 54.7667 541.595 49.7C541.595 44.6333 542.762 40.1667 545.095 36.3C547.495 32.3667 550.728 29.3333 554.795 27.2C558.928 25.0667 563.528 24 568.595 24C572.462 24 575.962 24.6333 579.095 25.9C582.295 27.1667 584.962 29.1 587.095 31.7V24.6H598.995ZM570.495 65C575.228 65 579.095 63.6 582.095 60.8C585.162 57.9333 586.695 54.2333 586.695 49.7C586.695 45.2333 585.162 41.6 582.095 38.8C579.095 36 575.228 34.6 570.495 34.6C565.695 34.6 561.762 36 558.695 38.8C555.695 41.6 554.195 45.2333 554.195 49.7C554.195 54.2333 555.695 57.9333 558.695 60.8C561.762 63.6 565.695 65 570.495 65ZM651.729 24C658.462 24 663.862 25.9667 667.929 29.9C671.995 33.8333 674.029 39.6667 674.029 47.4V78H661.529V49C661.529 44.3333 660.429 40.8333 658.229 38.5C656.029 36.1 652.895 34.9 648.829 34.9C644.229 34.9 640.595 36.3 637.929 39.1C635.262 41.8333 633.929 45.8 633.929 51V78H621.429V24.6H633.329V31.5C635.395 29.0333 637.995 27.1667 641.129 25.9C644.262 24.6333 647.795 24 651.729 24Z" fill="#121212"/>
</svg>
