<svg width="375" height="290" viewBox="0 0 375 290" fill="none" xmlns="http://www.w3.org/2000/svg">
<rect width="375" height="290" fill="white"/>
<path d="M55.5854 34.487V40.4004H51.7226V34.4393L45.2608 23.7093H49.362L53.821 31.1249L58.2799 23.7093H62.0711L55.5854 34.487ZM76.0013 34.0339C76.0013 34.0816 75.9775 34.4154 75.9298 35.0354H66.2251C66.4 35.8302 66.8133 36.4581 67.465 36.9191C68.1168 37.3801 68.9275 37.6106 69.8971 37.6106C70.5648 37.6106 71.1529 37.5152 71.6616 37.3245C72.1862 37.1178 72.671 36.7999 73.1161 36.3707L75.0952 38.5167C73.8871 39.8997 72.1226 40.5911 69.8018 40.5911C68.3552 40.5911 67.0755 40.313 65.9628 39.7566C64.8501 39.1843 63.9917 38.3975 63.3876 37.396C62.7835 36.3945 62.4815 35.2579 62.4815 33.9862C62.4815 32.7304 62.7756 31.6018 63.3638 30.6003C63.9678 29.583 64.7865 28.7961 65.8197 28.2397C66.8689 27.6675 68.0373 27.3813 69.3249 27.3813C70.5807 27.3813 71.7173 27.6516 72.7346 28.192C73.752 28.7325 74.5468 29.5114 75.1191 30.5288C75.7072 31.5303 76.0013 32.6986 76.0013 34.0339ZM69.3487 30.195C68.5062 30.195 67.7988 30.4334 67.2266 30.9103C66.6543 31.3872 66.3046 32.0389 66.1774 32.8655H72.4962C72.369 32.0548 72.0193 31.411 71.447 30.9341C70.8748 30.4414 70.1753 30.195 69.3487 30.195ZM84.7334 27.3813C86.7205 27.3813 88.2465 27.8582 89.3116 28.812C90.3766 29.7499 90.9091 31.1726 90.9091 33.0801V40.4004H87.4278V38.8028C86.7284 39.995 85.4249 40.5911 83.5174 40.5911C82.5318 40.5911 81.6734 40.4242 80.9422 40.0904C80.2268 39.7566 79.6784 39.2956 79.2969 38.7074C78.9154 38.1193 78.7246 37.4516 78.7246 36.7045C78.7246 35.5123 79.1697 34.5744 80.0599 33.8909C80.966 33.2073 82.3569 32.8655 84.2327 32.8655H87.1894C87.1894 32.0548 86.943 31.4349 86.4502 31.0057C85.9574 30.5606 85.2183 30.338 84.2327 30.338C83.5491 30.338 82.8736 30.4493 82.2059 30.6719C81.5542 30.8785 80.9978 31.1646 80.5368 31.5303L79.2015 28.9312C79.9009 28.4384 80.7355 28.0569 81.7052 27.7867C82.6907 27.5164 83.7002 27.3813 84.7334 27.3813ZM84.4473 38.0875C85.0831 38.0875 85.6475 37.9444 86.1402 37.6583C86.633 37.3562 86.9827 36.9191 87.1894 36.3468V35.0354H84.638C83.112 35.0354 82.349 35.5361 82.349 36.5376C82.349 37.0145 82.5318 37.396 82.8974 37.6821C83.2789 37.9524 83.7955 38.0875 84.4473 38.0875ZM103.503 27.3813C105.093 27.3813 106.373 27.8582 107.342 28.812C108.328 29.7658 108.821 31.1805 108.821 33.0563V40.4004H105.101V33.6286C105.101 32.6112 104.878 31.8561 104.433 31.3633C103.988 30.8547 103.345 30.6003 102.502 30.6003C101.564 30.6003 100.817 30.8944 100.261 31.4826C99.7043 32.0548 99.4261 32.9132 99.4261 34.0578V40.4004H95.7063V22.7078H99.4261V28.9074C99.9189 28.4146 100.515 28.041 101.214 27.7867C101.914 27.5164 102.677 27.3813 103.503 27.3813ZM115.054 35.9653C115.722 35.9653 116.27 36.1799 116.699 36.6091C117.128 37.0224 117.343 37.5708 117.343 38.2544C117.343 38.5723 117.303 38.8902 117.224 39.2082C117.144 39.5261 116.969 40.003 116.699 40.6388L115.34 44.0724H112.979L114.029 40.2812C113.631 40.1222 113.313 39.8679 113.075 39.5181C112.852 39.1525 112.741 38.7313 112.741 38.2544C112.741 37.5708 112.956 37.0224 113.385 36.6091C113.83 36.1799 114.386 35.9653 115.054 35.9653ZM135.224 40.6865C133.905 40.6865 132.625 40.5117 131.385 40.1619C130.161 39.7963 129.176 39.3274 128.429 38.7551L129.74 35.8461C130.456 36.3707 131.306 36.7919 132.292 37.1099C133.277 37.4278 134.263 37.5867 135.248 37.5867C136.345 37.5867 137.156 37.4278 137.68 37.1099C138.205 36.776 138.467 36.3389 138.467 35.7984C138.467 35.401 138.308 35.0751 137.99 34.8208C137.688 34.5506 137.291 34.336 136.798 34.177C136.321 34.018 135.67 33.8432 134.843 33.6524C133.571 33.3504 132.53 33.0484 131.719 32.7463C130.909 32.4443 130.209 31.9595 129.621 31.2918C129.049 30.6242 128.763 29.734 128.763 28.6212C128.763 27.6516 129.025 26.7773 129.549 25.9983C130.074 25.2035 130.861 24.5756 131.91 24.1146C132.975 23.6536 134.271 23.4231 135.797 23.4231C136.862 23.4231 137.903 23.5503 138.92 23.8047C139.938 24.059 140.828 24.4246 141.591 24.9015L140.399 27.8344C138.857 26.9601 137.315 26.5229 135.773 26.5229C134.692 26.5229 133.889 26.6978 133.365 27.0475C132.856 27.3972 132.602 27.8582 132.602 28.4305C132.602 29.0027 132.896 29.4319 133.484 29.7181C134.088 29.9883 135.002 30.2586 136.226 30.5288C137.498 30.8308 138.539 31.1328 139.349 31.4349C140.16 31.7369 140.852 32.2138 141.424 32.8655C142.012 33.5173 142.306 34.3995 142.306 35.5123C142.306 36.4661 142.036 37.3404 141.495 38.1352C140.971 38.9141 140.176 39.534 139.111 39.995C138.046 40.456 136.75 40.6865 135.224 40.6865ZM152.218 40.5911C150.867 40.5911 149.651 40.313 148.57 39.7566C147.505 39.1843 146.67 38.3975 146.066 37.396C145.462 36.3945 145.16 35.2579 145.16 33.9862C145.16 32.7145 145.462 31.5779 146.066 30.5765C146.67 29.575 147.505 28.7961 148.57 28.2397C149.651 27.6675 150.867 27.3813 152.218 27.3813C153.569 27.3813 154.778 27.6675 155.843 28.2397C156.908 28.7961 157.742 29.575 158.346 30.5765C158.95 31.5779 159.252 32.7145 159.252 33.9862C159.252 35.2579 158.95 36.3945 158.346 37.396C157.742 38.3975 156.908 39.1843 155.843 39.7566C154.778 40.313 153.569 40.5911 152.218 40.5911ZM152.218 37.5391C153.172 37.5391 153.951 37.2211 154.555 36.5853C155.175 35.9335 155.485 35.0672 155.485 33.9862C155.485 32.9053 155.175 32.0469 154.555 31.411C153.951 30.7593 153.172 30.4334 152.218 30.4334C151.264 30.4334 150.478 30.7593 149.858 31.411C149.238 32.0469 148.928 32.9053 148.928 33.9862C148.928 35.0672 149.238 35.9335 149.858 36.5853C150.478 37.2211 151.264 37.5391 152.218 37.5391ZM167.247 27.8582H170.537V30.7195H167.342V40.4004H163.622V30.7195H161.643V27.8582H163.622V27.2859C163.622 25.8235 164.052 24.6631 164.91 23.8047C165.784 22.9463 167.008 22.5171 168.582 22.5171C169.138 22.5171 169.663 22.5806 170.156 22.7078C170.664 22.8191 171.086 22.986 171.42 23.2085L170.442 25.903C170.013 25.6009 169.512 25.4499 168.94 25.4499C167.811 25.4499 167.247 26.0699 167.247 27.3098V27.8582ZM182.095 39.7804C181.73 40.0507 181.276 40.2573 180.736 40.4004C180.211 40.5276 179.655 40.5911 179.067 40.5911C177.541 40.5911 176.357 40.2017 175.514 39.4228C174.687 38.6438 174.274 37.4993 174.274 35.9892V30.7195H172.295V27.8582H174.274V24.7346H177.994V27.8582H181.189V30.7195H177.994V35.9415C177.994 36.482 178.129 36.9032 178.399 37.2052C178.685 37.4914 179.083 37.6344 179.591 37.6344C180.18 37.6344 180.68 37.4755 181.094 37.1575L182.095 39.7804ZM191.956 33.8432L189.715 36.1799V40.4004H185.876V23.7093H189.715V31.5064L197.107 23.7093H201.399L194.484 31.1487L201.804 40.4004H197.298L191.956 33.8432ZM204.462 27.5721H208.182V40.4004H204.462V27.5721ZM206.322 25.7837C205.638 25.7837 205.082 25.585 204.653 25.1876C204.224 24.7902 204.009 24.2974 204.009 23.7093C204.009 23.1211 204.224 22.6283 204.653 22.2309C205.082 21.8335 205.638 21.6348 206.322 21.6348C207.006 21.6348 207.562 21.8256 207.991 22.2071C208.42 22.5886 208.635 23.0655 208.635 23.6377C208.635 24.2577 208.42 24.7743 207.991 25.1876C207.562 25.585 207.006 25.7837 206.322 25.7837ZM221.339 39.7804C220.973 40.0507 220.52 40.2573 219.98 40.4004C219.455 40.5276 218.899 40.5911 218.311 40.5911C216.785 40.5911 215.6 40.2017 214.758 39.4228C213.931 38.6438 213.518 37.4993 213.518 35.9892V30.7195H211.539V27.8582H213.518V24.7346H217.238V27.8582H220.433V30.7195H217.238V35.9415C217.238 36.482 217.373 36.9032 217.643 37.2052C217.929 37.4914 218.326 37.6344 218.835 37.6344C219.423 37.6344 219.924 37.4755 220.337 37.1575L221.339 39.7804ZM246.108 22.7078V40.4004H242.555V38.922C241.633 40.0348 240.298 40.5911 238.549 40.5911C237.341 40.5911 236.244 40.3209 235.259 39.7804C234.289 39.24 233.526 38.469 232.97 37.4675C232.413 36.4661 232.135 35.3056 232.135 33.9862C232.135 32.6668 232.413 31.5064 232.97 30.5049C233.526 29.5035 234.289 28.7325 235.259 28.192C236.244 27.6516 237.341 27.3813 238.549 27.3813C240.186 27.3813 241.466 27.898 242.388 28.9312V22.7078H246.108ZM239.193 37.5391C240.131 37.5391 240.91 37.2211 241.53 36.5853C242.15 35.9335 242.46 35.0672 242.46 33.9862C242.46 32.9053 242.15 32.0469 241.53 31.411C240.91 30.7593 240.131 30.4334 239.193 30.4334C238.239 30.4334 237.452 30.7593 236.832 31.411C236.212 32.0469 235.902 32.9053 235.902 33.9862C235.902 35.0672 236.212 35.9335 236.832 36.5853C237.452 37.2211 238.239 37.5391 239.193 37.5391ZM263.547 34.0339C263.547 34.0816 263.523 34.4154 263.476 35.0354H253.771C253.946 35.8302 254.359 36.4581 255.011 36.9191C255.663 37.3801 256.473 37.6106 257.443 37.6106C258.111 37.6106 258.699 37.5152 259.208 37.3245C259.732 37.1178 260.217 36.7999 260.662 36.3707L262.641 38.5167C261.433 39.8997 259.669 40.5911 257.348 40.5911C255.901 40.5911 254.621 40.313 253.509 39.7566C252.396 39.1843 251.538 38.3975 250.933 37.396C250.329 36.3945 250.027 35.2579 250.027 33.9862C250.027 32.7304 250.321 31.6018 250.91 30.6003C251.514 29.583 252.332 28.7961 253.366 28.2397C254.415 27.6675 255.583 27.3813 256.871 27.3813C258.127 27.3813 259.263 27.6516 260.281 28.192C261.298 28.7325 262.093 29.5114 262.665 30.5288C263.253 31.5303 263.547 32.6986 263.547 34.0339ZM256.895 30.195C256.052 30.195 255.345 30.4334 254.772 30.9103C254.2 31.3872 253.85 32.0389 253.723 32.8655H260.042C259.915 32.0548 259.565 31.411 258.993 30.9341C258.421 30.4414 257.721 30.195 256.895 30.195ZM271.77 40.5911C270.705 40.5911 269.664 40.464 268.647 40.2096C267.629 39.9394 266.818 39.6056 266.214 39.2082L267.454 36.5376C268.027 36.9032 268.718 37.2052 269.529 37.4437C270.34 37.6662 271.134 37.7775 271.913 37.7775C273.487 37.7775 274.274 37.388 274.274 36.6091C274.274 36.2435 274.059 35.9812 273.63 35.8223C273.201 35.6633 272.541 35.5282 271.651 35.4169C270.602 35.2579 269.735 35.0751 269.052 34.8685C268.368 34.6618 267.772 34.2962 267.264 33.7716C266.771 33.2471 266.524 32.4999 266.524 31.5303C266.524 30.7195 266.755 30.0042 267.216 29.3843C267.693 28.7484 268.376 28.2556 269.267 27.9059C270.173 27.5562 271.238 27.3813 272.462 27.3813C273.368 27.3813 274.266 27.4846 275.156 27.6913C276.062 27.8821 276.809 28.1523 277.397 28.502L276.158 31.1487C275.029 30.5129 273.797 30.195 272.462 30.195C271.667 30.195 271.071 30.3062 270.673 30.5288C270.276 30.7513 270.077 31.0375 270.077 31.3872C270.077 31.7846 270.292 32.0628 270.721 32.2217C271.15 32.3807 271.834 32.5317 272.772 32.6748C273.821 32.8496 274.679 33.0404 275.347 33.2471C276.014 33.4378 276.595 33.7955 277.087 34.3201C277.58 34.8446 277.827 35.5759 277.827 36.5137C277.827 37.3086 277.588 38.0159 277.111 38.6359C276.634 39.2559 275.935 39.7407 275.013 40.0904C274.107 40.4242 273.026 40.5911 271.77 40.5911ZM281.552 27.5721H285.272V40.4004H281.552V27.5721ZM283.412 25.7837C282.729 25.7837 282.172 25.585 281.743 25.1876C281.314 24.7902 281.099 24.2974 281.099 23.7093C281.099 23.1211 281.314 22.6283 281.743 22.2309C282.172 21.8335 282.729 21.6348 283.412 21.6348C284.096 21.6348 284.652 21.8256 285.081 22.2071C285.511 22.5886 285.725 23.0655 285.725 23.6377C285.725 24.2577 285.511 24.7743 285.081 25.1876C284.652 25.585 284.096 25.7837 283.412 25.7837ZM303.389 27.5721V38.2544C303.389 40.607 302.777 42.3556 301.553 43.5002C300.329 44.6447 298.54 45.217 296.188 45.217C294.948 45.217 293.771 45.066 292.659 44.7639C291.546 44.4619 290.624 44.0247 289.893 43.4525L291.371 40.7819C291.912 41.227 292.595 41.5767 293.422 41.8311C294.248 42.1013 295.075 42.2364 295.902 42.2364C297.189 42.2364 298.135 41.9423 298.739 41.3542C299.359 40.7819 299.669 39.9076 299.669 38.7313V38.1829C298.699 39.2479 297.348 39.7804 295.615 39.7804C294.439 39.7804 293.358 39.5261 292.373 39.0174C291.403 38.4928 290.632 37.7616 290.06 36.8237C289.487 35.8858 289.201 34.8049 289.201 33.5809C289.201 32.3569 289.487 31.2759 290.06 30.338C290.632 29.4002 291.403 28.6769 292.373 28.1682C293.358 27.6436 294.439 27.3813 295.615 27.3813C297.475 27.3813 298.89 27.9933 299.86 29.2173V27.5721H303.389ZM296.355 36.7283C297.34 36.7283 298.143 36.4422 298.763 35.8699C299.399 35.2818 299.717 34.5188 299.717 33.5809C299.717 32.643 299.399 31.8879 298.763 31.3157C298.143 30.7275 297.34 30.4334 296.355 30.4334C295.369 30.4334 294.558 30.7275 293.922 31.3157C293.287 31.8879 292.969 32.643 292.969 33.5809C292.969 34.5188 293.287 35.2818 293.922 35.8699C294.558 36.4422 295.369 36.7283 296.355 36.7283ZM316.079 27.3813C317.668 27.3813 318.948 27.8582 319.918 28.812C320.903 29.7658 321.396 31.1805 321.396 33.0563V40.4004H317.676V33.6286C317.676 32.6112 317.454 31.8561 317.009 31.3633C316.563 30.8547 315.92 30.6003 315.077 30.6003C314.139 30.6003 313.392 30.8944 312.836 31.4826C312.279 32.0548 312.001 32.9132 312.001 34.0578V40.4004H308.281V27.5721H311.834V29.0743C312.327 28.5338 312.939 28.1205 313.67 27.8344C314.402 27.5323 315.204 27.3813 316.079 27.3813ZM325.721 23.7093H330.156L329.417 34.6062H326.461L325.721 23.7093ZM327.939 40.5911C327.287 40.5911 326.739 40.3845 326.294 39.9712C325.864 39.542 325.65 39.0254 325.65 38.4213C325.65 37.8172 325.864 37.3165 326.294 36.9191C326.723 36.5058 327.271 36.2991 327.939 36.2991C328.607 36.2991 329.155 36.5058 329.584 36.9191C330.013 37.3165 330.228 37.8172 330.228 38.4213C330.228 39.0254 330.005 39.542 329.56 39.9712C329.131 40.3845 328.591 40.5911 327.939 40.5911Z" fill="#1E1E20"/>
<path d="M20.978 91.9946H359.311" stroke="#C1C1C1" stroke-width="0.644444"/>
<path d="M91.9132 84.8074C91.377 84.8074 90.8958 84.6906 90.4696 84.4568C90.0503 84.2231 89.7203 83.8966 89.4797 83.4773C89.2391 83.0511 89.1188 82.5733 89.1188 82.044C89.1188 81.5147 89.2391 81.0404 89.4797 80.6211C89.7203 80.2018 90.0503 79.8753 90.4696 79.6415C90.8958 79.4078 91.377 79.291 91.9132 79.291C92.3806 79.291 92.7965 79.3838 93.1608 79.5694C93.532 79.7481 93.8241 80.0127 94.0372 80.3633L93.4908 80.7345C93.312 80.4664 93.0852 80.2671 92.8102 80.1365C92.5353 79.999 92.2362 79.9303 91.9132 79.9303C91.5213 79.9303 91.1673 80.0196 90.8511 80.1983C90.5418 80.3702 90.2977 80.6177 90.119 80.9407C89.9472 81.2638 89.8612 81.6316 89.8612 82.044C89.8612 82.4634 89.9472 82.8346 90.119 83.1576C90.2977 83.4738 90.5418 83.7213 90.8511 83.9C91.1673 84.0719 91.5213 84.1578 91.9132 84.1578C92.2362 84.1578 92.5353 84.0925 92.8102 83.9619C93.0852 83.8313 93.312 83.6319 93.4908 83.3639L94.0372 83.7351C93.8241 84.0856 93.532 84.3537 93.1608 84.5393C92.7896 84.7181 92.3737 84.8074 91.9132 84.8074ZM98.2203 84.8074C97.6979 84.8074 97.227 84.6906 96.8077 84.4568C96.3884 84.2162 96.0584 83.8863 95.8178 83.467C95.5773 83.0477 95.457 82.5733 95.457 82.044C95.457 81.5147 95.5773 81.0404 95.8178 80.6211C96.0584 80.2018 96.3884 79.8753 96.8077 79.6415C97.227 79.4078 97.6979 79.291 98.2203 79.291C98.7428 79.291 99.2136 79.4078 99.633 79.6415C100.052 79.8753 100.379 80.2018 100.613 80.6211C100.853 81.0404 100.973 81.5147 100.973 82.044C100.973 82.5733 100.853 83.0477 100.613 83.467C100.379 83.8863 100.052 84.2162 99.633 84.4568C99.2136 84.6906 98.7428 84.8074 98.2203 84.8074ZM98.2203 84.1578C98.6053 84.1578 98.949 84.0719 99.2514 83.9C99.5608 83.7213 99.8014 83.4704 99.9732 83.1473C100.145 82.8242 100.231 82.4565 100.231 82.044C100.231 81.6316 100.145 81.2638 99.9732 80.9407C99.8014 80.6177 99.5608 80.3702 99.2514 80.1983C98.949 80.0196 98.6053 79.9303 98.2203 79.9303C97.8354 79.9303 97.4882 80.0196 97.1789 80.1983C96.8765 80.3702 96.6359 80.6177 96.4571 80.9407C96.2853 81.2638 96.1994 81.6316 96.1994 82.044C96.1994 82.4565 96.2853 82.8242 96.4571 83.1473C96.6359 83.4704 96.8765 83.7213 97.1789 83.9C97.4882 84.0719 97.8354 84.1578 98.2203 84.1578ZM103.087 77.105H103.819V84.7559H103.087V77.105ZM108.691 84.8074C108.169 84.8074 107.698 84.6906 107.279 84.4568C106.859 84.2162 106.529 83.8863 106.289 83.467C106.048 83.0477 105.928 82.5733 105.928 82.044C105.928 81.5147 106.048 81.0404 106.289 80.6211C106.529 80.2018 106.859 79.8753 107.279 79.6415C107.698 79.4078 108.169 79.291 108.691 79.291C109.214 79.291 109.685 79.4078 110.104 79.6415C110.523 79.8753 110.85 80.2018 111.084 80.6211C111.324 81.0404 111.444 81.5147 111.444 82.044C111.444 82.5733 111.324 83.0477 111.084 83.467C110.85 83.8863 110.523 84.2162 110.104 84.4568C109.685 84.6906 109.214 84.8074 108.691 84.8074ZM108.691 84.1578C109.076 84.1578 109.42 84.0719 109.722 83.9C110.032 83.7213 110.272 83.4704 110.444 83.1473C110.616 82.8242 110.702 82.4565 110.702 82.044C110.702 81.6316 110.616 81.2638 110.444 80.9407C110.272 80.6177 110.032 80.3702 109.722 80.1983C109.42 80.0196 109.076 79.9303 108.691 79.9303C108.306 79.9303 107.959 80.0196 107.65 80.1983C107.347 80.3702 107.107 80.6177 106.928 80.9407C106.756 81.2638 106.67 81.6316 106.67 82.044C106.67 82.4565 106.756 82.8242 106.928 83.1473C107.107 83.4704 107.347 83.7213 107.65 83.9C107.959 84.0719 108.306 84.1578 108.691 84.1578ZM114.259 80.3943C114.431 80.0299 114.685 79.755 115.022 79.5694C115.366 79.3838 115.788 79.291 116.29 79.291V80.0024L116.115 79.9921C115.544 79.9921 115.097 80.1674 114.774 80.518C114.451 80.8686 114.29 81.3601 114.29 81.9925V84.7559H113.558V79.3322H114.259V80.3943ZM119.729 84.8074C119.289 84.8074 118.866 84.7455 118.46 84.6218C118.062 84.4912 117.749 84.3297 117.522 84.1372L117.852 83.5598C118.079 83.7385 118.364 83.8863 118.708 84.0031C119.051 84.1131 119.409 84.1681 119.78 84.1681C120.275 84.1681 120.639 84.0925 120.873 83.9413C121.114 83.7832 121.234 83.5632 121.234 83.2814C121.234 83.082 121.169 82.9274 121.038 82.8174C120.907 82.7005 120.742 82.6146 120.543 82.5596C120.344 82.4977 120.079 82.4393 119.749 82.3843C119.309 82.3018 118.955 82.2193 118.687 82.1368C118.419 82.0475 118.189 81.8997 117.996 81.6935C117.811 81.4872 117.718 81.202 117.718 80.8376C117.718 80.3839 117.907 80.0127 118.285 79.724C118.663 79.4353 119.189 79.291 119.863 79.291C120.213 79.291 120.564 79.3391 120.914 79.4353C121.265 79.5247 121.554 79.645 121.78 79.7962L121.461 80.3839C121.014 80.0746 120.481 79.9199 119.863 79.9199C119.395 79.9199 119.041 80.0024 118.801 80.1674C118.567 80.3324 118.45 80.5489 118.45 80.817C118.45 81.0232 118.515 81.1882 118.646 81.3119C118.783 81.4357 118.952 81.5285 119.151 81.5903C119.35 81.6453 119.625 81.7038 119.976 81.7656C120.409 81.8481 120.756 81.9306 121.017 82.0131C121.279 82.0956 121.502 82.2365 121.688 82.4359C121.873 82.6352 121.966 82.9102 121.966 83.2607C121.966 83.7351 121.767 84.1131 121.368 84.395C120.976 84.6699 120.43 84.8074 119.729 84.8074Z" fill="#4D4D4F"/>
<rect x="138.589" y="64.4443" width="34.1556" height="94.0889" fill="#121212"/>
<path d="M162.985 96.2171L164.474 96.4014L164.474 95.3948L164.864 95.3948L164.864 96.451L166.211 96.6141L166.211 96.9969L164.864 96.8338L164.864 98.2871L166.211 98.4572L166.211 98.84L164.864 98.677L164.864 99.6836L164.474 99.6836L164.474 98.6273L162.985 98.443L162.985 99.4567L162.596 99.4567L162.596 98.3934L161.249 98.2304L161.249 97.8405L162.596 98.0106L162.596 96.5503L161.249 96.3872L161.249 96.0044L162.596 96.1675L162.596 95.168L162.985 95.168L162.985 96.2171ZM162.985 96.5999L162.985 98.0531L164.474 98.2445L164.474 96.7842L162.985 96.5999ZM161.249 92.784L166.211 92.784L166.211 93.2944L161.702 93.2944L161.702 94.4641L161.249 94.4641L161.249 92.784ZM165.757 87.7841L166.211 87.7841L166.211 91.2647L165.849 91.2647L163.829 89.2018C163.574 88.9419 163.354 88.767 163.17 88.6773C162.981 88.5827 162.792 88.5355 162.603 88.5355C162.31 88.5355 162.083 88.6371 161.922 88.8403C161.757 89.0388 161.674 89.3247 161.674 89.6981C161.674 90.2793 161.858 90.7307 162.227 91.052L161.915 91.4136C161.688 91.2198 161.513 90.9741 161.39 90.6763C161.268 90.3739 161.206 90.0336 161.206 89.6555C161.206 89.1498 161.327 88.7505 161.568 88.4575C161.804 88.1598 162.13 88.0109 162.546 88.0109C162.801 88.0109 163.047 88.0676 163.283 88.181C163.52 88.2945 163.791 88.5095 164.098 88.8261L165.757 90.5133L165.757 87.7841ZM161.249 85.3429L166.211 85.3429L166.211 85.8533L161.702 85.8533L161.702 87.023L161.249 87.023L161.249 85.3429ZM165.757 80.3429L166.211 80.3429L166.211 83.8236L165.849 83.8236L163.829 81.7607C163.574 81.5008 163.354 81.3259 163.17 81.2361C162.981 81.1416 162.792 81.0944 162.603 81.0944C162.31 81.0944 162.083 81.196 161.922 81.3992C161.757 81.5977 161.674 81.8836 161.674 82.2569C161.674 82.8382 161.858 83.2895 162.227 83.6109L161.915 83.9724C161.688 83.7787 161.513 83.5329 161.39 83.2352C161.268 82.9327 161.206 82.5925 161.206 82.2144C161.206 81.7087 161.327 81.3094 161.568 81.0164C161.804 80.7186 162.13 80.5698 162.546 80.5698C162.801 80.5698 163.047 80.6265 163.283 80.7399C163.52 80.8533 163.791 81.0684 164.098 81.385L165.757 83.0722L165.757 80.3429ZM161.249 77.9018L166.211 77.9018L166.211 78.4122L161.702 78.4122L161.702 79.5819L161.249 79.5819L161.249 77.9018ZM165.757 72.9018L166.211 72.9018L166.211 76.3825L165.849 76.3825L163.829 74.3196C163.574 74.0597 163.354 73.8848 163.17 73.795C162.981 73.7005 162.792 73.6532 162.603 73.6532C162.31 73.6532 162.083 73.7548 161.922 73.9581C161.757 74.1565 161.674 74.4425 161.674 74.8158C161.674 75.3971 161.858 75.8484 162.227 76.1698L161.915 76.5313C161.688 76.3376 161.513 76.0918 161.39 75.7941C161.268 75.4916 161.206 75.1514 161.206 74.7733C161.206 74.2676 161.327 73.8683 161.568 73.5753C161.804 73.2775 162.13 73.1287 162.546 73.1287C162.801 73.1287 163.047 73.1854 163.283 73.2988C163.52 73.4122 163.791 73.6272 164.098 73.9439L165.757 75.631L165.757 72.9018Z" fill="white"/>
<rect x="184.344" y="64.4443" width="34.4778" height="94.0889" fill="#FDBCA7"/>
<path d="M208.741 107.009L210.23 107.194L210.23 106.187L210.62 106.187L210.62 107.243L211.967 107.406L211.967 107.789L210.62 107.626L210.62 109.079L211.967 109.249L211.967 109.632L210.62 109.469L210.62 110.476L210.23 110.476L210.23 109.42L208.741 109.235L208.741 110.249L208.351 110.249L208.351 109.186L207.005 109.023L207.005 108.633L208.351 108.803L208.351 107.342L207.005 107.179L207.005 106.797L208.351 106.96L208.351 105.96L208.741 105.96L208.741 107.009ZM208.741 107.392L208.741 108.845L210.23 109.037L210.23 107.576L208.741 107.392ZM207.458 103.987L209.408 103.987L209.408 101.421L209.861 101.421L209.861 103.987L211.967 103.987L211.967 104.512L207.005 104.512L207.005 101.109L207.458 101.109L207.458 103.987ZM207.005 99.6007L207.005 97.5803C207.005 97.0558 207.111 96.5926 207.324 96.1909C207.532 95.7892 207.825 95.4773 208.203 95.2552C208.576 95.0331 209.004 94.922 209.486 94.922C209.968 94.922 210.398 95.0331 210.776 95.2552C211.149 95.4773 211.442 95.7892 211.655 96.1909C211.863 96.5926 211.967 97.0558 211.967 97.5803L211.967 99.6007L207.005 99.6007ZM211.513 97.6087C211.513 97.1739 211.428 96.7935 211.258 96.4674C211.083 96.1413 210.844 95.8885 210.542 95.7089C210.235 95.5293 209.883 95.4395 209.486 95.4395C209.089 95.4395 208.739 95.5293 208.437 95.7089C208.129 95.8885 207.891 96.1413 207.721 96.4674C207.546 96.7935 207.458 97.1739 207.458 97.6087L207.458 99.0761L211.513 99.0761L211.513 97.6087ZM209.408 90.1925C209.479 89.8664 209.62 89.6159 209.833 89.4411C210.041 89.2615 210.31 89.1717 210.641 89.1717C211.067 89.1717 211.395 89.33 211.627 89.6467C211.853 89.9586 211.967 90.4217 211.967 91.0361L211.967 93.3187L207.005 93.3187L207.005 91.1779C207.005 90.6249 207.116 90.1972 207.338 89.8948C207.56 89.5876 207.874 89.434 208.281 89.434C208.555 89.434 208.789 89.5025 208.982 89.6396C209.171 89.7719 209.313 89.9562 209.408 90.1925ZM207.437 92.7941L209.238 92.7941L209.238 91.2133C209.238 90.8116 209.162 90.5021 209.011 90.2847C208.855 90.0673 208.63 89.9586 208.337 89.9586C208.044 89.9586 207.822 90.0673 207.671 90.2847C207.515 90.5021 207.437 90.8116 207.437 91.2133L207.437 92.7941ZM211.534 91.0432C211.534 90.5989 211.459 90.2634 211.308 90.0365C211.156 89.8097 210.92 89.6963 210.599 89.6963C209.98 89.6963 209.67 90.1452 209.67 91.0432L209.67 92.7941L211.534 92.7941L211.534 91.0432ZM212.009 85.394C212.009 85.8855 211.901 86.3297 211.683 86.7267C211.466 87.119 211.166 87.4285 210.783 87.6553C210.395 87.8775 209.963 87.9885 209.486 87.9885C209.008 87.9885 208.578 87.8775 208.196 87.6553C207.808 87.4285 207.506 87.1166 207.288 86.7196C207.071 86.3226 206.962 85.8784 206.962 85.3869C206.962 85.0183 207.023 84.678 207.146 84.3661C207.269 84.0542 207.449 83.7895 207.685 83.5721L208.018 83.9053C207.626 84.2928 207.43 84.782 207.43 85.3727C207.43 85.765 207.52 86.1218 207.699 86.4431C207.879 86.7645 208.125 87.0173 208.437 87.2017C208.748 87.3812 209.098 87.471 209.486 87.471C209.873 87.471 210.223 87.3812 210.535 87.2017C210.847 87.0173 211.092 86.7645 211.272 86.4431C211.452 86.1218 211.541 85.765 211.541 85.3727C211.541 84.7773 211.343 84.2881 210.946 83.9053L211.279 83.5721C211.515 83.7895 211.697 84.0566 211.825 84.3732C211.948 84.6851 212.009 85.0254 212.009 85.394ZM210.641 79.0411L210.641 81.8058L211.967 82.4013L211.967 82.9471L207.005 80.6787L207.005 80.1612L211.967 77.8927L211.967 78.4457L210.641 79.0411ZM210.216 79.2325L207.55 80.4235L210.216 81.6144L210.216 79.2325ZM207.005 73.9372L207.366 73.9372L211.967 76.0142L211.967 76.5672L207.458 74.5256L207.458 77.0776L208.387 77.0776L208.387 77.5809L207.005 77.5809L207.005 73.9372Z" fill="white"/>
<rect x="230.1" y="64.4443" width="34.4778" height="94.0889" fill="#EED480"/>
<path d="M254.497 105.883L255.986 106.067L255.986 105.061L256.376 105.061L256.376 106.117L257.723 106.28L257.723 106.663L256.376 106.5L256.376 107.953L257.723 108.123L257.723 108.506L256.376 108.343L256.376 109.35L255.986 109.35L255.986 108.293L254.497 108.109L254.497 109.123L254.107 109.123L254.107 108.059L252.76 107.896L252.76 107.506L254.107 107.677L254.107 106.216L252.76 106.053L252.76 105.67L254.107 105.834L254.107 104.834L254.497 104.834L254.497 105.883ZM254.497 106.266L254.497 107.719L255.986 107.911L255.986 106.45L254.497 106.266ZM257.269 99.8768L257.723 99.8768L257.723 103.386L252.76 103.386L252.76 99.9831L253.214 99.9831L253.214 102.861L254.979 102.861L254.979 100.295L255.426 100.295L255.426 102.861L257.269 102.861L257.269 99.8768ZM257.269 94.7094L257.723 94.7094L257.723 98.2184L252.76 98.2184L252.76 94.8157L253.214 94.8157L253.214 97.6938L254.979 97.6938L254.979 95.1276L255.426 95.1276L255.426 97.6938L257.269 97.6938L257.269 94.7094ZM252.76 93.051L252.76 91.0306C252.76 90.5061 252.867 90.0429 253.079 89.6412C253.287 89.2395 253.58 88.9276 253.958 88.7055C254.332 88.4834 254.759 88.3723 255.242 88.3723C255.724 88.3723 256.154 88.4834 256.532 88.7055C256.905 88.9276 257.198 89.2395 257.411 89.6412C257.619 90.0429 257.723 90.5061 257.723 91.0306L257.723 93.051L252.76 93.051ZM257.269 91.059C257.269 90.6242 257.184 90.2438 257.014 89.9177C256.839 89.5916 256.6 89.3388 256.298 89.1592C255.991 88.9796 255.639 88.8898 255.242 88.8898C254.845 88.8898 254.495 88.9796 254.192 89.1592C253.885 89.3388 253.647 89.5916 253.476 89.9177C253.302 90.2438 253.214 90.6242 253.214 91.059L253.214 92.5264L257.269 92.5264L257.269 91.059ZM256.418 82.9906L256.418 83.9831L257.723 83.9831L257.723 84.4935L256.418 84.4935L256.418 87.2936L256.05 87.2936L252.76 84.6636L252.76 84.0965L255.965 86.6343L255.965 84.4793L254.816 84.4793L254.816 83.9831L255.965 83.9831L255.965 82.9906L256.418 82.9906ZM255.121 79.1846C255.225 78.8727 255.381 78.634 255.589 78.4686C255.797 78.2985 256.047 78.2134 256.34 78.2134C256.629 78.2134 256.881 78.2914 257.099 78.4474C257.311 78.6033 257.477 78.8278 257.595 79.1208C257.708 79.4091 257.765 79.7493 257.765 80.1416C257.765 80.7371 257.638 81.2049 257.382 81.5452C257.127 81.8855 256.78 82.0556 256.34 82.0556C256.043 82.0556 255.792 81.9753 255.589 81.8146C255.381 81.6492 255.225 81.4105 255.121 81.0986C255.022 81.3538 254.88 81.5476 254.696 81.6799C254.507 81.8122 254.285 81.8784 254.029 81.8784C253.628 81.8784 253.309 81.7224 253.072 81.4105C252.836 81.0939 252.718 80.6709 252.718 80.1416C252.718 79.7919 252.772 79.4871 252.881 79.2271C252.985 78.9625 253.136 78.7569 253.335 78.6104C253.533 78.4639 253.765 78.3906 254.029 78.3906C254.285 78.3906 254.507 78.4592 254.696 78.5962C254.88 78.7333 255.022 78.9294 255.121 79.1846ZM254.044 81.368C254.318 81.368 254.535 81.2593 254.696 81.0419C254.856 80.8245 254.937 80.5244 254.937 80.1416C254.937 79.7588 254.856 79.4587 254.696 79.2413C254.535 79.0192 254.32 78.9081 254.051 78.9081C253.772 78.9081 253.552 79.0216 253.391 79.2484C253.231 79.4705 253.15 79.7683 253.15 80.1416C253.15 80.5197 253.231 80.8198 253.391 81.0419C253.552 81.2593 253.769 81.368 254.044 81.368ZM257.333 80.1416C257.333 79.7021 257.243 79.3595 257.063 79.1137C256.884 78.8632 256.64 78.738 256.333 78.738C256.026 78.738 255.785 78.8632 255.61 79.1137C255.431 79.3595 255.341 79.7021 255.341 80.1416C255.341 80.5764 255.431 80.919 255.61 81.1695C255.785 81.4152 256.026 81.5381 256.333 81.5381C256.645 81.5381 256.891 81.4152 257.07 81.1695C257.245 80.9237 257.333 80.5811 257.333 80.1416ZM257.765 75.1036C257.765 75.4864 257.664 75.829 257.46 76.1315C257.257 76.4292 256.967 76.6631 256.588 76.8333C256.206 76.9987 255.757 77.0814 255.242 77.0814C254.726 77.0814 254.28 76.9987 253.902 76.8333C253.519 76.6631 253.226 76.4292 253.023 76.1315C252.82 75.829 252.718 75.4864 252.718 75.1036C252.718 74.7208 252.82 74.3805 253.023 74.0828C253.226 73.7803 253.519 73.544 253.902 73.3739C254.28 73.2037 254.726 73.1187 255.242 73.1187C255.757 73.1187 256.206 73.2037 256.588 73.3739C256.967 73.544 257.257 73.7803 257.46 74.0828C257.664 74.3805 257.765 74.7208 257.765 75.1036ZM257.297 75.1036C257.297 74.8153 257.217 74.5624 257.056 74.3451C256.896 74.1229 256.662 73.9504 256.354 73.8276C256.047 73.7047 255.676 73.6433 255.242 73.6433C254.807 73.6433 254.436 73.7047 254.129 73.8276C253.821 73.9504 253.587 74.1229 253.427 74.3451C253.266 74.5624 253.186 74.8153 253.186 75.1036C253.186 75.3918 253.266 75.647 253.427 75.8692C253.587 76.0866 253.821 76.2567 254.129 76.3796C254.436 76.5024 254.807 76.5639 255.242 76.5639C255.676 76.5639 256.047 76.5024 256.354 76.3796C256.662 76.2567 256.896 76.0866 257.056 75.8692C257.217 75.647 257.297 75.3918 257.297 75.1036Z" fill="white"/>
<rect x="276.017" y="64.6054" width="33.8333" height="93.7667" fill="white" stroke="black" stroke-width="0.322222"/>
<path d="M300.252 90.7386L301.741 90.9229L301.741 89.9163L302.131 89.9163L302.131 90.9725L303.478 91.1356L303.478 91.5184L302.131 91.3553L302.131 92.8086L303.478 92.9787L303.478 93.3615L302.131 93.1984L302.131 94.2051L301.741 94.2051L301.741 93.1488L300.252 92.9645L300.252 93.9782L299.862 93.9782L299.862 92.9149L298.515 92.7518L298.515 92.362L299.862 92.5321L299.862 91.0718L298.515 90.9087L298.515 90.5259L299.862 90.689L299.862 89.6894L300.252 89.6894L300.252 90.7386ZM300.252 91.1214L300.252 92.5746L301.741 92.766L301.741 91.3057L300.252 91.1214ZM298.607 87.1141C298.607 87.3315 298.667 87.4969 298.785 87.6104C298.903 87.719 299.078 87.7734 299.309 87.7734L299.749 87.7734L299.749 86.625L300.174 86.625L300.174 87.7592L303.478 87.7592L303.478 88.2625L300.174 88.2625L300.174 88.9289L299.749 88.9289L299.749 88.2625L299.288 88.2625C298.948 88.2625 298.678 88.1656 298.48 87.9719C298.281 87.7734 298.182 87.4946 298.182 87.1354C298.182 86.9936 298.203 86.8566 298.246 86.7242C298.284 86.5919 298.34 86.4809 298.416 86.3911L298.792 86.5612C298.669 86.7077 298.607 86.892 298.607 87.1141ZM298.607 84.2866C298.607 84.504 298.667 84.6694 298.785 84.7828C298.903 84.8915 299.078 84.9459 299.309 84.9459L299.749 84.9459L299.749 83.7975L300.174 83.7975L300.174 84.9317L303.478 84.9317L303.478 85.435L300.174 85.435L300.174 86.1014L299.749 86.1014L299.749 85.435L299.288 85.435C298.948 85.435 298.678 85.3381 298.48 85.1444C298.281 84.9459 298.182 84.667 298.182 84.3079C298.182 84.1661 298.203 84.029 298.246 83.8967C298.284 83.7644 298.34 83.6533 298.416 83.5635L298.792 83.7337C298.669 83.8802 298.607 84.0645 298.607 84.2866ZM298.607 81.4591C298.607 81.6765 298.667 81.8419 298.785 81.9553C298.903 82.064 299.078 82.1183 299.309 82.1183L299.749 82.1183L299.749 80.9699L300.174 80.9699L300.174 82.1042L303.478 82.1042L303.478 82.6075L300.174 82.6075L300.174 83.2738L299.749 83.2738L299.749 82.6075L299.288 82.6075C298.948 82.6075 298.678 82.5106 298.48 82.3168C298.281 82.1183 298.182 81.8395 298.182 81.4803C298.182 81.3386 298.203 81.2015 298.246 81.0692C298.284 80.9369 298.34 80.8258 298.416 80.736L298.792 80.9061C298.669 81.0526 298.607 81.237 298.607 81.4591ZM298.607 78.6316C298.607 78.8489 298.667 79.0144 298.785 79.1278C298.903 79.2365 299.078 79.2908 299.309 79.2908L299.749 79.2908L299.749 78.1424L300.174 78.1424L300.174 79.2766L303.478 79.2766L303.478 79.78L300.174 79.78L300.174 80.4463L299.749 80.4463L299.749 79.78L299.288 79.78C298.948 79.78 298.678 79.6831 298.48 79.4893C298.281 79.2908 298.182 79.012 298.182 78.6528C298.182 78.511 298.203 78.374 298.246 78.2417C298.284 78.1093 298.34 77.9983 298.416 77.9085L298.792 78.0786C298.669 78.2251 298.607 78.4094 298.607 78.6316ZM298.607 75.804C298.607 76.0214 298.667 76.1868 298.785 76.3002C298.903 76.4089 299.078 76.4633 299.309 76.4633L299.749 76.4633L299.749 75.3149L300.174 75.3149L300.174 76.4491L303.478 76.4491L303.478 76.9524L300.174 76.9524L300.174 77.6188L299.749 77.6188L299.749 76.9524L299.288 76.9524C298.948 76.9524 298.678 76.8555 298.48 76.6618C298.281 76.4633 298.182 76.1845 298.182 75.8253C298.182 75.6835 298.203 75.5465 298.246 75.4141C298.284 75.2818 298.34 75.1708 298.416 75.081L298.792 75.2511C298.669 75.3976 298.607 75.5819 298.607 75.804ZM298.607 72.9765C298.607 73.1939 298.667 73.3593 298.785 73.4727C298.903 73.5814 299.078 73.6358 299.309 73.6358L299.749 73.6358L299.749 72.4874L300.174 72.4874L300.174 73.6216L303.478 73.6216L303.478 74.1249L300.174 74.1249L300.174 74.7913L299.749 74.7913L299.749 74.1249L299.288 74.1249C298.948 74.1249 298.678 74.028 298.48 73.8343C298.281 73.6358 298.182 73.3569 298.182 72.9978C298.182 72.856 298.203 72.7189 298.246 72.5866C298.284 72.4543 298.34 72.3432 298.416 72.2534L298.792 72.4236C298.669 72.5701 298.607 72.7544 298.607 72.9765Z" fill="#121212"/>
<path d="M26.6801 201.083H22.6587L21.7926 203.011H20.9986L24.2982 195.793H25.0509L28.3505 203.011H27.5462L26.6801 201.083ZM26.4017 200.464L24.6694 196.587L22.9371 200.464H26.4017Z" fill="#2B2B2D"/>
<path d="M37.978 199.289C38.4523 199.392 38.8167 199.598 39.071 199.908C39.3322 200.21 39.4628 200.602 39.4628 201.083C39.4628 201.702 39.2326 202.179 38.772 202.516C38.3183 202.846 37.6446 203.011 36.751 203.011H33.4308V195.793H36.5448C37.3491 195.793 37.9712 195.955 38.4111 196.278C38.8579 196.601 39.0813 197.058 39.0813 197.649C39.0813 198.048 38.9817 198.388 38.7823 198.67C38.5898 198.945 38.3217 199.151 37.978 199.289ZM34.1939 196.422V199.041H36.4932C37.0775 199.041 37.5278 198.931 37.844 198.711C38.1602 198.485 38.3183 198.158 38.3183 197.732C38.3183 197.306 38.1602 196.983 37.844 196.763C37.5278 196.536 37.0775 196.422 36.4932 196.422H34.1939ZM36.7407 202.382C37.3869 202.382 37.8749 202.272 38.2049 202.052C38.5348 201.832 38.6998 201.489 38.6998 201.021C38.6998 200.121 38.0468 199.67 36.7407 199.67H34.1939V202.382H36.7407Z" fill="#2B2B2D"/>
<path d="M48.4878 203.073C47.7729 203.073 47.1267 202.915 46.5493 202.599C45.9787 202.283 45.5285 201.846 45.1985 201.289C44.8755 200.726 44.7139 200.097 44.7139 199.402C44.7139 198.708 44.8755 198.083 45.1985 197.526C45.5285 196.962 45.9822 196.522 46.5596 196.206C47.137 195.89 47.7832 195.732 48.4981 195.732C49.0343 195.732 49.5292 195.821 49.9829 196C50.4366 196.178 50.8215 196.44 51.1377 196.783L50.6531 197.268C50.0894 196.697 49.378 196.412 48.5187 196.412C47.9482 196.412 47.4292 196.543 46.9617 196.804C46.4943 197.065 46.1265 197.423 45.8584 197.876C45.5972 198.33 45.4666 198.839 45.4666 199.402C45.4666 199.966 45.5972 200.475 45.8584 200.928C46.1265 201.382 46.4943 201.74 46.9617 202.001C47.4292 202.262 47.9482 202.393 48.5187 202.393C49.3848 202.393 50.0963 202.104 50.6531 201.526L51.1377 202.011C50.8215 202.355 50.4331 202.619 49.9726 202.805C49.5189 202.984 49.024 203.073 48.4878 203.073Z" fill="#2B2B2D"/>
<path d="M56.631 195.793H59.5697C60.3327 195.793 61.0064 195.948 61.5907 196.257C62.175 196.56 62.6287 196.986 62.9517 197.536C63.2748 198.079 63.4364 198.701 63.4364 199.402C63.4364 200.103 63.2748 200.729 62.9517 201.279C62.6287 201.822 62.175 202.248 61.5907 202.558C61.0064 202.86 60.3327 203.011 59.5697 203.011H56.631V195.793ZM59.5285 202.351C60.1609 202.351 60.7142 202.228 61.1885 201.98C61.6629 201.726 62.0306 201.379 62.2918 200.939C62.553 200.492 62.6837 199.98 62.6837 199.402C62.6837 198.825 62.553 198.316 62.2918 197.876C62.0306 197.429 61.6629 197.082 61.1885 196.835C60.7142 196.581 60.1609 196.453 59.5285 196.453H57.3941V202.351H59.5285Z" fill="#2B2B2D"/>
<path d="M74.3014 202.351V203.011H69.1974V195.793H74.1468V196.453H69.9605V199.021H73.6931V199.67H69.9605V202.351H74.3014Z" fill="#2B2B2D"/>
<path d="M80.916 196.453V199.289H84.6487V199.949H80.916V203.011H80.153V195.793H85.1023V196.453H80.916Z" fill="#2B2B2D"/>
<path d="M95.8697 199.402H96.6018V202.155C96.2649 202.451 95.8662 202.678 95.4057 202.836C94.9451 202.994 94.4605 203.073 93.9518 203.073C93.23 203.073 92.5804 202.915 92.003 202.599C91.4256 202.283 90.9719 201.846 90.642 201.289C90.312 200.726 90.147 200.097 90.147 199.402C90.147 198.708 90.312 198.083 90.642 197.526C90.9719 196.962 91.4256 196.522 92.003 196.206C92.5804 195.89 93.2335 195.732 93.9621 195.732C94.5121 195.732 95.0173 195.821 95.4779 196C95.9384 196.172 96.3268 196.429 96.643 196.773L96.1687 197.258C95.5982 196.694 94.8729 196.412 93.9931 196.412C93.4088 196.412 92.8795 196.543 92.4052 196.804C91.9377 197.058 91.57 197.416 91.3019 197.876C91.0338 198.33 90.8997 198.839 90.8997 199.402C90.8997 199.966 91.0338 200.475 91.3019 200.928C91.57 201.382 91.9377 201.74 92.4052 202.001C92.8726 202.262 93.3985 202.393 93.9828 202.393C94.7252 202.393 95.3541 202.207 95.8697 201.836V199.402Z" fill="#2B2B2D"/>
<path d="M108.741 195.793V203.011H107.988V199.681H103.472V203.011H102.709V195.793H103.472V199.011H107.988V195.793H108.741Z" fill="#2B2B2D"/>
<path d="M115.276 195.793H116.039V203.011H115.276V195.793Z" fill="#2B2B2D"/>
<path d="M123.138 203.073C122.725 203.073 122.344 202.984 121.993 202.805C121.643 202.626 121.357 202.372 121.137 202.042L121.591 201.526C121.99 202.118 122.509 202.413 123.148 202.413C124.042 202.413 124.489 201.884 124.489 200.825V196.453H121.849V195.793H125.241V200.794C125.241 201.55 125.063 202.121 124.705 202.506C124.354 202.884 123.832 203.073 123.138 203.073Z" fill="#2B2B2D"/>
<path d="M133.946 199.619L132.472 201.114V203.011H131.709V195.793H132.472V200.155L136.71 195.793H137.586L134.462 199.062L137.803 203.011H136.895L133.946 199.619Z" fill="#2B2B2D"/>
<path d="M142.987 195.793H143.75V202.351H147.792V203.011H142.987V195.793Z" fill="#2B2B2D"/>
<path d="M160.471 195.793V203.011H159.739V197.237L156.904 202.094H156.543L153.707 197.268V203.011H152.975V195.793H153.604L156.739 201.145L159.842 195.793H160.471Z" fill="#2B2B2D"/>
<path d="M172.863 195.793V203.011H172.234L167.594 197.155V203.011H166.831V195.793H167.46L172.111 201.65V195.793H172.863Z" fill="#2B2B2D"/>
<path d="M182.553 203.073C181.838 203.073 181.189 202.915 180.605 202.599C180.027 202.276 179.573 201.836 179.243 201.279C178.92 200.722 178.759 200.097 178.759 199.402C178.759 198.708 178.92 198.083 179.243 197.526C179.573 196.969 180.027 196.532 180.605 196.216C181.189 195.893 181.838 195.732 182.553 195.732C183.268 195.732 183.911 195.89 184.482 196.206C185.059 196.522 185.513 196.962 185.843 197.526C186.173 198.083 186.338 198.708 186.338 199.402C186.338 200.097 186.173 200.726 185.843 201.289C185.513 201.846 185.059 202.283 184.482 202.599C183.911 202.915 183.268 203.073 182.553 203.073ZM182.553 202.393C183.124 202.393 183.639 202.265 184.1 202.011C184.561 201.75 184.921 201.392 185.183 200.939C185.444 200.478 185.574 199.966 185.574 199.402C185.574 198.839 185.444 198.33 185.183 197.876C184.921 197.416 184.561 197.058 184.1 196.804C183.639 196.543 183.124 196.412 182.553 196.412C181.983 196.412 181.464 196.543 180.996 196.804C180.536 197.058 180.171 197.416 179.903 197.876C179.642 198.33 179.512 198.839 179.512 199.402C179.512 199.966 179.642 200.478 179.903 200.939C180.171 201.392 180.536 201.75 180.996 202.011C181.464 202.265 181.983 202.393 182.553 202.393Z" fill="#2B2B2D"/>
<path d="M194.666 195.793C195.587 195.793 196.308 196.013 196.831 196.453C197.353 196.893 197.615 197.498 197.615 198.268C197.615 199.038 197.353 199.643 196.831 200.083C196.308 200.516 195.587 200.732 194.666 200.732H192.727V203.011H191.964V195.793H194.666ZM194.645 200.062C195.36 200.062 195.906 199.908 196.284 199.598C196.662 199.282 196.852 198.839 196.852 198.268C196.852 197.684 196.662 197.237 196.284 196.928C195.906 196.611 195.36 196.453 194.645 196.453H192.727V200.062H194.645Z" fill="#2B2B2D"/>
<path d="M210.512 203.62C210.292 203.888 210.031 204.09 209.728 204.228C209.432 204.372 209.109 204.444 208.759 204.444C208.333 204.444 207.927 204.338 207.542 204.125C207.164 203.919 206.738 203.568 206.264 203.073C205.569 203.052 204.944 202.881 204.387 202.558C203.83 202.234 203.394 201.798 203.077 201.248C202.761 200.698 202.603 200.083 202.603 199.402C202.603 198.708 202.765 198.083 203.088 197.526C203.418 196.969 203.871 196.532 204.449 196.216C205.033 195.893 205.683 195.732 206.398 195.732C207.112 195.732 207.755 195.89 208.326 196.206C208.903 196.522 209.357 196.962 209.687 197.526C210.017 198.083 210.182 198.708 210.182 199.402C210.182 200.007 210.055 200.564 209.8 201.073C209.553 201.575 209.202 201.994 208.748 202.331C208.302 202.668 207.786 202.891 207.202 203.001C207.731 203.558 208.254 203.836 208.769 203.836C209.305 203.836 209.762 203.616 210.14 203.176L210.512 203.62ZM203.356 199.402C203.356 199.966 203.486 200.475 203.748 200.928C204.016 201.382 204.38 201.74 204.841 202.001C205.308 202.262 205.827 202.393 206.398 202.393C206.968 202.393 207.484 202.262 207.944 202.001C208.405 201.74 208.766 201.382 209.027 200.928C209.288 200.475 209.419 199.966 209.419 199.402C209.419 198.839 209.288 198.33 209.027 197.876C208.766 197.423 208.405 197.065 207.944 196.804C207.484 196.543 206.968 196.412 206.398 196.412C205.827 196.412 205.308 196.543 204.841 196.804C204.38 197.065 204.016 197.423 203.748 197.876C203.486 198.33 203.356 198.839 203.356 199.402Z" fill="#2B2B2D"/>
<path d="M220.737 203.011L219.088 200.691C218.902 200.712 218.71 200.722 218.51 200.722H216.572V203.011H215.809V195.793H218.51C219.431 195.793 220.153 196.013 220.676 196.453C221.198 196.893 221.459 197.498 221.459 198.268C221.459 198.832 221.315 199.31 221.026 199.701C220.744 200.086 220.339 200.365 219.809 200.537L221.573 203.011H220.737ZM218.49 200.073C219.205 200.073 219.751 199.914 220.129 199.598C220.507 199.282 220.696 198.839 220.696 198.268C220.696 197.684 220.507 197.237 220.129 196.928C219.751 196.611 219.205 196.453 218.49 196.453H216.572V200.073H218.49Z" fill="#2B2B2D"/>
<path d="M229.399 203.073C228.863 203.073 228.347 202.987 227.852 202.815C227.364 202.643 226.986 202.417 226.718 202.135L227.017 201.547C227.278 201.808 227.625 202.021 228.058 202.186C228.492 202.344 228.938 202.423 229.399 202.423C230.045 202.423 230.53 202.307 230.853 202.073C231.176 201.832 231.337 201.523 231.337 201.145C231.337 200.856 231.248 200.626 231.069 200.454C230.897 200.282 230.684 200.152 230.43 200.062C230.176 199.966 229.822 199.863 229.368 199.753C228.825 199.615 228.392 199.485 228.069 199.361C227.746 199.23 227.467 199.035 227.234 198.773C227.007 198.512 226.893 198.158 226.893 197.711C226.893 197.347 226.99 197.017 227.182 196.721C227.374 196.419 227.67 196.178 228.069 196C228.467 195.821 228.962 195.732 229.554 195.732C229.966 195.732 230.368 195.79 230.76 195.907C231.159 196.017 231.502 196.172 231.791 196.371L231.533 196.979C231.231 196.78 230.908 196.632 230.564 196.536C230.22 196.433 229.884 196.381 229.554 196.381C228.921 196.381 228.443 196.505 228.12 196.752C227.804 196.993 227.646 197.306 227.646 197.691C227.646 197.979 227.732 198.213 227.904 198.392C228.083 198.564 228.302 198.698 228.564 198.794C228.832 198.883 229.189 198.983 229.636 199.093C230.165 199.224 230.592 199.354 230.915 199.485C231.245 199.609 231.523 199.801 231.75 200.062C231.977 200.317 232.09 200.664 232.09 201.104C232.09 201.468 231.99 201.801 231.791 202.104C231.599 202.399 231.3 202.637 230.894 202.815C230.488 202.987 229.99 203.073 229.399 203.073Z" fill="#2B2B2D"/>
<path d="M239.122 196.453H236.586V195.793H242.422V196.453H239.885V203.011H239.122V196.453Z" fill="#2B2B2D"/>
<path d="M250.616 203.073C249.682 203.073 248.953 202.805 248.43 202.269C247.908 201.733 247.647 200.952 247.647 199.928V195.793H248.41V199.897C248.41 200.736 248.599 201.361 248.977 201.774C249.355 202.186 249.901 202.393 250.616 202.393C251.338 202.393 251.888 202.186 252.266 201.774C252.644 201.361 252.833 200.736 252.833 199.897V195.793H253.576V199.928C253.576 200.952 253.314 201.733 252.792 202.269C252.276 202.805 251.551 203.073 250.616 203.073Z" fill="#2B2B2D"/>
<path d="M265.954 195.793L262.758 203.011H262.005L258.809 195.793H259.634L262.397 202.063L265.181 195.793H265.954Z" fill="#2B2B2D"/>
<path d="M281.14 195.793L278.707 203.011H277.902L275.789 196.855L273.665 203.011H272.871L270.437 195.793H271.221L273.304 202.001L275.459 195.793H276.17L278.294 202.032L280.408 195.793H281.14Z" fill="#2B2B2D"/>
<path d="M291.224 203.011L288.894 199.835L286.574 203.011H285.698L288.44 199.299L285.873 195.793H286.749L288.925 198.742L291.09 195.793H291.915L289.358 199.279L292.111 203.011H291.224Z" fill="#2B2B2D"/>
<path d="M299.806 200.516V203.011H299.053V200.516L296.166 195.793H296.98L299.455 199.846L301.93 195.793H302.693L299.806 200.516Z" fill="#2B2B2D"/>
<path d="M313.171 202.351V203.011H307.253V202.485L312.037 196.453H307.325V195.793H313.048V196.319L308.274 202.351H313.171Z" fill="#2B2B2D"/>
<path d="M23.8961 212.046C24.6041 212.046 25.1472 212.225 25.5252 212.583C25.9033 212.933 26.0923 213.456 26.0923 214.15V217.511H25.3912V216.666C25.2262 216.948 24.9822 217.168 24.6591 217.326C24.3429 217.484 23.9648 217.563 23.5249 217.563C22.92 217.563 22.4388 217.418 22.0813 217.13C21.7239 216.841 21.5451 216.459 21.5451 215.985C21.5451 215.525 21.7101 215.153 22.0401 214.872C22.3769 214.59 22.9096 214.449 23.6383 214.449H25.3602V214.119C25.3602 213.651 25.2296 213.297 24.9684 213.057C24.7072 212.809 24.3257 212.686 23.8239 212.686C23.4802 212.686 23.1502 212.744 22.834 212.861C22.5178 212.971 22.2463 213.126 22.0194 213.325L21.6895 212.778C21.9645 212.545 22.2944 212.366 22.6794 212.242C23.0643 212.112 23.4699 212.046 23.8961 212.046ZM23.6383 216.985C24.0507 216.985 24.4048 216.893 24.7003 216.707C24.9959 216.514 25.2159 216.24 25.3602 215.882V214.995H23.6589C22.7309 214.995 22.2669 215.318 22.2669 215.965C22.2669 216.281 22.3872 216.532 22.6278 216.717C22.8684 216.896 23.2052 216.985 23.6383 216.985Z" fill="#2B2B2D"/>
<path d="M33.8151 212.046C34.3238 212.046 34.7844 212.163 35.1968 212.397C35.6092 212.624 35.9323 212.947 36.166 213.366C36.3998 213.785 36.5166 214.263 36.5166 214.799C36.5166 215.336 36.3998 215.813 36.166 216.233C35.9323 216.652 35.6092 216.978 35.1968 217.212C34.7844 217.446 34.3238 217.563 33.8151 217.563C33.3614 217.563 32.9524 217.467 32.5881 217.274C32.2306 217.082 31.9419 216.803 31.722 216.439V217.511H31.0208V209.86H31.7529V213.119C31.9797 212.768 32.2684 212.503 32.619 212.325C32.9765 212.139 33.3752 212.046 33.8151 212.046ZM33.7636 216.913C34.1416 216.913 34.4853 216.827 34.7947 216.655C35.104 216.477 35.3446 216.226 35.5164 215.903C35.6952 215.58 35.7845 215.212 35.7845 214.799C35.7845 214.387 35.6952 214.019 35.5164 213.696C35.3446 213.373 35.104 213.126 34.7947 212.954C34.4853 212.775 34.1416 212.686 33.7636 212.686C33.3786 212.686 33.0315 212.775 32.7221 212.954C32.4197 213.126 32.1791 213.373 32.0004 213.696C31.8285 214.019 31.7426 214.387 31.7426 214.799C31.7426 215.212 31.8285 215.58 32.0004 215.903C32.1791 216.226 32.4197 216.477 32.7221 216.655C33.0315 216.827 33.3786 216.913 33.7636 216.913Z" fill="#2B2B2D"/>
<path d="M43.2574 217.563C42.7212 217.563 42.24 217.446 41.8138 217.212C41.3945 216.978 41.0646 216.652 40.824 216.233C40.5834 215.806 40.4631 215.329 40.4631 214.799C40.4631 214.27 40.5834 213.796 40.824 213.376C41.0646 212.957 41.3945 212.631 41.8138 212.397C42.24 212.163 42.7212 212.046 43.2574 212.046C43.7248 212.046 44.1407 212.139 44.505 212.325C44.8762 212.503 45.1684 212.768 45.3815 213.119L44.835 213.49C44.6563 213.222 44.4294 213.022 44.1545 212.892C43.8795 212.754 43.5805 212.686 43.2574 212.686C42.8656 212.686 42.5116 212.775 42.1953 212.954C41.886 213.126 41.642 213.373 41.4633 213.696C41.2914 214.019 41.2055 214.387 41.2055 214.799C41.2055 215.219 41.2914 215.59 41.4633 215.913C41.642 216.229 41.886 216.477 42.1953 216.655C42.5116 216.827 42.8656 216.913 43.2574 216.913C43.5805 216.913 43.8795 216.848 44.1545 216.717C44.4294 216.587 44.6563 216.387 44.835 216.119L45.3815 216.49C45.1684 216.841 44.8762 217.109 44.505 217.295C44.1338 217.473 43.718 217.563 43.2574 217.563Z" fill="#2B2B2D"/>
<path d="M54.9814 209.86V217.511H54.2802V216.439C54.0602 216.803 53.7681 217.082 53.4038 217.274C53.0463 217.467 52.6407 217.563 52.1871 217.563C51.6784 217.563 51.2178 217.446 50.8054 217.212C50.3929 216.978 50.0698 216.652 49.8361 216.233C49.6024 215.813 49.4855 215.336 49.4855 214.799C49.4855 214.263 49.6024 213.785 49.8361 213.366C50.0698 212.947 50.3929 212.624 50.8054 212.397C51.2178 212.163 51.6784 212.046 52.1871 212.046C52.627 212.046 53.0223 212.139 53.3728 212.325C53.7303 212.503 54.0224 212.768 54.2493 213.119V209.86H54.9814ZM52.2489 216.913C52.627 216.913 52.9673 216.827 53.2697 216.655C53.5791 216.477 53.8196 216.226 53.9915 215.903C54.1702 215.58 54.2596 215.212 54.2596 214.799C54.2596 214.387 54.1702 214.019 53.9915 213.696C53.8196 213.373 53.5791 213.126 53.2697 212.954C52.9673 212.775 52.627 212.686 52.2489 212.686C51.864 212.686 51.5168 212.775 51.2075 212.954C50.905 213.126 50.6644 213.373 50.4857 213.696C50.3139 214.019 50.2279 214.387 50.2279 214.799C50.2279 215.212 50.3139 215.58 50.4857 215.903C50.6644 216.226 50.905 216.477 51.2075 216.655C51.5168 216.827 51.864 216.913 52.2489 216.913Z" fill="#2B2B2D"/>
<path d="M64.7433 215.026H60.2064C60.2476 215.59 60.4642 216.047 60.856 216.398C61.2478 216.741 61.7428 216.913 62.3408 216.913C62.6776 216.913 62.987 216.855 63.2688 216.738C63.5506 216.614 63.7947 216.435 64.0009 216.202L64.4133 216.676C64.1727 216.965 63.8703 217.185 63.506 217.336C63.1485 217.487 62.7532 217.563 62.3202 217.563C61.7634 217.563 61.2684 217.446 60.8354 217.212C60.4092 216.972 60.0758 216.642 59.8352 216.222C59.5946 215.803 59.4743 215.329 59.4743 214.799C59.4743 214.27 59.5877 213.796 59.8146 213.376C60.0483 212.957 60.3645 212.631 60.7632 212.397C61.1688 212.163 61.6225 212.046 62.1243 212.046C62.6261 212.046 63.0763 212.163 63.475 212.397C63.8737 212.631 64.1865 212.957 64.4133 213.376C64.6402 213.789 64.7536 214.263 64.7536 214.799L64.7433 215.026ZM62.1243 212.675C61.6018 212.675 61.1619 212.844 60.8044 213.181C60.4539 213.511 60.2545 213.944 60.2064 214.48H64.0524C64.0043 213.944 63.8015 213.511 63.4441 213.181C63.0935 212.844 62.6536 212.675 62.1243 212.675Z" fill="#2B2B2D"/>
<path d="M71.1592 210.427C70.843 210.427 70.6024 210.513 70.4374 210.685C70.2793 210.857 70.2002 211.111 70.2002 211.448V212.088H71.8706V212.706H70.2209V217.511H69.4888V212.706H68.5195V212.088H69.4888V211.417C69.4888 210.922 69.6297 210.531 69.9115 210.242C70.2002 209.953 70.6058 209.809 71.1282 209.809C71.3345 209.809 71.5338 209.84 71.7263 209.902C71.9188 209.957 72.0803 210.039 72.2109 210.149L71.9634 210.696C71.7503 210.517 71.4823 210.427 71.1592 210.427Z" fill="#2B2B2D"/>
<path d="M80.8314 212.088V216.851C80.8314 217.772 80.6045 218.453 80.1508 218.893C79.704 219.34 79.0269 219.563 78.1196 219.563C77.6177 219.563 77.14 219.488 76.6863 219.336C76.2395 219.192 75.8752 218.989 75.5933 218.728L75.9645 218.171C76.2257 218.405 76.542 218.587 76.9132 218.718C77.2912 218.848 77.6865 218.914 78.0989 218.914C78.7863 218.914 79.2916 218.752 79.6147 218.429C79.9377 218.113 80.0993 217.618 80.0993 216.944V216.253C79.8724 216.597 79.5734 216.858 79.2022 217.037C78.8379 217.216 78.4323 217.305 77.9855 217.305C77.4768 217.305 77.0128 217.195 76.5935 216.975C76.1811 216.748 75.8545 216.435 75.614 216.037C75.3802 215.631 75.2634 215.174 75.2634 214.665C75.2634 214.157 75.3802 213.703 75.614 213.304C75.8545 212.906 76.1811 212.596 76.5935 212.376C77.006 212.156 77.47 212.046 77.9855 212.046C78.4461 212.046 78.862 212.139 79.2332 212.325C79.6044 212.51 79.9034 212.778 80.1302 213.129V212.088H80.8314ZM78.0577 216.655C78.4495 216.655 78.8035 216.573 79.1197 216.408C79.4359 216.236 79.68 215.999 79.8518 215.696C80.0305 215.394 80.1199 215.05 80.1199 214.665C80.1199 214.28 80.0305 213.94 79.8518 213.645C79.68 213.342 79.4359 213.108 79.1197 212.943C78.8104 212.772 78.4564 212.686 78.0577 212.686C77.6659 212.686 77.3118 212.768 76.9956 212.933C76.6863 213.098 76.4423 213.332 76.2636 213.634C76.0917 213.937 76.0058 214.28 76.0058 214.665C76.0058 215.05 76.0917 215.394 76.2636 215.696C76.4423 215.999 76.6863 216.236 76.9956 216.408C77.3118 216.573 77.6659 216.655 78.0577 216.655Z" fill="#2B2B2D"/>
<path d="M88.5615 212.046C89.2421 212.046 89.7817 212.246 90.1804 212.644C90.5859 213.036 90.7887 213.61 90.7887 214.366V217.511H90.0566V214.439C90.0566 213.875 89.9157 213.445 89.6339 213.15C89.352 212.854 88.9499 212.706 88.4275 212.706C87.8432 212.706 87.3792 212.882 87.0355 213.232C86.6986 213.576 86.5302 214.054 86.5302 214.665V217.511H85.7981V209.86H86.5302V213.036C86.7296 212.72 87.0045 212.476 87.3551 212.304C87.7057 212.132 88.1078 212.046 88.5615 212.046Z" fill="#2B2B2D"/>
<path d="M95.7874 212.088H96.5195V217.511H95.7874V212.088ZM96.1586 210.902C96.0074 210.902 95.8802 210.85 95.7771 210.747C95.674 210.644 95.6224 210.52 95.6224 210.376C95.6224 210.238 95.674 210.118 95.7771 210.015C95.8802 209.912 96.0074 209.86 96.1586 209.86C96.3098 209.86 96.437 209.912 96.5401 210.015C96.6432 210.111 96.6948 210.228 96.6948 210.366C96.6948 210.517 96.6432 210.644 96.5401 210.747C96.437 210.85 96.3098 210.902 96.1586 210.902Z" fill="#2B2B2D"/>
<path d="M100.783 219.563C100.557 219.563 100.343 219.532 100.144 219.47C99.9379 219.415 99.7695 219.329 99.6389 219.213L99.8967 218.656C100.11 218.841 100.392 218.934 100.742 218.934C101.031 218.934 101.251 218.848 101.402 218.676C101.56 218.505 101.639 218.25 101.639 217.913V212.088H102.371V217.913C102.371 218.422 102.234 218.824 101.959 219.12C101.684 219.415 101.292 219.563 100.783 219.563ZM102.01 210.891C101.859 210.891 101.732 210.84 101.629 210.737C101.526 210.634 101.474 210.51 101.474 210.366C101.474 210.228 101.526 210.108 101.629 210.005C101.732 209.902 101.859 209.85 102.01 209.85C102.162 209.85 102.289 209.902 102.392 210.005C102.495 210.101 102.547 210.218 102.547 210.355C102.547 210.507 102.495 210.634 102.392 210.737C102.289 210.84 102.162 210.891 102.01 210.891Z" fill="#2B2B2D"/>
<path d="M109.398 214.789L108.12 215.965V217.511H107.387V209.86H108.12V215.047L111.357 212.088H112.265L109.945 214.304L112.481 217.511H111.584L109.398 214.789Z" fill="#2B2B2D"/>
<path d="M116.732 209.86H117.464V217.511H116.732V209.86Z" fill="#2B2B2D"/>
<path d="M129.296 212.046C129.977 212.046 130.509 212.242 130.894 212.634C131.286 213.026 131.482 213.603 131.482 214.366V217.511H130.75V214.439C130.75 213.875 130.613 213.445 130.338 213.15C130.069 212.854 129.688 212.706 129.193 212.706C128.629 212.706 128.186 212.882 127.863 213.232C127.54 213.576 127.378 214.054 127.378 214.665V217.511H126.646V214.439C126.646 213.875 126.509 213.445 126.234 213.15C125.966 212.854 125.581 212.706 125.079 212.706C124.522 212.706 124.079 212.882 123.749 213.232C123.426 213.576 123.264 214.054 123.264 214.665V217.511H122.532V212.088H123.233V213.077C123.426 212.747 123.694 212.493 124.037 212.314C124.381 212.136 124.776 212.046 125.223 212.046C125.677 212.046 126.069 212.143 126.399 212.335C126.736 212.528 126.986 212.813 127.151 213.191C127.351 212.833 127.636 212.555 128.007 212.356C128.385 212.149 128.815 212.046 129.296 212.046Z" fill="#2B2B2D"/>
<path d="M139.151 212.046C139.831 212.046 140.371 212.246 140.77 212.644C141.175 213.036 141.378 213.61 141.378 214.366V217.511H140.646V214.439C140.646 213.875 140.505 213.445 140.223 213.15C139.941 212.854 139.539 212.706 139.017 212.706C138.433 212.706 137.969 212.882 137.625 213.232C137.288 213.576 137.12 214.054 137.12 214.665V217.511H136.387V212.088H137.089V213.088C137.288 212.758 137.563 212.503 137.914 212.325C138.271 212.139 138.683 212.046 139.151 212.046Z" fill="#2B2B2D"/>
<path d="M148.593 217.563C148.071 217.563 147.6 217.446 147.181 217.212C146.761 216.972 146.431 216.642 146.191 216.222C145.95 215.803 145.83 215.329 145.83 214.799C145.83 214.27 145.95 213.796 146.191 213.376C146.431 212.957 146.761 212.631 147.181 212.397C147.6 212.163 148.071 212.046 148.593 212.046C149.116 212.046 149.586 212.163 150.006 212.397C150.425 212.631 150.752 212.957 150.985 213.376C151.226 213.796 151.346 214.27 151.346 214.799C151.346 215.329 151.226 215.803 150.985 216.222C150.752 216.642 150.425 216.972 150.006 217.212C149.586 217.446 149.116 217.563 148.593 217.563ZM148.593 216.913C148.978 216.913 149.322 216.827 149.624 216.655C149.934 216.477 150.174 216.226 150.346 215.903C150.518 215.58 150.604 215.212 150.604 214.799C150.604 214.387 150.518 214.019 150.346 213.696C150.174 213.373 149.934 213.126 149.624 212.954C149.322 212.775 148.978 212.686 148.593 212.686C148.208 212.686 147.861 212.775 147.552 212.954C147.249 213.126 147.009 213.373 146.83 213.696C146.658 214.019 146.572 214.387 146.572 214.799C146.572 215.212 146.658 215.58 146.83 215.903C147.009 216.226 147.249 216.477 147.552 216.655C147.861 216.827 148.208 216.913 148.593 216.913Z" fill="#2B2B2D"/>
<path d="M158.838 212.046C159.346 212.046 159.807 212.163 160.219 212.397C160.632 212.624 160.955 212.947 161.189 213.366C161.422 213.785 161.539 214.263 161.539 214.799C161.539 215.342 161.422 215.824 161.189 216.243C160.955 216.662 160.632 216.989 160.219 217.223C159.814 217.449 159.353 217.563 158.838 217.563C158.398 217.563 157.999 217.473 157.641 217.295C157.291 217.109 157.002 216.841 156.775 216.49V219.512H156.043V212.088H156.744V213.16C156.964 212.802 157.253 212.528 157.611 212.335C157.975 212.143 158.384 212.046 158.838 212.046ZM158.786 216.913C159.164 216.913 159.508 216.827 159.817 216.655C160.126 216.477 160.367 216.226 160.539 215.903C160.718 215.58 160.807 215.212 160.807 214.799C160.807 214.387 160.718 214.023 160.539 213.706C160.367 213.383 160.126 213.132 159.817 212.954C159.508 212.775 159.164 212.686 158.786 212.686C158.401 212.686 158.054 212.775 157.745 212.954C157.442 213.132 157.202 213.383 157.023 213.706C156.851 214.023 156.765 214.387 156.765 214.799C156.765 215.212 156.851 215.58 157.023 215.903C157.202 216.226 157.442 216.477 157.745 216.655C158.054 216.827 158.401 216.913 158.786 216.913Z" fill="#2B2B2D"/>
<path d="M170.981 212.088V219.512H170.249V216.49C170.022 216.841 169.73 217.109 169.372 217.295C169.022 217.473 168.627 217.563 168.187 217.563C167.671 217.563 167.207 217.449 166.795 217.223C166.389 216.989 166.069 216.662 165.836 216.243C165.602 215.824 165.485 215.342 165.485 214.799C165.485 214.263 165.602 213.785 165.836 213.366C166.069 212.947 166.392 212.624 166.805 212.397C167.217 212.163 167.678 212.046 168.187 212.046C168.64 212.046 169.046 212.143 169.403 212.335C169.768 212.528 170.06 212.802 170.28 213.16V212.088H170.981ZM168.248 216.913C168.627 216.913 168.967 216.827 169.269 216.655C169.579 216.477 169.819 216.226 169.991 215.903C170.17 215.58 170.259 215.212 170.259 214.799C170.259 214.387 170.17 214.023 169.991 213.706C169.819 213.383 169.579 213.132 169.269 212.954C168.967 212.775 168.627 212.686 168.248 212.686C167.863 212.686 167.516 212.775 167.207 212.954C166.905 213.132 166.664 213.383 166.485 213.706C166.313 214.023 166.227 214.387 166.227 214.799C166.227 215.212 166.313 215.58 166.485 215.903C166.664 216.226 166.905 216.477 167.207 216.655C167.516 216.827 167.863 216.913 168.248 216.913Z" fill="#2B2B2D"/>
<path d="M176.722 213.15C176.894 212.785 177.148 212.51 177.485 212.325C177.829 212.139 178.251 212.046 178.753 212.046V212.758L178.578 212.747C178.007 212.747 177.561 212.923 177.238 213.273C176.914 213.624 176.753 214.115 176.753 214.748V217.511H176.021V212.088H176.722V213.15Z" fill="#2B2B2D"/>
<path d="M184.564 217.563C184.124 217.563 183.701 217.501 183.295 217.377C182.897 217.247 182.584 217.085 182.357 216.893L182.687 216.315C182.914 216.494 183.199 216.642 183.543 216.759C183.886 216.869 184.244 216.923 184.615 216.923C185.11 216.923 185.474 216.848 185.708 216.697C185.949 216.539 186.069 216.319 186.069 216.037C186.069 215.837 186.004 215.683 185.873 215.573C185.742 215.456 185.577 215.37 185.378 215.315C185.179 215.253 184.914 215.195 184.584 215.14C184.144 215.057 183.79 214.975 183.522 214.892C183.254 214.803 183.024 214.655 182.831 214.449C182.646 214.243 182.553 213.957 182.553 213.593C182.553 213.139 182.742 212.768 183.12 212.479C183.498 212.191 184.024 212.046 184.698 212.046C185.048 212.046 185.399 212.094 185.749 212.191C186.1 212.28 186.389 212.4 186.615 212.552L186.296 213.139C185.849 212.83 185.316 212.675 184.698 212.675C184.23 212.675 183.876 212.758 183.636 212.923C183.402 213.088 183.285 213.304 183.285 213.572C183.285 213.779 183.35 213.944 183.481 214.067C183.618 214.191 183.787 214.284 183.986 214.346C184.185 214.401 184.46 214.459 184.811 214.521C185.244 214.603 185.591 214.686 185.852 214.768C186.114 214.851 186.337 214.992 186.523 215.191C186.708 215.391 186.801 215.666 186.801 216.016C186.801 216.49 186.602 216.869 186.203 217.15C185.811 217.425 185.265 217.563 184.564 217.563Z" fill="#2B2B2D"/>
<path d="M194.022 217.181C193.884 217.305 193.712 217.401 193.506 217.47C193.307 217.532 193.097 217.563 192.877 217.563C192.368 217.563 191.976 217.425 191.702 217.15C191.427 216.875 191.289 216.487 191.289 215.985V212.706H190.32V212.088H191.289V210.902H192.021V212.088H193.671V212.706H192.021V215.944C192.021 216.267 192.1 216.514 192.258 216.686C192.423 216.851 192.657 216.934 192.959 216.934C193.111 216.934 193.255 216.91 193.393 216.862C193.537 216.814 193.661 216.745 193.764 216.655L194.022 217.181Z" fill="#2B2B2D"/>
<path d="M203.142 212.088V217.511H202.441V216.521C202.248 216.851 201.983 217.109 201.647 217.295C201.31 217.473 200.925 217.563 200.492 217.563C199.784 217.563 199.223 217.367 198.811 216.975C198.405 216.576 198.203 215.995 198.203 215.232V212.088H198.935V215.16C198.935 215.731 199.076 216.164 199.357 216.459C199.639 216.755 200.041 216.903 200.564 216.903C201.134 216.903 201.585 216.731 201.915 216.387C202.245 216.037 202.41 215.552 202.41 214.933V212.088H203.142Z" fill="#2B2B2D"/>
<path d="M212.8 212.088L210.388 217.511H209.635L207.232 212.088H207.996L210.027 216.707L212.079 212.088H212.8Z" fill="#2B2B2D"/>
<path d="M224.903 212.088L222.851 217.511H222.161L220.449 213.067L218.737 217.511H218.046L216.005 212.088H216.706L218.407 216.697L220.15 212.088H220.779L222.511 216.697L224.233 212.088H224.903Z" fill="#2B2B2D"/>
<path d="M232.642 217.511L230.92 215.243L229.187 217.511H228.362L230.507 214.727L228.466 212.088H229.29L230.92 214.212L232.549 212.088H233.353L231.311 214.727L233.477 217.511H232.642Z" fill="#2B2B2D"/>
<path d="M242.445 212.088L239.733 218.161C239.513 218.67 239.259 219.03 238.97 219.243C238.681 219.457 238.334 219.563 237.929 219.563C237.668 219.563 237.423 219.522 237.197 219.439C236.97 219.357 236.774 219.233 236.609 219.068L236.949 218.522C237.224 218.797 237.554 218.934 237.939 218.934C238.187 218.934 238.396 218.865 238.568 218.728C238.747 218.59 238.912 218.357 239.063 218.027L239.3 217.501L236.877 212.088H237.64L239.682 216.697L241.723 212.088H242.445Z" fill="#2B2B2D"/>
<path d="M250.413 216.903V217.511H246V217.027L249.413 212.706H246.062V212.088H250.351V212.572L246.938 216.903H250.413Z" fill="#2B2B2D"/>
<path d="M28.0798 155L28.0695 150.669L25.9454 154.237H25.1927L23.0789 150.762V155H21.5116V147.782H22.8933L25.5948 152.268L28.2551 147.782H29.6264L29.6471 155H28.0798ZM34.5044 155.082C33.9201 155.082 33.3942 154.962 32.9268 154.722C32.4662 154.474 32.1053 154.134 31.8441 153.701C31.5829 153.268 31.4523 152.776 31.4523 152.226C31.4523 151.676 31.5829 151.185 31.8441 150.752C32.1053 150.319 32.4662 149.982 32.9268 149.741C33.3942 149.494 33.9201 149.37 34.5044 149.37C35.0887 149.37 35.6111 149.494 36.0717 149.741C36.5322 149.982 36.8931 150.319 37.1543 150.752C37.4156 151.185 37.5462 151.676 37.5462 152.226C37.5462 152.776 37.4156 153.268 37.1543 153.701C36.8931 154.134 36.5322 154.474 36.0717 154.722C35.6111 154.962 35.0887 155.082 34.5044 155.082ZM34.5044 153.763C34.9168 153.763 35.2537 153.625 35.5149 153.35C35.783 153.068 35.917 152.694 35.917 152.226C35.917 151.759 35.783 151.388 35.5149 151.113C35.2537 150.831 34.9168 150.69 34.5044 150.69C34.0919 150.69 33.7517 150.831 33.4836 151.113C33.2155 151.388 33.0815 151.759 33.0815 152.226C33.0815 152.694 33.2155 153.068 33.4836 153.35C33.7517 153.625 34.0919 153.763 34.5044 153.763ZM42.6117 149.37C43.2992 149.37 43.8525 149.576 44.2718 149.989C44.698 150.401 44.9111 151.013 44.9111 151.824V155H43.3026V152.072C43.3026 151.632 43.2064 151.305 43.0139 151.092C42.8214 150.872 42.543 150.762 42.1787 150.762C41.7731 150.762 41.45 150.889 41.2094 151.144C40.9688 151.391 40.8485 151.762 40.8485 152.257V155H39.24V149.453H40.7764V150.102C40.9895 149.869 41.2541 149.69 41.5703 149.566C41.8865 149.435 42.2337 149.37 42.6117 149.37ZM50.5658 154.732C50.4077 154.849 50.2118 154.938 49.9781 155C49.7512 155.055 49.5106 155.082 49.2563 155.082C48.5964 155.082 48.0843 154.914 47.7199 154.577C47.3625 154.24 47.1838 153.745 47.1838 153.092V150.814H46.3279V149.576H47.1838V148.226H48.7923V149.576H50.174V150.814H48.7923V153.072C48.7923 153.306 48.8507 153.488 48.9676 153.618C49.0913 153.742 49.2632 153.804 49.4831 153.804C49.7375 153.804 49.954 153.735 50.1327 153.598L50.5658 154.732ZM53.9537 155.082C53.4932 155.082 53.0429 155.027 52.603 154.918C52.163 154.801 51.8124 154.656 51.5512 154.484L52.0874 153.33C52.3349 153.488 52.6339 153.618 52.9845 153.721C53.3351 153.818 53.6788 153.866 54.0156 153.866C54.6961 153.866 55.0364 153.697 55.0364 153.361C55.0364 153.202 54.9436 153.089 54.758 153.02C54.5724 152.952 54.2871 152.893 53.9022 152.845C53.4485 152.776 53.0738 152.697 52.7783 152.608C52.4827 152.518 52.2249 152.36 52.0049 152.134C51.7918 151.907 51.6853 151.584 51.6853 151.164C51.6853 150.814 51.785 150.504 51.9843 150.236C52.1905 149.961 52.4861 149.748 52.8711 149.597C53.2629 149.446 53.7234 149.37 54.2527 149.37C54.6446 149.37 55.033 149.415 55.4179 149.504C55.8097 149.587 56.1328 149.704 56.3871 149.855L55.851 150.999C55.3629 150.724 54.8302 150.587 54.2527 150.587C53.909 150.587 53.6513 150.635 53.4794 150.731C53.3076 150.827 53.2216 150.951 53.2216 151.102C53.2216 151.274 53.3144 151.395 53.5 151.463C53.6856 151.532 53.9812 151.597 54.3868 151.659C54.8405 151.735 55.2117 151.817 55.5004 151.907C55.7891 151.989 56.04 152.144 56.2531 152.371C56.4662 152.598 56.5727 152.914 56.5727 153.319C56.5727 153.663 56.4696 153.969 56.2634 154.237C56.0572 154.505 55.7547 154.715 55.356 154.866C54.9642 155.01 54.4968 155.082 53.9537 155.082ZM63.6178 152.247C63.6178 152.268 63.6075 152.412 63.5869 152.68H59.3903C59.4659 153.024 59.6446 153.295 59.9264 153.495C60.2083 153.694 60.5588 153.794 60.9782 153.794C61.2669 153.794 61.5212 153.752 61.7412 153.67C61.968 153.581 62.1777 153.443 62.3702 153.257L63.226 154.185C62.7036 154.783 61.9405 155.082 60.9369 155.082C60.3114 155.082 59.758 154.962 59.2768 154.722C58.7956 154.474 58.4244 154.134 58.1632 153.701C57.902 153.268 57.7714 152.776 57.7714 152.226C57.7714 151.683 57.8986 151.195 58.1529 150.762C58.4141 150.322 58.7682 149.982 59.215 149.741C59.6687 149.494 60.1739 149.37 60.7307 149.37C61.2738 149.37 61.7652 149.487 62.2052 149.721C62.6451 149.954 62.9888 150.291 63.2363 150.731C63.4906 151.164 63.6178 151.67 63.6178 152.247ZM60.741 150.587C60.3767 150.587 60.0708 150.69 59.8233 150.896C59.5759 151.102 59.4246 151.384 59.3696 151.742H62.1021C62.0471 151.391 61.8959 151.113 61.6484 150.906C61.4009 150.693 61.0985 150.587 60.741 150.587ZM66.8437 150.185C67.0362 149.917 67.294 149.714 67.6171 149.576C67.947 149.439 68.3251 149.37 68.7513 149.37V150.855C68.5726 150.841 68.4523 150.834 68.3904 150.834C67.9298 150.834 67.569 150.965 67.3077 151.226C67.0465 151.48 66.9159 151.865 66.9159 152.381V155H65.3074V149.453H66.8437V150.185ZM71.8628 150.185C72.0552 149.917 72.313 149.714 72.6361 149.576C72.966 149.439 73.3441 149.37 73.7703 149.37V150.855C73.5916 150.841 73.4713 150.834 73.4094 150.834C72.9489 150.834 72.588 150.965 72.3268 151.226C72.0655 151.48 71.9349 151.865 71.9349 152.381V155H70.3264V149.453H71.8628V150.185ZM77.5527 149.37C78.412 149.37 79.0719 149.576 79.5325 149.989C79.993 150.394 80.2233 151.01 80.2233 151.834V155H78.7179V154.309C78.4154 154.825 77.8517 155.082 77.0269 155.082C76.6007 155.082 76.2295 155.01 75.9133 154.866C75.6039 154.722 75.3668 154.522 75.2018 154.268C75.0368 154.014 74.9543 153.725 74.9543 153.402C74.9543 152.886 75.1468 152.481 75.5317 152.185C75.9236 151.889 76.525 151.742 77.3362 151.742H78.6148C78.6148 151.391 78.5082 151.123 78.2951 150.937C78.082 150.745 77.7624 150.649 77.3362 150.649C77.0406 150.649 76.7485 150.697 76.4597 150.793C76.1779 150.882 75.9373 151.006 75.738 151.164L75.1605 150.04C75.463 149.827 75.8239 149.662 76.2432 149.545C76.6694 149.429 77.1059 149.37 77.5527 149.37ZM77.429 154C77.7039 154 77.948 153.938 78.1611 153.814C78.3742 153.684 78.5254 153.495 78.6148 153.247V152.68H77.5115C76.8516 152.68 76.5216 152.897 76.5216 153.33C76.5216 153.536 76.6007 153.701 76.7588 153.825C76.9237 153.941 77.1471 154 77.429 154ZM85.8757 154.732C85.7176 154.849 85.5217 154.938 85.288 155C85.0611 155.055 84.8205 155.082 84.5662 155.082C83.9063 155.082 83.3942 154.914 83.0299 154.577C82.6724 154.24 82.4937 153.745 82.4937 153.092V150.814H81.6379V149.576H82.4937V148.226H84.1022V149.576H85.4839V150.814H84.1022V153.072C84.1022 153.306 84.1606 153.488 84.2775 153.618C84.4012 153.742 84.5731 153.804 84.7931 153.804C85.0474 153.804 85.2639 153.735 85.4427 153.598L85.8757 154.732Z" fill="#2B2B2D"/>
<path d="M25.2101 165.853C25.4936 165.943 25.7158 166.094 25.8765 166.306C26.0371 166.514 26.1175 166.772 26.1175 167.079C26.1175 167.514 25.9473 167.849 25.6071 168.086C25.2715 168.317 24.78 168.433 24.1326 168.433H21.5664V163.471H23.9908C24.5957 163.471 25.0589 163.587 25.3802 163.818C25.7063 164.05 25.8694 164.364 25.8694 164.761C25.8694 165.002 25.8103 165.217 25.6921 165.406C25.5787 165.595 25.418 165.744 25.2101 165.853ZM22.7077 164.336V165.505H23.849C24.1326 165.505 24.3476 165.456 24.4941 165.357C24.6406 165.257 24.7139 165.111 24.7139 164.917C24.7139 164.723 24.6406 164.579 24.4941 164.485C24.3476 164.385 24.1326 164.336 23.849 164.336H22.7077ZM24.0475 167.568C24.35 167.568 24.5768 167.519 24.7281 167.419C24.884 167.32 24.962 167.167 24.962 166.959C24.962 166.547 24.6572 166.342 24.0475 166.342H22.7077V167.568H24.0475ZM29.149 168.49C28.7473 168.49 28.3858 168.407 28.0644 168.242C27.7478 168.072 27.4997 167.838 27.3201 167.54C27.1405 167.242 27.0507 166.904 27.0507 166.526C27.0507 166.148 27.1405 165.81 27.3201 165.512C27.4997 165.215 27.7478 164.983 28.0644 164.818C28.3858 164.648 28.7473 164.563 29.149 164.563C29.5507 164.563 29.9099 164.648 30.2265 164.818C30.5432 164.983 30.7913 165.215 30.9709 165.512C31.1505 165.81 31.2402 166.148 31.2402 166.526C31.2402 166.904 31.1505 167.242 30.9709 167.54C30.7913 167.838 30.5432 168.072 30.2265 168.242C29.9099 168.407 29.5507 168.49 29.149 168.49ZM29.149 167.582C29.4326 167.582 29.6642 167.488 29.8437 167.299C30.028 167.105 30.1202 166.848 30.1202 166.526C30.1202 166.205 30.028 165.95 29.8437 165.761C29.6642 165.567 29.4326 165.47 29.149 165.47C28.8655 165.47 28.6315 165.567 28.4472 165.761C28.2629 165.95 28.1708 166.205 28.1708 166.526C28.1708 166.848 28.2629 167.105 28.4472 167.299C28.6315 167.488 28.8655 167.582 29.149 167.582ZM32.4048 163.173H33.5106V168.433H32.4048V163.173ZM38.847 163.173V168.433H37.7908V167.994C37.5167 168.324 37.1197 168.49 36.5998 168.49C36.2407 168.49 35.9146 168.409 35.6216 168.249C35.3333 168.088 35.1064 167.859 34.941 167.561C34.7756 167.263 34.6929 166.918 34.6929 166.526C34.6929 166.134 34.7756 165.789 34.941 165.491C35.1064 165.193 35.3333 164.964 35.6216 164.804C35.9146 164.643 36.2407 164.563 36.5998 164.563C37.0866 164.563 37.467 164.716 37.7411 165.023V163.173H38.847ZM36.7912 167.582C37.0701 167.582 37.3016 167.488 37.4859 167.299C37.6703 167.105 37.7624 166.848 37.7624 166.526C37.7624 166.205 37.6703 165.95 37.4859 165.761C37.3016 165.567 37.0701 165.47 36.7912 165.47C36.5077 165.47 36.2737 165.567 36.0894 165.761C35.9051 165.95 35.813 166.205 35.813 166.526C35.813 166.848 35.9051 167.105 36.0894 167.299C36.2737 167.488 36.5077 167.582 36.7912 167.582Z" fill="#2B2B2D"/>
<path d="M53.5301 168.433L52.3959 166.838C52.2683 166.852 52.136 166.859 51.9989 166.859H50.6662V168.433H50.1416V163.471H51.9989C52.6322 163.471 53.1284 163.622 53.4876 163.925C53.8468 164.227 54.0263 164.643 54.0263 165.172C54.0263 165.56 53.9271 165.888 53.7286 166.158C53.5348 166.422 53.256 166.614 52.8921 166.732L54.1043 168.433H53.5301ZM51.9847 166.413C52.4762 166.413 52.8519 166.304 53.1119 166.087C53.3718 165.869 53.5018 165.564 53.5018 165.172C53.5018 164.771 53.3718 164.463 53.1119 164.251C52.8519 164.033 52.4762 163.925 51.9847 163.925H50.6662V166.413H51.9847ZM58.8302 166.725H55.7111C55.7394 167.112 55.8883 167.426 56.1577 167.668C56.427 167.904 56.7673 168.022 57.1785 168.022C57.41 168.022 57.6227 167.982 57.8165 167.901C58.0102 167.816 58.178 167.693 58.3198 167.533L58.6033 167.859C58.4379 168.057 58.23 168.209 57.9795 168.313C57.7338 168.417 57.462 168.469 57.1643 168.469C56.7815 168.469 56.4412 168.388 56.1435 168.228C55.8505 168.062 55.6213 167.835 55.4559 167.547C55.2905 167.259 55.2077 166.933 55.2077 166.569C55.2077 166.205 55.2857 165.879 55.4417 165.59C55.6024 165.302 55.8198 165.078 56.0939 164.917C56.3727 164.756 56.6846 164.676 57.0296 164.676C57.3746 164.676 57.6841 164.756 57.9582 164.917C58.2323 165.078 58.4474 165.302 58.6033 165.59C58.7593 165.874 58.8373 166.2 58.8373 166.569L58.8302 166.725ZM57.0296 165.108C56.6704 165.108 56.368 165.224 56.1222 165.456C55.8812 165.683 55.7441 165.98 55.7111 166.349H58.3552C58.3221 165.98 58.1827 165.683 57.937 165.456C57.6959 165.224 57.3935 165.108 57.0296 165.108ZM63.7393 164.704V167.979C63.7393 168.613 63.5834 169.081 63.2715 169.383C62.9643 169.69 62.4988 169.844 61.875 169.844C61.53 169.844 61.2015 169.792 60.8896 169.688C60.5824 169.589 60.3319 169.449 60.1382 169.27L60.3934 168.887C60.573 169.047 60.7904 169.173 61.0456 169.263C61.3055 169.352 61.5772 169.397 61.8608 169.397C62.3334 169.397 62.6807 169.286 62.9028 169.064C63.125 168.847 63.236 168.506 63.236 168.043V167.568C63.0801 167.805 62.8745 167.984 62.6193 168.107C62.3688 168.23 62.09 168.291 61.7828 168.291C61.4331 168.291 61.1141 168.216 60.8258 168.064C60.5422 167.909 60.3178 167.693 60.1524 167.419C59.9917 167.141 59.9113 166.826 59.9113 166.477C59.9113 166.127 59.9917 165.815 60.1524 165.541C60.3178 165.267 60.5422 165.054 60.8258 164.903C61.1094 164.752 61.4284 164.676 61.7828 164.676C62.0994 164.676 62.3854 164.74 62.6406 164.867C62.8958 164.995 63.1013 165.179 63.2573 165.42V164.704H63.7393ZM61.8324 167.845C62.1018 167.845 62.3452 167.788 62.5626 167.675C62.78 167.556 62.9477 167.393 63.0659 167.185C63.1888 166.978 63.2502 166.741 63.2502 166.477C63.2502 166.212 63.1888 165.978 63.0659 165.775C62.9477 165.567 62.78 165.406 62.5626 165.293C62.3499 165.175 62.1065 165.116 61.8324 165.116C61.563 165.116 61.3197 165.172 61.1023 165.286C60.8896 165.399 60.7218 165.56 60.599 165.768C60.4808 165.976 60.4217 166.212 60.4217 166.477C60.4217 166.741 60.4808 166.978 60.599 167.185C60.7218 167.393 60.8896 167.556 61.1023 167.675C61.3197 167.788 61.563 167.845 61.8324 167.845ZM68.9323 164.704V168.433H68.4502V167.753C68.3179 167.979 68.136 168.157 67.9044 168.284C67.6728 168.407 67.4082 168.469 67.1104 168.469C66.6237 168.469 66.2385 168.334 65.9549 168.064C65.6761 167.79 65.5367 167.391 65.5367 166.866V164.704H66.04V166.817C66.04 167.209 66.1369 167.507 66.3307 167.71C66.5244 167.913 66.8009 168.015 67.1601 168.015C67.5523 168.015 67.8619 167.897 68.0887 167.66C68.3155 167.419 68.429 167.086 68.429 166.661V164.704H68.9323ZM70.7673 163.173H71.2706V168.433H70.7673V163.173ZM74.4007 164.676C74.8875 164.676 75.2608 164.799 75.5207 165.045C75.7807 165.286 75.9106 165.645 75.9106 166.122V168.433H75.4286V167.852C75.3152 168.046 75.1474 168.197 74.9253 168.306C74.7079 168.414 74.448 168.469 74.1455 168.469C73.7296 168.469 73.3988 168.369 73.1531 168.171C72.9073 167.972 72.7844 167.71 72.7844 167.384C72.7844 167.067 72.8979 166.812 73.1247 166.618C73.3563 166.425 73.7225 166.328 74.2235 166.328H75.4073V166.101C75.4073 165.779 75.3175 165.536 75.1379 165.371C74.9584 165.201 74.6961 165.116 74.3511 165.116C74.1148 165.116 73.8879 165.156 73.6705 165.236C73.4531 165.312 73.2665 165.418 73.1105 165.555L72.8837 165.179C73.0727 165.019 73.2996 164.896 73.5642 164.811C73.8289 164.721 74.1077 164.676 74.4007 164.676ZM74.2235 168.072C74.507 168.072 74.7504 168.008 74.9536 167.88C75.1568 167.748 75.3081 167.559 75.4073 167.313V166.703H74.2377C73.5997 166.703 73.2807 166.926 73.2807 167.37C73.2807 167.587 73.3634 167.76 73.5288 167.887C73.6942 168.01 73.9257 168.072 74.2235 168.072ZM78.1851 165.435C78.3032 165.184 78.4781 164.995 78.7096 164.867C78.9459 164.74 79.2366 164.676 79.5816 164.676V165.165L79.4611 165.158C79.0688 165.158 78.7616 165.279 78.5395 165.52C78.3174 165.761 78.2063 166.098 78.2063 166.533V168.433H77.703V164.704H78.1851V165.435Z" fill="#2B2B2D"/>
<path d="M88.2208 163.471H88.5823V168.107H91.4392V168.433H88.2208V163.471ZM92.6794 164.733H93.0339V168.433H92.6794V164.733ZM92.8567 163.832C92.7763 163.832 92.7078 163.806 92.6511 163.754C92.5944 163.698 92.566 163.629 92.566 163.549C92.566 163.469 92.5944 163.4 92.6511 163.343C92.7078 163.287 92.7763 163.258 92.8567 163.258C92.937 163.258 93.0055 163.287 93.0622 163.343C93.1189 163.395 93.1473 163.461 93.1473 163.542C93.1473 163.622 93.1189 163.691 93.0622 163.747C93.0055 163.804 92.937 163.832 92.8567 163.832ZM98.2849 164.733V168.036C98.2849 168.65 98.1361 169.104 97.8383 169.397C97.5406 169.69 97.0916 169.837 96.4914 169.837C96.1512 169.837 95.8298 169.785 95.5273 169.681C95.2249 169.577 94.9815 169.433 94.7972 169.248L94.9886 168.979C95.1729 169.149 95.395 169.281 95.6549 169.376C95.9149 169.47 96.1913 169.518 96.4843 169.518C96.9758 169.518 97.3397 169.4 97.576 169.163C97.8123 168.932 97.9305 168.57 97.9305 168.079V167.455C97.7792 167.724 97.5689 167.932 97.2996 168.079C97.0302 168.225 96.7277 168.298 96.3922 168.298C96.0472 168.298 95.7329 168.223 95.4494 168.072C95.1705 167.916 94.9508 167.701 94.7901 167.426C94.6294 167.152 94.5491 166.843 94.5491 166.498C94.5491 166.153 94.6294 165.843 94.7901 165.569C94.9508 165.295 95.1705 165.082 95.4494 164.931C95.7329 164.78 96.0472 164.704 96.3922 164.704C96.7325 164.704 97.0396 164.78 97.3137 164.931C97.5878 165.082 97.7981 165.295 97.9447 165.569V164.733H98.2849ZM96.4205 167.979C96.7088 167.979 96.9687 167.918 97.2003 167.795C97.4319 167.668 97.6115 167.493 97.7391 167.271C97.8714 167.044 97.9376 166.786 97.9376 166.498C97.9376 166.21 97.8714 165.954 97.7391 165.732C97.6115 165.51 97.4319 165.338 97.2003 165.215C96.9687 165.087 96.7088 165.023 96.4205 165.023C96.1323 165.023 95.8723 165.087 95.6408 165.215C95.4139 165.338 95.2343 165.51 95.102 165.732C94.9744 165.954 94.9106 166.21 94.9106 166.498C94.9106 166.786 94.9744 167.044 95.102 167.271C95.2343 167.493 95.4139 167.668 95.6408 167.795C95.8723 167.918 96.1323 167.979 96.4205 167.979ZM102.018 164.704C102.481 164.704 102.848 164.839 103.117 165.108C103.386 165.378 103.521 165.765 103.521 166.271V168.433H103.167V166.299C103.167 165.883 103.06 165.567 102.848 165.349C102.64 165.132 102.347 165.023 101.969 165.023C101.534 165.023 101.191 165.153 100.941 165.413C100.69 165.673 100.565 166.023 100.565 166.462V168.433H100.211V163.173H100.565V165.505C100.693 165.25 100.882 165.054 101.132 164.917C101.383 164.775 101.678 164.704 102.018 164.704ZM107.242 168.199C107.152 168.284 107.038 168.35 106.901 168.398C106.769 168.44 106.63 168.461 106.483 168.461C106.162 168.461 105.914 168.374 105.739 168.199C105.564 168.02 105.477 167.771 105.477 167.455V165.038H104.796V164.733H105.477V163.925H105.831V164.733H107.008V165.038H105.831V167.419C105.831 167.66 105.888 167.845 106.001 167.972C106.119 168.095 106.292 168.157 106.519 168.157C106.75 168.157 106.942 168.088 107.093 167.951L107.242 168.199Z" fill="#2B2B2D"/>
<rect x="258.778" y="207.511" width="3.86667" height="14.1778" fill="white"/>
<rect x="109.911" y="161.433" width="4.18889" height="14.1778" fill="white"/>
<rect x="97.6665" y="144.355" width="9.98889" height="14.1778" fill="white"/>
<rect x="129.889" y="73.1445" width="5.47778" height="14.1778" fill="white"/>
<rect x="362.533" y="84.7446" width="3.22222" height="14.1778" fill="white"/>
<rect x="345.133" y="17.4004" width="9.98889" height="29" fill="white"/>
<rect x="319.355" y="192.367" width="3.22222" height="14.1778" fill="white"/>
</svg>
