<svg width="654" height="126" viewBox="0 0 654 126" fill="none" xmlns="http://www.w3.org/2000/svg">
<path d="M8.4 99V33H13L25.4 65L29.8 76.8H30.2L34.4 65L47 33H51.6V99H48.4V49.5C48.4 48.5 48.4 47.4667 48.4 46.4C48.4667 45.2667 48.5 44.1667 48.5 43.1C48.5667 42.0333 48.6 40.9667 48.6 39.9C48.6667 38.7667 48.7 37.7 48.7 36.7H48.4L44.8 47.4L31.3 81.4H28.6L15.2 47.4L11.3 36.7H11.1C11.1 37.7 11.1333 38.7667 11.2 39.9C11.2667 40.9667 11.3 42.0333 11.3 43.1C11.3667 44.1667 11.4 45.2667 11.4 46.4C11.4667 47.4667 11.5 48.5 11.5 49.5V99H8.4ZM95.9609 100.2C91.7609 100.2 87.9276 99.2333 84.4609 97.3C80.9943 95.3 78.1943 92.4333 76.0609 88.7C73.9943 84.9667 72.9609 80.4667 72.9609 75.2C72.9609 69.8667 73.9943 65.3333 76.0609 61.6C78.1943 57.8 80.9943 54.9333 84.4609 53C87.9276 51 91.7609 50 95.9609 50C100.161 50 103.994 51 107.461 53C110.928 54.9333 113.694 57.8 115.761 61.6C117.894 65.3333 118.961 69.8667 118.961 75.2C118.961 80.4667 117.894 84.9667 115.761 88.7C113.694 92.4333 110.928 95.3 107.461 97.3C103.994 99.2333 100.161 100.2 95.9609 100.2ZM95.9609 97.4C99.7609 97.4 103.161 96.4667 106.161 94.6C109.161 92.7333 111.494 90.1333 113.161 86.8C114.894 83.4667 115.761 79.6 115.761 75.2C115.761 70.8 114.894 66.9333 113.161 63.6C111.494 60.2 109.161 57.5667 106.161 55.7C103.161 53.7667 99.7609 52.8 95.9609 52.8C92.1609 52.8 88.7609 53.7667 85.7609 55.7C82.8276 57.5667 80.4943 60.2 78.7609 63.6C77.0276 66.9333 76.1609 70.8 76.1609 75.2C76.1609 79.6 77.0276 83.4667 78.7609 86.8C80.4943 90.1333 82.8276 92.7333 85.7609 94.6C88.7609 96.4667 92.1609 97.4 95.9609 97.4ZM162.522 100.2C160.055 100.2 157.322 99.6 154.322 98.4C151.322 97.2 148.589 95.6 146.122 93.6H145.922L145.522 99H142.922V26.8H145.922V48.2L145.722 58.8H145.922C148.455 56.2 151.389 54.1 154.722 52.5C158.055 50.8333 161.322 50 164.522 50C169.122 50 172.922 51 175.922 53C178.922 55 181.155 57.8333 182.622 61.5C184.155 65.1667 184.922 69.4667 184.922 74.4C184.922 79.8 183.889 84.4333 181.822 88.3C179.755 92.1 177.022 95.0333 173.622 97.1C170.222 99.1667 166.522 100.2 162.522 100.2ZM162.722 97.4C166.389 97.4 169.655 96.4333 172.522 94.5C175.389 92.5 177.622 89.7667 179.222 86.3C180.889 82.8333 181.722 78.8667 181.722 74.4C181.722 70.3333 181.122 66.6667 179.922 63.4C178.789 60.1333 176.955 57.5667 174.422 55.7C171.889 53.7667 168.522 52.8 164.322 52.8C161.655 52.8 158.722 53.5667 155.522 55.1C152.322 56.6333 149.122 59 145.922 62.2V89.8C148.922 92.5333 151.955 94.5 155.022 95.7C158.089 96.8333 160.655 97.4 162.722 97.4ZM232.483 99V54H207.883V51.2H235.483V99H232.483ZM232.883 39C231.816 39 230.883 38.6333 230.083 37.9C229.283 37.1 228.883 36.0667 228.883 34.8C228.883 33.4667 229.283 32.4333 230.083 31.7C230.883 30.9667 231.816 30.6 232.883 30.6C234.016 30.6 234.949 30.9667 235.683 31.7C236.483 32.4333 236.883 33.4667 236.883 34.8C236.883 36.0667 236.483 37.1 235.683 37.9C234.949 38.6333 234.016 39 232.883 39ZM305.444 100.2C301.177 100.2 297.844 99.0333 295.444 96.7C293.044 94.3667 291.844 90.5333 291.844 85.2V29.6H273.244V26.8H294.844V85.8C294.844 89.6667 295.744 92.5667 297.544 94.5C299.344 96.4333 302.044 97.4 305.644 97.4C307.244 97.4 308.877 97.2 310.544 96.8C312.277 96.3333 314.044 95.6667 315.844 94.8L317.044 97.2C315.044 98.2 313.177 98.9333 311.444 99.4C309.777 99.9333 307.777 100.2 305.444 100.2ZM362.805 100.2C358.271 100.2 354.105 99.2 350.305 97.2C346.505 95.2 343.471 92.3333 341.205 88.6C338.938 84.8667 337.805 80.4 337.805 75.2C337.805 70 338.905 65.5333 341.105 61.8C343.371 58 346.305 55.1 349.905 53.1C353.571 51.0333 357.471 50 361.605 50C365.871 50 369.571 50.8667 372.705 52.6C375.905 54.3333 378.371 56.8667 380.105 60.2C381.905 63.4667 382.805 67.4 382.805 72C382.805 72.4667 382.805 72.9667 382.805 73.5C382.805 74.0333 382.738 74.6 382.605 75.2H338.805V72.4H381.805L380.005 74C380.005 66.8 378.271 61.4667 374.805 58C371.405 54.5333 367.005 52.8 361.605 52.8C358.138 52.8 354.838 53.7 351.705 55.5C348.571 57.2333 346.005 59.7667 344.005 63.1C342.005 66.3667 341.005 70.3333 341.005 75C341.005 79.8 342.005 83.8667 344.005 87.2C346.071 90.5333 348.738 93.0667 352.005 94.8C355.338 96.5333 358.938 97.4 362.805 97.4C366.205 97.4 369.238 96.9 371.905 95.9C374.638 94.9 377.138 93.6 379.405 92L380.805 94.6C378.738 95.9333 376.305 97.2 373.505 98.4C370.705 99.6 367.138 100.2 362.805 100.2ZM466.727 99L490.327 33H493.127L516.727 99H513.327L499.527 59.4C498.127 55.4 496.793 51.6 495.527 48C494.327 44.3333 493.127 40.4667 491.927 36.4H491.527C490.327 40.4667 489.093 44.3333 487.827 48C486.627 51.6 485.327 55.4 483.927 59.4L469.927 99H466.727ZM476.927 75.4V72.6H506.227V75.4H476.927ZM538.688 121.2V51.2H541.288L541.688 58.4H541.888C544.354 56 547.221 54 550.488 52.4C553.821 50.8 557.088 50 560.288 50C564.888 50 568.688 51 571.688 53C574.688 55 576.921 57.8333 578.388 61.5C579.921 65.1667 580.688 69.4667 580.688 74.4C580.688 79.8 579.621 84.4333 577.488 88.3C575.421 92.1 572.688 95.0333 569.288 97.1C565.888 99.1667 562.154 100.2 558.088 100.2C555.821 100.2 553.154 99.6 550.088 98.4C547.021 97.1333 544.221 95.4 541.688 93.2H541.488L541.688 103.2V121.2H538.688ZM558.288 97.4C562.021 97.4 565.321 96.4333 568.188 94.5C571.121 92.5 573.388 89.7667 574.988 86.3C576.654 82.8333 577.488 78.8667 577.488 74.4C577.488 70.3333 576.888 66.6667 575.688 63.4C574.554 60.1333 572.721 57.5667 570.188 55.7C567.654 53.7667 564.288 52.8 560.088 52.8C557.421 52.8 554.488 53.5667 551.288 55.1C548.088 56.6333 544.888 59 541.688 62.2V89.8C544.688 92.5333 547.721 94.5 550.788 95.7C553.854 96.8333 556.354 97.4 558.288 97.4ZM604.648 121.2V51.2H607.248L607.648 58.4H607.848C610.315 56 613.182 54 616.448 52.4C619.782 50.8 623.048 50 626.248 50C630.848 50 634.648 51 637.648 53C640.648 55 642.882 57.8333 644.348 61.5C645.882 65.1667 646.648 69.4667 646.648 74.4C646.648 79.8 645.582 84.4333 643.448 88.3C641.382 92.1 638.648 95.0333 635.248 97.1C631.848 99.1667 628.115 100.2 624.048 100.2C621.782 100.2 619.115 99.6 616.048 98.4C612.982 97.1333 610.182 95.4 607.648 93.2H607.448L607.648 103.2V121.2H604.648ZM624.248 97.4C627.982 97.4 631.282 96.4333 634.148 94.5C637.082 92.5 639.348 89.7667 640.948 86.3C642.615 82.8333 643.448 78.8667 643.448 74.4C643.448 70.3333 642.848 66.6667 641.648 63.4C640.515 60.1333 638.682 57.5667 636.148 55.7C633.615 53.7667 630.248 52.8 626.048 52.8C623.382 52.8 620.448 53.5667 617.248 55.1C614.048 56.6333 610.848 59 607.648 62.2V89.8C610.648 92.5333 613.682 94.5 616.748 95.7C619.815 96.8333 622.315 97.4 624.248 97.4Z" fill="#EED480"/>
</svg>
