<svg width="245" height="61" viewBox="0 0 245 61" fill="none" xmlns="http://www.w3.org/2000/svg">
<path d="M2.4193 0.899996H5.6593L15.9193 44.76L26.3593 0.899996H29.7193L31.0993 49.5H28.2793L27.0793 8.76L17.1793 49.5H14.7793L4.9993 8.82L3.7993 49.5H0.9793L2.4193 0.899996ZM50.0495 50.04C46.7295 50.04 44.4495 49 43.2095 46.92C41.9695 44.8 41.3495 41.44 41.3495 36.84V27.48C41.3495 22.92 41.9695 19.58 43.2095 17.46C44.4495 15.34 46.7295 14.28 50.0495 14.28C53.3695 14.28 55.6495 15.34 56.8895 17.46C58.1695 19.54 58.8095 22.88 58.8095 27.48V36.84C58.8095 41.44 58.1695 44.8 56.8895 46.92C55.6495 49 53.3695 50.04 50.0495 50.04ZM50.0495 47.64C51.6495 47.64 52.8495 47.24 53.6495 46.44C54.4895 45.6 55.0295 44.44 55.2695 42.96C55.5095 41.48 55.6295 39.48 55.6295 36.96V27.36C55.6295 24.84 55.5095 22.84 55.2695 21.36C55.0295 19.88 54.4895 18.74 53.6495 17.94C52.8495 17.1 51.6495 16.68 50.0495 16.68C48.4495 16.68 47.2495 17.1 46.4495 17.94C45.6495 18.74 45.1295 19.88 44.8895 21.36C44.6495 22.8 44.5295 24.8 44.5295 27.36V36.96C44.5295 39.52 44.6495 41.54 44.8895 43.02C45.1295 44.46 45.6495 45.6 46.4495 46.44C47.2495 47.24 48.4495 47.64 50.0495 47.64ZM78.1182 50.04C75.7182 50.04 73.5982 48.9 71.7582 46.62V49.5H68.5782V0.899996H71.7582V17.76C72.4782 16.76 73.3982 15.94 74.5182 15.3C75.6782 14.62 76.9782 14.28 78.4182 14.28C81.4182 14.28 83.4782 15.48 84.5982 17.88C85.7182 20.24 86.2782 23.8 86.2782 28.56V35.22C86.2782 40.3 85.6582 44.04 84.4182 46.44C83.2182 48.84 81.1182 50.04 78.1182 50.04ZM77.6982 47.58C79.1382 47.58 80.2382 47.16 80.9982 46.32C81.7582 45.48 82.2782 44.2 82.5582 42.48C82.8782 40.72 83.0382 38.34 83.0382 35.34V28.56C83.0382 25.6 82.8982 23.3 82.6182 21.66C82.3782 19.98 81.8782 18.74 81.1182 17.94C80.3582 17.14 79.2382 16.74 77.7582 16.74C75.7182 16.74 73.7182 17.82 71.7582 19.98V44.46C73.5182 46.54 75.4982 47.58 77.6982 47.58ZM96.5059 4.74H99.7459V10.26H96.5059V4.74ZM96.5059 14.82H99.7459V49.5H96.5059V14.82ZM111.593 0.899996H114.773V49.5H111.593V0.899996ZM133.886 50.04C131.926 50.04 130.306 49.66 129.026 48.9C127.746 48.14 126.766 46.78 126.086 44.82C125.406 42.86 125.066 40.14 125.066 36.66V27.42C125.066 23.94 125.406 21.24 126.086 19.32C126.806 17.4 127.806 16.08 129.086 15.36C130.366 14.64 131.986 14.28 133.946 14.28C136.106 14.28 137.806 14.74 139.046 15.66C140.286 16.58 141.166 18.04 141.686 20.04C142.206 22 142.466 24.68 142.466 28.08V31.38H128.246V36.9C128.246 39.66 128.426 41.82 128.786 43.38C129.186 44.94 129.786 46.04 130.586 46.68C131.386 47.32 132.486 47.64 133.886 47.64C135.526 47.64 136.846 47.18 137.846 46.26C138.846 45.3 139.346 43.34 139.346 40.38V37.8H142.466V40.08C142.466 43.28 141.806 45.74 140.486 47.46C139.206 49.18 137.006 50.04 133.886 50.04ZM139.346 29.46V26.76C139.346 24.4 139.226 22.52 138.986 21.12C138.746 19.72 138.226 18.64 137.426 17.88C136.666 17.08 135.506 16.68 133.946 16.68C132.586 16.68 131.486 16.96 130.646 17.52C129.846 18.08 129.246 19.1 128.846 20.58C128.446 22.06 128.246 24.14 128.246 26.82V29.46H139.346ZM175.727 0.899996H179.507L189.767 49.5H186.467L183.947 36.06H171.347L168.767 49.5H165.527L175.727 0.899996ZM183.527 33.66L177.647 4.86L171.827 33.66H183.527ZM198.694 14.82H201.874V17.76C203.714 15.44 205.934 14.28 208.534 14.28C211.534 14.28 213.594 15.48 214.714 17.88C215.834 20.24 216.394 23.8 216.394 28.56V35.22C216.394 40.3 215.774 44.04 214.534 46.44C213.334 48.84 211.234 50.04 208.234 50.04C205.834 50.04 203.714 48.9 201.874 46.62V60.9H198.694V14.82ZM207.874 47.58C209.314 47.58 210.414 47.16 211.174 46.32C211.934 45.48 212.454 44.18 212.734 42.42C213.054 40.66 213.214 38.3 213.214 35.34V28.56C213.214 25.6 213.074 23.3 212.794 21.66C212.514 19.98 211.994 18.74 211.234 17.94C210.474 17.14 209.354 16.74 207.874 16.74C205.834 16.74 203.834 17.82 201.874 19.98V44.46C202.634 45.38 203.534 46.14 204.574 46.74C205.614 47.3 206.714 47.58 207.874 47.58ZM226.317 14.82H229.497V17.76C231.337 15.44 233.557 14.28 236.157 14.28C239.157 14.28 241.217 15.48 242.337 17.88C243.457 20.24 244.017 23.8 244.017 28.56V35.22C244.017 40.3 243.397 44.04 242.157 46.44C240.957 48.84 238.857 50.04 235.857 50.04C233.457 50.04 231.337 48.9 229.497 46.62V60.9H226.317V14.82ZM235.497 47.58C236.937 47.58 238.037 47.16 238.797 46.32C239.557 45.48 240.077 44.18 240.357 42.42C240.677 40.66 240.837 38.3 240.837 35.34V28.56C240.837 25.6 240.697 23.3 240.417 21.66C240.137 19.98 239.617 18.74 238.857 17.94C238.097 17.14 236.977 16.74 235.497 16.74C233.457 16.74 231.457 17.82 229.497 19.98V44.46C230.257 45.38 231.157 46.14 232.197 46.74C233.237 47.3 234.337 47.58 235.497 47.58Z" fill="#EED480"/>
</svg>
